<?xml version="1.0" encoding="UTF-8" standalone="no"?>
<svg width="16px" height="16px" viewBox="0 0 16 16" version="1.1" xmlns="http://www.w3.org/2000/svg" xmlns:xlink="http://www.w3.org/1999/xlink" xmlns:sketch="http://www.bohemiancoding.com/sketch/ns">
    <!-- Generator: Sketch 3.1.1 (8761) - http://www.bohemiancoding.com/sketch -->
    <title>Vector 1</title>
    <desc>Created with Sketch.</desc>
    <defs></defs>
    <g id="Page-1" stroke="none" stroke-width="1" fill="none" fill-rule="evenodd" sketch:type="MSPage">
        <path d="M13,13 L3,13 L3,3 L8,3 L8,1 L3,1 C1.7,1 1,1.7 1,3 L1,13 C1,14.3 1.7,15 3,15 L13,15 C14.3,15 15,14.3 15,13 L15,8 L13,8 L13,13 L13,13 Z M10,1 L10,3 L12,3 L5,10 L6,11 L13,4 L13,6 L15,6 L15,1 L10,1 L10,1 Z" id="Shape" fill="#999999" sketch:type="MSShapeGroup"></path>
    </g>
</svg>