<?xml version="1.0" encoding="UTF-8" standalone="no"?>
<!DOCTYPE svg  PUBLIC '-//W3C//DTD SVG 1.1//EN'  'http://www.w3.org/Graphics/SVG/1.1/DTD/svg11.dtd'>
<svg xmlns="http://www.w3.org/2000/svg">
<defs>
<font id="FaktPro-Normal" horiz-adv-x="568">
<font-face underline-position="0" font-weight="400" descent="-200" panose-1="2 0 0 0 0 0 0 0 0 0" units-per-em="1000" unicode-range="U+0020-25CA" bbox="-172 -248 1100 976" x-height="488" underline-thickness="0" font-family="FaktPro" ascent="800" cap-height="688"/>
<missing-glyph horiz-adv-x="1000"/>
<glyph glyph-name=".notdef" horiz-adv-x="1000"/>
<glyph glyph-name=".null" horiz-adv-x="0"/>
<glyph glyph-name="nonmarkingreturn" horiz-adv-x="333"/>
<glyph glyph-name="space" horiz-adv-x="220" unicode=" "/>
<glyph glyph-name="exclam" horiz-adv-x="280" unicode="!" d="M88 0v108h104v-108h-104zM116 192l-28 304v192h104v-192l-28 -304h-48z"/>
<glyph glyph-name="quotedbl" horiz-adv-x="392" unicode='&quot;' d="M256 436l-16 168v84h88v-84l-16 -168h-56zM80 436l-16 168v84h88v-84l-16 -168h-56z"/>
<glyph glyph-name="numbersign" horiz-adv-x="616" unicode="#" d="M255 456l-38 -220h144l38 220h-144zM60 456v68h127l29 164h80l-29 -164h144l29 164h80l-29 -164h105v-68h-117l-38 -220h115v-68h-127l-29 -168h-80l29 168h-144l-29 -168h-80l29 168h-105v68h117l38 220h-115z"/>
<glyph glyph-name="dollar" d="M44 192h88q2 -31 13.5 -55.5t31.5 -41.5t46 -26t57 -9q33 0 59.5 8.5t45.5 24.5t29 39t10 52q0 25 -8.5 43t-24 31t-37.5 22.5t-54 19.5l-88 28q-29 9 -55 23.5t-48 36.5t-35.5 53t-13.5 71q0 37 13 68t36.5 55t56 39.5t70.5 21.5v108h88v-108q36 -6 67 -20.5t54.5 -38 t37.5 -54t17 -67.5h-88q-4 28 -15.5 49.5t-29 35t-39.5 20.5t-48 7t-49.5 -6.5t-41 -20.5t-27.5 -34t-10 -47q0 -25 7 -42.5t21.5 -30.5t35.5 -23t52 -20l88 -28q41 -13 70.5 -30.5t49.5 -40.5t30 -52t10 -65q0 -41 -14 -75t-39.5 -59.5t-61 -41.5t-77.5 -21v-111h-88v111 q-42 6 -77 22t-60 42t-39.5 60.5t-15.5 76.5z" unicode="$"/>
<glyph glyph-name="percent" horiz-adv-x="776" unicode="%" d="M600 52q18 0 31.5 8t22.5 23t13.5 37.5t4.5 51.5t-4.5 51.5t-13.5 38t-22.5 23t-31.5 7.5t-31.5 -8t-22.5 -23t-13.5 -37.5t-4.5 -51.5t5 -51.5t14 -37.5t22.5 -23t30.5 -8zM176 396q18 0 31.5 8t22.5 23t13.5 37.5t4.5 51.5t-4.5 51.5t-13.5 38t-22.5 23t-31.5 7.5 t-31.5 -8t-22.5 -23t-13.5 -37.5t-4.5 -51.5t5 -51.5t14 -37.5t22.5 -23t30.5 -8zM180 -12l348 712h68l-348 -712h-68zM600 -8q-38 0 -66 13.5t-46 38t-27 57.5t-9 71t9 71t27 57.5t46 38t66 13.5t66 -13.5t46.5 -38t27 -57.5t8.5 -71t-8.5 -71t-27 -57.5t-46.5 -38 t-66 -13.5zM176 336q-38 0 -66 13.5t-46 38t-27 57.5t-9 71t9 71t27 57.5t46 38t66 13.5t66 -13.5t46.5 -38t27 -57.5t8.5 -71t-8.5 -71t-27 -57.5t-46.5 -38t-66 -13.5z"/>
<glyph glyph-name="ampersand" horiz-adv-x="712" unicode="&amp;" d="M204 540q0 -15 5 -29.5t14.5 -29t23.5 -30t35 -37.5q32 15 55 27t41 27t28 34t10 42q0 18 -6.5 34t-20 28t-33 19t-44.5 7q-26 0 -46.5 -7.5t-34.5 -20.5t-20.5 -29.5t-6.5 -34.5zM304 60q27 0 50.5 4t44 11.5t38 18.5t31.5 25l-210 211q-28 -14 -49.5 -27.5t-38 -30 t-25.5 -37.5t-9 -47q0 -30 12.5 -54t35.5 -40.5t53.5 -25t66.5 -8.5zM48 180q0 38 12.5 69t34.5 54.5t49.5 41.5t62.5 35q-23 24 -38.5 43t-25 36.5t-14.5 36t-5 40.5q0 32 12.5 61.5t36.5 52.5t59.5 36.5t79.5 13.5q43 0 78 -11.5t59.5 -32t37.5 -49.5t13 -63 q0 -35 -13.5 -62.5t-36 -48.5t-51 -36.5t-66.5 -32.5l180 -182q8 17 13.5 35t9.5 37.5t6 40t2 41.5v8h80v-20q0 -19 -2.5 -42.5t-9 -50t-17 -54t-26.5 -53.5l123 -124h-104l-66 66q-19 -18 -41 -32t-49 -24.5t-59 -16t-69 -5.5q-60 0 -107.5 13.5t-81 39t-50.5 61t-17 78.5z "/>
<glyph glyph-name="quotesingle" horiz-adv-x="216" unicode="&apos;" d="M80 436l-16 168v84h88v-84l-16 -168h-56z"/>
<glyph glyph-name="parenleft" horiz-adv-x="284" unicode="(" d="M24 260q0 76 15 148t39 134.5t52.5 112.5t57.5 89h80q-24 -31 -51 -80.5t-52 -114t-41 -139.5t-16 -150t16.5 -150t41.5 -140.5t52 -115.5t50 -82h-80q-29 38 -57.5 89t-52.5 114t-39 136t-15 149z"/>
<glyph glyph-name="parenright" horiz-adv-x="284" unicode=")" d="M16 -228q23 32 50 82t52 115.5t41.5 140.5t16.5 150t-16 150t-41 139.5t-52 114t-51 80.5h80q29 -39 57.5 -89t52.5 -112.5t39 -134.5t15 -148t-15 -149t-39 -136t-52.5 -114t-57.5 -89h-80z"/>
<glyph glyph-name="asterisk" horiz-adv-x="456" unicode="*" d="M192 696h72l-17 -134l122 58l22 -69l-131 -26l91 -97l-58 -42l-66 116l-64 -116l-58 42l90 98l-130 25l22 69l121 -57z"/>
<glyph glyph-name="plus" d="M56 216v76h188v188h80v-188h188v-76h-188v-188h-80v188h-188z" unicode="+"/>
<glyph glyph-name="comma" horiz-adv-x="264" unicode="," d="M124 0h-48v116h112v-108l-44 -164h-52z"/>
<glyph glyph-name="hyphen" horiz-adv-x="396" unicode="-" d="M60 212v80h276v-80h-276z"/>
<glyph glyph-name="period" horiz-adv-x="264" unicode="." d="M76 0v116h112v-116h-112z"/>
<glyph glyph-name="slash" horiz-adv-x="400" unicode="/" d="M8 -12l308 712h76l-308 -712h-76z"/>
<glyph glyph-name="zero" d="M284 68q37 0 65 18t46.5 53.5t27.5 87t9 117.5t-9 117.5t-27.5 87t-46.5 53.5t-65 18q-38 0 -66 -18t-46.5 -53.5t-27 -86.5t-8.5 -118q0 -66 9 -117.5t27.5 -87t46.5 -53.5t65 -18zM284 -12q-63 0 -109 26.5t-75 75t-42.5 113t-13.5 141.5t13.5 141.5t42.5 113t75 75 t109 26.5t109 -26.5t75 -75t42.5 -113t13.5 -141.5t-13.5 -141.5t-42.5 -113t-75 -75t-109 -26.5z" unicode="0"/>
<glyph glyph-name="one" d="M100 468l-40 68l220 152h68v-612h164v-76h-428v76h176v503z" unicode="1"/>
<glyph glyph-name="two" d="M56 0q2 57 13.5 100.5t32.5 77t50.5 61.5t71.5 57l76 52q38 26 54.5 38.5t31 29t22.5 38t8 50.5q0 22 -7.5 43t-23 38.5t-40 28t-57.5 10.5t-58 -9t-42 -26.5t-27 -43.5t-13 -61h-80q3 59 22 101t49.5 67.5t68 36.5t80.5 11q47 0 86.5 -13.5t68.5 -39t45 -62t16 -81.5 q0 -43 -12.5 -75t-33 -55t-37.5 -36t-65 -46l-76 -52q-37 -25 -61.5 -48t-37.5 -43t-18 -37t-7 -36h356v-76h-456z" unicode="2"/>
<glyph glyph-name="three" d="M48 208h84q0 -36 11 -63t31 -45t47 -27t59 -9t59.5 8.5t47 25t30.5 40t11 53.5q0 29 -11.5 52.5t-32 40t-47.5 25.5t-57 9h-52v76h52q25 0 48 8.5t40 24.5t26.5 38t9.5 48t-9.5 47t-26.5 35t-39.5 21.5t-48.5 7.5t-48.5 -7.5t-39.5 -23t-26.5 -39t-9.5 -54.5h-80 q0 45 14.5 82t41.5 63.5t65 40.5t83 14q46 0 85 -13.5t66.5 -38.5t42 -59.5t14.5 -74.5q0 -24 -8 -48.5t-22 -46t-32.5 -37t-37.5 -22.5v-4q27 -7 50.5 -23t41 -39t27 -51t9.5 -59q0 -45 -18 -81.5t-50.5 -62t-75.5 -39t-92 -13.5q-53 0 -95.5 13.5t-73 41t-47 69 t-16.5 96.5z" unicode="3"/>
<glyph glyph-name="four" d="M122 248h226v303zM32 172v64l332 452h72v-440h100v-76h-100v-172h-88v172h-316z" unicode="4"/>
<glyph glyph-name="five" d="M48 184h88q3 -23 13.5 -44.5t28.5 -38.5t45 -27t61 -10q29 0 55.5 9.5t47.5 28.5t33 47t12 63t-11 63.5t-31 48t-47.5 30t-58.5 10.5q-20 0 -38 -4.5t-34 -13t-30.5 -21t-29.5 -29.5l-80 4l20 388h388v-80h-308l-12 -216h4q11 11 24.5 19.5t30 15t36 10t41.5 3.5 q46 0 87 -15t71.5 -43.5t48 -70t17.5 -91.5q0 -56 -19.5 -100t-52.5 -73.5t-75.5 -44t-88.5 -14.5q-52 0 -94 14t-72 39.5t-48 62t-22 80.5z" unicode="5"/>
<glyph glyph-name="six" d="M304 364q-32 0 -59.5 -11t-48.5 -31.5t-32.5 -48t-11.5 -58.5q0 -32 10.5 -59.5t30 -48t46 -32t57.5 -11.5t58 10t47 29.5t31.5 48t11.5 64.5q0 32 -11 59.5t-30.5 47.5t-45 30.5t-53.5 10.5zM48 328q0 100 21.5 172t58 116t82.5 64t98 20q48 0 85.5 -13.5t63 -37.5 t40 -58t19.5 -75h-88q-3 24 -11 43t-22.5 34t-36 23t-50.5 8q-32 0 -61 -15t-52.5 -47.5t-38 -85.5t-16.5 -127q10 21 28.5 37.5t42.5 28.5t51 18.5t54 6.5q48 0 87.5 -15.5t68.5 -45.5t44.5 -71.5t15.5 -91.5q0 -53 -19 -96t-51.5 -72.5t-74.5 -44.5t-87 -15 q-53 0 -98.5 18.5t-80 58.5t-54 105.5t-19.5 157.5z" unicode="6"/>
<glyph glyph-name="seven" d="M140 0l288 608h-376v80h472v-64l-292 -624h-92z" unicode="7"/>
<glyph glyph-name="eight" d="M284 394q27 0 50.5 8.5t41 24.5t27 38t9.5 48t-9.5 47.5t-27 36.5t-41 23t-50.5 8t-50.5 -8t-41 -23t-27 -36.5t-9.5 -47.5t9.5 -48t27 -38t41 -24.5t50.5 -8.5zM132 191q0 -30 11 -53.5t31.5 -40t48.5 -25t61 -8.5t61 8.5t48.5 25t31.5 40t11 53.5q0 28 -11.5 51.5 t-32.5 40.5t-48.5 26t-59.5 9t-59.5 -9t-48.5 -26t-32.5 -40.5t-11.5 -51.5zM44 184q0 31 9.5 59t27 51t41 39t50.5 23v4q-21 7 -39 22.5t-32 36.5t-21.5 45.5t-7.5 49.5q0 40 15 74.5t42.5 59.5t67 38.5t87.5 13.5t87.5 -13.5t67 -38.5t42.5 -59.5t15 -74.5 q0 -25 -7.5 -49.5t-21.5 -45.5t-32 -36.5t-39 -22.5v-4q27 -7 50.5 -23t41 -39t27 -51t9.5 -59q0 -45 -17 -82t-49 -62t-76.5 -38.5t-97.5 -13.5t-97.5 13.5t-76.5 38.5t-49 62t-17 82z" unicode="8"/>
<glyph glyph-name="nine" d="M264 324q32 0 59.5 11t48.5 31.5t32.5 48t11.5 58.5t-11 59t-30.5 48.5t-46 32t-56.5 11.5t-56.5 -10t-47 -29.5t-32.5 -48t-12 -64.5q0 -32 11 -59.5t30.5 -47.5t45 -30.5t53.5 -10.5zM520 360q0 -101 -18.5 -173t-52.5 -115.5t-79.5 -63.5t-101.5 -20q-50 0 -88 13 t-64.5 37.5t-42 58t-21.5 75.5h88q5 -23 14 -42t24 -34t37.5 -23.5t52.5 -8.5q36 0 64.5 14.5t49.5 47t33 85.5t13 127q-10 -20 -28.5 -37t-42.5 -28.5t-51 -18t-54 -6.5q-48 0 -87.5 15.5t-68.5 45.5t-44.5 71.5t-15.5 91.5q0 53 19 96t51.5 72.5t74.5 44.5t87 15 q53 0 98.5 -18.5t80 -58.5t54 -105.5t19.5 -157.5z" unicode="9"/>
<glyph glyph-name="colon" horiz-adv-x="264" unicode=":" d="M76 0v116h112v-116h-112zM76 372v116h112v-116h-112z"/>
<glyph glyph-name="semicolon" horiz-adv-x="264" unicode=";" d="M124 0h-48v116h112v-108l-44 -164h-52zM76 372v116h112v-116h-112z"/>
<glyph glyph-name="less" d="M72 216v76l424 180v-80l-335 -136l335 -136v-84z" unicode="&lt;"/>
<glyph glyph-name="equal" d="M56 112v76h456v-76h-456zM56 320v76h456v-76h-456z" unicode="="/>
<glyph glyph-name="greater" d="M496 292v-76l-424 -180v80l335 136l-335 136v84z" unicode="&gt;"/>
<glyph glyph-name="question" horiz-adv-x="504" unicode="?" d="M196 0v108h104v-108h-104zM204 196v28q0 63 22.5 101t67.5 74t63.5 57t18.5 60q0 23 -8 42.5t-23.5 34.5t-37 23t-47.5 8q-33 0 -58 -11t-41.5 -31t-24.5 -46t-8 -56h-88q0 43 13.5 82.5t41 70.5t69 49t96.5 18q45 0 83.5 -12.5t66.5 -36t43 -57t15 -74.5 q0 -55 -23 -88.5t-67.5 -68.5t-65 -60t-20.5 -67v-40h-88z"/>
<glyph glyph-name="at" horiz-adv-x="1032" unicode="@" d="M620 204v47q-4 -4 -9 -8t-11.5 -6.5t-14.5 -4.5t-17 -4l-96 -16q-23 -4 -39 -11t-26 -17t-14.5 -23t-4.5 -29q0 -17 6 -31t18 -24t29.5 -15.5t38.5 -5.5q29 0 54.5 9t44.5 28t30 47t11 64zM300 128q0 29 9 53t28.5 43t50 32t72.5 20l96 16q21 3 32 6t18 6.5t10.5 9 t3.5 14.5q0 24 -6 42.5t-19 31.5t-32.5 19.5t-46.5 6.5t-47 -6t-34 -18t-21.5 -29t-9.5 -39h-84q2 35 15.5 64.5t38 52t59.5 35t79 12.5q49 0 86 -12.5t61.5 -36t36.5 -57.5t12 -78v-151q0 -33 6.5 -55.5t18 -35t25.5 -17.5t30 -5q23 0 44 13t38.5 40t27.5 69.5t10 97.5 q0 83 -29 151t-81.5 115.5t-123.5 72.5t-154 25q-89 0 -162.5 -30.5t-126 -86t-80 -129.5t-27.5 -158t27.5 -156.5t78.5 -126.5t122 -83.5t156 -29.5q30 0 59.5 4.5t57 14t52 24t43.5 33.5h100q-27 -34 -60.5 -60t-73 -44t-84.5 -27t-94 -9q-101 0 -186 34.5t-146.5 97.5 t-94.5 147t-33 181t33.5 182.5t96 149.5t150 100t192.5 36q99 0 184 -30t148 -86.5t97.5 -136t34.5 -175.5q0 -72 -16.5 -126t-45.5 -88t-65.5 -50t-76.5 -16q-24 0 -45 4t-39.5 13.5t-32.5 25.5t-23 39q-13 -23 -31.5 -39.5t-41 -27t-48.5 -15t-55 -4.5q-38 0 -69 10 t-52 29t-32 44.5t-11 56.5z"/>
<glyph glyph-name="A" horiz-adv-x="644" unicode="A" d="M322 592h-4l-120 -332h244zM12 0l256 688h108l256 -688h-96l-65 180h-302l-65 -180h-92z"/>
<glyph glyph-name="B" horiz-adv-x="664" unicode="B" d="M368 608h-192v-212h192q31 0 55 8.5t40.5 24t24.5 36t8 44.5q0 23 -7 41t-22.5 31t-40 20t-58.5 7zM388 316h-212v-236h212q34 0 59.5 9t42.5 25.5t25.5 39t8.5 49.5q0 24 -8.5 45t-25.5 36t-42.5 23.5t-59.5 8.5zM84 0v688h284q55 0 96.5 -12t69 -35.5t41 -56.5 t13.5 -76q0 -25 -7 -47t-20.5 -41t-33.5 -33.5t-47 -22.5v-4q31 -6 56 -19.5t43 -34t27.5 -46.5t9.5 -56q0 -44 -15 -81.5t-44 -65t-71.5 -42.5t-97.5 -15h-304z"/>
<glyph glyph-name="C" horiz-adv-x="712" unicode="C" d="M44 344q0 76 24 141.5t68.5 113.5t105.5 74.5t134 26.5q59 0 108.5 -16.5t87 -46.5t61.5 -72t35 -93h-95q-10 35 -27 62t-41.5 45t-57 27.5t-71.5 9.5q-52 0 -95.5 -19.5t-75 -56t-48.5 -87t-17 -109.5q0 -58 17 -108t48 -87t73.5 -57t93.5 -20q42 0 75.5 9.5t58 27.5 t41 45t26.5 62h95q-11 -51 -35.5 -93t-63 -72t-88.5 -46.5t-109 -16.5q-71 0 -131.5 26t-104.5 73.5t-68 113.5t-24 143z"/>
<glyph glyph-name="D" horiz-adv-x="704" unicode="D" d="M300 608h-120v-528h120q70 0 121 21t82.5 57.5t46 83.5t14.5 102t-14.5 102t-46 83.5t-82.5 57.5t-121 21zM88 0v688h212q87 0 155 -25t113.5 -71t68.5 -109t23 -139t-23 -139t-68.5 -109t-113.5 -71t-155 -25h-212z"/>
<glyph glyph-name="E" horiz-adv-x="612" unicode="E" d="M88 0v688h464v-80h-372v-218h296v-80h-296v-230h380v-80h-472z"/>
<glyph glyph-name="F" horiz-adv-x="576" unicode="F" d="M88 0v688h456v-80h-364v-240h288v-80h-288v-288h-92z"/>
<glyph glyph-name="G" horiz-adv-x="760" unicode="G" d="M624 0l-16 100h-3q-18 -29 -41 -50t-51 -35t-61 -20.5t-72 -6.5q-73 0 -135 26.5t-107 74.5t-69.5 113.5t-24.5 141.5t24.5 141.5t70 113.5t108.5 74.5t137 26.5q60 0 110.5 -16t89 -45.5t64 -69t36.5 -85.5h-96q-9 28 -25.5 51.5t-42 41.5t-60 28.5t-76.5 10.5 q-55 0 -100 -20t-77.5 -57t-49.5 -87t-17 -108t17.5 -108t49.5 -87t76.5 -57t96.5 -20q44 0 83.5 12.5t70.5 37.5t48.5 61t17.5 81v20h-216v80h300v-364h-60z"/>
<glyph glyph-name="H" horiz-adv-x="728" unicode="H" d="M88 0v688h92v-300h368v300h92v-688h-92v308h-368v-308h-92z"/>
<glyph glyph-name="I" horiz-adv-x="268" unicode="I" d="M88 0v688h92v-688h-92z"/>
<glyph glyph-name="J" horiz-adv-x="512" unicode="J" d="M36 196v32h92v-24q0 -36 8 -62t22.5 -42.5t34 -24t43.5 -7.5t43.5 7.5t34 24t22.5 42.5t8 62v484h92v-492q0 -55 -14.5 -95t-41 -65t-63 -36.5t-81.5 -11.5t-81.5 11.5t-63 36.5t-41 65t-14.5 95z"/>
<glyph glyph-name="K" horiz-adv-x="652" unicode="K" d="M88 0v688h92v-370l344 370h108l-283 -299l295 -389h-104l-252 325l-108 -115v-210h-92z"/>
<glyph glyph-name="L" horiz-adv-x="544" unicode="L" d="M88 0v688h92v-608h336v-80h-428z"/>
<glyph glyph-name="M" horiz-adv-x="904" unicode="M" d="M88 0v688h112l253 -564h2l249 564h112v-688h-92l8 544h-4l-240 -544h-72l-240 532h-4l8 -532h-92z"/>
<glyph glyph-name="N" horiz-adv-x="736" unicode="N" d="M88 0v688h88l380 -532h4l-4 532h92v-688h-88l-380 528h-4l4 -528h-92z"/>
<glyph glyph-name="O" horiz-adv-x="760" unicode="O" d="M140 344q0 -58 17 -108t49 -87t76.5 -57t97.5 -20t97.5 20t76.5 57t49 87t17 108t-17 108t-49 87t-76.5 57t-97.5 20t-97.5 -20t-76.5 -57t-49 -87t-17 -108zM44 344q0 76 24 141.5t69 113.5t107 74.5t136 26.5q73 0 135 -26.5t107 -74.5t69.5 -113.5t24.5 -141.5 t-24.5 -141.5t-69.5 -113.5t-107 -74.5t-135 -26.5q-74 0 -136 26.5t-107 74.5t-69 113.5t-24 141.5z"/>
<glyph glyph-name="P" horiz-adv-x="636" unicode="P" d="M352 608h-172v-288h172q36 0 64 11.5t47 32t28 47t9 57.5q0 30 -9 55.5t-27.5 44.5t-46.5 29.5t-65 10.5zM88 0v688h260q58 0 103.5 -16t77 -45.5t47.5 -70t16 -88.5q0 -49 -16 -90.5t-47.5 -72.5t-77 -48t-103.5 -17h-168v-240h-92z"/>
<glyph glyph-name="Q" horiz-adv-x="764" unicode="Q" d="M140 344q0 -58 17 -108t49 -87t76.5 -57t97.5 -20t97.5 20t76.5 57t49 87t17 108t-17 108t-49 87t-76.5 57t-97.5 20t-97.5 -20t-76.5 -57t-49 -87t-17 -108zM44 344q0 76 24 141.5t69 113.5t107 74.5t136 26.5q73 0 135 -26.5t107 -74.5t69.5 -113.5t24.5 -141.5 q0 -41 -7 -79t-21 -72t-34 -63.5t-45 -53.5l131 -136l-64 -64l-140 148q-17 -9 -35.5 -15.5t-38 -11t-40 -7t-42.5 -2.5q-74 0 -136 26.5t-107 74.5t-69 113.5t-24 141.5z"/>
<glyph glyph-name="R" horiz-adv-x="652" unicode="R" d="M352 608h-172v-260h172q35 0 62 10.5t45.5 29t27.5 43t9 53.5q0 28 -9.5 51t-28 39.5t-45.5 25t-61 8.5zM88 0v688h260q58 0 103 -13.5t75.5 -40t46 -64.5t15.5 -86q0 -38 -9.5 -71t-29 -59.5t-47.5 -45.5t-65 -29l175 -279h-100l-171 268h-161v-268h-92z"/>
<glyph glyph-name="S" horiz-adv-x="648" unicode="S" d="M56 196h92q0 -28 11.5 -52t34 -42t54.5 -28t72 -10q42 0 74.5 8.5t55.5 25t34.5 40.5t11.5 54q0 27 -12 46t-33 31.5t-48 20.5t-63 14l-44 8q-51 9 -89 20t-70.5 31.5t-51.5 54t-19 82.5q0 43 18 80t51.5 64t80.5 41.5t104 14.5q55 0 101.5 -13.5t80 -39t52 -62 t18.5 -81.5h-92q0 28 -12 50.5t-33.5 38t-50.5 23.5t-64 8q-34 0 -63 -7.5t-51 -22t-34 -36.5t-12 -50t13 -47t35.5 -31t51 -19.5t68.5 -14.5l44 -8q49 -9 86 -20.5t67.5 -32.5t48.5 -55t18 -84q0 -46 -18.5 -84.5t-53.5 -66t-85.5 -42.5t-114.5 -15q-62 0 -111.5 15 t-83.5 42.5t-51.5 66t-17.5 84.5z"/>
<glyph glyph-name="T" horiz-adv-x="588" unicode="T" d="M8 610v78h572v-78h-240v-610h-92v610h-240z"/>
<glyph glyph-name="U" horiz-adv-x="696" unicode="U" d="M72 272v416h92v-416q0 -48 11.5 -85t34 -62.5t57.5 -39t81 -13.5t81 13.5t57.5 39t34 62.5t11.5 85v416h92v-416q0 -75 -19.5 -129.5t-56.5 -88.5t-87 -50t-113 -16t-113 16t-87 50t-56.5 88.5t-19.5 129.5z"/>
<glyph glyph-name="V" horiz-adv-x="620" unicode="V" d="M258 0l-250 688h96l206 -592h4l206 592h92l-252 -688h-102z"/>
<glyph glyph-name="W" horiz-adv-x="936" unicode="W" d="M196 0l-184 688h96l146 -592h4l158 592h112l158 -592h4l142 592h92l-180 -688h-116l-156 584h-4l-156 -584h-116z"/>
<glyph glyph-name="X" horiz-adv-x="596" unicode="X" d="M8 0l237 351l-229 337h104l177 -264l175 264h100l-225 -334l241 -354h-104l-189 281l-187 -281h-100z"/>
<glyph glyph-name="Y" horiz-adv-x="608" unicode="Y" d="M256 0v270l-244 418h104l186 -324h4l194 324h96l-248 -411v-277h-92z"/>
<glyph glyph-name="Z" horiz-adv-x="584" unicode="Z" d="M56 610v78h492v-60l-397 -550h393v-78h-508v60l397 550h-377z"/>
<glyph glyph-name="bracketleft" horiz-adv-x="332" unicode="[" d="M168 -156h148v-72h-228v972h228v-72h-148v-828z"/>
<glyph glyph-name="backslash" horiz-adv-x="400" unicode="\" d="M316 -12l-308 712h76l308 -712h-76z"/>
<glyph glyph-name="bracketright" horiz-adv-x="332" unicode="]" d="M16 -156h148v828h-148v72h228v-972h-228v72z"/>
<glyph glyph-name="asciicircum" d="M54 352l188 336h88l188 -336h-92l-142 265l-142 -265h-88z" unicode="^"/>
<glyph glyph-name="underscore" horiz-adv-x="500" unicode="_" d="M0 -72h500v-68h-500v68z"/>
<glyph glyph-name="grave" horiz-adv-x="560" unicode="`" d="M248 568l-144 164h104l104 -164h-64z"/>
<glyph glyph-name="a" horiz-adv-x="524" unicode="a" d="M368 204v47q-4 -4 -9 -8t-11.5 -6.5t-14.5 -4.5t-17 -4l-92 -16q-24 -4 -40.5 -11t-27 -17t-15.5 -23t-5 -29t5.5 -29t17 -23t29 -15t40.5 -5q29 0 54.5 9t44.5 27.5t30 45.5t11 62zM48 124q0 31 9 55t28.5 43t49.5 32t73 20l96 16q21 4 33 7t18.5 7t9.5 9.5t3 14.5 q0 22 -6.5 40.5t-19.5 32t-33 20.5t-45 7q-26 0 -46.5 -6.5t-34.5 -19t-21.5 -29.5t-9.5 -37h-84q2 35 15.5 65t38.5 52t61 34.5t81 12.5q47 0 83.5 -12t60.5 -35.5t36 -57t12 -75.5v-320h-84v65h-4q-10 -19 -26 -33.5t-36 -24t-43.5 -14.5t-50.5 -5q-38 0 -69 9.5t-52 27.5 t-32 43t-11 56z"/>
<glyph glyph-name="b" horiz-adv-x="584" unicode="b" d="M164 244q0 -42 11 -76t30.5 -57t46 -35t56.5 -12t56.5 12.5t46 36.5t30.5 58.5t11 76.5t-11 75.5t-30.5 55.5t-46 33.5t-56.5 11.5q-29 0 -55 -11.5t-45.5 -33.5t-31 -54t-12.5 -73v-8zM76 0v732h88v-156v-35t-0.5 -37.5t-1.5 -45.5t-2 -46h4q12 23 29 40t38.5 27.5 t46 15.5t50.5 5q47 0 86.5 -17t68.5 -49.5t45 -79.5t16 -106t-17 -107t-48 -82.5t-72 -52.5t-87 -18q-26 0 -49 5t-43 15.5t-36 27t-28 40.5h-4v-76h-84z"/>
<glyph glyph-name="c" horiz-adv-x="516" unicode="c" d="M40 244q0 57 17.5 104.5t49 81.5t74 52t91.5 18q46 0 83.5 -13t64.5 -36.5t43 -56t21 -70.5h-88q-4 22 -13 40t-24.5 31.5t-37 21t-49.5 7.5q-30 0 -55.5 -13t-44.5 -37t-29.5 -57t-10.5 -73t10.5 -73t29.5 -57t44.5 -37t55.5 -13q28 0 49.5 7.5t37 21t24.5 31.5t13 40 h88q-5 -38 -21 -70.5t-43 -56t-64.5 -36.5t-83.5 -13q-53 0 -96.5 18t-73.5 51.5t-46 81t-16 105.5z"/>
<glyph glyph-name="d" horiz-adv-x="584" unicode="d" d="M132 240q0 -42 11 -75.5t30.5 -55.5t46 -33.5t56.5 -11.5t56.5 12t46 35t30.5 57t11 76t-11 76t-30.5 57t-46 35t-56.5 12t-56.5 -12.5t-46 -36.5t-30.5 -58.5t-11 -76.5zM40 240q0 59 17 107t48 82.5t72 52.5t87 18q26 0 49 -5t43 -15.5t36 -27t28 -40.5h4q-1 22 -2 46 t-1.5 45.5t-0.5 37.5v35v156h88v-732h-84v76h-4q-12 -23 -29 -40t-38.5 -27.5t-46 -15.5t-50.5 -5q-47 0 -86.5 17t-68.5 49.5t-45 79.5t-16 106z"/>
<glyph glyph-name="e" horiz-adv-x="524" unicode="e" d="M272 424q-25 0 -47 -8.5t-39.5 -25t-30 -40t-18.5 -52.5h261q-3 33 -12.5 56.5t-25.5 39t-38 23t-50 7.5zM40 244q0 56 17.5 103.5t49 81.5t74 52.5t91.5 18.5q48 0 87.5 -15.5t68.5 -46t44.5 -73.5t15.5 -97v-36h-356q1 -38 12 -69t30 -53t44.5 -34t57.5 -12 q26 0 47 6.5t36 18.5t24 27t13 32h88q-5 -33 -22 -62t-44.5 -51t-63.5 -34.5t-78 -12.5q-56 0 -100.5 18t-74.5 51.5t-45.5 81t-15.5 105.5z"/>
<glyph glyph-name="f" horiz-adv-x="308" unicode="f" d="M96 0v416h-92v72h92v80q0 40 10.5 71t31 51.5t51.5 31t71 10.5h60v-76h-52q-24 0 -40 -6t-25.5 -17.5t-14 -28.5t-4.5 -40v-76h120v-72h-120v-416h-88z"/>
<glyph glyph-name="g" horiz-adv-x="584" unicode="g" d="M132 240q0 -42 11 -75.5t30.5 -55.5t46 -33.5t56.5 -11.5t56.5 12t46 35t30.5 57t11 76t-11 76t-30.5 57t-46 35t-56.5 12t-56.5 -12.5t-46 -36.5t-30.5 -58.5t-11 -76.5zM52 -60h84q0 -22 10 -40t27.5 -30.5t42 -19t52.5 -6.5q34 0 62 9.5t49 30t33 55.5t12 85v52h-4 q-12 -23 -29 -40t-38.5 -27.5t-46 -15.5t-50.5 -5q-47 0 -86.5 17t-68.5 49.5t-45 79.5t-16 106t17 107t48 82.5t72 52.5t87 18q26 0 49 -5t43 -15.5t36 -27t28 -40.5h4v76h84v-464q0 -67 -18.5 -115.5t-51.5 -78.5t-76 -44t-94 -14q-46 0 -85.5 11t-69 32.5t-45.5 53 t-16 71.5z"/>
<glyph glyph-name="h" horiz-adv-x="564" unicode="h" d="M76 0v732h88v-152v-35t-0.5 -37.5t-1.5 -45.5t-2 -46h4q10 21 25 36.5t34.5 26t42.5 16t50 5.5q38 0 70 -11t57 -35t39 -63.5t14 -94.5v-296h-88v284q0 38 -8 65t-22.5 43.5t-35 24t-46.5 7.5q-28 0 -52 -11.5t-42 -34t-28 -54t-10 -69.5v-255h-88z"/>
<glyph glyph-name="i" horiz-adv-x="240" unicode="i" d="M76 0v488h88v-488h-88zM72 632v100h96v-100h-96z"/>
<glyph glyph-name="j" horiz-adv-x="240" unicode="j" d="M76 -72v560h88v-576q0 -29 -7.5 -53t-23.5 -42t-42 -27.5t-63 -9.5h-32v76h24q16 0 26.5 4.5t17 13.5t9.5 22t3 32zM72 632v100h96v-100h-96z"/>
<glyph glyph-name="k" horiz-adv-x="504" unicode="k" d="M76 0v732h88v-479l212 235h104l-181 -195l201 -293h-104l-157 229l-75 -82v-147h-88z"/>
<glyph glyph-name="l" horiz-adv-x="240" unicode="l" d="M76 0v732h88v-732h-88z"/>
<glyph glyph-name="m" horiz-adv-x="864" unicode="m" d="M76 0v488h84v-72h4q10 21 25 36.5t34 26t41 16t48 5.5t49 -5.5t42.5 -17.5t35 -31t25.5 -45q12 26 28.5 44.5t36.5 30.5t44.5 18t54.5 6q36 0 66 -10.5t53 -34t36 -61.5t13 -90v-304h-88v292q0 36 -6 61t-18.5 40.5t-31 23t-44.5 7.5t-49.5 -12t-41 -34t-27.5 -54 t-10 -70v-254h-88v292q0 36 -6.5 61t-19 40.5t-31 23t-43.5 7.5q-26 0 -49.5 -12t-41 -34.5t-27.5 -54t-10 -70.5v-253h-88z"/>
<glyph glyph-name="n" horiz-adv-x="564" unicode="n" d="M76 0v488h84v-72h4q10 21 25 36.5t34.5 26t42.5 16t50 5.5q38 0 70 -11t57 -35t39 -63.5t14 -94.5v-296h-88v284q0 38 -8 65t-22.5 43.5t-35 24t-46.5 7.5q-28 0 -52 -12t-42 -34t-28 -54t-10 -71v-253h-88z"/>
<glyph glyph-name="o" horiz-adv-x="560" unicode="o" d="M132 244q0 -40 10.5 -73.5t30.5 -57t47 -36.5t60 -13t60 13t47 36.5t30.5 57t10.5 73.5q0 41 -10.5 74.5t-30.5 57t-47 36t-60 12.5t-60 -13t-47 -36.5t-30.5 -57t-10.5 -73.5zM40 244q0 58 17.5 105.5t50 81t76.5 51.5t96 18q55 0 99.5 -18t76 -51.5t48 -81t16.5 -105.5 t-17.5 -105.5t-50 -81t-76.5 -51.5t-96 -18q-55 0 -99.5 18t-76 51.5t-48 81t-16.5 105.5z"/>
<glyph glyph-name="p" horiz-adv-x="584" unicode="p" d="M452 248q0 42 -11 75.5t-30.5 55.5t-46 33.5t-56.5 11.5q-29 0 -55 -11.5t-45.5 -33.5t-31 -54t-12.5 -73v-8q0 -42 11 -76t30.5 -57t46 -35t56.5 -12t56.5 12.5t46 36.5t30.5 58.5t11 76.5zM164 -88v-132h-88v708h84v-76h4q12 23 29 40t38.5 27.5t46 15.5t50.5 5 q47 0 86.5 -17t68.5 -49.5t45 -79.5t16 -106t-17 -107t-48 -82.5t-72 -52.5t-87 -18q-26 0 -49 5t-43 15.5t-36 27t-28 40.5h-4q1 -22 2 -46t1.5 -45.5t0.5 -37.5v-35z"/>
<glyph glyph-name="q" horiz-adv-x="580" unicode="q" d="M132 240q0 -42 11 -75.5t30.5 -55.5t46 -33.5t56.5 -11.5q29 0 55 11.5t45.5 33.5t31 54t12.5 72v17q-1 41 -12.5 73t-31 54t-45.5 33.5t-55 11.5q-30 0 -56.5 -12.5t-46 -36.5t-30.5 -58.5t-11 -76.5zM420 -88v35t0.5 37.5t1.5 45.5t2 46h-4q-12 -23 -29 -40 t-38.5 -27.5t-46 -15.5t-50.5 -5q-47 0 -86.5 17t-68.5 49.5t-45 79.5t-16 106t17 107t48 82.5t72 52.5t87 18q26 0 49 -5t43 -15.5t36 -27t28 -40.5h4v76h84v-708h-88v132z"/>
<glyph glyph-name="r" horiz-adv-x="360" unicode="r" d="M76 0v488h84v-71h3q9 20 21.5 35t29 26t36 16.5t42.5 5.5q8 0 16 -1t16.5 -3t17.5 -6t18 -10l-28 -80q-8 4 -16 7t-15 5t-14.5 3t-14.5 1q-27 0 -47 -13t-34 -35t-20.5 -51.5t-6.5 -61.5v-255h-88z"/>
<glyph glyph-name="s" horiz-adv-x="492" unicode="s" d="M40 140h84q0 -21 9.5 -37t26.5 -26.5t37.5 -15.5t42.5 -5q30 0 52.5 5.5t37.5 15.5t22.5 25t7.5 34q0 14 -5 24.5t-14.5 18t-23.5 13t-33 8.5l-92 16q-28 5 -52.5 13t-45 23t-32.5 38.5t-12 57.5q0 35 15 63.5t41.5 48t61.5 30t76 10.5q40 0 74.5 -8.5t61 -27t41.5 -46.5 t15 -66h-84q0 19 -7.5 34t-22 25.5t-34.5 15.5t-44 5q-23 0 -42.5 -5t-34.5 -14.5t-23 -24t-8 -32.5q0 -14 5 -24t15 -18t26 -13.5t38 -9.5l92 -16q30 -5 54 -14t42.5 -24t29 -38t10.5 -55q0 -38 -15 -67.5t-42.5 -49t-65.5 -29.5t-85 -10q-44 0 -80.5 9.5t-63.5 29 t-41.5 48t-14.5 65.5z"/>
<glyph glyph-name="t" horiz-adv-x="328" unicode="t" d="M88 144v272h-92v72h92v148h88v-148h128v-72h-128v-268q0 -20 4 -33.5t12 -22t21 -12.5t31 -4h60v-76h-72q-36 0 -63 9t-45 27t-27 45t-9 63z"/>
<glyph glyph-name="u" horiz-adv-x="560" unicode="u" d="M68 192v296h88v-284q0 -38 8 -65t22.5 -43.5t35 -24t46.5 -7.5q28 0 51.5 12t41 35t26.5 55t9 70v252h88v-488h-84v72h-4q-11 -21 -25 -37t-32.5 -26.5t-41 -15.5t-49.5 -5q-38 0 -70 11t-57 35t-39 63.5t-14 94.5z"/>
<glyph glyph-name="v" horiz-adv-x="468" unicode="v" d="M188 0l-184 488h96l136 -392h4l136 392h88l-180 -488h-96z"/>
<glyph glyph-name="w" horiz-adv-x="724" unicode="w" d="M144 0l-140 488h92l100 -396h4l112 396h104l112 -396h4l100 396h88l-140 -488h-108l-108 400h-4l-108 -400h-108z"/>
<glyph glyph-name="x" horiz-adv-x="464" unicode="x" d="M12 0l172 246l-168 242h104l117 -175l115 175h96l-169 -241l173 -247h-104l-121 181l-119 -181h-96z"/>
<glyph glyph-name="y" horiz-adv-x="468" unicode="y" d="M33 -152h32q21 0 39 6.5t33 19t27 31t21 43.5l11 31l-192 509h96l136 -392h4l136 392h88l-207 -564q-11 -30 -26 -56.5t-36 -48t-50 -34.5t-64 -13h-48v76z"/>
<glyph glyph-name="z" horiz-adv-x="444" unicode="z" d="M32 416v72h376v-60l-259 -356h263v-72h-376v52l264 364h-268z"/>
<glyph glyph-name="braceleft" horiz-adv-x="356" unicode="{" d="M132 -76v176q0 39 -5 63.5t-17 39.5t-33.5 22t-56.5 7v60q35 0 56.5 7t33.5 22t17 39.5t5 63.5v168q0 37 8 65t25.5 47.5t48 29.5t74.5 10h52v-68h-48q-23 0 -38.5 -4.5t-24.5 -14t-13 -24.5t-4 -37v-196q0 -28 -5.5 -49.5t-17 -38.5t-30.5 -29t-47 -19v-4q28 -7 47 -19 t30.5 -29t17 -38.5t5.5 -49.5v-204q0 -22 4 -37t13 -24.5t24.5 -14t38.5 -4.5h48v-68h-52q-44 0 -74.5 10t-48 29.5t-25.5 47.5t-8 65z"/>
<glyph glyph-name="bar" horiz-adv-x="256" unicode="|" d="M88 -240v1000h80v-1000h-80z"/>
<glyph glyph-name="braceright" horiz-adv-x="356" unicode="}" d="M16 -160h48q23 0 38.5 4.5t24.5 14t13 24.5t4 37v204q0 28 5.5 49.5t17 38.5t30.5 29t47 19v4q-28 7 -47 19t-30.5 29t-17 38.5t-5.5 49.5v196q0 22 -4 37t-13 24.5t-24.5 14t-38.5 4.5h-48v68h52q44 0 74.5 -10t48 -29.5t25.5 -47.5t8 -65v-168q0 -39 5 -63.5t17 -39.5 t33.5 -22t56.5 -7v-60q-35 0 -56.5 -7t-33.5 -22t-17 -39.5t-5 -63.5v-176q0 -37 -8 -65t-25.5 -47.5t-48 -29.5t-74.5 -10h-52v68z"/>
<glyph glyph-name="asciitilde" d="M56 184q0 38 10 67t27.5 47.5t41 28t49.5 9.5q31 0 56.5 -10t58 -29.5t49 -28t36.5 -8.5q12 0 21.5 4t16.5 13t10.5 23.5t3.5 35.5h76q0 -38 -10 -66.5t-27 -47.5t-39.5 -28.5t-47.5 -9.5q-31 0 -57.5 10.5t-60 31.5t-50.5 29.5t-36 8.5q-12 0 -21.5 -4.5t-16.5 -14.5 t-10.5 -25t-3.5 -36h-76z" unicode="~"/>
<glyph glyph-name="uni00A0" horiz-adv-x="220" unicode=" "/>
<glyph glyph-name="exclamdown" horiz-adv-x="280" unicode="¡" d="M88 -8l28 304h48l28 -304v-192h-104v192zM88 380v108h104v-108h-104z"/>
<glyph glyph-name="cent" d="M252 -12v107q-45 7 -81.5 27.5t-62 53.5t-39 76.5t-13.5 95.5q0 51 15 95t42.5 77t64 53.5t78.5 27.5v99h88v-100q37 -6 67 -21.5t52 -38t35 -51t18 -61.5h-88q-4 21 -14 39.5t-26.5 32t-39.5 21t-52 7.5q-31 0 -58 -13t-47.5 -37t-31.5 -57t-11 -73t11 -73t31.5 -57 t47.5 -37t58 -13q29 0 52 7.5t39.5 21t26.5 32t14 39.5h88q-5 -34 -18.5 -63t-36 -51.5t-53 -37.5t-68.5 -21v-107h-88z" unicode="¢"/>
<glyph glyph-name="sterling" d="M110 40q13 0 23.5 5t19 14.5t14.5 21.5t11 27q-9 5 -17 9.5t-16.5 8t-16.5 5t-16 1.5q-10 0 -18.5 -3.5t-15 -9.5t-10.5 -14.5t-4 -18.5t3 -18.5t9 -14.5t14.5 -9.5t19.5 -3.5zM60 326v62h87q-6 19 -10.5 35t-8.5 33t-6 34t-2 34q0 40 13 72.5t37.5 55.5t58.5 35.5 t75 12.5q40 0 72.5 -11.5t55 -34t36 -55t16.5 -75.5h-88q-3 27 -10 46.5t-18.5 32.5t-28.5 19t-39 6q-19 0 -35.5 -6.5t-29.5 -19t-20 -30.5t-7 -40q0 -18 2.5 -35.5t7 -35t10 -34.5t13.5 -39h159v-62h-138q3 -12 5.5 -23t4.5 -22t3 -22.5t1 -22.5q0 -14 -1 -27.5 t-2.5 -26.5t-4.5 -26t-6 -25q41 -28 48.5 -33t24.5 -14t34.5 -14.5t34.5 -5.5q16 0 28 5.5t20.5 17.5t13.5 31t6 46h76q-2 -35 -10.5 -65.5t-25 -55.5t-44.5 -40t-68 -15q-21 0 -42.5 6.5t-41.5 17.5t-37.5 23.5t-42.5 31.5q-10 -18 -23.5 -32.5t-29.5 -25t-35 -16t-40 -5.5 q-24 0 -43.5 7t-33 19.5t-20.5 29.5t-7 36q0 26 8.5 46t24.5 34t37 21t46 7q9 0 18 -1t17.5 -3.5l17 -5t17.5 -6.5q1 6 1 9.5t0.5 7.5t0.5 7.5v7.5q0 15 -2 30t-5 30.5t-7.5 30t-9.5 31.5h-108z" unicode="£"/>
<glyph glyph-name="currency" d="M284 244q20 0 37.5 7t30.5 20t20.5 32t7.5 41t-7.5 41t-20.5 32t-30.5 20t-37.5 7t-37.5 -7t-30.5 -20t-20.5 -32t-7.5 -41t7.5 -41t20.5 -32t30.5 -20t37.5 -7zM132 148l-44 44l58 59q-7 10 -12 21t-9.5 22.5t-6.5 24t-2 25.5t2.5 26t6.5 25t10 23t13 21l-60 61l44 44 l60 -62q10 6 20.5 11t22 8.5t24 5t25.5 1.5t25 -1.5t23.5 -5t22 -8.5t20.5 -11l61 62l44 -44l-60 -61q7 -10 13 -21t10 -23t6.5 -25t2.5 -26t-2.5 -25.5t-6.5 -24t-9.5 -22.5t-12.5 -21l59 -59l-44 -44l-58 59q-10 -7 -21 -12t-22.5 -8.5t-24.5 -5t-26 -1.5q-14 0 -26.5 1.5 t-24.5 5t-22.5 8.5t-20.5 12z" unicode="¤"/>
<glyph glyph-name="yen" d="M88 248v56h152v6l-224 378h100l170 -296h4l170 296h92l-224 -381v-3h152v-56h-152v-76h152v-56h-152v-116h-88v116h-152v56h152v76h-152z" unicode="¥"/>
<glyph glyph-name="brokenbar" horiz-adv-x="256" unicode="¦" d="M88 -164v352h80v-352h-80zM88 336v352h80v-352h-80z"/>
<glyph glyph-name="section" horiz-adv-x="572" unicode="§" d="M320 340l-65 19q-27 -7 -48 -18.5t-35 -27t-21 -33t-7 -36.5q0 -25 7 -42.5t20 -30t32.5 -22t48.5 -17.5l57 -18q29 6 51.5 17.5t37.5 26.5t22.5 32.5t7.5 37.5q0 25 -7 42.5t-20 30t-32.5 21.5t-48.5 18zM68 -68h84q2 -24 12 -41.5t27 -28.5t39.5 -16.5t49.5 -5.5 q30 0 53 6.5t39 19t24 30.5t8 40q0 19 -6.5 33.5t-18.5 24.5t-29 18t-42 16l-92 28q-41 12 -70.5 28.5t-48.5 38t-28 48.5t-9 61q0 26 8 50t23.5 44t37 35.5t48.5 25.5q-23 10 -40.5 23t-30 29.5t-19.5 38.5t-7 50q0 40 15.5 72t44 54.5t67.5 34t85 11.5t83.5 -9.5t65 -29 t44 -50t19.5 -71.5h-84q-2 24 -12 41.5t-27 28.5t-39.5 16.5t-49.5 5.5q-30 0 -53 -6.5t-39 -19t-24 -30.5t-8 -40q0 -19 6.5 -33.5t18.5 -24.5t29 -18t42 -16l92 -28q41 -12 70.5 -28.5t48.5 -38t28 -48.5t9 -61q0 -27 -8 -50.5t-23.5 -43.5t-37 -35.5t-48.5 -25.5 q22 -10 40 -23t30.5 -30t19.5 -39t7 -49q0 -40 -15.5 -72t-44 -54.5t-67.5 -34t-85 -11.5t-83.5 9.5t-65 29t-44 50t-19.5 71.5z"/>
<glyph glyph-name="dieresis" horiz-adv-x="560" unicode="¨" d="M136 604v92h88v-92h-88zM336 604v92h88v-92h-88z"/>
<glyph glyph-name="copyright" horiz-adv-x="776" unicode="©" d="M216 348q0 36 12 68t34.5 56.5t54.5 38t71 13.5q31 0 56.5 -8t44.5 -23.5t31.5 -37t17.5 -47.5h-70q-4 13 -10.5 23.5t-16 17.5t-23 11t-30.5 4q-22 0 -40.5 -9t-32 -25t-20.5 -37t-7 -45t7 -45t20.5 -37t32 -25t40.5 -9q17 0 30.5 4t23 11t16 17.5t10.5 23.5h70 q-5 -26 -17.5 -47.5t-31.5 -37t-44.5 -23.5t-56.5 -8q-39 0 -71 13.5t-54.5 38t-34.5 56.5t-12 68zM108 348q0 -61 20.5 -115.5t58 -96t89 -65t112.5 -23.5q59 0 110.5 23.5t89.5 65t59 96t21 115.5t-20.5 113.5t-58 92t-89 61t-112.5 21.5t-112.5 -21.5t-89 -61t-58 -92 t-20.5 -113.5zM36 348q0 74 26 139t74 112.5t112.5 74t139.5 26.5q74 0 138.5 -26.5t112.5 -74.5t74.5 -112.5t26.5 -138.5t-26 -140t-74 -115.5t-112.5 -77t-139.5 -27.5t-139.5 27.5t-112.5 77t-74 115.5t-26 140z"/>
<glyph glyph-name="ordfeminine" horiz-adv-x="386" unicode="ª" d="M173 392q18 0 33.5 5.5t27.5 16.5t19 28t7 40v31q-2 -3 -5.5 -6t-8 -5t-9.5 -3t-11 -2l-56 -7q-14 -2 -24.5 -6.5t-17 -11t-9.5 -14.5t-3 -18q0 -11 4 -20t11 -15t18 -9.5t24 -3.5zM151 336q-27 0 -48.5 7t-36.5 20t-22.5 31t-7.5 40q0 21 7 38.5t21 31t35.5 22.5 t51.5 13l65 8q13 2 21 3.5t13 5t7.5 8t2.5 12.5q0 13 -4 24t-12 19.5t-20.5 13.5t-28.5 5q-14 0 -26 -3.5t-21 -11t-14.5 -19t-6.5 -26.5h-75q2 31 13.5 53.5t31.5 37t44.5 21.5t53.5 7q34 0 61 -7.5t45.5 -23.5t28.5 -39t10 -54v-229h-77v42h-3q-7 -12 -18 -21.5t-25 -15.5 t-30.5 -9.5t-35.5 -3.5z"/>
<glyph glyph-name="guillemotleft" horiz-adv-x="512" unicode="«" d="M196 48l-144 204l144 204h72l-116 -204l116 -204h-72zM244 252l144 204h72l-116 -204l116 -204h-72z"/>
<glyph glyph-name="logicalnot" d="M56 216v76h456v-264h-80v188h-376z" unicode="¬"/>
<glyph glyph-name="uni00AD" horiz-adv-x="396" unicode="­" d="M60 212v80h276v-80h-276z"/>
<glyph glyph-name="registered" horiz-adv-x="776" unicode="®" d="M404 460h-84v-100h84q15 0 26 3.5t18.5 10.5t11.5 16.5t4 21.5t-4 21t-11.5 15t-18.5 9t-26 3zM248 176v344h158q32 0 56 -7.5t40.5 -21.5t25 -34t8.5 -45q0 -17 -5.5 -33t-15.5 -29.5t-24 -24t-31 -16.5l88 -133h-78l-77 124h-73v-124h-72zM108 348q0 -61 20.5 -115.5 t58 -96t89 -65t112.5 -23.5q59 0 110.5 23.5t89.5 65t59 96t21 115.5t-20.5 113.5t-58 92t-89 61t-112.5 21.5t-112.5 -21.5t-89 -61t-58 -92t-20.5 -113.5zM36 348q0 74 26 139t74 112.5t112.5 74t139.5 26.5q74 0 138.5 -26.5t112.5 -74.5t74.5 -112.5t26.5 -138.5 t-26 -140t-74 -115.5t-112.5 -77t-139.5 -27.5t-139.5 27.5t-112.5 77t-74 115.5t-26 140z"/>
<glyph glyph-name="macron" horiz-adv-x="560" unicode="¯" d="M140 616v68h276v-68h-276z"/>
<glyph glyph-name="degree" horiz-adv-x="360" unicode="°" d="M180 636q-14 0 -26.5 -5t-22 -15t-14.5 -23t-5 -29t5 -29t14.5 -23t22 -15t26.5 -5t26.5 5t22 15t14.5 23t5 29t-5 29t-14.5 23t-22 15t-26.5 5zM180 428q-29 0 -55 10t-45 28t-29.5 43t-10.5 55t10.5 55t29.5 43t45 28t55 10t55 -10t45 -28t29.5 -43t10.5 -55t-10.5 -55 t-29.5 -43t-45 -28t-55 -10z"/>
<glyph glyph-name="plusminus" d="M56 0v76h456v-76h-456zM56 316v76h188v174h80v-174h188v-76h-188v-174h-80v174h-188z" unicode="±"/>
<glyph glyph-name="twosuperior" horiz-adv-x="352" unicode="²" d="M32 496q0 37 9.5 65t25.5 47t34.5 32t42.5 25l24 12q15 8 27.5 15t21.5 15t14 16t5 17q0 11 -3.5 20t-11 15t-19 9.5t-26.5 3.5t-27 -4t-21 -12.5t-14 -20.5t-6 -27h-72q1 33 12.5 56.5t31 38.5t44 22t52.5 7q30 0 55 -7t43 -20.5t28 -33.5t10 -45q0 -23 -9.5 -41 t-25 -31.5t-33 -23.5t-44.5 -23l-24 -12q-11 -5 -21 -12t-18 -14t-12.5 -13.5t-4.5 -11.5h192v-64h-280z"/>
<glyph glyph-name="threesuperior" horiz-adv-x="352" unicode="³" d="M34 600h72q0 -13 5 -23.5t14.5 -18t22.5 -11t28 -3.5t28 3t22.5 9.5t14.5 16.5t5 23t-5 23t-14.5 16.5t-22.5 9.5t-28 3h-28v52h28q14 0 25.5 3t19.5 9t12.5 14.5t4.5 19.5t-4.5 19.5t-12.5 14.5t-19.5 9t-25.5 3t-25.5 -3.5t-19.5 -10.5t-12.5 -16.5t-4.5 -21.5h-72 q0 26 9.5 46t28 34t44 21t56.5 7q30 0 54 -7t41.5 -20t27 -30.5t9.5 -38.5q0 -14 -3.5 -26t-11 -22.5t-18 -17.5t-23.5 -10v-3q15 -3 27.5 -10.5t21.5 -19t14 -25.5t5 -30q0 -24 -10 -42.5t-29.5 -31.5t-47 -19.5t-61.5 -6.5q-32 0 -58 6.5t-45 19.5t-29 34.5t-10 51.5z"/>
<glyph glyph-name="acute" horiz-adv-x="560" unicode="´" d="M248 568l104 164h104l-144 -164h-64z"/>
<glyph glyph-name="mu" d="M152 16q4 -28 6 -46t3.5 -36t2 -37t0.5 -41v-76h-88v708h88v-284q0 -39 7.5 -65.5t21.5 -43t34.5 -24t48.5 -7.5t51.5 12t41 35t26.5 55t9 70v252h88v-488h-84v72h-4q-11 -21 -25 -37t-32.5 -26.5t-41 -15.5t-49.5 -5q-14 0 -27 1.5t-25 5t-24 9t-22 12.5h-6z" unicode="µ"/>
<glyph glyph-name="paragraph" horiz-adv-x="628" unicode="¶" d="M264 0v249q-52 4 -93.5 21t-70.5 45.5t-44.5 67t-15.5 85.5q0 50 17 90.5t50 69.5t80 44.5t105 15.5h60v-688h-88zM436 0v688h88v-688h-88z"/>
<glyph glyph-name="periodcentered" horiz-adv-x="264" unicode="·" d="M76 196v112h112v-112h-112z"/>
<glyph glyph-name="cedilla" horiz-adv-x="560" unicode="¸" d="M236 -84l28 84h32v-36q22 -1 39.5 -8.5t29 -19.5t17.5 -27t6 -33q0 -21 -7.5 -38.5t-22 -30.5t-36.5 -20t-50 -7h-56v56h52q13 0 22.5 2t16 6.5t10 12t3.5 19.5q0 10 -3.5 18t-10.5 12.5t-16.5 7t-21.5 2.5h-32z"/>
<glyph glyph-name="onesuperior" horiz-adv-x="352" unicode="¹" d="M72 702l-32 54l140 84h48v-280h92v-64h-268v64h100v188z"/>
<glyph glyph-name="ordmasculine" horiz-adv-x="413" unicode="º" d="M206 400q21 0 38.5 8.5t30 24t19 36.5t6.5 47t-6.5 47.5t-19 37t-30 23.5t-38.5 8t-38 -8t-29.5 -23.5t-19 -37t-6.5 -47.5t6.5 -47t19 -36.5t29.5 -24t38 -8.5zM206 336q-40 0 -72.5 12.5t-56 36t-35.5 57t-12 74.5t12.5 74.5t36 57.5t56 36.5t71.5 12.5q40 0 73 -12.5 t56.5 -36.5t35.5 -57.5t12 -74.5t-12.5 -74t-36.5 -57t-56.5 -36.5t-71.5 -12.5z"/>
<glyph glyph-name="guillemotright" horiz-adv-x="512" unicode="»" d="M52 48l116 204l-116 204h72l144 -204l-144 -204h-72zM244 48l116 204l-116 204h72l144 -204l-144 -204h-72z"/>
<glyph glyph-name="onequarter" horiz-adv-x="776" unicode="¼" d="M531 124h93v117zM72 550l-32 54l140 84h48v-280h92v-64h-268v64h100v188zM216 -12l348 712h68l-348 -712h-68zM448 64v48l188 232h64v-220h48v-60h-48v-64h-76v64h-176z"/>
<glyph glyph-name="onehalf" horiz-adv-x="776" unicode="½" d="M72 550l-32 54l140 84h48v-280h92v-64h-268v64h100v188zM192 -12l348 712h68l-348 -712h-68zM456 0q0 37 9.5 65t25.5 47t34.5 32t42.5 25l24 12q15 8 27.5 15t21.5 15t14 16t5 17q0 11 -3.5 20t-11 15t-19 9.5t-26.5 3.5t-27 -4t-21 -12.5t-14 -20.5t-6 -27h-72 q1 33 12.5 56.5t31 38.5t44 22t52.5 7q30 0 55 -7t43 -20.5t28 -33.5t10 -45q0 -23 -9.5 -41t-25 -31.5t-33 -23.5t-44.5 -23l-24 -12q-11 -5 -21 -12t-18 -14t-12.5 -13.5t-4.5 -11.5h192v-64h-280z"/>
<glyph glyph-name="threequarters" horiz-adv-x="776" unicode="¾" d="M531 124h93v117zM204 -12l348 712h68l-348 -712h-68zM34 448h72q0 -13 5 -23.5t14.5 -18t22.5 -11t28 -3.5t28 3t22.5 9.5t14.5 16.5t5 23t-5 23t-14.5 16.5t-22.5 9.5t-28 3h-28v52h28q14 0 25.5 3t19.5 9t12.5 14.5t4.5 19.5t-4.5 19.5t-12.5 14.5t-19.5 9t-25.5 3 t-25.5 -3.5t-19.5 -10.5t-12.5 -16.5t-4.5 -21.5h-72q0 26 9.5 46t28 34t44 21t56.5 7q30 0 54 -7t41.5 -20t27 -30.5t9.5 -38.5q0 -14 -3.5 -26t-11 -22.5t-18 -17.5t-23.5 -10v-3q15 -3 27.5 -10.5t21.5 -19t14 -25.5t5 -30q0 -24 -10 -42.5t-29.5 -31.5t-47 -19.5 t-61.5 -6.5q-32 0 -58 6.5t-45 19.5t-29 34.5t-10 51.5zM448 64v48l188 232h64v-220h48v-60h-48v-64h-76v64h-176z"/>
<glyph glyph-name="questiondown" horiz-adv-x="504" unicode="¿" d="M40 -32q0 55 23 88.5t67.5 68.5t65 60t20.5 67v40h88v-28q0 -63 -22.5 -101t-67.5 -74t-63.5 -57t-18.5 -60q0 -23 8 -42.5t23.5 -34.5t37 -23t47.5 -8q33 0 58 11t41.5 31t24.5 46t8 56h88q0 -43 -13.5 -82.5t-41 -70.5t-69 -49t-96.5 -18q-45 0 -83.5 12.5t-66.5 36 t-43 57t-15 74.5zM208 380v108h104v-108h-104z"/>
<glyph glyph-name="Agrave" horiz-adv-x="644" unicode="À" d="M288 768l-144 164h104l104 -164h-64zM322 592h-4l-120 -332h244zM12 0l256 688h108l256 -688h-96l-65 180h-302l-65 -180h-92z"/>
<glyph glyph-name="Aacute" horiz-adv-x="644" unicode="Á" d="M288 768l104 164h104l-144 -164h-64zM322 592h-4l-120 -332h244zM12 0l256 688h108l256 -688h-96l-65 180h-302l-65 -180h-92z"/>
<glyph glyph-name="Acircumflex" horiz-adv-x="644" unicode="Â" d="M152 768l128 164h80l128 -164h-84l-84 112l-84 -112h-84zM322 592h-4l-120 -332h244zM12 0l256 688h108l256 -688h-96l-65 180h-302l-65 -180h-92z"/>
<glyph glyph-name="Atilde" horiz-adv-x="644" unicode="Ã" d="M156 768q1 23 7.5 42.5t19 34.5t30 23t39.5 8q20 0 38.5 -6.5t43.5 -19t36 -17.5t22 -5q10 0 17.5 4t13 11t8.5 15.5t5 17.5h48q-1 -23 -7.5 -42.5t-19 -34.5t-30 -23t-39.5 -8q-20 0 -38.5 6.5t-43.5 19t-36 17.5t-22 5q-10 0 -17.5 -4t-13 -11t-8.5 -15.5t-5 -17.5h-48 zM322 592h-4l-120 -332h244zM12 0l256 688h108l256 -688h-96l-65 180h-302l-65 -180h-92z"/>
<glyph glyph-name="Adieresis" horiz-adv-x="644" unicode="Ä" d="M176 768v92h88v-92h-88zM376 768v92h88v-92h-88zM322 592h-4l-120 -332h244zM12 0l256 688h108l256 -688h-96l-65 180h-302l-65 -180h-92z"/>
<glyph glyph-name="Aring" horiz-adv-x="644" unicode="Å" d="M320 808q11 0 20.5 4t16.5 11t11 16.5t4 20.5t-4 20.5t-11 16.5t-16.5 11t-20.5 4t-20.5 -4t-16.5 -11t-11 -16.5t-4 -20.5t4 -20.5t11 -16.5t16.5 -11t20.5 -4zM320 764q-20 0 -38 7t-32 20t-22 30.5t-8 38.5t8 38.5t22 30.5t32 20t38 7t38 -7t32 -20t22 -30.5t8 -38.5 t-8 -38.5t-22 -30.5t-32 -20t-38 -7zM322 592h-4l-120 -332h244zM12 0l256 688h108l256 -688h-96l-65 180h-302l-65 -180h-92z"/>
<glyph glyph-name="AE" horiz-adv-x="1064" unicode="Æ" d="M536 580l-244 -340h248v340h-4zM12 0l496 688h496v-80h-372v-218h296v-80h-296v-230h380v-80h-472v160h-305l-115 -160h-108z"/>
<glyph glyph-name="Ccedilla" horiz-adv-x="712" unicode="Ç" d="M328 -84l24 73q-68 4 -125 31t-98 74.5t-63 111t-22 138.5q0 76 24 141.5t68.5 113.5t105.5 74.5t134 26.5q59 0 108.5 -16.5t87 -46.5t61.5 -72t35 -93h-95q-10 35 -27 62t-41.5 45t-57 27.5t-71.5 9.5q-52 0 -95.5 -19.5t-75 -56t-48.5 -87t-17 -109.5q0 -58 17 -108 t48 -87t73.5 -57t93.5 -20q42 0 75.5 9.5t58 27.5t41 45t26.5 62h95q-10 -49 -33.5 -90t-59.5 -71t-83.5 -47.5t-103.5 -19.5v-24q22 -1 39.5 -8.5t29 -19.5t17.5 -27t6 -33q0 -21 -7.5 -38.5t-22 -30.5t-36.5 -20t-50 -7h-56v56h52q13 0 22.5 2t16 6.5t10 12t3.5 19.5 q0 10 -3.5 18t-10.5 12.5t-16.5 7t-21.5 2.5h-32z"/>
<glyph glyph-name="Egrave" horiz-adv-x="612" unicode="È" d="M288 768l-144 164h104l104 -164h-64zM88 0v688h464v-80h-372v-218h296v-80h-296v-230h380v-80h-472z"/>
<glyph glyph-name="Eacute" horiz-adv-x="612" unicode="É" d="M288 768l104 164h104l-144 -164h-64zM88 0v688h464v-80h-372v-218h296v-80h-296v-230h380v-80h-472z"/>
<glyph glyph-name="Ecircumflex" horiz-adv-x="612" unicode="Ê" d="M152 768l128 164h80l128 -164h-84l-84 112l-84 -112h-84zM88 0v688h464v-80h-372v-218h296v-80h-296v-230h380v-80h-472z"/>
<glyph glyph-name="Edieresis" horiz-adv-x="612" unicode="Ë" d="M176 768v92h88v-92h-88zM376 768v92h88v-92h-88zM88 0v688h464v-80h-372v-218h296v-80h-296v-230h380v-80h-472z"/>
<glyph glyph-name="Igrave" horiz-adv-x="268" unicode="Ì" d="M102 768l-144 164h104l104 -164h-64zM88 0v688h92v-688h-92z"/>
<glyph glyph-name="Iacute" horiz-adv-x="268" unicode="Í" d="M102 768l104 164h104l-144 -164h-64zM88 0v688h92v-688h-92z"/>
<glyph glyph-name="Icircumflex" horiz-adv-x="268" unicode="Î" d="M-34 768l128 164h80l128 -164h-84l-84 112l-84 -112h-84zM88 0v688h92v-688h-92z"/>
<glyph glyph-name="Idieresis" horiz-adv-x="268" unicode="Ï" d="M-10 768v92h88v-92h-88zM190 768v92h88v-92h-88zM88 0v688h92v-688h-92z"/>
<glyph glyph-name="Eth" horiz-adv-x="704" unicode="Ð" d="M300 608h-120v-224h160v-76h-160v-228h120q70 0 121 21t82.5 57.5t46 83.5t14.5 102t-14.5 102t-46 83.5t-82.5 57.5t-121 21zM4 308v76h84v304h212q87 0 155 -25t113.5 -71t68.5 -109t23 -139t-23 -139t-68.5 -109t-113.5 -71t-155 -25h-212v308h-84z"/>
<glyph glyph-name="Ntilde" horiz-adv-x="736" unicode="Ñ" d="M204 768q1 23 7.5 42.5t19 34.5t30 23t39.5 8q20 0 38.5 -6.5t43.5 -19t36 -17.5t22 -5q10 0 17.5 4t13 11t8.5 15.5t5 17.5h48q-1 -23 -7.5 -42.5t-19 -34.5t-30 -23t-39.5 -8q-20 0 -38.5 6.5t-43.5 19t-36 17.5t-22 5q-10 0 -17.5 -4t-13 -11t-8.5 -15.5t-5 -17.5h-48 zM88 0v688h88l380 -532h4l-4 532h92v-688h-88l-380 528h-4l4 -528h-92z"/>
<glyph glyph-name="Ograve" horiz-adv-x="760" unicode="Ò" d="M348 768l-144 164h104l104 -164h-64zM140 344q0 -58 17 -108t49 -87t76.5 -57t97.5 -20t97.5 20t76.5 57t49 87t17 108t-17 108t-49 87t-76.5 57t-97.5 20t-97.5 -20t-76.5 -57t-49 -87t-17 -108zM44 344q0 76 24 141.5t69 113.5t107 74.5t136 26.5q73 0 135 -26.5 t107 -74.5t69.5 -113.5t24.5 -141.5t-24.5 -141.5t-69.5 -113.5t-107 -74.5t-135 -26.5q-74 0 -136 26.5t-107 74.5t-69 113.5t-24 141.5z"/>
<glyph glyph-name="Oacute" horiz-adv-x="760" unicode="Ó" d="M348 768l104 164h104l-144 -164h-64zM140 344q0 -58 17 -108t49 -87t76.5 -57t97.5 -20t97.5 20t76.5 57t49 87t17 108t-17 108t-49 87t-76.5 57t-97.5 20t-97.5 -20t-76.5 -57t-49 -87t-17 -108zM44 344q0 76 24 141.5t69 113.5t107 74.5t136 26.5q73 0 135 -26.5 t107 -74.5t69.5 -113.5t24.5 -141.5t-24.5 -141.5t-69.5 -113.5t-107 -74.5t-135 -26.5q-74 0 -136 26.5t-107 74.5t-69 113.5t-24 141.5z"/>
<glyph glyph-name="Ocircumflex" horiz-adv-x="760" unicode="Ô" d="M212 768l128 164h80l128 -164h-84l-84 112l-84 -112h-84zM140 344q0 -58 17 -108t49 -87t76.5 -57t97.5 -20t97.5 20t76.5 57t49 87t17 108t-17 108t-49 87t-76.5 57t-97.5 20t-97.5 -20t-76.5 -57t-49 -87t-17 -108zM44 344q0 76 24 141.5t69 113.5t107 74.5t136 26.5 q73 0 135 -26.5t107 -74.5t69.5 -113.5t24.5 -141.5t-24.5 -141.5t-69.5 -113.5t-107 -74.5t-135 -26.5q-74 0 -136 26.5t-107 74.5t-69 113.5t-24 141.5z"/>
<glyph glyph-name="Otilde" horiz-adv-x="760" unicode="Õ" d="M216 768q1 23 7.5 42.5t19 34.5t30 23t39.5 8q20 0 38.5 -6.5t43.5 -19t36 -17.5t22 -5q10 0 17.5 4t13 11t8.5 15.5t5 17.5h48q-1 -23 -7.5 -42.5t-19 -34.5t-30 -23t-39.5 -8q-20 0 -38.5 6.5t-43.5 19t-36 17.5t-22 5q-10 0 -17.5 -4t-13 -11t-8.5 -15.5t-5 -17.5h-48 zM140 344q0 -58 17 -108t49 -87t76.5 -57t97.5 -20t97.5 20t76.5 57t49 87t17 108t-17 108t-49 87t-76.5 57t-97.5 20t-97.5 -20t-76.5 -57t-49 -87t-17 -108zM44 344q0 76 24 141.5t69 113.5t107 74.5t136 26.5q73 0 135 -26.5t107 -74.5t69.5 -113.5t24.5 -141.5 t-24.5 -141.5t-69.5 -113.5t-107 -74.5t-135 -26.5q-74 0 -136 26.5t-107 74.5t-69 113.5t-24 141.5z"/>
<glyph glyph-name="Odieresis" horiz-adv-x="760" unicode="Ö" d="M236 768v92h88v-92h-88zM436 768v92h88v-92h-88zM140 344q0 -58 17 -108t49 -87t76.5 -57t97.5 -20t97.5 20t76.5 57t49 87t17 108t-17 108t-49 87t-76.5 57t-97.5 20t-97.5 -20t-76.5 -57t-49 -87t-17 -108zM44 344q0 76 24 141.5t69 113.5t107 74.5t136 26.5 q73 0 135 -26.5t107 -74.5t69.5 -113.5t24.5 -141.5t-24.5 -141.5t-69.5 -113.5t-107 -74.5t-135 -26.5q-74 0 -136 26.5t-107 74.5t-69 113.5t-24 141.5z"/>
<glyph glyph-name="multiply" d="M76 412l52 52l156 -158l156 158l52 -52l-157 -158l157 -158l-52 -52l-156 158l-156 -158l-52 52l156 158z" unicode="×"/>
<glyph glyph-name="Oslash" horiz-adv-x="760" unicode="Ø" d="M140 344q0 -27 3.5 -52t10.5 -48t17.5 -43.5t23.5 -38.5l327 406q-14 11 -30.5 20t-34 15.5t-37 9.5t-40.5 3q-53 0 -97.5 -20t-76.5 -57t-49 -87t-17 -108zM620 344q0 26 -3.5 51.5t-11 48.5t-17.5 43.5t-24 38.5l-327 -407q15 -11 31 -20t34 -15t37.5 -9t40.5 -3 q53 0 97.5 20t76.5 57t49 87t17 108zM56 -12l81 101q-22 24 -39.5 52.5t-29.5 61t-18 68t-6 73.5q0 76 24.5 141.5t69.5 113.5t107 74.5t135 26.5q28 0 54.5 -4.5t51.5 -12.5t47.5 -20t43.5 -27l51 64h76l-82 -103q22 -24 39.5 -52t29.5 -60.5t18.5 -67.5t6.5 -73 q0 -76 -25 -141.5t-70.5 -113.5t-107.5 -74.5t-133 -26.5q-29 0 -55.5 4t-51.5 12t-48 19.5t-43 26.5l-50 -62h-76z"/>
<glyph glyph-name="Ugrave" horiz-adv-x="696" unicode="Ù" d="M316 768l-144 164h104l104 -164h-64zM72 272v416h92v-416q0 -48 11.5 -85t34 -62.5t57.5 -39t81 -13.5t81 13.5t57.5 39t34 62.5t11.5 85v416h92v-416q0 -75 -19.5 -129.5t-56.5 -88.5t-87 -50t-113 -16t-113 16t-87 50t-56.5 88.5t-19.5 129.5z"/>
<glyph glyph-name="Uacute" horiz-adv-x="696" unicode="Ú" d="M316 768l104 164h104l-144 -164h-64zM72 272v416h92v-416q0 -48 11.5 -85t34 -62.5t57.5 -39t81 -13.5t81 13.5t57.5 39t34 62.5t11.5 85v416h92v-416q0 -75 -19.5 -129.5t-56.5 -88.5t-87 -50t-113 -16t-113 16t-87 50t-56.5 88.5t-19.5 129.5z"/>
<glyph glyph-name="Ucircumflex" horiz-adv-x="696" unicode="Û" d="M180 768l128 164h80l128 -164h-84l-84 112l-84 -112h-84zM72 272v416h92v-416q0 -48 11.5 -85t34 -62.5t57.5 -39t81 -13.5t81 13.5t57.5 39t34 62.5t11.5 85v416h92v-416q0 -75 -19.5 -129.5t-56.5 -88.5t-87 -50t-113 -16t-113 16t-87 50t-56.5 88.5t-19.5 129.5z"/>
<glyph glyph-name="Udieresis" horiz-adv-x="696" unicode="Ü" d="M204 768v92h88v-92h-88zM404 768v92h88v-92h-88zM72 272v416h92v-416q0 -48 11.5 -85t34 -62.5t57.5 -39t81 -13.5t81 13.5t57.5 39t34 62.5t11.5 85v416h92v-416q0 -75 -19.5 -129.5t-56.5 -88.5t-87 -50t-113 -16t-113 16t-87 50t-56.5 88.5t-19.5 129.5z"/>
<glyph glyph-name="Yacute" horiz-adv-x="608" unicode="Ý" d="M272 768l104 164h104l-144 -164h-64zM256 0v270l-244 418h104l186 -324h4l194 324h96l-248 -411v-277h-92z"/>
<glyph glyph-name="Thorn" horiz-adv-x="636" unicode="Þ" d="M352 496h-172v-288h172q36 0 64 11.5t47 32t28 47t9 57.5q0 30 -9 55.5t-27.5 44.5t-46.5 29.5t-65 10.5zM88 0v688h92v-112h168q58 0 103.5 -16t77 -45.5t47.5 -70t16 -88.5q0 -49 -16 -90.5t-47.5 -72.5t-77 -48t-103.5 -17h-168v-128h-92z"/>
<glyph glyph-name="germandbls" d="M76 0v512q0 59 16 103.5t45 73t68.5 42t86.5 13.5q46 0 81 -12.5t58 -34t34 -48.5t11 -57q0 -35 -14 -59.5t-41.5 -52t-38 -40t-10.5 -32.5q0 -25 14 -37.5t61.5 -47.5t70 -68t22.5 -83q0 -41 -14.5 -73t-41.5 -54t-63.5 -33.5t-80.5 -11.5h-84v72h84q25 0 45.5 6 t35.5 17.5t23 29t8 39.5q0 38 -19 59.5t-59.5 48.5t-61 54t-20.5 74q0 35 13.5 58t40 48.5t38.5 42.5t12 43q0 15 -6.5 29.5t-19.5 26t-34 18t-48 6.5q-29 0 -51.5 -9t-39 -28.5t-25 -50t-8.5 -72.5v-512h-88z" unicode="ß"/>
<glyph glyph-name="agrave" horiz-adv-x="524" unicode="à" d="M236 568l-144 164h104l104 -164h-64zM368 204v47q-4 -4 -9 -8t-11.5 -6.5t-14.5 -4.5t-17 -4l-92 -16q-24 -4 -40.5 -11t-27 -17t-15.5 -23t-5 -29t5.5 -29t17 -23t29 -15t40.5 -5q29 0 54.5 9t44.5 27.5t30 45.5t11 62zM48 124q0 31 9 55t28.5 43t49.5 32t73 20l96 16 q21 4 33 7t18.5 7t9.5 9.5t3 14.5q0 22 -6.5 40.5t-19.5 32t-33 20.5t-45 7q-26 0 -46.5 -6.5t-34.5 -19t-21.5 -29.5t-9.5 -37h-84q2 35 15.5 65t38.5 52t61 34.5t81 12.5q47 0 83.5 -12t60.5 -35.5t36 -57t12 -75.5v-320h-84v65h-4q-10 -19 -26 -33.5t-36 -24t-43.5 -14.5 t-50.5 -5q-38 0 -69 9.5t-52 27.5t-32 43t-11 56z"/>
<glyph glyph-name="aacute" horiz-adv-x="524" unicode="á" d="M220 568l104 164h104l-144 -164h-64zM368 204v47q-4 -4 -9 -8t-11.5 -6.5t-14.5 -4.5t-17 -4l-92 -16q-24 -4 -40.5 -11t-27 -17t-15.5 -23t-5 -29t5.5 -29t17 -23t29 -15t40.5 -5q29 0 54.5 9t44.5 27.5t30 45.5t11 62zM48 124q0 31 9 55t28.5 43t49.5 32t73 20l96 16 q21 4 33 7t18.5 7t9.5 9.5t3 14.5q0 22 -6.5 40.5t-19.5 32t-33 20.5t-45 7q-26 0 -46.5 -6.5t-34.5 -19t-21.5 -29.5t-9.5 -37h-84q2 35 15.5 65t38.5 52t61 34.5t81 12.5q47 0 83.5 -12t60.5 -35.5t36 -57t12 -75.5v-320h-84v65h-4q-10 -19 -26 -33.5t-36 -24t-43.5 -14.5 t-50.5 -5q-38 0 -69 9.5t-52 27.5t-32 43t-11 56z"/>
<glyph glyph-name="acircumflex" horiz-adv-x="524" unicode="â" d="M92 568l128 164h80l128 -164h-84l-84 112l-84 -112h-84zM368 204v47q-4 -4 -9 -8t-11.5 -6.5t-14.5 -4.5t-17 -4l-92 -16q-24 -4 -40.5 -11t-27 -17t-15.5 -23t-5 -29t5.5 -29t17 -23t29 -15t40.5 -5q29 0 54.5 9t44.5 27.5t30 45.5t11 62zM48 124q0 31 9 55t28.5 43 t49.5 32t73 20l96 16q21 4 33 7t18.5 7t9.5 9.5t3 14.5q0 22 -6.5 40.5t-19.5 32t-33 20.5t-45 7q-26 0 -46.5 -6.5t-34.5 -19t-21.5 -29.5t-9.5 -37h-84q2 35 15.5 65t38.5 52t61 34.5t81 12.5q47 0 83.5 -12t60.5 -35.5t36 -57t12 -75.5v-320h-84v65h-4q-10 -19 -26 -33.5 t-36 -24t-43.5 -14.5t-50.5 -5q-38 0 -69 9.5t-52 27.5t-32 43t-11 56z"/>
<glyph glyph-name="atilde" horiz-adv-x="524" unicode="ã" d="M96 596q1 23 7.5 42.5t19 34.5t30 23t39.5 8q20 0 38.5 -6.5t43.5 -19t36 -17.5t22 -5q10 0 17.5 4t13 11t8.5 15.5t5 17.5h48q-1 -23 -7.5 -42.5t-19 -34.5t-30 -23t-39.5 -8q-20 0 -38.5 6.5t-43.5 19t-36 17.5t-22 5q-10 0 -17.5 -4t-13 -11t-8.5 -15.5t-5 -17.5h-48z M368 204v47q-4 -4 -9 -8t-11.5 -6.5t-14.5 -4.5t-17 -4l-92 -16q-24 -4 -40.5 -11t-27 -17t-15.5 -23t-5 -29t5.5 -29t17 -23t29 -15t40.5 -5q29 0 54.5 9t44.5 27.5t30 45.5t11 62zM48 124q0 31 9 55t28.5 43t49.5 32t73 20l96 16q21 4 33 7t18.5 7t9.5 9.5t3 14.5 q0 22 -6.5 40.5t-19.5 32t-33 20.5t-45 7q-26 0 -46.5 -6.5t-34.5 -19t-21.5 -29.5t-9.5 -37h-84q2 35 15.5 65t38.5 52t61 34.5t81 12.5q47 0 83.5 -12t60.5 -35.5t36 -57t12 -75.5v-320h-84v65h-4q-10 -19 -26 -33.5t-36 -24t-43.5 -14.5t-50.5 -5q-38 0 -69 9.5t-52 27.5 t-32 43t-11 56z"/>
<glyph glyph-name="adieresis" horiz-adv-x="524" unicode="ä" d="M116 604v92h88v-92h-88zM316 604v92h88v-92h-88zM368 204v47q-4 -4 -9 -8t-11.5 -6.5t-14.5 -4.5t-17 -4l-92 -16q-24 -4 -40.5 -11t-27 -17t-15.5 -23t-5 -29t5.5 -29t17 -23t29 -15t40.5 -5q29 0 54.5 9t44.5 27.5t30 45.5t11 62zM48 124q0 31 9 55t28.5 43t49.5 32 t73 20l96 16q21 4 33 7t18.5 7t9.5 9.5t3 14.5q0 22 -6.5 40.5t-19.5 32t-33 20.5t-45 7q-26 0 -46.5 -6.5t-34.5 -19t-21.5 -29.5t-9.5 -37h-84q2 35 15.5 65t38.5 52t61 34.5t81 12.5q47 0 83.5 -12t60.5 -35.5t36 -57t12 -75.5v-320h-84v65h-4q-10 -19 -26 -33.5t-36 -24 t-43.5 -14.5t-50.5 -5q-38 0 -69 9.5t-52 27.5t-32 43t-11 56z"/>
<glyph glyph-name="aring" horiz-adv-x="524" unicode="å" d="M260 608q11 0 20.5 4t16.5 11t11 16.5t4 20.5t-4 20.5t-11 16.5t-16.5 11t-20.5 4t-20.5 -4t-16.5 -11t-11 -16.5t-4 -20.5t4 -20.5t11 -16.5t16.5 -11t20.5 -4zM260 564q-20 0 -38 7t-32 20t-22 30.5t-8 38.5t8 38.5t22 30.5t32 20t38 7t38 -7t32 -20t22 -30.5t8 -38.5 t-8 -38.5t-22 -30.5t-32 -20t-38 -7zM368 204v47q-4 -4 -9 -8t-11.5 -6.5t-14.5 -4.5t-17 -4l-92 -16q-24 -4 -40.5 -11t-27 -17t-15.5 -23t-5 -29t5.5 -29t17 -23t29 -15t40.5 -5q29 0 54.5 9t44.5 27.5t30 45.5t11 62zM48 124q0 31 9 55t28.5 43t49.5 32t73 20l96 16 q21 4 33 7t18.5 7t9.5 9.5t3 14.5q0 22 -6.5 40.5t-19.5 32t-33 20.5t-45 7q-26 0 -46.5 -6.5t-34.5 -19t-21.5 -29.5t-9.5 -37h-84q2 35 15.5 65t38.5 52t61 34.5t81 12.5q47 0 83.5 -12t60.5 -35.5t36 -57t12 -75.5v-320h-84v65h-4q-10 -19 -26 -33.5t-36 -24t-43.5 -14.5 t-50.5 -5q-38 0 -69 9.5t-52 27.5t-32 43t-11 56z"/>
<glyph glyph-name="ae" horiz-adv-x="844" unicode="æ" d="M596 424q-26 0 -47.5 -9t-38.5 -25.5t-28.5 -39.5t-17.5 -52h251q-2 30 -11.5 54t-25 40t-36 24t-46.5 8zM228 60q29 0 54.5 8.5t44.5 26.5t30 45.5t11 63.5v47q-4 -4 -9 -8t-11.5 -6.5t-14.5 -4.5t-17 -4l-92 -16q-23 -4 -39.5 -11t-27.5 -17t-16 -23t-5 -29 q0 -17 6 -30.5t18 -22.5t29 -14t39 -5zM68 336q3 42 19.5 73.5t43.5 51.5t61 29.5t72 9.5q29 0 53.5 -4.5t45.5 -14t37.5 -23.5t27.5 -32q14 18 32 31.5t39 23t45.5 14.5t51.5 5q46 0 85 -15.5t67.5 -46t44 -73.5t15.5 -97v-36h-348q1 -39 12 -70t29.5 -53t43.5 -33.5 t55 -11.5q27 0 47.5 6.5t34.5 18.5t22 26.5t12 32.5h88q-5 -33 -22 -62t-44 -51t-62.5 -34.5t-75.5 -12.5q-34 0 -63 6.5t-53.5 20t-43.5 32t-33 43.5q-17 -29 -39 -49t-47.5 -31.5t-52.5 -16.5t-56 -5q-38 0 -69 9.5t-52 27.5t-32 43t-11 56q0 30 9 54t28.5 43t50 32.5 t72.5 20.5l96 16q21 4 33 7t18.5 7t9.5 9.5t3 14.5q0 21 -6 39.5t-19 32t-33 21t-46 7.5q-22 0 -42 -5.5t-35 -17.5t-24.5 -29t-10.5 -40h-84z"/>
<glyph glyph-name="ccedilla" horiz-adv-x="516" unicode="ç" d="M228 -84l24 73q-49 3 -88.5 22.5t-67 52.5t-42 79t-14.5 101q0 57 17.5 104.5t49 81.5t74 52t91.5 18q46 0 83.5 -13t64.5 -36.5t43 -56t21 -70.5h-88q-4 22 -13 40t-24.5 31.5t-37 21t-49.5 7.5q-30 0 -55.5 -13t-44.5 -37t-29.5 -57t-10.5 -73t10.5 -73t29.5 -57 t44.5 -37t55.5 -13q28 0 49.5 7.5t37 21t24.5 31.5t13 40h88q-5 -37 -20 -68t-40 -54t-59 -37t-77 -16v-25q22 -1 39.5 -8.5t29 -19.5t17.5 -27t6 -33q0 -21 -7.5 -38.5t-22 -30.5t-36.5 -20t-50 -7h-56v56h52q13 0 22.5 2t16 6.5t10 12t3.5 19.5q0 10 -3.5 18t-10.5 12.5 t-16.5 7t-21.5 2.5h-32z"/>
<glyph glyph-name="egrave" horiz-adv-x="524" unicode="è" d="M240 568l-144 164h104l104 -164h-64zM272 424q-25 0 -47 -8.5t-39.5 -25t-30 -40t-18.5 -52.5h261q-3 33 -12.5 56.5t-25.5 39t-38 23t-50 7.5zM40 244q0 56 17.5 103.5t49 81.5t74 52.5t91.5 18.5q48 0 87.5 -15.5t68.5 -46t44.5 -73.5t15.5 -97v-36h-356q1 -38 12 -69 t30 -53t44.5 -34t57.5 -12q26 0 47 6.5t36 18.5t24 27t13 32h88q-5 -33 -22 -62t-44.5 -51t-63.5 -34.5t-78 -12.5q-56 0 -100.5 18t-74.5 51.5t-45.5 81t-15.5 105.5z"/>
<glyph glyph-name="eacute" horiz-adv-x="524" unicode="é" d="M240 568l104 164h104l-144 -164h-64zM272 424q-25 0 -47 -8.5t-39.5 -25t-30 -40t-18.5 -52.5h261q-3 33 -12.5 56.5t-25.5 39t-38 23t-50 7.5zM40 244q0 56 17.5 103.5t49 81.5t74 52.5t91.5 18.5q48 0 87.5 -15.5t68.5 -46t44.5 -73.5t15.5 -97v-36h-356q1 -38 12 -69 t30 -53t44.5 -34t57.5 -12q26 0 47 6.5t36 18.5t24 27t13 32h88q-5 -33 -22 -62t-44.5 -51t-63.5 -34.5t-78 -12.5q-56 0 -100.5 18t-74.5 51.5t-45.5 81t-15.5 105.5z"/>
<glyph glyph-name="ecircumflex" horiz-adv-x="524" unicode="ê" d="M104 568l128 164h80l128 -164h-84l-84 112l-84 -112h-84zM272 424q-25 0 -47 -8.5t-39.5 -25t-30 -40t-18.5 -52.5h261q-3 33 -12.5 56.5t-25.5 39t-38 23t-50 7.5zM40 244q0 56 17.5 103.5t49 81.5t74 52.5t91.5 18.5q48 0 87.5 -15.5t68.5 -46t44.5 -73.5t15.5 -97v-36 h-356q1 -38 12 -69t30 -53t44.5 -34t57.5 -12q26 0 47 6.5t36 18.5t24 27t13 32h88q-5 -33 -22 -62t-44.5 -51t-63.5 -34.5t-78 -12.5q-56 0 -100.5 18t-74.5 51.5t-45.5 81t-15.5 105.5z"/>
<glyph glyph-name="edieresis" horiz-adv-x="524" unicode="ë" d="M128 604v92h88v-92h-88zM328 604v92h88v-92h-88zM272 424q-25 0 -47 -8.5t-39.5 -25t-30 -40t-18.5 -52.5h261q-3 33 -12.5 56.5t-25.5 39t-38 23t-50 7.5zM40 244q0 56 17.5 103.5t49 81.5t74 52.5t91.5 18.5q48 0 87.5 -15.5t68.5 -46t44.5 -73.5t15.5 -97v-36h-356 q1 -38 12 -69t30 -53t44.5 -34t57.5 -12q26 0 47 6.5t36 18.5t24 27t13 32h88q-5 -33 -22 -62t-44.5 -51t-63.5 -34.5t-78 -12.5q-56 0 -100.5 18t-74.5 51.5t-45.5 81t-15.5 105.5z"/>
<glyph glyph-name="igrave" horiz-adv-x="240" unicode="ì" d="M88 568l-144 164h104l104 -164h-64zM76 0v488h88v-488h-88z"/>
<glyph glyph-name="iacute" horiz-adv-x="240" unicode="í" d="M88 568l104 164h104l-144 -164h-64zM76 0v488h88v-488h-88z"/>
<glyph glyph-name="icircumflex" horiz-adv-x="240" unicode="î" d="M-48 568l128 164h80l128 -164h-84l-84 112l-84 -112h-84zM76 0v488h88v-488h-88z"/>
<glyph glyph-name="idieresis" horiz-adv-x="240" unicode="ï" d="M-24 604v92h88v-92h-88zM176 604v92h88v-92h-88zM76 0v488h88v-488h-88z"/>
<glyph glyph-name="eth" horiz-adv-x="576" unicode="ð" d="M136 228q0 -35 11 -65.5t32 -52.5t48.5 -34t60.5 -12t60.5 12t48.5 34t32 52.5t11 65.5q0 37 -11 67.5t-31.5 52t-48.5 33t-61 11.5t-60.5 -12t-48.5 -34t-32 -52.5t-11 -65.5zM204 520l-32 48l90 62q-13 7 -28 13.5t-31 13t-34 12t-37 11.5l20 64q25 -7 48.5 -14.5 t45.5 -16t42 -18t39 -20.5l101 69l32 -48l-81 -56q36 -28 64 -62.5t48 -78.5t30.5 -101t10.5 -127v-3q0 -66 -18 -118.5t-51 -88.5t-77.5 -54.5t-97.5 -18.5q-55 0 -100 17.5t-77.5 50t-49.5 76.5t-17 96q0 51 18.5 95.5t51.5 77t75.5 50t90.5 17.5q19 0 39 -3.5t40 -10.5 t38 -18.5t31 -27.5h5q-9 31 -20.5 58t-26 50t-32.5 43t-40 37z"/>
<glyph glyph-name="ntilde" horiz-adv-x="564" unicode="ñ" d="M120 596q1 23 7.5 42.5t19 34.5t30 23t39.5 8q20 0 38.5 -6.5t43.5 -19t36 -17.5t22 -5q10 0 17.5 4t13 11t8.5 15.5t5 17.5h48q-1 -23 -7.5 -42.5t-19 -34.5t-30 -23t-39.5 -8q-20 0 -38.5 6.5t-43.5 19t-36 17.5t-22 5q-10 0 -17.5 -4t-13 -11t-8.5 -15.5t-5 -17.5h-48 zM76 0v488h84v-72h4q10 21 25 36.5t34.5 26t42.5 16t50 5.5q38 0 70 -11t57 -35t39 -63.5t14 -94.5v-296h-88v284q0 38 -8 65t-22.5 43.5t-35 24t-46.5 7.5q-28 0 -52 -12t-42 -34t-28 -54t-10 -71v-253h-88z"/>
<glyph glyph-name="ograve" horiz-adv-x="560" unicode="ò" d="M248 568l-144 164h104l104 -164h-64zM132 244q0 -40 10.5 -73.5t30.5 -57t47 -36.5t60 -13t60 13t47 36.5t30.5 57t10.5 73.5q0 41 -10.5 74.5t-30.5 57t-47 36t-60 12.5t-60 -13t-47 -36.5t-30.5 -57t-10.5 -73.5zM40 244q0 58 17.5 105.5t50 81t76.5 51.5t96 18 q55 0 99.5 -18t76 -51.5t48 -81t16.5 -105.5t-17.5 -105.5t-50 -81t-76.5 -51.5t-96 -18q-55 0 -99.5 18t-76 51.5t-48 81t-16.5 105.5z"/>
<glyph glyph-name="oacute" horiz-adv-x="560" unicode="ó" d="M248 568l104 164h104l-144 -164h-64zM132 244q0 -40 10.5 -73.5t30.5 -57t47 -36.5t60 -13t60 13t47 36.5t30.5 57t10.5 73.5q0 41 -10.5 74.5t-30.5 57t-47 36t-60 12.5t-60 -13t-47 -36.5t-30.5 -57t-10.5 -73.5zM40 244q0 58 17.5 105.5t50 81t76.5 51.5t96 18 q55 0 99.5 -18t76 -51.5t48 -81t16.5 -105.5t-17.5 -105.5t-50 -81t-76.5 -51.5t-96 -18q-55 0 -99.5 18t-76 51.5t-48 81t-16.5 105.5z"/>
<glyph glyph-name="ocircumflex" horiz-adv-x="560" unicode="ô" d="M112 568l128 164h80l128 -164h-84l-84 112l-84 -112h-84zM132 244q0 -40 10.5 -73.5t30.5 -57t47 -36.5t60 -13t60 13t47 36.5t30.5 57t10.5 73.5q0 41 -10.5 74.5t-30.5 57t-47 36t-60 12.5t-60 -13t-47 -36.5t-30.5 -57t-10.5 -73.5zM40 244q0 58 17.5 105.5t50 81 t76.5 51.5t96 18q55 0 99.5 -18t76 -51.5t48 -81t16.5 -105.5t-17.5 -105.5t-50 -81t-76.5 -51.5t-96 -18q-55 0 -99.5 18t-76 51.5t-48 81t-16.5 105.5z"/>
<glyph glyph-name="otilde" horiz-adv-x="560" unicode="õ" d="M116 596q1 23 7.5 42.5t19 34.5t30 23t39.5 8q20 0 38.5 -6.5t43.5 -19t36 -17.5t22 -5q10 0 17.5 4t13 11t8.5 15.5t5 17.5h48q-1 -23 -7.5 -42.5t-19 -34.5t-30 -23t-39.5 -8q-20 0 -38.5 6.5t-43.5 19t-36 17.5t-22 5q-10 0 -17.5 -4t-13 -11t-8.5 -15.5t-5 -17.5h-48 zM132 244q0 -40 10.5 -73.5t30.5 -57t47 -36.5t60 -13t60 13t47 36.5t30.5 57t10.5 73.5q0 41 -10.5 74.5t-30.5 57t-47 36t-60 12.5t-60 -13t-47 -36.5t-30.5 -57t-10.5 -73.5zM40 244q0 58 17.5 105.5t50 81t76.5 51.5t96 18q55 0 99.5 -18t76 -51.5t48 -81t16.5 -105.5 t-17.5 -105.5t-50 -81t-76.5 -51.5t-96 -18q-55 0 -99.5 18t-76 51.5t-48 81t-16.5 105.5z"/>
<glyph glyph-name="odieresis" horiz-adv-x="560" unicode="ö" d="M136 604v92h88v-92h-88zM336 604v92h88v-92h-88zM132 244q0 -40 10.5 -73.5t30.5 -57t47 -36.5t60 -13t60 13t47 36.5t30.5 57t10.5 73.5q0 41 -10.5 74.5t-30.5 57t-47 36t-60 12.5t-60 -13t-47 -36.5t-30.5 -57t-10.5 -73.5zM40 244q0 58 17.5 105.5t50 81t76.5 51.5 t96 18q55 0 99.5 -18t76 -51.5t48 -81t16.5 -105.5t-17.5 -105.5t-50 -81t-76.5 -51.5t-96 -18q-55 0 -99.5 18t-76 51.5t-48 81t-16.5 105.5z"/>
<glyph glyph-name="divide" d="M236 26v100h96v-100h-96zM56 216v76h456v-76h-456zM236 380v100h96v-100h-96z" unicode="÷"/>
<glyph glyph-name="oslash" horiz-adv-x="560" unicode="ø" d="M428 244q0 16 -1.5 31.5t-5 29t-8.5 26t-11 23.5l-211 -259q9 -8 19 -13.5t21.5 -9.5t23.5 -6t25 -2q33 0 60 13t47 36.5t30.5 57t10.5 73.5zM132 244q0 -16 1.5 -31t5 -29t8.5 -26.5t11 -23.5l211 259q-9 8 -19 13.5t-21.5 9.5t-23.5 6t-25 2q-33 0 -60 -13t-47 -36.5 t-30.5 -57t-10.5 -73.5zM40 -12l60 74q-15 17 -26 37t-18.5 42.5t-11.5 48.5t-4 54q0 58 17.5 105.5t50 81t76.5 51.5t96 18q21 0 40.5 -2.5t37 -8t34 -13t30.5 -17.5l34 41h64l-61 -75q15 -17 26 -36.5t19 -42.5t12 -48.5t4 -53.5q0 -58 -17.5 -105.5t-50 -81t-76.5 -51.5 t-96 -18q-21 0 -40.5 2.5t-37.5 8t-34.5 13t-30.5 17.5l-33 -41h-64z"/>
<glyph glyph-name="ugrave" horiz-adv-x="560" unicode="ù" d="M250 568l-144 164h104l104 -164h-64zM68 192v296h88v-284q0 -38 8 -65t22.5 -43.5t35 -24t46.5 -7.5q28 0 51.5 12t41 35t26.5 55t9 70v252h88v-488h-84v72h-4q-11 -21 -25 -37t-32.5 -26.5t-41 -15.5t-49.5 -5q-38 0 -70 11t-57 35t-39 63.5t-14 94.5z"/>
<glyph glyph-name="uacute" horiz-adv-x="560" unicode="ú" d="M250 568l104 164h104l-144 -164h-64zM68 192v296h88v-284q0 -38 8 -65t22.5 -43.5t35 -24t46.5 -7.5q28 0 51.5 12t41 35t26.5 55t9 70v252h88v-488h-84v72h-4q-11 -21 -25 -37t-32.5 -26.5t-41 -15.5t-49.5 -5q-38 0 -70 11t-57 35t-39 63.5t-14 94.5z"/>
<glyph glyph-name="ucircumflex" horiz-adv-x="560" unicode="û" d="M114 568l128 164h80l128 -164h-84l-84 112l-84 -112h-84zM68 192v296h88v-284q0 -38 8 -65t22.5 -43.5t35 -24t46.5 -7.5q28 0 51.5 12t41 35t26.5 55t9 70v252h88v-488h-84v72h-4q-11 -21 -25 -37t-32.5 -26.5t-41 -15.5t-49.5 -5q-38 0 -70 11t-57 35t-39 63.5 t-14 94.5z"/>
<glyph glyph-name="udieresis" horiz-adv-x="560" unicode="ü" d="M138 604v92h88v-92h-88zM338 604v92h88v-92h-88zM68 192v296h88v-284q0 -38 8 -65t22.5 -43.5t35 -24t46.5 -7.5q28 0 51.5 12t41 35t26.5 55t9 70v252h88v-488h-84v72h-4q-11 -21 -25 -37t-32.5 -26.5t-41 -15.5t-49.5 -5q-38 0 -70 11t-57 35t-39 63.5t-14 94.5z"/>
<glyph glyph-name="yacute" horiz-adv-x="468" unicode="ý" d="M200 568l104 164h104l-144 -164h-64zM33 -152h32q21 0 39 6.5t33 19t27 31t21 43.5l11 31l-192 509h96l136 -392h4l136 392h88l-207 -564q-11 -30 -26 -56.5t-36 -48t-50 -34.5t-64 -13h-48v76z"/>
<glyph glyph-name="thorn" horiz-adv-x="584" unicode="þ" d="M452 248q0 42 -11 75.5t-30.5 55.5t-46 33.5t-56.5 11.5q-29 0 -55 -11.5t-45.5 -33.5t-31 -54t-12.5 -73v-8q0 -42 11 -76t30.5 -57t46 -35t56.5 -12t56.5 12.5t46 36.5t30.5 58.5t11 76.5zM544 248q0 -59 -17 -107t-48 -82.5t-72 -52.5t-87 -18q-26 0 -49 5t-43 15.5 t-36 27t-28 40.5h-4q1 -22 2 -46t1.5 -45.5t0.5 -37.5v-35v-132h-88v952h88v-156v-35t-0.5 -37.5t-1.5 -45.5t-2 -46h4q12 23 29 40t38.5 27.5t46 15.5t50.5 5q47 0 86.5 -17t68.5 -49.5t45 -79.5t16 -106z"/>
<glyph glyph-name="Amacron" horiz-adv-x="644" unicode="Ā" d="M180 776v68h276v-68h-276zM322 592h-4l-120 -332h244zM12 0l256 688h108l256 -688h-96l-65 180h-302l-65 -180h-92z"/>
<glyph glyph-name="amacron" horiz-adv-x="524" unicode="ā" d="M120 616v68h276v-68h-276zM368 204v47q-4 -4 -9 -8t-11.5 -6.5t-14.5 -4.5t-17 -4l-92 -16q-24 -4 -40.5 -11t-27 -17t-15.5 -23t-5 -29t5.5 -29t17 -23t29 -15t40.5 -5q29 0 54.5 9t44.5 27.5t30 45.5t11 62zM48 124q0 31 9 55t28.5 43t49.5 32t73 20l96 16q21 4 33 7 t18.5 7t9.5 9.5t3 14.5q0 22 -6.5 40.5t-19.5 32t-33 20.5t-45 7q-26 0 -46.5 -6.5t-34.5 -19t-21.5 -29.5t-9.5 -37h-84q2 35 15.5 65t38.5 52t61 34.5t81 12.5q47 0 83.5 -12t60.5 -35.5t36 -57t12 -75.5v-320h-84v65h-4q-10 -19 -26 -33.5t-36 -24t-43.5 -14.5t-50.5 -5 q-38 0 -69 9.5t-52 27.5t-32 43t-11 56z"/>
<glyph glyph-name="Abreve" horiz-adv-x="644" unicode="Ă" d="M320 768q-25 0 -48.5 7.5t-43.5 24t-34 43.5t-18 65h56q3 -20 10 -35.5t18 -26.5t26 -16.5t34 -5.5t34 5.5t26 16.5t18 26.5t10 35.5h56q-4 -38 -18 -65t-34 -43.5t-43.5 -24t-48.5 -7.5zM322 592h-4l-120 -332h244zM12 0l256 688h108l256 -688h-96l-65 180h-302 l-65 -180h-92z"/>
<glyph glyph-name="abreve" horiz-adv-x="524" unicode="ă" d="M260 580q-25 0 -48.5 7.5t-43.5 24t-34 43.5t-18 65h56q3 -20 10 -35.5t18 -26.5t26 -16.5t34 -5.5t34 5.5t26 16.5t18 26.5t10 35.5h56q-4 -38 -18 -65t-34 -43.5t-43.5 -24t-48.5 -7.5zM368 204v47q-4 -4 -9 -8t-11.5 -6.5t-14.5 -4.5t-17 -4l-92 -16q-24 -4 -40.5 -11 t-27 -17t-15.5 -23t-5 -29t5.5 -29t17 -23t29 -15t40.5 -5q29 0 54.5 9t44.5 27.5t30 45.5t11 62zM48 124q0 31 9 55t28.5 43t49.5 32t73 20l96 16q21 4 33 7t18.5 7t9.5 9.5t3 14.5q0 22 -6.5 40.5t-19.5 32t-33 20.5t-45 7q-26 0 -46.5 -6.5t-34.5 -19t-21.5 -29.5 t-9.5 -37h-84q2 35 15.5 65t38.5 52t61 34.5t81 12.5q47 0 83.5 -12t60.5 -35.5t36 -57t12 -75.5v-320h-84v65h-4q-10 -19 -26 -33.5t-36 -24t-43.5 -14.5t-50.5 -5q-38 0 -69 9.5t-52 27.5t-32 43t-11 56z"/>
<glyph glyph-name="Aogonek" horiz-adv-x="644" unicode="Ą" d="M322 592h-4l-120 -332h244zM504 -128q0 16 4.5 31t14 31t24.5 32.5t37 33.5h-48l-65 180h-302l-65 -180h-92l256 688h108l256 -688q-16 -16 -27.5 -32t-18.5 -30t-10.5 -26.5t-3.5 -23.5t3 -20t9.5 -15t17.5 -9.5t26 -3.5h28v-60h-40q-27 0 -48 7t-35 19t-21.5 29 t-7.5 37z"/>
<glyph glyph-name="aogonek" horiz-adv-x="524" unicode="ą" d="M368 204v47q-4 -4 -9 -8t-11.5 -6.5t-14.5 -4.5t-17 -4l-92 -16q-24 -4 -40.5 -11t-27 -17t-15.5 -23t-5 -29t5.5 -29t17 -23t29 -15t40.5 -5q29 0 54.5 9t44.5 27.5t30 45.5t11 62zM328 -128q0 16 4.5 31t14 31t24.5 32.5t37 33.5h-36v65h-4q-10 -19 -26 -33.5t-36 -24 t-43.5 -14.5t-50.5 -5q-38 0 -69 9.5t-52 27.5t-32 43t-11 56t9 55t28.5 43t49.5 32t73 20l96 16q21 4 33 7t18.5 7t9.5 9.5t3 14.5q0 22 -6.5 40.5t-19.5 32t-33 20.5t-45 7q-26 0 -46.5 -6.5t-34.5 -19t-21.5 -29.5t-9.5 -37h-84q2 35 15.5 65t38.5 52t61 34.5t81 12.5 q47 0 83.5 -12t60.5 -35.5t36 -57t12 -75.5v-320q-16 -16 -27.5 -32t-18.5 -30t-10.5 -26.5t-3.5 -23.5t3 -20t9.5 -15t17.5 -9.5t26 -3.5h28v-60h-40q-27 0 -48 7t-35 19t-21.5 29t-7.5 37z"/>
<glyph glyph-name="Cacute" horiz-adv-x="712" unicode="Ć" d="M344 768l104 164h104l-144 -164h-64zM44 344q0 76 24 141.5t68.5 113.5t105.5 74.5t134 26.5q59 0 108.5 -16.5t87 -46.5t61.5 -72t35 -93h-95q-10 35 -27 62t-41.5 45t-57 27.5t-71.5 9.5q-52 0 -95.5 -19.5t-75 -56t-48.5 -87t-17 -109.5q0 -58 17 -108t48 -87 t73.5 -57t93.5 -20q42 0 75.5 9.5t58 27.5t41 45t26.5 62h95q-11 -51 -35.5 -93t-63 -72t-88.5 -46.5t-109 -16.5q-71 0 -131.5 26t-104.5 73.5t-68 113.5t-24 143z"/>
<glyph glyph-name="cacute" horiz-adv-x="516" unicode="ć" d="M240 568l104 164h104l-144 -164h-64zM40 244q0 57 17.5 104.5t49 81.5t74 52t91.5 18q46 0 83.5 -13t64.5 -36.5t43 -56t21 -70.5h-88q-4 22 -13 40t-24.5 31.5t-37 21t-49.5 7.5q-30 0 -55.5 -13t-44.5 -37t-29.5 -57t-10.5 -73t10.5 -73t29.5 -57t44.5 -37t55.5 -13 q28 0 49.5 7.5t37 21t24.5 31.5t13 40h88q-5 -38 -21 -70.5t-43 -56t-64.5 -36.5t-83.5 -13q-53 0 -96.5 18t-73.5 51.5t-46 81t-16 105.5z"/>
<glyph glyph-name="Ccircumflex" horiz-adv-x="712" unicode="Ĉ" d="M208 768l128 164h80l128 -164h-84l-84 112l-84 -112h-84zM44 344q0 76 24 141.5t68.5 113.5t105.5 74.5t134 26.5q59 0 108.5 -16.5t87 -46.5t61.5 -72t35 -93h-95q-10 35 -27 62t-41.5 45t-57 27.5t-71.5 9.5q-52 0 -95.5 -19.5t-75 -56t-48.5 -87t-17 -109.5 q0 -58 17 -108t48 -87t73.5 -57t93.5 -20q42 0 75.5 9.5t58 27.5t41 45t26.5 62h95q-11 -51 -35.5 -93t-63 -72t-88.5 -46.5t-109 -16.5q-71 0 -131.5 26t-104.5 73.5t-68 113.5t-24 143z"/>
<glyph glyph-name="ccircumflex" horiz-adv-x="516" unicode="ĉ" d="M104 568l128 164h80l128 -164h-84l-84 112l-84 -112h-84zM40 244q0 57 17.5 104.5t49 81.5t74 52t91.5 18q46 0 83.5 -13t64.5 -36.5t43 -56t21 -70.5h-88q-4 22 -13 40t-24.5 31.5t-37 21t-49.5 7.5q-30 0 -55.5 -13t-44.5 -37t-29.5 -57t-10.5 -73t10.5 -73t29.5 -57 t44.5 -37t55.5 -13q28 0 49.5 7.5t37 21t24.5 31.5t13 40h88q-5 -38 -21 -70.5t-43 -56t-64.5 -36.5t-83.5 -13q-53 0 -96.5 18t-73.5 51.5t-46 81t-16 105.5z"/>
<glyph glyph-name="Cdotaccent" horiz-adv-x="712" unicode="Ċ" d="M332 768v92h88v-92h-88zM44 344q0 76 24 141.5t68.5 113.5t105.5 74.5t134 26.5q59 0 108.5 -16.5t87 -46.5t61.5 -72t35 -93h-95q-10 35 -27 62t-41.5 45t-57 27.5t-71.5 9.5q-52 0 -95.5 -19.5t-75 -56t-48.5 -87t-17 -109.5q0 -58 17 -108t48 -87t73.5 -57t93.5 -20 q42 0 75.5 9.5t58 27.5t41 45t26.5 62h95q-11 -51 -35.5 -93t-63 -72t-88.5 -46.5t-109 -16.5q-71 0 -131.5 26t-104.5 73.5t-68 113.5t-24 143z"/>
<glyph glyph-name="cdotaccent" horiz-adv-x="516" unicode="ċ" d="M228 604v92h88v-92h-88zM40 244q0 57 17.5 104.5t49 81.5t74 52t91.5 18q46 0 83.5 -13t64.5 -36.5t43 -56t21 -70.5h-88q-4 22 -13 40t-24.5 31.5t-37 21t-49.5 7.5q-30 0 -55.5 -13t-44.5 -37t-29.5 -57t-10.5 -73t10.5 -73t29.5 -57t44.5 -37t55.5 -13q28 0 49.5 7.5 t37 21t24.5 31.5t13 40h88q-5 -38 -21 -70.5t-43 -56t-64.5 -36.5t-83.5 -13q-53 0 -96.5 18t-73.5 51.5t-46 81t-16 105.5z"/>
<glyph glyph-name="Ccaron" horiz-adv-x="712" unicode="Č" d="M336 768l-128 164h84l84 -112l84 112h84l-128 -164h-80zM44 344q0 76 24 141.5t68.5 113.5t105.5 74.5t134 26.5q59 0 108.5 -16.5t87 -46.5t61.5 -72t35 -93h-95q-10 35 -27 62t-41.5 45t-57 27.5t-71.5 9.5q-52 0 -95.5 -19.5t-75 -56t-48.5 -87t-17 -109.5 q0 -58 17 -108t48 -87t73.5 -57t93.5 -20q42 0 75.5 9.5t58 27.5t41 45t26.5 62h95q-11 -51 -35.5 -93t-63 -72t-88.5 -46.5t-109 -16.5q-71 0 -131.5 26t-104.5 73.5t-68 113.5t-24 143z"/>
<glyph glyph-name="ccaron" horiz-adv-x="516" unicode="č" d="M232 568l-128 164h84l84 -112l84 112h84l-128 -164h-80zM40 244q0 57 17.5 104.5t49 81.5t74 52t91.5 18q46 0 83.5 -13t64.5 -36.5t43 -56t21 -70.5h-88q-4 22 -13 40t-24.5 31.5t-37 21t-49.5 7.5q-30 0 -55.5 -13t-44.5 -37t-29.5 -57t-10.5 -73t10.5 -73t29.5 -57 t44.5 -37t55.5 -13q28 0 49.5 7.5t37 21t24.5 31.5t13 40h88q-5 -38 -21 -70.5t-43 -56t-64.5 -36.5t-83.5 -13q-53 0 -96.5 18t-73.5 51.5t-46 81t-16 105.5z"/>
<glyph glyph-name="Dcaron" horiz-adv-x="704" unicode="Ď" d="M284 768l-128 164h84l84 -112l84 112h84l-128 -164h-80zM300 608h-120v-528h120q70 0 121 21t82.5 57.5t46 83.5t14.5 102t-14.5 102t-46 83.5t-82.5 57.5t-121 21zM88 0v688h212q87 0 155 -25t113.5 -71t68.5 -109t23 -139t-23 -139t-68.5 -109t-113.5 -71t-155 -25 h-212z"/>
<glyph glyph-name="dcaron" horiz-adv-x="584" unicode="ď" d="M596 516l28 116h-40v100h96v-92l-40 -124h-44zM132 240q0 -42 11 -75.5t30.5 -55.5t46 -33.5t56.5 -11.5q29 0 55 11.5t45.5 33.5t31 54t12.5 72v17q-1 41 -12.5 73t-31 54t-45.5 33.5t-55 11.5q-30 0 -56.5 -12.5t-46 -36.5t-30.5 -58.5t-11 -76.5zM40 240q0 59 17 107 t48 82.5t72 52.5t87 18q26 0 49 -5t43 -15.5t36 -27t28 -40.5h4q-1 22 -2 46t-1.5 45.5t-0.5 37.5v35v156h88v-732h-84v76h-4q-12 -23 -29 -40t-38.5 -27.5t-46 -15.5t-50.5 -5q-47 0 -86.5 17t-68.5 49.5t-45 79.5t-16 106z"/>
<glyph glyph-name="Dcroat" horiz-adv-x="704" unicode="Đ" d="M300 608h-120v-224h160v-76h-160v-228h120q70 0 121 21t82.5 57.5t46 83.5t14.5 102t-14.5 102t-46 83.5t-82.5 57.5t-121 21zM4 308v76h84v304h212q87 0 155 -25t113.5 -71t68.5 -109t23 -139t-23 -139t-68.5 -109t-113.5 -71t-155 -25h-212v308h-84z"/>
<glyph glyph-name="dcroat" horiz-adv-x="584" unicode="đ" d="M132 240q0 -42 11 -75.5t30.5 -55.5t46 -33.5t56.5 -11.5q29 0 55 11.5t45.5 33.5t31 54t12.5 72v9q0 42 -11 76t-30.5 57t-46 35t-56.5 12t-56.5 -12.5t-46 -36.5t-30.5 -58.5t-11 -76.5zM276 592v60h144v80h88v-80h76v-60h-76v-592h-84v76h-4q-12 -23 -29 -40 t-38.5 -27.5t-46 -15.5t-50.5 -5q-47 0 -86.5 17t-68.5 49.5t-45 79.5t-16 106t17 107t48 82.5t72 52.5t87 18q26 0 49 -5t43 -15.5t36 -27t28 -40.5h4q-1 22 -2 46t-1.5 45.5t-0.5 37.5v35v16h-144z"/>
<glyph glyph-name="Emacron" horiz-adv-x="612" unicode="Ē" d="M180 776v68h276v-68h-276zM88 0v688h464v-80h-372v-218h296v-80h-296v-230h380v-80h-472z"/>
<glyph glyph-name="emacron" horiz-adv-x="524" unicode="ē" d="M132 616v68h276v-68h-276zM272 424q-25 0 -47 -8.5t-39.5 -25t-30 -40t-18.5 -52.5h261q-3 33 -12.5 56.5t-25.5 39t-38 23t-50 7.5zM40 244q0 56 17.5 103.5t49 81.5t74 52.5t91.5 18.5q48 0 87.5 -15.5t68.5 -46t44.5 -73.5t15.5 -97v-36h-356q1 -38 12 -69t30 -53 t44.5 -34t57.5 -12q26 0 47 6.5t36 18.5t24 27t13 32h88q-5 -33 -22 -62t-44.5 -51t-63.5 -34.5t-78 -12.5q-56 0 -100.5 18t-74.5 51.5t-45.5 81t-15.5 105.5z"/>
<glyph glyph-name="Ebreve" horiz-adv-x="612" unicode="Ĕ" d="M320 768q-25 0 -48.5 7.5t-43.5 24t-34 43.5t-18 65h56q3 -20 10 -35.5t18 -26.5t26 -16.5t34 -5.5t34 5.5t26 16.5t18 26.5t10 35.5h56q-4 -38 -18 -65t-34 -43.5t-43.5 -24t-48.5 -7.5zM88 0v688h464v-80h-372v-218h296v-80h-296v-230h380v-80h-472z"/>
<glyph glyph-name="ebreve" horiz-adv-x="524" unicode="ĕ" d="M272 580q-25 0 -48.5 7.5t-43.5 24t-34 43.5t-18 65h56q3 -20 10 -35.5t18 -26.5t26 -16.5t34 -5.5t34 5.5t26 16.5t18 26.5t10 35.5h56q-4 -38 -18 -65t-34 -43.5t-43.5 -24t-48.5 -7.5zM272 424q-25 0 -47 -8.5t-39.5 -25t-30 -40t-18.5 -52.5h261q-3 33 -12.5 56.5 t-25.5 39t-38 23t-50 7.5zM40 244q0 56 17.5 103.5t49 81.5t74 52.5t91.5 18.5q48 0 87.5 -15.5t68.5 -46t44.5 -73.5t15.5 -97v-36h-356q1 -38 12 -69t30 -53t44.5 -34t57.5 -12q26 0 47 6.5t36 18.5t24 27t13 32h88q-5 -33 -22 -62t-44.5 -51t-63.5 -34.5t-78 -12.5 q-56 0 -100.5 18t-74.5 51.5t-45.5 81t-15.5 105.5z"/>
<glyph glyph-name="Edotaccent" horiz-adv-x="612" unicode="Ė" d="M276 768v92h88v-92h-88zM88 0v688h464v-80h-372v-218h296v-80h-296v-230h380v-80h-472z"/>
<glyph glyph-name="edotaccent" horiz-adv-x="524" unicode="ė" d="M228 604v92h88v-92h-88zM272 424q-25 0 -47 -8.5t-39.5 -25t-30 -40t-18.5 -52.5h261q-3 33 -12.5 56.5t-25.5 39t-38 23t-50 7.5zM40 244q0 56 17.5 103.5t49 81.5t74 52.5t91.5 18.5q48 0 87.5 -15.5t68.5 -46t44.5 -73.5t15.5 -97v-36h-356q1 -38 12 -69t30 -53 t44.5 -34t57.5 -12q26 0 47 6.5t36 18.5t24 27t13 32h88q-5 -33 -22 -62t-44.5 -51t-63.5 -34.5t-78 -12.5q-56 0 -100.5 18t-74.5 51.5t-45.5 81t-15.5 105.5z"/>
<glyph glyph-name="Eogonek" horiz-adv-x="612" unicode="Ę" d="M88 0v688h464v-80h-372v-218h296v-80h-296v-230h380v-80q-16 -16 -27.5 -32t-18.5 -30t-10.5 -26.5t-3.5 -23.5t3 -20t9.5 -15t17.5 -9.5t26 -3.5h28v-60h-40q-27 0 -48 7t-35 19t-21.5 29t-7.5 37q0 16 4.5 31t14 31t24.5 32.5t37 33.5h-424z"/>
<glyph glyph-name="eogonek" horiz-adv-x="524" unicode="ę" d="M272 424q-25 0 -47 -8.5t-39.5 -25t-30 -40t-18.5 -52.5h261q-3 33 -12.5 56.5t-25.5 39t-38 23t-50 7.5zM215 -136q0 18 6.5 35.5t17 33t23.5 29t29 27.5q-2 0 -3.5 -0.5t-3.5 -0.5h-3.5h-4.5q-56 0 -100.5 18t-74.5 51.5t-45.5 81t-15.5 105.5q0 56 17.5 103.5t49 81.5 t74 52.5t91.5 18.5q48 0 87.5 -15.5t68.5 -46t44.5 -73.5t15.5 -97v-36h-356q1 -38 12 -69t30 -53t44.5 -34t57.5 -12q26 0 47 6.5t36 18.5t24 27t13 32h88q-3 -19 -10.5 -36.5t-18.5 -34t-25.5 -30.5t-31.5 -26q-20 -14 -40 -31t-37 -36t-27.5 -38t-10.5 -34q0 -11 3 -19 t9.5 -13t17.5 -7.5t26 -2.5h28v-60h-40q-27 0 -48 5.5t-35.5 16.5t-21.5 26.5t-7 35.5z"/>
<glyph glyph-name="Ecaron" horiz-adv-x="612" unicode="Ě" d="M280 768l-128 164h84l84 -112l84 112h84l-128 -164h-80zM88 0v688h464v-80h-372v-218h296v-80h-296v-230h380v-80h-472z"/>
<glyph glyph-name="ecaron" horiz-adv-x="524" unicode="ě" d="M232 568l-128 164h84l84 -112l84 112h84l-128 -164h-80zM272 424q-25 0 -47 -8.5t-39.5 -25t-30 -40t-18.5 -52.5h261q-3 33 -12.5 56.5t-25.5 39t-38 23t-50 7.5zM40 244q0 56 17.5 103.5t49 81.5t74 52.5t91.5 18.5q48 0 87.5 -15.5t68.5 -46t44.5 -73.5t15.5 -97v-36 h-356q1 -38 12 -69t30 -53t44.5 -34t57.5 -12q26 0 47 6.5t36 18.5t24 27t13 32h88q-5 -33 -22 -62t-44.5 -51t-63.5 -34.5t-78 -12.5q-56 0 -100.5 18t-74.5 51.5t-45.5 81t-15.5 105.5z"/>
<glyph glyph-name="Gcircumflex" horiz-adv-x="760" unicode="Ĝ" d="M216 768l128 164h80l128 -164h-84l-84 112l-84 -112h-84zM624 0l-16 100h-3q-18 -29 -41 -50t-51 -35t-61 -20.5t-72 -6.5q-73 0 -135 26.5t-107 74.5t-69.5 113.5t-24.5 141.5t24.5 141.5t70 113.5t108.5 74.5t137 26.5q60 0 110.5 -16t89 -45.5t64 -69t36.5 -85.5h-96 q-9 28 -25.5 51.5t-42 41.5t-60 28.5t-76.5 10.5q-55 0 -100 -20t-77.5 -57t-49.5 -87t-17 -108t17.5 -108t49.5 -87t76.5 -57t96.5 -20q44 0 83.5 12.5t70.5 37.5t48.5 61t17.5 81v20h-216v80h300v-364h-60z"/>
<glyph glyph-name="gcircumflex" horiz-adv-x="584" unicode="ĝ" d="M108 568l128 164h80l128 -164h-84l-84 112l-84 -112h-84zM132 240q0 -42 11 -75.5t30.5 -55.5t46 -33.5t56.5 -11.5t56.5 12t46 35t30.5 57t11 76t-11 76t-30.5 57t-46 35t-56.5 12t-56.5 -12.5t-46 -36.5t-30.5 -58.5t-11 -76.5zM52 -60h84q0 -22 10 -40t27.5 -30.5 t42 -19t52.5 -6.5q34 0 62 9.5t49 30t33 55.5t12 85v52h-4q-12 -23 -29 -40t-38.5 -27.5t-46 -15.5t-50.5 -5q-47 0 -86.5 17t-68.5 49.5t-45 79.5t-16 106t17 107t48 82.5t72 52.5t87 18q26 0 49 -5t43 -15.5t36 -27t28 -40.5h4v76h84v-464q0 -67 -18.5 -115.5t-51.5 -78.5 t-76 -44t-94 -14q-46 0 -85.5 11t-69 32.5t-45.5 53t-16 71.5z"/>
<glyph glyph-name="Gbreve" horiz-adv-x="760" unicode="Ğ" d="M384 768q-25 0 -48.5 7.5t-43.5 24t-34 43.5t-18 65h56q3 -20 10 -35.5t18 -26.5t26 -16.5t34 -5.5t34 5.5t26 16.5t18 26.5t10 35.5h56q-4 -38 -18 -65t-34 -43.5t-43.5 -24t-48.5 -7.5zM624 0l-16 100h-3q-18 -29 -41 -50t-51 -35t-61 -20.5t-72 -6.5q-73 0 -135 26.5 t-107 74.5t-69.5 113.5t-24.5 141.5t24.5 141.5t70 113.5t108.5 74.5t137 26.5q60 0 110.5 -16t89 -45.5t64 -69t36.5 -85.5h-96q-9 28 -25.5 51.5t-42 41.5t-60 28.5t-76.5 10.5q-55 0 -100 -20t-77.5 -57t-49.5 -87t-17 -108t17.5 -108t49.5 -87t76.5 -57t96.5 -20 q44 0 83.5 12.5t70.5 37.5t48.5 61t17.5 81v20h-216v80h300v-364h-60z"/>
<glyph glyph-name="gbreve" horiz-adv-x="584" unicode="ğ" d="M276 580q-25 0 -48.5 7.5t-43.5 24t-34 43.5t-18 65h56q3 -20 10 -35.5t18 -26.5t26 -16.5t34 -5.5t34 5.5t26 16.5t18 26.5t10 35.5h56q-4 -38 -18 -65t-34 -43.5t-43.5 -24t-48.5 -7.5zM132 240q0 -42 11 -75.5t30.5 -55.5t46 -33.5t56.5 -11.5t56.5 12t46 35t30.5 57 t11 76t-11 76t-30.5 57t-46 35t-56.5 12t-56.5 -12.5t-46 -36.5t-30.5 -58.5t-11 -76.5zM52 -60h84q0 -22 10 -40t27.5 -30.5t42 -19t52.5 -6.5q34 0 62 9.5t49 30t33 55.5t12 85v52h-4q-12 -23 -29 -40t-38.5 -27.5t-46 -15.5t-50.5 -5q-47 0 -86.5 17t-68.5 49.5t-45 79.5 t-16 106t17 107t48 82.5t72 52.5t87 18q26 0 49 -5t43 -15.5t36 -27t28 -40.5h4v76h84v-464q0 -67 -18.5 -115.5t-51.5 -78.5t-76 -44t-94 -14q-46 0 -85.5 11t-69 32.5t-45.5 53t-16 71.5z"/>
<glyph glyph-name="Gdotaccent" horiz-adv-x="760" unicode="Ġ" d="M340 768v92h88v-92h-88zM624 0l-16 100h-3q-18 -29 -41 -50t-51 -35t-61 -20.5t-72 -6.5q-73 0 -135 26.5t-107 74.5t-69.5 113.5t-24.5 141.5t24.5 141.5t70 113.5t108.5 74.5t137 26.5q60 0 110.5 -16t89 -45.5t64 -69t36.5 -85.5h-96q-9 28 -25.5 51.5t-42 41.5 t-60 28.5t-76.5 10.5q-55 0 -100 -20t-77.5 -57t-49.5 -87t-17 -108t17.5 -108t49.5 -87t76.5 -57t96.5 -20q44 0 83.5 12.5t70.5 37.5t48.5 61t17.5 81v20h-216v80h300v-364h-60z"/>
<glyph glyph-name="gdotaccent" horiz-adv-x="584" unicode="ġ" d="M232 604v92h88v-92h-88zM132 240q0 -42 11 -75.5t30.5 -55.5t46 -33.5t56.5 -11.5t56.5 12t46 35t30.5 57t11 76t-11 76t-30.5 57t-46 35t-56.5 12t-56.5 -12.5t-46 -36.5t-30.5 -58.5t-11 -76.5zM52 -60h84q0 -22 10 -40t27.5 -30.5t42 -19t52.5 -6.5q34 0 62 9.5t49 30 t33 55.5t12 85v52h-4q-12 -23 -29 -40t-38.5 -27.5t-46 -15.5t-50.5 -5q-47 0 -86.5 17t-68.5 49.5t-45 79.5t-16 106t17 107t48 82.5t72 52.5t87 18q26 0 49 -5t43 -15.5t36 -27t28 -40.5h4v76h84v-464q0 -67 -18.5 -115.5t-51.5 -78.5t-76 -44t-94 -14q-46 0 -85.5 11 t-69 32.5t-45.5 53t-16 71.5z"/>
<glyph glyph-name="Gcommaaccent" horiz-adv-x="760" unicode="Ģ" d="M336 -68h88v-78l-37 -102h-40l26 92h-37v88zM624 0l-16 100h-3q-18 -29 -41 -50t-51 -35t-61 -20.5t-72 -6.5q-73 0 -135 26.5t-107 74.5t-69.5 113.5t-24.5 141.5t24.5 141.5t70 113.5t108.5 74.5t137 26.5q60 0 110.5 -16t89 -45.5t64 -69t36.5 -85.5h-96 q-9 28 -25.5 51.5t-42 41.5t-60 28.5t-76.5 10.5q-55 0 -100 -20t-77.5 -57t-49.5 -87t-17 -108t17.5 -108t49.5 -87t76.5 -57t96.5 -20q44 0 83.5 12.5t70.5 37.5t48.5 61t17.5 81v20h-216v80h300v-364h-60z"/>
<glyph glyph-name="gcommaaccent" horiz-adv-x="584" unicode="ģ" d="M232 568v78l37 102h40l-26 -92h37v-88h-88zM132 240q0 -42 11 -75.5t30.5 -55.5t46 -33.5t56.5 -11.5t56.5 12t46 35t30.5 57t11 76t-11 76t-30.5 57t-46 35t-56.5 12t-56.5 -12.5t-46 -36.5t-30.5 -58.5t-11 -76.5zM52 -60h84q0 -22 10 -40t27.5 -30.5t42 -19t52.5 -6.5 q34 0 62 9.5t49 30t33 55.5t12 85v52h-4q-12 -23 -29 -40t-38.5 -27.5t-46 -15.5t-50.5 -5q-47 0 -86.5 17t-68.5 49.5t-45 79.5t-16 106t17 107t48 82.5t72 52.5t87 18q26 0 49 -5t43 -15.5t36 -27t28 -40.5h4v76h84v-464q0 -67 -18.5 -115.5t-51.5 -78.5t-76 -44t-94 -14 q-46 0 -85.5 11t-69 32.5t-45.5 53t-16 71.5z"/>
<glyph glyph-name="Hcircumflex" horiz-adv-x="728" unicode="Ĥ" d="M196 768l128 164h80l128 -164h-84l-84 112l-84 -112h-84zM88 0v688h92v-300h368v300h92v-688h-92v308h-368v-308h-92z"/>
<glyph glyph-name="hcircumflex" horiz-adv-x="564" unicode="ĥ" d="M-48 812l128 164h80l128 -164h-84l-84 112l-84 -112h-84zM76 0v732h88v-152v-35t-0.5 -37.5t-1.5 -45.5t-2 -46h4q10 21 25 36.5t34.5 26t42.5 16t50 5.5q38 0 70 -11t57 -35t39 -63.5t14 -94.5v-296h-88v284q0 38 -8 65t-22.5 43.5t-35 24t-46.5 7.5q-28 0 -52 -11.5 t-42 -34t-28 -54t-10 -69.5v-255h-88z"/>
<glyph glyph-name="Hbar" horiz-adv-x="728" unicode="Ħ" d="M180 504v-116h368v116h-368zM0 504v76h88v108h92v-108h368v108h92v-108h88v-76h-88v-504h-92v308h-368v-308h-92v504h-88z"/>
<glyph glyph-name="hbar" horiz-adv-x="564" unicode="ħ" d="M0 592v60h76v80h88v-80h144v-60h-144v-12v-35t-0.5 -37.5t-1.5 -45.5t-2 -46h4q10 21 25 36.5t34.5 26t42.5 16t50 5.5q38 0 70 -11t57 -35t39 -63.5t14 -94.5v-296h-88v284q0 38 -8 65t-22.5 43.5t-35 24t-46.5 7.5q-28 0 -52 -12t-42 -34t-28 -53.5t-10 -70.5v-254h-88 v592h-76z"/>
<glyph glyph-name="Itilde" horiz-adv-x="268" unicode="Ĩ" d="M-30 768q1 23 7.5 42.5t19 34.5t30 23t39.5 8q20 0 38.5 -6.5t43.5 -19t36 -17.5t22 -5q10 0 17.5 4t13 11t8.5 15.5t5 17.5h48q-1 -23 -7.5 -42.5t-19 -34.5t-30 -23t-39.5 -8q-20 0 -38.5 6.5t-43.5 19t-36 17.5t-22 5q-10 0 -17.5 -4t-13 -11t-8.5 -15.5t-5 -17.5h-48 zM88 0v688h92v-688h-92z"/>
<glyph glyph-name="itilde" horiz-adv-x="240" unicode="ĩ" d="M-44 596q1 23 7.5 42.5t19 34.5t30 23t39.5 8q20 0 38.5 -6.5t43.5 -19t36 -17.5t22 -5q10 0 17.5 4t13 11t8.5 15.5t5 17.5h48q-1 -23 -7.5 -42.5t-19 -34.5t-30 -23t-39.5 -8q-20 0 -38.5 6.5t-43.5 19t-36 17.5t-22 5q-10 0 -17.5 -4t-13 -11t-8.5 -15.5t-5 -17.5h-48 zM76 0v488h88v-488h-88z"/>
<glyph glyph-name="Imacron" horiz-adv-x="268" unicode="Ī" d="M-6 776v68h276v-68h-276zM88 0v688h92v-688h-92z"/>
<glyph glyph-name="imacron" horiz-adv-x="240" unicode="ī" d="M-20 616v68h276v-68h-276zM76 0v488h88v-488h-88z"/>
<glyph glyph-name="Ibreve" horiz-adv-x="268" unicode="Ĭ" d="M134 768q-25 0 -48.5 7.5t-43.5 24t-34 43.5t-18 65h56q3 -20 10 -35.5t18 -26.5t26 -16.5t34 -5.5t34 5.5t26 16.5t18 26.5t10 35.5h56q-4 -38 -18 -65t-34 -43.5t-43.5 -24t-48.5 -7.5zM88 0v688h92v-688h-92z"/>
<glyph glyph-name="ibreve" horiz-adv-x="240" unicode="ĭ" d="M120 580q-25 0 -48.5 7.5t-43.5 24t-34 43.5t-18 65h56q3 -20 10 -35.5t18 -26.5t26 -16.5t34 -5.5t34 5.5t26 16.5t18 26.5t10 35.5h56q-4 -38 -18 -65t-34 -43.5t-43.5 -24t-48.5 -7.5zM76 0v488h88v-488h-88z"/>
<glyph glyph-name="Iogonek" horiz-adv-x="268" unicode="Į" d="M88 0v688h92v-688h-2q-16 -16 -27.5 -32t-18.5 -30t-10.5 -26.5t-3.5 -23.5t3 -20t9.5 -15t17.5 -9.5t26 -3.5h28v-60h-40q-27 0 -48 7t-35 19t-21.5 29t-7.5 37q0 16 4.5 31t14 31t24.5 32.5t37 33.5h-42z"/>
<glyph glyph-name="iogonek" horiz-adv-x="240" unicode="į" d="M72 632v100h96v-100h-96zM76 0v488h88v-488q-16 -16 -27.5 -32t-18.5 -30t-10.5 -26.5t-3.5 -23.5t3 -20t9.5 -15t17.5 -9.5t26 -3.5h28v-60h-40q-27 0 -48 7t-35 19t-21.5 29t-7.5 37q0 16 4.5 31t14 31t24.5 32.5t37 33.5h-40z"/>
<glyph glyph-name="Idotaccent" horiz-adv-x="268" unicode="İ" d="M90 768v92h88v-92h-88zM88 0v688h92v-688h-92z"/>
<glyph glyph-name="dotlessi" horiz-adv-x="240" unicode="ı" d="M76 0v488h88v-488h-88z"/>
<glyph glyph-name="IJ" horiz-adv-x="784" unicode="Ĳ" d="M308 196v32h92v-28q0 -36 8 -61.5t22.5 -41t34 -22.5t43.5 -7t43.5 7t34 22.5t22.5 41t8 61.5v488h92v-492q0 -55 -14.5 -95t-41 -65t-63 -36.5t-81.5 -11.5t-81.5 11.5t-63 36.5t-41 65t-14.5 95zM88 0v688h92v-688h-92z"/>
<glyph glyph-name="ij" horiz-adv-x="480" unicode="ĳ" d="M316 -72v560h88v-576q0 -29 -7.5 -53t-23.5 -42t-42 -27.5t-63 -9.5h-32v76h24q16 0 26.5 4.5t17 13.5t9.5 22t3 32zM312 632v100h96v-100h-96zM76 0v488h88v-488h-88zM72 632v100h96v-100h-96z"/>
<glyph glyph-name="Jcircumflex" horiz-adv-x="512" unicode="Ĵ" d="M226 768l128 164h80l128 -164h-84l-84 112l-84 -112h-84zM36 196v32h92v-24q0 -36 8 -62t22.5 -42.5t34 -24t43.5 -7.5t43.5 7.5t34 24t22.5 42.5t8 62v484h92v-492q0 -55 -14.5 -95t-41 -65t-63 -36.5t-81.5 -11.5t-81.5 11.5t-63 36.5t-41 65t-14.5 95z"/>
<glyph glyph-name="jcircumflex" horiz-adv-x="240" unicode="ĵ" d="M-48 568l128 164h80l128 -164h-84l-84 112l-84 -112h-84zM76 -72v560h88v-576q0 -29 -7.5 -53t-23.5 -42t-42 -27.5t-63 -9.5h-32v76h24q16 0 26.5 4.5t17 13.5t9.5 22t3 32z"/>
<glyph glyph-name="Kcommaaccent" horiz-adv-x="652" unicode="Ķ" d="M296 -68h88v-78l-37 -102h-40l26 92h-37v88zM88 0v688h92v-370l344 370h108l-283 -299l295 -389h-104l-252 325l-108 -115v-210h-92z"/>
<glyph glyph-name="kcommaaccent" horiz-adv-x="504" unicode="ķ" d="M224 -68h88v-78l-37 -102h-40l26 92h-37v88zM76 0v732h88v-479l212 235h104l-181 -195l201 -293h-104l-157 229l-75 -82v-147h-88z"/>
<glyph glyph-name="Lacute" horiz-adv-x="544" unicode="Ĺ" d="M100 768l104 164h104l-144 -164h-64zM88 0v688h92v-608h336v-80h-428z"/>
<glyph glyph-name="lacute" horiz-adv-x="240" unicode="ĺ" d="M88 812l104 164h104l-144 -164h-64zM76 0v732h88v-732h-88z"/>
<glyph glyph-name="Lcommaaccent" horiz-adv-x="544" unicode="Ļ" d="M252 -68h88v-78l-37 -102h-40l26 92h-37v88zM88 0v688h92v-608h336v-80h-428z"/>
<glyph glyph-name="lcommaaccent" horiz-adv-x="240" unicode="ļ" d="M76 -68h88v-78l-37 -102h-40l26 92h-37v88zM76 0v732h88v-732h-88z"/>
<glyph glyph-name="Lcaron" horiz-adv-x="544" unicode="Ľ" d="M328 472l28 116h-40v100h96v-92l-40 -124h-44zM88 0v688h92v-608h336v-80h-428z"/>
<glyph glyph-name="lcaron" horiz-adv-x="240" unicode="ľ" d="M76 0v732h88v-732h-88zM252 516l28 116h-40v100h96v-92l-40 -124h-44z"/>
<glyph glyph-name="Ldot" horiz-adv-x="544" unicode="Ŀ" d="M304 304v100h96v-100h-96zM88 0v688h92v-608h336v-80h-428z"/>
<glyph glyph-name="ldot" horiz-adv-x="332" unicode="ŀ" d="M236 288v100h96v-100h-96zM76 0v732h88v-732h-88z"/>
<glyph glyph-name="Lslash" horiz-adv-x="544" unicode="Ł" d="M4 168v84l84 62v374h92v-308l158 116v-84l-158 -115v-217h336v-80h-428v231z"/>
<glyph glyph-name="lslash" horiz-adv-x="240" unicode="ł" d="M4 280l72 67v385h88v-301l72 65v-80l-72 -67v-349h-88v265l-72 -65v80z"/>
<glyph glyph-name="Nacute" horiz-adv-x="736" unicode="Ń" d="M336 768l104 164h104l-144 -164h-64zM88 0v688h88l380 -532h4l-4 532h92v-688h-88l-380 528h-4l4 -528h-92z"/>
<glyph glyph-name="nacute" horiz-adv-x="564" unicode="ń" d="M252 568l104 164h104l-144 -164h-64zM76 0v488h84v-72h4q10 21 25 36.5t34.5 26t42.5 16t50 5.5q38 0 70 -11t57 -35t39 -63.5t14 -94.5v-296h-88v284q0 38 -8 65t-22.5 43.5t-35 24t-46.5 7.5q-28 0 -52 -12t-42 -34t-28 -54t-10 -71v-253h-88z"/>
<glyph glyph-name="Ncommaaccent" horiz-adv-x="736" unicode="Ņ" d="M324 -68h88v-78l-37 -102h-40l26 92h-37v88zM88 0v688h88l380 -532h4l-4 532h92v-688h-88l-380 528h-4l4 -528h-92z"/>
<glyph glyph-name="ncommaaccent" horiz-adv-x="564" unicode="ņ" d="M236 -68h88v-78l-37 -102h-40l26 92h-37v88zM76 0v488h84v-72h4q10 21 25 36.5t34.5 26t42.5 16t50 5.5q38 0 70 -11t57 -35t39 -63.5t14 -94.5v-296h-88v284q0 38 -8 65t-22.5 43.5t-35 24t-46.5 7.5q-28 0 -52 -12t-42 -34t-28 -54t-10 -71v-253h-88z"/>
<glyph glyph-name="Ncaron" horiz-adv-x="736" unicode="Ň" d="M328 768l-128 164h84l84 -112l84 112h84l-128 -164h-80zM88 0v688h88l380 -532h4l-4 532h92v-688h-88l-380 528h-4l4 -528h-92z"/>
<glyph glyph-name="ncaron" horiz-adv-x="564" unicode="ň" d="M244 568l-128 164h84l84 -112l84 112h84l-128 -164h-80zM76 0v488h84v-72h4q10 21 25 36.5t34.5 26t42.5 16t50 5.5q38 0 70 -11t57 -35t39 -63.5t14 -94.5v-296h-88v284q0 38 -8 65t-22.5 43.5t-35 24t-46.5 7.5q-28 0 -52 -12t-42 -34t-28 -54t-10 -71v-253h-88z"/>
<glyph glyph-name="napostrophe" horiz-adv-x="564" unicode="ŉ" d="M83 568l26 92h-37v88h88v-78l-37 -102h-40zM76 0v488h84v-72h4q10 21 25 36.5t34.5 26t42.5 16t50 5.5q38 0 70 -11t57 -35t39 -63.5t14 -94.5v-296h-88v284q0 38 -8 65t-22.5 43.5t-35 24t-46.5 7.5q-28 0 -52 -12t-42 -34t-28 -54t-10 -71v-253h-88z"/>
<glyph glyph-name="Eng" horiz-adv-x="736" unicode="Ŋ" d="M88 0v688h88l380 -532h4l-4 532h92v-720q0 -54 -12 -90.5t-35 -58t-56 -30.5t-77 -9h-48v84h44q24 0 41 6t28.5 19.5t17 34.5t5.5 52v29l-376 523h-4l4 -528h-92z"/>
<glyph glyph-name="eng" horiz-adv-x="564" unicode="ŋ" d="M408 -72v356q0 38 -8 65t-22.5 43.5t-35 24t-46.5 7.5q-28 0 -52 -11.5t-42 -34t-28 -54t-10 -69.5v-255h-88v488h84v-72h4q10 21 25 36.5t34.5 26t42.5 16t50 5.5q38 0 70 -11t57 -35t39 -63.5t14 -94.5v-384q0 -29 -7.5 -53t-23.5 -42t-42 -27.5t-63 -9.5h-32v76h24 q16 0 26.5 4.5t17 13.5t9.5 22t3 32z"/>
<glyph glyph-name="Omacron" horiz-adv-x="760" unicode="Ō" d="M240 776v68h276v-68h-276zM140 344q0 -58 17 -108t49 -87t76.5 -57t97.5 -20t97.5 20t76.5 57t49 87t17 108t-17 108t-49 87t-76.5 57t-97.5 20t-97.5 -20t-76.5 -57t-49 -87t-17 -108zM44 344q0 76 24 141.5t69 113.5t107 74.5t136 26.5q73 0 135 -26.5t107 -74.5 t69.5 -113.5t24.5 -141.5t-24.5 -141.5t-69.5 -113.5t-107 -74.5t-135 -26.5q-74 0 -136 26.5t-107 74.5t-69 113.5t-24 141.5z"/>
<glyph glyph-name="omacron" horiz-adv-x="560" unicode="ō" d="M140 616v68h276v-68h-276zM132 244q0 -40 10.5 -73.5t30.5 -57t47 -36.5t60 -13t60 13t47 36.5t30.5 57t10.5 73.5q0 41 -10.5 74.5t-30.5 57t-47 36t-60 12.5t-60 -13t-47 -36.5t-30.5 -57t-10.5 -73.5zM40 244q0 58 17.5 105.5t50 81t76.5 51.5t96 18q55 0 99.5 -18 t76 -51.5t48 -81t16.5 -105.5t-17.5 -105.5t-50 -81t-76.5 -51.5t-96 -18q-55 0 -99.5 18t-76 51.5t-48 81t-16.5 105.5z"/>
<glyph glyph-name="Obreve" horiz-adv-x="760" unicode="Ŏ" d="M380 768q-25 0 -48.5 7.5t-43.5 24t-34 43.5t-18 65h56q3 -20 10 -35.5t18 -26.5t26 -16.5t34 -5.5t34 5.5t26 16.5t18 26.5t10 35.5h56q-4 -38 -18 -65t-34 -43.5t-43.5 -24t-48.5 -7.5zM140 344q0 -58 17 -108t49 -87t76.5 -57t97.5 -20t97.5 20t76.5 57t49 87t17 108 t-17 108t-49 87t-76.5 57t-97.5 20t-97.5 -20t-76.5 -57t-49 -87t-17 -108zM44 344q0 76 24 141.5t69 113.5t107 74.5t136 26.5q73 0 135 -26.5t107 -74.5t69.5 -113.5t24.5 -141.5t-24.5 -141.5t-69.5 -113.5t-107 -74.5t-135 -26.5q-74 0 -136 26.5t-107 74.5t-69 113.5 t-24 141.5z"/>
<glyph glyph-name="obreve" horiz-adv-x="560" unicode="ŏ" d="M280 580q-25 0 -48.5 7.5t-43.5 24t-34 43.5t-18 65h56q3 -20 10 -35.5t18 -26.5t26 -16.5t34 -5.5t34 5.5t26 16.5t18 26.5t10 35.5h56q-4 -38 -18 -65t-34 -43.5t-43.5 -24t-48.5 -7.5zM132 244q0 -40 10.5 -73.5t30.5 -57t47 -36.5t60 -13t60 13t47 36.5t30.5 57 t10.5 73.5q0 41 -10.5 74.5t-30.5 57t-47 36t-60 12.5t-60 -13t-47 -36.5t-30.5 -57t-10.5 -73.5zM40 244q0 58 17.5 105.5t50 81t76.5 51.5t96 18q55 0 99.5 -18t76 -51.5t48 -81t16.5 -105.5t-17.5 -105.5t-50 -81t-76.5 -51.5t-96 -18q-55 0 -99.5 18t-76 51.5t-48 81 t-16.5 105.5z"/>
<glyph glyph-name="Ohungarumlaut" horiz-adv-x="760" unicode="Ő" d="M256 768l104 164h104l-144 -164h-64zM436 768l104 164h104l-144 -164h-64zM140 344q0 -58 17 -108t49 -87t76.5 -57t97.5 -20t97.5 20t76.5 57t49 87t17 108t-17 108t-49 87t-76.5 57t-97.5 20t-97.5 -20t-76.5 -57t-49 -87t-17 -108zM44 344q0 76 24 141.5t69 113.5 t107 74.5t136 26.5q73 0 135 -26.5t107 -74.5t69.5 -113.5t24.5 -141.5t-24.5 -141.5t-69.5 -113.5t-107 -74.5t-135 -26.5q-74 0 -136 26.5t-107 74.5t-69 113.5t-24 141.5z"/>
<glyph glyph-name="ohungarumlaut" horiz-adv-x="560" unicode="ő" d="M156 568l104 164h104l-144 -164h-64zM336 568l104 164h104l-144 -164h-64zM132 244q0 -40 10.5 -73.5t30.5 -57t47 -36.5t60 -13t60 13t47 36.5t30.5 57t10.5 73.5q0 41 -10.5 74.5t-30.5 57t-47 36t-60 12.5t-60 -13t-47 -36.5t-30.5 -57t-10.5 -73.5zM40 244 q0 58 17.5 105.5t50 81t76.5 51.5t96 18q55 0 99.5 -18t76 -51.5t48 -81t16.5 -105.5t-17.5 -105.5t-50 -81t-76.5 -51.5t-96 -18q-55 0 -99.5 18t-76 51.5t-48 81t-16.5 105.5z"/>
<glyph glyph-name="OE" horiz-adv-x="1032" unicode="Œ" d="M140 344q0 -55 14.5 -102t46 -83.5t82.5 -57.5t121 -21h104v528h-104q-70 0 -121 -21t-82.5 -57.5t-46 -83.5t-14.5 -102zM972 608h-372v-218h296v-80h-296v-230h380v-80h-576q-87 0 -155 25t-113.5 71t-68.5 109t-23 139t23 139t68.5 109t113.5 71t155 25h568v-80z"/>
<glyph glyph-name="oe" horiz-adv-x="908" unicode="œ" d="M656 424q-25 0 -46.5 -9t-39.5 -25.5t-30.5 -39.5t-18.5 -52h261q-3 33 -12.5 56.5t-25.5 39t-38 23t-50 7.5zM132 244q0 -40 10.5 -73.5t30.5 -57t47 -36.5t60 -13t60 13t47 36.5t30.5 57t10.5 73.5q0 41 -10.5 74.5t-30.5 57t-47 36t-60 12.5t-60 -13t-47 -36.5 t-30.5 -57t-10.5 -73.5zM40 244q0 58 17.5 105.5t50 81t76.5 51.5t96 18q32 0 61 -6.5t53.5 -19.5t44 -31.5t34.5 -42.5q15 24 34.5 42.5t43 31.5t50 19.5t55.5 6.5q48 0 87.5 -15.5t68.5 -46t44.5 -73.5t15.5 -97v-36h-356q1 -38 12 -69t30 -53t44.5 -34t57.5 -12 q26 0 47 6.5t36 18.5t24 27t13 32h88q-5 -33 -22 -62t-44.5 -51t-63.5 -34.5t-78 -12.5q-33 0 -62 6.5t-53 19t-43 31t-33 41.5q-15 -23 -35 -41.5t-44 -31t-52 -19t-58 -6.5q-55 0 -99.5 18t-76 51.5t-48 81t-16.5 105.5z"/>
<glyph glyph-name="Racute" horiz-adv-x="652" unicode="Ŕ" d="M280 768l104 164h104l-144 -164h-64zM352 608h-172v-260h172q35 0 62 10.5t45.5 29t27.5 43t9 53.5q0 28 -9.5 51t-28 39.5t-45.5 25t-61 8.5zM88 0v688h260q58 0 103 -13.5t75.5 -40t46 -64.5t15.5 -86q0 -38 -9.5 -71t-29 -59.5t-47.5 -45.5t-65 -29l175 -279h-100 l-171 268h-161v-268h-92z"/>
<glyph glyph-name="racute" horiz-adv-x="360" unicode="ŕ" d="M188 568l104 164h104l-144 -164h-64zM76 0v488h84v-71h3q9 20 21.5 35t29 26t36 16.5t42.5 5.5q8 0 16 -1t16.5 -3t17.5 -6t18 -10l-28 -80q-8 4 -16 7t-15 5t-14.5 3t-14.5 1q-27 0 -47 -13t-34 -35t-20.5 -51.5t-6.5 -61.5v-255h-88z"/>
<glyph glyph-name="Rcommaaccent" horiz-adv-x="652" unicode="Ŗ" d="M282 -68h88v-78l-37 -102h-40l26 92h-37v88zM352 608h-172v-260h172q35 0 62 10.5t45.5 29t27.5 43t9 53.5q0 28 -9.5 51t-28 39.5t-45.5 25t-61 8.5zM88 0v688h260q58 0 103 -13.5t75.5 -40t46 -64.5t15.5 -86q0 -38 -9.5 -71t-29 -59.5t-47.5 -45.5t-65 -29l175 -279 h-100l-171 268h-161v-268h-92z"/>
<glyph glyph-name="rcommaaccent" horiz-adv-x="360" unicode="ŗ" d="M76 -68h88v-78l-37 -102h-40l26 92h-37v88zM76 0v488h84v-71h3q9 20 21.5 35t29 26t36 16.5t42.5 5.5q8 0 16 -1t16.5 -3t17.5 -6t18 -10l-28 -80q-8 4 -16 7t-15 5t-14.5 3t-14.5 1q-27 0 -47 -13t-34 -35t-20.5 -51.5t-6.5 -61.5v-255h-88z"/>
<glyph glyph-name="Rcaron" horiz-adv-x="652" unicode="Ř" d="M272 768l-128 164h84l84 -112l84 112h84l-128 -164h-80zM352 608h-172v-260h172q35 0 62 10.5t45.5 29t27.5 43t9 53.5q0 28 -9.5 51t-28 39.5t-45.5 25t-61 8.5zM88 0v688h260q58 0 103 -13.5t75.5 -40t46 -64.5t15.5 -86q0 -38 -9.5 -71t-29 -59.5t-47.5 -45.5t-65 -29 l175 -279h-100l-171 268h-161v-268h-92z"/>
<glyph glyph-name="rcaron" horiz-adv-x="360" unicode="ř" d="M180 568l-128 164h84l84 -112l84 112h84l-128 -164h-80zM76 0v488h84v-71h3q9 20 21.5 35t29 26t36 16.5t42.5 5.5q8 0 16 -1t16.5 -3t17.5 -6t18 -10l-28 -80q-8 4 -16 7t-15 5t-14.5 3t-14.5 1q-27 0 -47 -13t-34 -35t-20.5 -51.5t-6.5 -61.5v-255h-88z"/>
<glyph glyph-name="Sacute" horiz-adv-x="648" unicode="Ś" d="M288 768l104 164h104l-144 -164h-64zM56 196h92q0 -28 11.5 -52t34 -42t54.5 -28t72 -10q42 0 74.5 8.5t55.5 25t34.5 40.5t11.5 54q0 27 -12 46t-33 31.5t-48 20.5t-63 14l-44 8q-51 9 -89 20t-70.5 31.5t-51.5 54t-19 82.5q0 43 18 80t51.5 64t80.5 41.5t104 14.5 q55 0 101.5 -13.5t80 -39t52 -62t18.5 -81.5h-92q0 28 -12 50.5t-33.5 38t-50.5 23.5t-64 8q-34 0 -63 -7.5t-51 -22t-34 -36.5t-12 -50t13 -47t35.5 -31t51 -19.5t68.5 -14.5l44 -8q49 -9 86 -20.5t67.5 -32.5t48.5 -55t18 -84q0 -46 -18.5 -84.5t-53.5 -66t-85.5 -42.5 t-114.5 -15q-62 0 -111.5 15t-83.5 42.5t-51.5 66t-17.5 84.5z"/>
<glyph glyph-name="sacute" horiz-adv-x="492" unicode="ś" d="M212 568l104 164h104l-144 -164h-64zM40 140h84q0 -21 9.5 -37t26.5 -26.5t37.5 -15.5t42.5 -5q30 0 52.5 5.5t37.5 15.5t22.5 25t7.5 34q0 14 -5 24.5t-14.5 18t-23.5 13t-33 8.5l-92 16q-28 5 -52.5 13t-45 23t-32.5 38.5t-12 57.5q0 35 15 63.5t41.5 48t61.5 30 t76 10.5q40 0 74.5 -8.5t61 -27t41.5 -46.5t15 -66h-84q0 19 -7.5 34t-22 25.5t-34.5 15.5t-44 5q-23 0 -42.5 -5t-34.5 -14.5t-23 -24t-8 -32.5q0 -14 5 -24t15 -18t26 -13.5t38 -9.5l92 -16q30 -5 54 -14t42.5 -24t29 -38t10.5 -55q0 -38 -15 -67.5t-42.5 -49t-65.5 -29.5 t-85 -10q-44 0 -80.5 9.5t-63.5 29t-41.5 48t-14.5 65.5z"/>
<glyph glyph-name="Scircumflex" horiz-adv-x="648" unicode="Ŝ" d="M152 768l128 164h80l128 -164h-84l-84 112l-84 -112h-84zM56 196h92q0 -28 11.5 -52t34 -42t54.5 -28t72 -10q42 0 74.5 8.5t55.5 25t34.5 40.5t11.5 54q0 27 -12 46t-33 31.5t-48 20.5t-63 14l-44 8q-51 9 -89 20t-70.5 31.5t-51.5 54t-19 82.5q0 43 18 80t51.5 64 t80.5 41.5t104 14.5q55 0 101.5 -13.5t80 -39t52 -62t18.5 -81.5h-92q0 28 -12 50.5t-33.5 38t-50.5 23.5t-64 8q-34 0 -63 -7.5t-51 -22t-34 -36.5t-12 -50t13 -47t35.5 -31t51 -19.5t68.5 -14.5l44 -8q49 -9 86 -20.5t67.5 -32.5t48.5 -55t18 -84q0 -46 -18.5 -84.5 t-53.5 -66t-85.5 -42.5t-114.5 -15q-62 0 -111.5 15t-83.5 42.5t-51.5 66t-17.5 84.5z"/>
<glyph glyph-name="scircumflex" horiz-adv-x="492" unicode="ŝ" d="M76 568l128 164h80l128 -164h-84l-84 112l-84 -112h-84zM40 140h84q0 -21 9.5 -37t26.5 -26.5t37.5 -15.5t42.5 -5q30 0 52.5 5.5t37.5 15.5t22.5 25t7.5 34q0 14 -5 24.5t-14.5 18t-23.5 13t-33 8.5l-92 16q-28 5 -52.5 13t-45 23t-32.5 38.5t-12 57.5q0 35 15 63.5 t41.5 48t61.5 30t76 10.5q40 0 74.5 -8.5t61 -27t41.5 -46.5t15 -66h-84q0 19 -7.5 34t-22 25.5t-34.5 15.5t-44 5q-23 0 -42.5 -5t-34.5 -14.5t-23 -24t-8 -32.5q0 -14 5 -24t15 -18t26 -13.5t38 -9.5l92 -16q30 -5 54 -14t42.5 -24t29 -38t10.5 -55q0 -38 -15 -67.5 t-42.5 -49t-65.5 -29.5t-85 -10q-44 0 -80.5 9.5t-63.5 29t-41.5 48t-14.5 65.5z"/>
<glyph glyph-name="Scedilla" horiz-adv-x="648" unicode="Ş" d="M276 -84l24 73q-58 2 -103.5 18t-77 43t-47.5 64t-16 82h92q0 -28 11.5 -52t34 -42t54.5 -28t72 -10q42 0 74.5 8.5t55.5 25t34.5 40.5t11.5 54q0 27 -12 46t-33 31.5t-48 20.5t-63 14l-44 8q-51 9 -89 20t-70.5 31.5t-51.5 54t-19 82.5q0 43 18 80t51.5 64t80.5 41.5 t104 14.5q55 0 101.5 -13.5t80 -39t52 -62t18.5 -81.5h-92q0 28 -12 50.5t-33.5 38t-50.5 23.5t-64 8q-34 0 -63 -7.5t-51 -22t-34 -36.5t-12 -50t13 -47t35.5 -31t51 -19.5t68.5 -14.5l44 -8q49 -9 86 -20.5t67.5 -32.5t48.5 -55t18 -84q0 -45 -17 -82.5t-50.5 -65t-81 -43 t-107.5 -17.5v-24q22 -1 39.5 -8.5t29 -19.5t17.5 -27t6 -33q0 -21 -7.5 -38.5t-22 -30.5t-36.5 -20t-50 -7h-56v56h52q13 0 22.5 2t16 6.5t10 12t3.5 19.5q0 10 -3.5 18t-10.5 12.5t-16.5 7t-21.5 2.5h-32z"/>
<glyph glyph-name="scedilla" horiz-adv-x="492" unicode="ş" d="M196 -84l24 73q-40 2 -73 12.5t-57 30t-37 46.5t-13 62h84q0 -21 9.5 -37t26.5 -26.5t37.5 -15.5t42.5 -5q30 0 52.5 5.5t37.5 15.5t22.5 25t7.5 34q0 14 -5 24.5t-14.5 18t-23.5 13t-33 8.5l-92 16q-28 5 -52.5 13t-45 23t-32.5 38.5t-12 57.5q0 35 15 63.5t41.5 48 t61.5 30t76 10.5q40 0 74.5 -8.5t61 -27t41.5 -46.5t15 -66h-84q0 19 -7.5 34t-22 25.5t-34.5 15.5t-44 5q-23 0 -42.5 -5t-34.5 -14.5t-23 -24t-8 -32.5q0 -14 5 -24t15 -18t26 -13.5t38 -9.5l92 -16q30 -5 54 -14t42.5 -24t29 -38t10.5 -55q0 -36 -13.5 -64.5t-39 -48 t-61 -30t-78.5 -12.5v-25q22 -1 39.5 -8.5t29 -19.5t17.5 -27t6 -33q0 -21 -7.5 -38.5t-22 -30.5t-36.5 -20t-50 -7h-56v56h52q13 0 22.5 2t16 6.5t10 12t3.5 19.5q0 10 -3.5 18t-10.5 12.5t-16.5 7t-21.5 2.5h-32z"/>
<glyph glyph-name="Scaron" horiz-adv-x="648" unicode="Š" d="M280 768l-128 164h84l84 -112l84 112h84l-128 -164h-80zM56 196h92q0 -28 11.5 -52t34 -42t54.5 -28t72 -10q42 0 74.5 8.5t55.5 25t34.5 40.5t11.5 54q0 27 -12 46t-33 31.5t-48 20.5t-63 14l-44 8q-51 9 -89 20t-70.5 31.5t-51.5 54t-19 82.5q0 43 18 80t51.5 64 t80.5 41.5t104 14.5q55 0 101.5 -13.5t80 -39t52 -62t18.5 -81.5h-92q0 28 -12 50.5t-33.5 38t-50.5 23.5t-64 8q-34 0 -63 -7.5t-51 -22t-34 -36.5t-12 -50t13 -47t35.5 -31t51 -19.5t68.5 -14.5l44 -8q49 -9 86 -20.5t67.5 -32.5t48.5 -55t18 -84q0 -46 -18.5 -84.5 t-53.5 -66t-85.5 -42.5t-114.5 -15q-62 0 -111.5 15t-83.5 42.5t-51.5 66t-17.5 84.5z"/>
<glyph glyph-name="scaron" horiz-adv-x="492" unicode="š" d="M204 568l-128 164h84l84 -112l84 112h84l-128 -164h-80zM40 140h84q0 -21 9.5 -37t26.5 -26.5t37.5 -15.5t42.5 -5q30 0 52.5 5.5t37.5 15.5t22.5 25t7.5 34q0 14 -5 24.5t-14.5 18t-23.5 13t-33 8.5l-92 16q-28 5 -52.5 13t-45 23t-32.5 38.5t-12 57.5q0 35 15 63.5 t41.5 48t61.5 30t76 10.5q40 0 74.5 -8.5t61 -27t41.5 -46.5t15 -66h-84q0 19 -7.5 34t-22 25.5t-34.5 15.5t-44 5q-23 0 -42.5 -5t-34.5 -14.5t-23 -24t-8 -32.5q0 -14 5 -24t15 -18t26 -13.5t38 -9.5l92 -16q30 -5 54 -14t42.5 -24t29 -38t10.5 -55q0 -38 -15 -67.5 t-42.5 -49t-65.5 -29.5t-85 -10q-44 0 -80.5 9.5t-63.5 29t-41.5 48t-14.5 65.5z"/>
<glyph glyph-name="Tcommaaccent" horiz-adv-x="588" unicode="Ţ" d="M252 -84l28 84h-32v610h-240v78h572v-78h-240v-610h-28v-36q22 -1 39.5 -8.5t29 -19.5t17.5 -27t6 -33q0 -21 -7.5 -38.5t-22 -30.5t-36.5 -20t-50 -7h-56v56h52q13 0 22.5 2t16 6.5t10 12t3.5 19.5q0 10 -3.5 18t-10.5 12.5t-16.5 7t-21.5 2.5h-32z"/>
<glyph glyph-name="tcommaaccent" horiz-adv-x="328" unicode="ţ" d="M144 -84l27 92q-21 7 -36.5 18.5t-26 28.5t-15.5 39.5t-5 49.5v272h-92v72h92v148h88v-148h128v-72h-128v-268q0 -20 4 -33.5t12 -22t21 -12.5t31 -4h60v-76h-72h-8h-6.5t-7 0.5t-6.5 0.5v-37q22 -1 39.5 -8.5t29 -19.5t17.5 -27t6 -33q0 -21 -7.5 -38.5t-22 -30.5 t-36.5 -20t-50 -7h-56v56h52q13 0 22.5 2t16 6.5t10 12t3.5 19.5q0 10 -3.5 18t-10.5 12.5t-16.5 7t-21.5 2.5h-32z"/>
<glyph glyph-name="Tcaron" horiz-adv-x="588" unicode="Ť" d="M252 768l-128 164h84l84 -112l84 112h84l-128 -164h-80zM8 610v78h572v-78h-240v-610h-92v610h-240z"/>
<glyph glyph-name="tcaron" horiz-adv-x="328" unicode="ť" d="M240 544l28 116h-40v100h96v-92l-40 -124h-44zM88 144v272h-92v72h92v148h88v-148h128v-72h-128v-268q0 -20 4 -33.5t12 -22t21 -12.5t31 -4h60v-76h-72q-36 0 -63 9t-45 27t-27 45t-9 63z"/>
<glyph glyph-name="Tbar" horiz-adv-x="588" unicode="Ŧ" d="M8 610v78h572v-78h-240v-254h184v-72h-184v-284h-92v284h-184v72h184v254h-240z"/>
<glyph glyph-name="tbar" horiz-adv-x="328" unicode="ŧ" d="M-4 224v60h92v132h-92v72h92v148h88v-148h128v-72h-128v-132h128v-60h-128v-76q0 -20 4 -33.5t12 -22t21 -12.5t31 -4h60v-76h-72q-36 0 -63 9t-45 27t-27 45t-9 63v80h-92z"/>
<glyph glyph-name="Utilde" horiz-adv-x="696" unicode="Ũ" d="M184 768q1 23 7.5 42.5t19 34.5t30 23t39.5 8q20 0 38.5 -6.5t43.5 -19t36 -17.5t22 -5q10 0 17.5 4t13 11t8.5 15.5t5 17.5h48q-1 -23 -7.5 -42.5t-19 -34.5t-30 -23t-39.5 -8q-20 0 -38.5 6.5t-43.5 19t-36 17.5t-22 5q-10 0 -17.5 -4t-13 -11t-8.5 -15.5t-5 -17.5h-48 zM72 272v416h92v-416q0 -48 11.5 -85t34 -62.5t57.5 -39t81 -13.5t81 13.5t57.5 39t34 62.5t11.5 85v416h92v-416q0 -75 -19.5 -129.5t-56.5 -88.5t-87 -50t-113 -16t-113 16t-87 50t-56.5 88.5t-19.5 129.5z"/>
<glyph glyph-name="utilde" horiz-adv-x="560" unicode="ũ" d="M118 596q1 23 7.5 42.5t19 34.5t30 23t39.5 8q20 0 38.5 -6.5t43.5 -19t36 -17.5t22 -5q10 0 17.5 4t13 11t8.5 15.5t5 17.5h48q-1 -23 -7.5 -42.5t-19 -34.5t-30 -23t-39.5 -8q-20 0 -38.5 6.5t-43.5 19t-36 17.5t-22 5q-10 0 -17.5 -4t-13 -11t-8.5 -15.5t-5 -17.5h-48 zM68 192v296h88v-284q0 -38 8 -65t22.5 -43.5t35 -24t46.5 -7.5q28 0 51.5 12t41 35t26.5 55t9 70v252h88v-488h-84v72h-4q-11 -21 -25 -37t-32.5 -26.5t-41 -15.5t-49.5 -5q-38 0 -70 11t-57 35t-39 63.5t-14 94.5z"/>
<glyph glyph-name="Umacron" horiz-adv-x="696" unicode="Ū" d="M208 776v68h276v-68h-276zM72 272v416h92v-416q0 -48 11.5 -85t34 -62.5t57.5 -39t81 -13.5t81 13.5t57.5 39t34 62.5t11.5 85v416h92v-416q0 -75 -19.5 -129.5t-56.5 -88.5t-87 -50t-113 -16t-113 16t-87 50t-56.5 88.5t-19.5 129.5z"/>
<glyph glyph-name="umacron" horiz-adv-x="560" unicode="ū" d="M142 616v68h276v-68h-276zM68 192v296h88v-284q0 -38 8 -65t22.5 -43.5t35 -24t46.5 -7.5q28 0 51.5 12t41 35t26.5 55t9 70v252h88v-488h-84v72h-4q-11 -21 -25 -37t-32.5 -26.5t-41 -15.5t-49.5 -5q-38 0 -70 11t-57 35t-39 63.5t-14 94.5z"/>
<glyph glyph-name="Ubreve" horiz-adv-x="696" unicode="Ŭ" d="M348 768q-25 0 -48.5 7.5t-43.5 24t-34 43.5t-18 65h56q3 -20 10 -35.5t18 -26.5t26 -16.5t34 -5.5t34 5.5t26 16.5t18 26.5t10 35.5h56q-4 -38 -18 -65t-34 -43.5t-43.5 -24t-48.5 -7.5zM72 272v416h92v-416q0 -48 11.5 -85t34 -62.5t57.5 -39t81 -13.5t81 13.5t57.5 39 t34 62.5t11.5 85v416h92v-416q0 -75 -19.5 -129.5t-56.5 -88.5t-87 -50t-113 -16t-113 16t-87 50t-56.5 88.5t-19.5 129.5z"/>
<glyph glyph-name="ubreve" horiz-adv-x="560" unicode="ŭ" d="M282 580q-25 0 -48.5 7.5t-43.5 24t-34 43.5t-18 65h56q3 -20 10 -35.5t18 -26.5t26 -16.5t34 -5.5t34 5.5t26 16.5t18 26.5t10 35.5h56q-4 -38 -18 -65t-34 -43.5t-43.5 -24t-48.5 -7.5zM68 192v296h88v-284q0 -38 8 -65t22.5 -43.5t35 -24t46.5 -7.5q28 0 51.5 12 t41 35t26.5 55t9 70v252h88v-488h-84v72h-4q-11 -21 -25 -37t-32.5 -26.5t-41 -15.5t-49.5 -5q-38 0 -70 11t-57 35t-39 63.5t-14 94.5z"/>
<glyph glyph-name="Uring" horiz-adv-x="696" unicode="Ů" d="M348 808q11 0 20.5 4t16.5 11t11 16.5t4 20.5t-4 20.5t-11 16.5t-16.5 11t-20.5 4t-20.5 -4t-16.5 -11t-11 -16.5t-4 -20.5t4 -20.5t11 -16.5t16.5 -11t20.5 -4zM348 764q-20 0 -38 7t-32 20t-22 30.5t-8 38.5t8 38.5t22 30.5t32 20t38 7t38 -7t32 -20t22 -30.5t8 -38.5 t-8 -38.5t-22 -30.5t-32 -20t-38 -7zM72 272v416h92v-416q0 -48 11.5 -85t34 -62.5t57.5 -39t81 -13.5t81 13.5t57.5 39t34 62.5t11.5 85v416h92v-416q0 -75 -19.5 -129.5t-56.5 -88.5t-87 -50t-113 -16t-113 16t-87 50t-56.5 88.5t-19.5 129.5z"/>
<glyph glyph-name="uring" horiz-adv-x="560" unicode="ů" d="M282 608q11 0 20.5 4t16.5 11t11 16.5t4 20.5t-4 20.5t-11 16.5t-16.5 11t-20.5 4t-20.5 -4t-16.5 -11t-11 -16.5t-4 -20.5t4 -20.5t11 -16.5t16.5 -11t20.5 -4zM282 564q-20 0 -38 7t-32 20t-22 30.5t-8 38.5t8 38.5t22 30.5t32 20t38 7t38 -7t32 -20t22 -30.5t8 -38.5 t-8 -38.5t-22 -30.5t-32 -20t-38 -7zM68 192v296h88v-284q0 -38 8 -65t22.5 -43.5t35 -24t46.5 -7.5q28 0 51.5 12t41 35t26.5 55t9 70v252h88v-488h-84v72h-4q-11 -21 -25 -37t-32.5 -26.5t-41 -15.5t-49.5 -5q-38 0 -70 11t-57 35t-39 63.5t-14 94.5z"/>
<glyph glyph-name="Uhungarumlaut" horiz-adv-x="696" unicode="Ű" d="M224 768l104 164h104l-144 -164h-64zM404 768l104 164h104l-144 -164h-64zM72 272v416h92v-416q0 -48 11.5 -85t34 -62.5t57.5 -39t81 -13.5t81 13.5t57.5 39t34 62.5t11.5 85v416h92v-416q0 -75 -19.5 -129.5t-56.5 -88.5t-87 -50t-113 -16t-113 16t-87 50t-56.5 88.5 t-19.5 129.5z"/>
<glyph glyph-name="uhungarumlaut" horiz-adv-x="560" unicode="ű" d="M158 568l104 164h104l-144 -164h-64zM338 568l104 164h104l-144 -164h-64zM68 192v296h88v-284q0 -38 8 -65t22.5 -43.5t35 -24t46.5 -7.5q28 0 51.5 12t41 35t26.5 55t9 70v252h88v-488h-84v72h-4q-11 -21 -25 -37t-32.5 -26.5t-41 -15.5t-49.5 -5q-38 0 -70 11t-57 35 t-39 63.5t-14 94.5z"/>
<glyph glyph-name="Uogonek" horiz-adv-x="696" unicode="Ų" d="M317 -124q0 17 6 33.5t16.5 30.5t24 26.5t30.5 24.5q-6 -1 -11.5 -1.5l-11 -1t-11.5 -0.5h-12q-63 0 -113 16t-87 50t-56.5 88.5t-19.5 129.5v416h92v-416q0 -48 11.5 -85t34 -62.5t57.5 -39t81 -13.5t81 13.5t57.5 39t34 62.5t11.5 85v416h92v-416q0 -48 -8.5 -87.5 t-24.5 -70.5t-38.5 -53.5t-51.5 -39.5q-23 -13 -43 -28t-35.5 -32t-24.5 -34.5t-9 -34.5q0 -11 3 -20.5t10 -16.5t17.5 -11t25.5 -4h28v-60h-40q-28 0 -49.5 6t-36 18t-22.5 30t-8 42z"/>
<glyph glyph-name="uogonek" horiz-adv-x="560" unicode="ų" d="M356 -128q0 16 4.5 31t14 31t24.5 32.5t37 33.5h-36v72h-4q-11 -21 -25 -37t-32.5 -26.5t-41 -15.5t-49.5 -5q-38 0 -70 11t-57 35t-39 63.5t-14 94.5v296h88v-284q0 -38 8 -65t22.5 -43.5t35 -24t46.5 -7.5q28 0 51.5 12t41 35t26.5 55t9 70v252h88v-488 q-16 -16 -27.5 -32t-18.5 -30t-10.5 -26.5t-3.5 -23.5t3 -20t9.5 -15t17.5 -9.5t26 -3.5h28v-60h-40q-27 0 -48 7t-35 19t-21.5 29t-7.5 37z"/>
<glyph glyph-name="Wcircumflex" horiz-adv-x="936" unicode="Ŵ" d="M302 768l128 164h80l128 -164h-84l-84 112l-84 -112h-84zM196 0l-184 688h96l146 -592h4l158 592h112l158 -592h4l142 592h92l-180 -688h-116l-156 584h-4l-156 -584h-116z"/>
<glyph glyph-name="wcircumflex" horiz-adv-x="724" unicode="ŵ" d="M194 568l128 164h80l128 -164h-84l-84 112l-84 -112h-84zM144 0l-140 488h92l100 -396h4l112 396h104l112 -396h4l100 396h88l-140 -488h-108l-108 400h-4l-108 -400h-108z"/>
<glyph glyph-name="Ycircumflex" horiz-adv-x="608" unicode="Ŷ" d="M136 768l128 164h80l128 -164h-84l-84 112l-84 -112h-84zM256 0v270l-244 418h104l186 -324h4l194 324h96l-248 -411v-277h-92z"/>
<glyph glyph-name="ycircumflex" horiz-adv-x="468" unicode="ŷ" d="M64 568l128 164h80l128 -164h-84l-84 112l-84 -112h-84zM33 -152h32q21 0 39 6.5t33 19t27 31t21 43.5l11 31l-192 509h96l136 -392h4l136 392h88l-207 -564q-11 -30 -26 -56.5t-36 -48t-50 -34.5t-64 -13h-48v76z"/>
<glyph glyph-name="Ydieresis" horiz-adv-x="608" unicode="Ÿ" d="M160 768v92h88v-92h-88zM360 768v92h88v-92h-88zM256 0v270l-244 418h104l186 -324h4l194 324h96l-248 -411v-277h-92z"/>
<glyph glyph-name="Zacute" horiz-adv-x="584" unicode="Ź" d="M260 768l104 164h104l-144 -164h-64zM56 610v78h492v-60l-397 -550h393v-78h-508v60l397 550h-377z"/>
<glyph glyph-name="zacute" horiz-adv-x="444" unicode="ź" d="M188 568l104 164h104l-144 -164h-64zM32 416v72h376v-60l-259 -356h263v-72h-376v52l264 364h-268z"/>
<glyph glyph-name="Zdotaccent" horiz-adv-x="584" unicode="Ż" d="M248 768v92h88v-92h-88zM56 610v78h492v-60l-397 -550h393v-78h-508v60l397 550h-377z"/>
<glyph glyph-name="zdotaccent" horiz-adv-x="444" unicode="ż" d="M176 604v92h88v-92h-88zM32 416v72h376v-60l-259 -356h263v-72h-376v52l264 364h-268z"/>
<glyph glyph-name="Zcaron" horiz-adv-x="584" unicode="Ž" d="M252 768l-128 164h84l84 -112l84 112h84l-128 -164h-80zM56 610v78h492v-60l-397 -550h393v-78h-508v60l397 550h-377z"/>
<glyph glyph-name="zcaron" horiz-adv-x="444" unicode="ž" d="M180 568l-128 164h84l84 -112l84 112h84l-128 -164h-80zM32 416v72h376v-60l-259 -356h263v-72h-376v52l264 364h-268z"/>
<glyph glyph-name="florin" d="M98 292v64h126l19 180q4 42 18 73t35 51t48.5 30t59.5 10q33 0 58 -8.5t42.5 -26t24.5 -42t7 -51.5q0 -10 -1 -20l-3 -44h-80l3 44v10q0 12 -2 23.5t-8.5 21.5t-18 15.5t-26.5 5.5q-16 0 -27.5 -6t-20 -18t-14 -29t-7.5 -39l-19 -180h154v-64h-161l-33 -320 q-4 -42 -18 -73t-35 -51t-48.5 -30t-59.5 -10q-33 0 -58 8.5t-42.5 26t-24.5 42t-7 51.5q0 10 1 20l3 44h80l-3 -44v-10q0 -12 2 -23.5t8.5 -21.5t18 -15.5t26.5 -5.5q16 0 27.5 6t20 18t14 29t7.5 39l33 320h-119z" unicode="ƒ"/>
<glyph glyph-name="AEacute" horiz-adv-x="1064" unicode="Ǽ" d="M556 768l104 164h104l-144 -164h-64zM536 580l-244 -340h248v340h-4zM12 0l496 688h496v-80h-372v-218h296v-80h-296v-230h380v-80h-472v160h-305l-115 -160h-108z"/>
<glyph glyph-name="aeacute" horiz-adv-x="844" unicode="ǽ" d="M384 568l104 164h104l-144 -164h-64zM596 424q-26 0 -47.5 -9t-38.5 -25.5t-28.5 -39.5t-17.5 -52h251q-2 30 -11.5 54t-25 40t-36 24t-46.5 8zM228 60q29 0 54.5 8.5t44.5 26.5t30 45.5t11 63.5v47q-4 -4 -9 -8t-11.5 -6.5t-14.5 -4.5t-17 -4l-92 -16q-23 -4 -39.5 -11 t-27.5 -17t-16 -23t-5 -29q0 -17 6 -30.5t18 -22.5t29 -14t39 -5zM68 336q3 42 19.5 73.5t43.5 51.5t61 29.5t72 9.5q29 0 53.5 -4.5t45.5 -14t37.5 -23.5t27.5 -32q14 18 32 31.5t39 23t45.5 14.5t51.5 5q46 0 85 -15.5t67.5 -46t44 -73.5t15.5 -97v-36h-348q1 -39 12 -70 t29.5 -53t43.5 -33.5t55 -11.5q27 0 47.5 6.5t34.5 18.5t22 26.5t12 32.5h88q-5 -33 -22 -62t-44 -51t-62.5 -34.5t-75.5 -12.5q-34 0 -63 6.5t-53.5 20t-43.5 32t-33 43.5q-17 -29 -39 -49t-47.5 -31.5t-52.5 -16.5t-56 -5q-38 0 -69 9.5t-52 27.5t-32 43t-11 56q0 30 9 54 t28.5 43t50 32.5t72.5 20.5l96 16q21 4 33 7t18.5 7t9.5 9.5t3 14.5q0 21 -6 39.5t-19 32t-33 21t-46 7.5q-22 0 -42 -5.5t-35 -17.5t-24.5 -29t-10.5 -40h-84z"/>
<glyph glyph-name="Oslashacute" horiz-adv-x="760" unicode="Ǿ" d="M348 768l104 164h104l-144 -164h-64zM140 344q0 -27 3.5 -52t10.5 -48t17.5 -43.5t23.5 -38.5l327 406q-14 11 -30.5 20t-34 15.5t-37 9.5t-40.5 3q-53 0 -97.5 -20t-76.5 -57t-49 -87t-17 -108zM620 344q0 26 -3.5 51.5t-11 48.5t-17.5 43.5t-24 38.5l-327 -407 q15 -11 31 -20t34 -15t37.5 -9t40.5 -3q53 0 97.5 20t76.5 57t49 87t17 108zM56 -12l81 101q-22 24 -39.5 52.5t-29.5 61t-18 68t-6 73.5q0 76 24.5 141.5t69.5 113.5t107 74.5t135 26.5q28 0 54.5 -4.5t51.5 -12.5t47.5 -20t43.5 -27l51 64h76l-82 -103q22 -24 39.5 -52 t29.5 -60.5t18.5 -67.5t6.5 -73q0 -76 -25 -141.5t-70.5 -113.5t-107.5 -74.5t-133 -26.5q-29 0 -55.5 4t-51.5 12t-48 19.5t-43 26.5l-50 -62h-76z"/>
<glyph glyph-name="oslashacute" horiz-adv-x="560" unicode="ǿ" d="M248 568l104 164h104l-144 -164h-64zM428 244q0 16 -1.5 31.5t-5 29t-8.5 26t-11 23.5l-211 -259q9 -8 19 -13.5t21.5 -9.5t23.5 -6t25 -2q33 0 60 13t47 36.5t30.5 57t10.5 73.5zM132 244q0 -16 1.5 -31t5 -29t8.5 -26.5t11 -23.5l211 259q-9 8 -19 13.5t-21.5 9.5 t-23.5 6t-25 2q-33 0 -60 -13t-47 -36.5t-30.5 -57t-10.5 -73.5zM40 -12l60 74q-15 17 -26 37t-18.5 42.5t-11.5 48.5t-4 54q0 58 17.5 105.5t50 81t76.5 51.5t96 18q21 0 40.5 -2.5t37 -8t34 -13t30.5 -17.5l34 41h64l-61 -75q15 -17 26 -36.5t19 -42.5t12 -48.5t4 -53.5 q0 -58 -17.5 -105.5t-50 -81t-76.5 -51.5t-96 -18q-21 0 -40.5 2.5t-37.5 8t-34.5 13t-30.5 17.5l-33 -41h-64z"/>
<glyph glyph-name="Scommaaccent" horiz-adv-x="648" unicode="Ș" d="M276 -68h88v-78l-37 -102h-40l26 92h-37v88zM56 196h92q0 -28 11.5 -52t34 -42t54.5 -28t72 -10q42 0 74.5 8.5t55.5 25t34.5 40.5t11.5 54q0 27 -12 46t-33 31.5t-48 20.5t-63 14l-44 8q-51 9 -89 20t-70.5 31.5t-51.5 54t-19 82.5q0 43 18 80t51.5 64t80.5 41.5 t104 14.5q55 0 101.5 -13.5t80 -39t52 -62t18.5 -81.5h-92q0 28 -12 50.5t-33.5 38t-50.5 23.5t-64 8q-34 0 -63 -7.5t-51 -22t-34 -36.5t-12 -50t13 -47t35.5 -31t51 -19.5t68.5 -14.5l44 -8q49 -9 86 -20.5t67.5 -32.5t48.5 -55t18 -84q0 -46 -18.5 -84.5t-53.5 -66 t-85.5 -42.5t-114.5 -15q-62 0 -111.5 15t-83.5 42.5t-51.5 66t-17.5 84.5z"/>
<glyph glyph-name="scommaaccent" horiz-adv-x="492" unicode="ș" d="M196 -68h88v-78l-37 -102h-40l26 92h-37v88zM40 140h84q0 -21 9.5 -37t26.5 -26.5t37.5 -15.5t42.5 -5q30 0 52.5 5.5t37.5 15.5t22.5 25t7.5 34q0 14 -5 24.5t-14.5 18t-23.5 13t-33 8.5l-92 16q-28 5 -52.5 13t-45 23t-32.5 38.5t-12 57.5q0 35 15 63.5t41.5 48 t61.5 30t76 10.5q40 0 74.5 -8.5t61 -27t41.5 -46.5t15 -66h-84q0 19 -7.5 34t-22 25.5t-34.5 15.5t-44 5q-23 0 -42.5 -5t-34.5 -14.5t-23 -24t-8 -32.5q0 -14 5 -24t15 -18t26 -13.5t38 -9.5l92 -16q30 -5 54 -14t42.5 -24t29 -38t10.5 -55q0 -38 -15 -67.5t-42.5 -49 t-65.5 -29.5t-85 -10q-44 0 -80.5 9.5t-63.5 29t-41.5 48t-14.5 65.5z"/>
<glyph glyph-name="uni021A" horiz-adv-x="588" unicode="Ț" d="M252 -68h88v-78l-37 -102h-40l26 92h-37v88zM8 610v78h572v-78h-240v-610h-92v610h-240z"/>
<glyph glyph-name="uni021B" horiz-adv-x="328" unicode="ț" d="M144 -68h88v-78l-37 -102h-40l26 92h-37v88zM88 144v272h-92v72h92v148h88v-148h128v-72h-128v-268q0 -20 4 -33.5t12 -22t21 -12.5t31 -4h60v-76h-72q-36 0 -63 9t-45 27t-27 45t-9 63z"/>
<glyph glyph-name="circumflex" horiz-adv-x="560" unicode="ˆ" d="M112 568l128 164h80l128 -164h-84l-84 112l-84 -112h-84z"/>
<glyph glyph-name="tilde" horiz-adv-x="560" unicode="˜" d="M116 596q1 23 7.5 42.5t19 34.5t30 23t39.5 8q20 0 38.5 -6.5t43.5 -19t36 -17.5t22 -5q10 0 17.5 4t13 11t8.5 15.5t5 17.5h48q-1 -23 -7.5 -42.5t-19 -34.5t-30 -23t-39.5 -8q-20 0 -38.5 6.5t-43.5 19t-36 17.5t-22 5q-10 0 -17.5 -4t-13 -11t-8.5 -15.5t-5 -17.5h-48 z"/>
<glyph glyph-name="uni0394" horiz-adv-x="644" unicode="Δ" d="M322 604h-4l-177 -528h357zM28 0l240 688h108l240 -688h-588z"/>
<glyph glyph-name="uni03BC" d="M152 16q4 -28 6 -46t3.5 -36t2 -37t0.5 -41v-76h-88v708h88v-284q0 -39 7.5 -65.5t21.5 -43t34.5 -24t48.5 -7.5t51.5 12t41 35t26.5 55t9 70v252h88v-488h-84v72h-4q-11 -21 -25 -37t-32.5 -26.5t-41 -15.5t-49.5 -5q-14 0 -27 1.5t-25 5t-24 9t-22 12.5h-6z" unicode="μ"/>
<glyph glyph-name="pi" horiz-adv-x="588" unicode="π" d="M84 0v488h420v-488h-88v412h-244v-412h-88z"/>
<glyph glyph-name="endash" horiz-adv-x="556" unicode="–" d="M60 212v80h436v-80h-436z"/>
<glyph glyph-name="emdash" horiz-adv-x="840" unicode="—" d="M60 212v80h720v-80h-720z"/>
<glyph glyph-name="quoteleft" horiz-adv-x="248" unicode="‘" d="M72 436v100l40 152h48l-28 -144h44v-108h-104z"/>
<glyph glyph-name="quotesinglbase" horiz-adv-x="248" unicode="‚" d="M116 0h-44v108h104v-100l-40 -152h-48z"/>
<glyph glyph-name="quotedblleft" horiz-adv-x="428" unicode="“" d="M252 436v100l40 152h48l-28 -144h44v-108h-104zM72 436v100l40 152h48l-28 -144h44v-108h-104z"/>
<glyph glyph-name="quotedblright" horiz-adv-x="428" unicode="”" d="M268 436l28 144h-44v108h104v-100l-40 -152h-48zM88 436l28 144h-44v108h104v-100l-40 -152h-48z"/>
<glyph glyph-name="dagger" horiz-adv-x="440" unicode="†" d="M44 448v72h136v168h80v-168h136v-72h-136v-448h-80v448h-136z"/>
<glyph glyph-name="daggerdbl" horiz-adv-x="440" unicode="‡" d="M44 448v72h136v168h80v-168h136v-72h-136v-212h136v-72h-136v-164h-80v164h-136v72h136v212h-136z"/>
<glyph glyph-name="ellipsis" horiz-adv-x="776" unicode="…" d="M76 0v116h112v-116h-112zM332 0v116h112v-116h-112zM588 0v116h112v-116h-112z"/>
<glyph glyph-name="perthousand" horiz-adv-x="1128" unicode="‰" d="M952 52q18 0 31.5 8t22.5 23t13.5 37.5t4.5 51.5t-4.5 51.5t-13.5 38t-22.5 23t-31.5 7.5t-31.5 -8t-22.5 -23t-13.5 -37.5t-4.5 -51.5t5 -51.5t14 -37.5t22.5 -23t30.5 -8zM600 52q18 0 31.5 8t22.5 23t13.5 37.5t4.5 51.5t-4.5 51.5t-13.5 38t-22.5 23t-31.5 7.5 t-31.5 -8t-22.5 -23t-13.5 -37.5t-4.5 -51.5t5 -51.5t14 -37.5t22.5 -23t30.5 -8zM176 396q18 0 31.5 8t22.5 23t13.5 37.5t4.5 51.5t-4.5 51.5t-13.5 38t-22.5 23t-31.5 7.5t-31.5 -8t-22.5 -23t-13.5 -37.5t-4.5 -51.5t5 -51.5t14 -37.5t22.5 -23t30.5 -8zM180 -12 l348 712h68l-348 -712h-68zM952 -8q-38 0 -66 13.5t-46 38t-27 57.5t-9 71t9 71t27 57.5t46 38t66 13.5t66 -13.5t46.5 -38t27 -57.5t8.5 -71t-8.5 -71t-27 -57.5t-46.5 -38t-66 -13.5zM600 -8q-38 0 -66 13.5t-46 38t-27 57.5t-9 71t9 71t27 57.5t46 38t66 13.5t66 -13.5 t46.5 -38t27 -57.5t8.5 -71t-8.5 -71t-27 -57.5t-46.5 -38t-66 -13.5zM176 336q-38 0 -66 13.5t-46 38t-27 57.5t-9 71t9 71t27 57.5t46 38t66 13.5t66 -13.5t46.5 -38t27 -57.5t8.5 -71t-8.5 -71t-27 -57.5t-46.5 -38t-66 -13.5z"/>
<glyph glyph-name="guilsinglleft" horiz-adv-x="320" unicode="‹" d="M196 48l-144 204l144 204h72l-116 -204l116 -204h-72z"/>
<glyph glyph-name="guilsinglright" horiz-adv-x="320" unicode="›" d="M52 48l116 204l-116 204h72l144 -204l-144 -204h-72z"/>
<glyph glyph-name="fraction" horiz-adv-x="72" unicode="⁄" d="M-172 -12l348 712h68l-348 -712h-68z"/>
<glyph glyph-name="Euro" d="M16 396l16 56h56q10 55 30 100.5t50.5 78.5t73 51t94.5 18q47 0 83.5 -12t63 -35t43.5 -56.5t26 -76.5h-85q-9 27 -19.5 46t-25.5 32t-35.5 19.5t-46.5 6.5q-32 0 -58 -11.5t-46 -34t-33.5 -54t-21.5 -72.5h203l-16 -56h-195q0 -6 -0.5 -12.5t-0.5 -12.5v-12v-15v-11.5 v-9.5t0.5 -9.5t0.5 -9.5h191l-16 -56h-169q7 -44 20.5 -78t34 -57.5t47 -36t59.5 -12.5q24 0 42.5 5t33 15.5t25 26t19.5 37.5h86q-10 -39 -27 -68.5t-43 -50t-61 -31t-79 -10.5q-54 0 -97 19t-74 53.5t-50.5 82t-27.5 105.5h-91l16 56h69q0 5 -0.5 9.5t-0.5 9.5v9.5v11.5 v15v12t0.5 12.5t1.5 12.5h-66z" unicode="€"/>
<glyph glyph-name="trademark" horiz-adv-x="804" unicode="™" d="M4 628v60h308v-60h-116v-284h-72v284h-120zM360 344v344h100l100 -248h4l100 248h100v-344h-72l4 248h-4l-100 -248h-60l-100 248h-4l4 -248h-72z"/>
<glyph glyph-name="uni2190" horiz-adv-x="660" unicode="←" d="M318 50l-46 -42l-244 244l244 244l46 -42l-177 -174q22 1 46.5 2t46.5 1.5t38.5 0.5h35.5h324v-64h-324h-35.5t-38.5 0.5t-46.5 1.5t-46.5 2z"/>
<glyph glyph-name="uni2191" horiz-adv-x="660" unicode="↑" d="M128 264l-42 46l244 244l244 -244l-42 -46l-174 177q1 -22 2 -46.5t1.5 -46.5t0.5 -38.5v-35.5v-324h-64v324v35.5t0.5 38.5t1.5 46.5t2 46.5z"/>
<glyph glyph-name="uni2192" horiz-adv-x="660" unicode="→" d="M388 8l-46 42l176 174q-22 -1 -46 -2t-46 -1.5t-38.5 -0.5h-35.5h-324v64h324h35.5t38.5 -0.5t46 -1.5t46 -2l-176 174l46 42l244 -244z"/>
<glyph glyph-name="uni2193" horiz-adv-x="660" unicode="↓" d="M532 240l42 -46l-244 -244l-244 244l42 46l174 -177q-1 22 -2 46.5t-1.5 46.5t-0.5 38.5v35.5v324h64v-324v-35.5t-0.5 -38.5t-1.5 -46.5t-2 -46.5z"/>
<glyph glyph-name="partialdiff" d="M240 64q31 0 60 12.5t51.5 34.5t35.5 52.5t13 64.5q0 31 -9 56t-26.5 43t-42 27.5t-54.5 9.5q-32 0 -60.5 -11.5t-50 -34t-33.5 -53.5t-12 -69q0 -30 9.5 -54.5t27 -42t41 -26.5t50.5 -9zM20 192q0 56 18.5 102t52.5 78.5t78.5 50t94.5 17.5q26 0 51.5 -6t47.5 -17.5 t38 -27t25 -35.5q1 10 1 14t0.5 9.5t0.5 11.5v11q0 59 -11 102.5t-30.5 70t-44.5 39t-54 12.5t-52 -8t-39 -23t-26 -34.5t-15 -42.5h-88q9 41 27 75t46.5 58t67.5 37.5t87 13.5q45 0 85.5 -17t71.5 -53.5t49 -94t18 -135.5q0 -113 -24 -193.5t-65.5 -128.5t-93.5 -69 t-109 -21q-42 0 -79.5 14t-66.5 40.5t-45.5 64.5t-16.5 85z" unicode="∂"/>
<glyph glyph-name="product" horiz-adv-x="724" unicode="∏" d="M92 0v688h540v-688h-88v612h-364v-612h-88z"/>
<glyph glyph-name="summation" horiz-adv-x="528" unicode="∑" d="M24 0v53l220 287l-212 288v60h460v-76h-348l200 -268l-212 -268h376v-76h-484z"/>
<glyph glyph-name="minus" d="M56 216v76h456v-76h-456z" unicode="−"/>
<glyph glyph-name="radical" horiz-adv-x="588" unicode="√" d="M28 304v76l140 44l130 -328h4l210 592h88l-248 -688h-100l-137 331z"/>
<glyph glyph-name="infinity" horiz-adv-x="708" unicode="∞" d="M396 252q13 -18 26 -33.5t29 -29t34.5 -21.5t38.5 -8q19 0 34.5 7.5t26.5 20.5t17 29.5t6 34.5t-6 34.5t-17 29.5t-26.5 20.5t-34.5 7.5q-20 0 -38.5 -8t-34.5 -21.5t-29 -29t-26 -33.5zM184 160q20 0 38.5 8t34.5 21.5t29 29t26 33.5q-13 18 -26 33.5t-29 29t-34.5 21.5 t-38.5 8q-19 0 -34.5 -7.5t-26.5 -20.5t-17 -29.5t-6 -34.5t6 -34.5t17 -29.5t26.5 -20.5t34.5 -7.5zM188 88q-36 0 -66 12t-52 34t-34 52t-12 66t12 66t34 52t52 34t66 12q25 0 49 -8t45.5 -22t40 -33t33.5 -42q16 23 34.5 42t39 33t43.5 22t47 8q36 0 66 -12t52 -34 t34 -52t12 -66t-12 -66t-34 -52t-52 -34t-66 -12q-26 0 -50 8t-45 22t-39.5 33t-33.5 41q-16 -23 -34.5 -41.5t-39 -32.5t-43.5 -22t-47 -8z"/>
<glyph glyph-name="approxequal" d="M56 76q0 38 10 67t27.5 47.5t41 28t49.5 9.5q31 0 56.5 -10t58 -29.5t49 -28t36.5 -8.5q12 0 21.5 4t16.5 13t10.5 23.5t3.5 35.5h76q0 -38 -10 -66.5t-27 -47.5t-39.5 -28.5t-47.5 -9.5q-31 0 -57.5 10.5t-60 31.5t-50.5 29.5t-36 8.5q-12 0 -21.5 -4.5t-16.5 -14.5 t-10.5 -25t-3.5 -36h-76zM56 284q0 38 10 67t27.5 47.5t41 28t49.5 9.5q31 0 56.5 -10t58 -29.5t49 -28t36.5 -8.5q12 0 21.5 4t16.5 13t10.5 23.5t3.5 35.5h76q0 -38 -10 -66.5t-27 -47.5t-39.5 -28.5t-47.5 -9.5q-31 0 -57.5 10.5t-60 31.5t-50.5 29.5t-36 8.5 q-12 0 -21.5 -4.5t-16.5 -14.5t-10.5 -25t-3.5 -36h-76z" unicode="≈"/>
<glyph glyph-name="notequal" d="M56 320v76h262l78 140l64 -36l-58 -104h110v-76h-152l-73 -132h225v-76h-267l-77 -140l-64 36l57 104h-105v76h147l73 132h-220z" unicode="≠"/>
<glyph glyph-name="lessequal" d="M72 0v76h424v-76h-424zM72 320v76l424 180v-80l-335 -136l335 -136v-84z" unicode="≤"/>
<glyph glyph-name="greaterequal" d="M72 0v76h424v-76h-424zM496 396v-76l-424 -180v80l335 136l-335 136v84z" unicode="≥"/>
<glyph glyph-name="lozenge" horiz-adv-x="644" unicode="◊" d="M322 616h-4l-188 -269l192 -275h4l188 269zM280 0l-244 344l244 344h84l244 -344l-244 -344h-84z"/>
</font>
</defs>
</svg>
