<?xml version="1.0" encoding="UTF-8" standalone="no"?>
<!DOCTYPE svg  PUBLIC '-//W3C//DTD SVG 1.1//EN'  'http://www.w3.org/Graphics/SVG/1.1/DTD/svg11.dtd'>
<svg xmlns="http://www.w3.org/2000/svg">
<defs>
<font id="FaktPro-Blond" horiz-adv-x="568">
<font-face underline-position="0" font-weight="350" descent="-200" panose-1="2 0 0 0 0 0 0 0 0 0" units-per-em="1000" unicode-range="U+0020-25CA" bbox="-171 -243 1084 976" x-height="488" underline-thickness="0" font-family="FaktPro" ascent="800" cap-height="688"/>
<missing-glyph horiz-adv-x="1000"/>
<glyph glyph-name=".notdef" horiz-adv-x="1000"/>
<glyph glyph-name=".null" horiz-adv-x="0"/>
<glyph glyph-name="nonmarkingreturn" horiz-adv-x="333"/>
<glyph glyph-name="space" horiz-adv-x="216" unicode=" "/>
<glyph glyph-name="exclam" horiz-adv-x="256" unicode="!" d="M88 0v102h80v-102h-80zM109 189l-21 315v184h80v-184l-21 -315h-38z"/>
<glyph glyph-name="quotedbl" horiz-adv-x="384" unicode='&quot;' d="M258 436l-12 165v87h68v-87l-12 -165h-44zM82 436l-12 165v87h68v-87l-12 -165h-44z"/>
<glyph glyph-name="numbersign" horiz-adv-x="606" unicode="#" d="M241 465l-42 -237h165l42 237h-165zM62 465v53h126l30 170h62l-30 -170h165l30 170h62l-30 -170h110v-53h-119l-42 -237h118v-53h-127l-30 -175h-62l30 175h-165l-30 -175h-62l30 175h-109v53h118l42 237h-117z"/>
<glyph glyph-name="dollar" d="M46 188h68q2 -33 15.5 -60t35.5 -45.5t51.5 -28t63.5 -9.5q36 0 65.5 9.5t51 27.5t33 43.5t11.5 57.5q0 27 -8 46.5t-24.5 34t-40 25.5t-57.5 21l-98 29q-30 9 -56 22.5t-47.5 34.5t-34.5 51t-13 69q0 37 13 68.5t37.5 55t58.5 38.5t74 19v107h68v-107q37 -5 69 -19 t56.5 -37t39.5 -54t18 -67h-68q-4 30 -16.5 53t-32.5 38.5t-45.5 23.5t-54.5 8q-31 0 -58 -8t-46.5 -23.5t-30.5 -38t-11 -51.5q0 -27 8 -47t23.5 -33.5t37 -23.5t53.5 -20l97 -30q42 -12 72 -29t49.5 -39t29 -50.5t9.5 -63.5q0 -41 -14.5 -75.5t-41 -59.5t-63 -40.5 t-79.5 -19.5v-111h-68v111q-43 4 -79 19.5t-62.5 41t-41.5 60t-17 76.5z" unicode="$"/>
<glyph glyph-name="percent" horiz-adv-x="764" unicode="%" d="M588 39q21 0 37 9t26.5 26.5t16 42t5.5 55.5t-5.5 55.5t-16 42t-26.5 26.5t-37 9t-37 -9t-26.5 -26.5t-16 -42t-5.5 -55.5t5.5 -55.5t16.5 -42t27 -26.5t36 -9zM588 -8q-36 0 -63.5 13.5t-45.5 38t-26.5 57.5t-8.5 71t8.5 71t26.5 57.5t45.5 38t63.5 13.5t63.5 -13.5 t45.5 -38t26.5 -57.5t8.5 -71t-8.5 -71t-26.5 -57.5t-45.5 -38t-63.5 -13.5zM181 -12q29 60 73.5 151t93 189t182.5 372h53l-349 -712h-53zM176 383q21 0 37 9t26.5 26.5t16 42t5.5 55.5t-5.5 55.5t-16 42t-26.5 26.5t-37 9t-37 -9t-26.5 -26.5t-16 -42t-5.5 -55.5 t5.5 -55.5t16.5 -42t27 -26.5t36 -9zM176 336q-36 0 -63.5 13.5t-45.5 38t-26.5 57.5t-8.5 71t8.5 71t26.5 57.5t45.5 38t63.5 13.5t63.5 -13.5t45.5 -38t26.5 -57.5t8.5 -71t-8.5 -71t-26.5 -57.5t-45.5 -38t-63.5 -13.5z"/>
<glyph glyph-name="ampersand" horiz-adv-x="696" unicode="&amp;" d="M189 543q0 -17 5.5 -33t16.5 -32t26.5 -33t38.5 -41q36 16 60.5 29.5t44.5 30t31.5 37t11.5 46.5q0 20 -7.5 38t-22.5 32t-36.5 21.5t-48.5 7.5q-28 0 -50.5 -8t-38 -22t-23.5 -33t-8 -40zM298 45q30 0 57 5t49.5 14.5t41 22.5t33.5 30l-222 221q-31 -15 -55 -29.5 t-42.5 -33t-29 -42t-10.5 -51.5q0 -32 12.5 -57.5t36.5 -43.5t56.5 -27t72.5 -9zM52 176q0 39 13 70t36 54.5t51.5 41t65.5 35.5q-25 26 -41.5 45.5t-27.5 38t-16.5 38t-5.5 41.5q0 32 12.5 60.5t36 51t57.5 35t76 12.5q41 0 74.5 -11t57 -31.5t36 -48.5t12.5 -61 q0 -35 -14 -63t-38 -48.5t-52.5 -36t-69.5 -34.5l197 -199q10 19 17 39.5t12 41.5t7 43t2 43v11h62v-20q0 -19 -3 -43t-9 -50.5t-17 -54.5t-27 -54l121 -122h-81l-76 75q-18 -19 -40.5 -35t-50 -27.5t-60.5 -17.5t-71 -6q-58 0 -104 13t-77.5 37.5t-48 59t-16.5 77.5z"/>
<glyph glyph-name="quotesingle" horiz-adv-x="208" unicode="&apos;" d="M82 436l-12 165v87h68v-87l-12 -165h-44z"/>
<glyph glyph-name="parenleft" horiz-adv-x="275" unicode="(" d="M31 260q0 76 15 148t39.5 134.5t52.5 112.5t57 89h62q-25 -33 -52.5 -83t-52 -114t-40.5 -138t-16 -149t16 -149.5t41.5 -139.5t52.5 -115.5t51 -83.5h-62q-29 39 -57 89.5t-52.5 114t-39.5 136t-15 148.5z"/>
<glyph glyph-name="parenright" horiz-adv-x="275" unicode=")" d="M18 -228q24 33 51 83.5t52.5 115.5t41.5 139.5t16 149.5t-16 149t-40.5 138t-52 114t-52.5 83h62q29 -39 57 -89t52.5 -112.5t39.5 -134.5t15 -148t-15 -148.5t-39.5 -136t-52.5 -114t-57 -89.5h-62z"/>
<glyph glyph-name="asterisk" horiz-adv-x="450" unicode="*" d="M197 696h56l-13 -141l129 57l17 -53l-137 -32l92 -104l-45 -32l-72 120l-71 -120l-44 32l91 105l-136 31l17 53l128 -55z"/>
<glyph glyph-name="plus" d="M57 224v59h196v197h62v-197h196v-59h-196v-196h-62v196h-196z" unicode="+"/>
<glyph glyph-name="comma" horiz-adv-x="244" unicode="," d="M115 0h-36v112h86v-106l-42 -162h-40z"/>
<glyph glyph-name="hyphen" horiz-adv-x="396" unicode="-" d="M60 221v62h276v-62h-276z"/>
<glyph glyph-name="period" horiz-adv-x="244" unicode="." d="M79 0v112h86v-112h-86z"/>
<glyph glyph-name="slash" horiz-adv-x="401" unicode="/" d="M17 -12l308 712h59l-308 -712h-59z"/>
<glyph glyph-name="zero" d="M284 51q42 0 73.5 20t52 58.5t30.5 92.5t10 122t-10 122t-30.5 92.5t-52 58.5t-73.5 20t-73.5 -20t-52 -58.5t-30.5 -92.5t-10 -122t10 -122t30.5 -92.5t52 -58.5t73.5 -20zM284 -11q-61 0 -106.5 26.5t-74.5 74.5t-42.5 112.5t-13.5 141.5t13.5 141.5t42.5 112.5 t74.5 74.5t106.5 26.5t106.5 -26.5t74.5 -74.5t42.5 -112.5t13.5 -141.5t-13.5 -141.5t-42.5 -112.5t-74.5 -74.5t-106.5 -26.5z" unicode="0"/>
<glyph glyph-name="one" d="M96 484l-30 52l220 152h52v-629h175v-59h-429v59h186v545z" unicode="1"/>
<glyph glyph-name="two" d="M61 0q2 57 13 99.5t31.5 75.5t49.5 59.5t72 54.5l76 50q44 28 60.5 40t33.5 30t27 41.5t10 55.5q0 27 -9.5 51t-27.5 43t-45 29.5t-62 10.5t-62.5 -9.5t-48 -28.5t-32.5 -48t-15 -69h-62q3 58 21.5 100t49.5 67t69 36t80 11q46 0 84.5 -13t67.5 -38.5t44.5 -61 t15.5 -80.5q0 -42 -13 -74t-34.5 -55t-40 -35.5t-68.5 -45.5l-76 -50q-39 -25 -64 -48t-39.5 -45t-20.5 -44.5t-8 -49.5h371v-59h-448z" unicode="2"/>
<glyph glyph-name="three" d="M51 205h65q0 -39 12 -68.5t34 -49.5t52 -29.5t66 -9.5t66.5 9.5t53 27.5t34.5 44t12 59q0 31 -13 57t-36 44.5t-53 28.5t-64 10h-52v59h52q29 0 55 9t45.5 26.5t30 41t10.5 52.5t-11 52.5t-30.5 39.5t-45 24t-54.5 8t-55 -8.5t-45 -25.5t-30 -43t-11 -61h-62 q0 46 15 82.5t42 62t64.5 39t81.5 13.5q45 0 83 -13t65.5 -37t42.5 -58t15 -74q0 -26 -9 -51.5t-24.5 -46.5t-36 -36t-43.5 -22v-4q30 -7 55.5 -22.5t45 -38.5t30 -52t10.5 -61q0 -45 -18 -81t-50 -61.5t-74.5 -38.5t-91.5 -13q-51 0 -93.5 13.5t-72.5 40.5t-46.5 68 t-16.5 94z" unicode="3"/>
<glyph glyph-name="four" d="M105 241h254v341zM34 182v49l338 458h55v-448h105v-59h-105v-182h-68v182h-325z" unicode="4"/>
<glyph glyph-name="five" d="M54 180h68q4 -25 15.5 -48.5t31.5 -42.5t49.5 -30t66.5 -11q33 0 62.5 11t52.5 32.5t36 52.5t13 70q0 38 -12 69t-34 53t-52 33.5t-65 11.5q-22 0 -42.5 -5t-39 -15.5t-34.5 -25.5t-31 -35l-63 3l20 385h381v-62h-319l-14 -248h3q12 15 27.5 27t34.5 19.5t40.5 11.5 t45.5 4q47 0 87.5 -15.5t70.5 -44.5t47 -69.5t17 -90.5q0 -55 -18.5 -98.5t-51 -73t-74.5 -44.5t-88 -15q-51 0 -92 14t-70.5 40t-46.5 60.5t-22 76.5z" unicode="5"/>
<glyph glyph-name="six" d="M137 209q0 -34 12 -63.5t34 -51.5t51 -34t63 -12q35 0 64.5 11.5t52 33t35 53t12.5 71.5q0 36 -12 66t-33 52t-50 34t-62 12q-36 0 -66.5 -12.5t-53 -35t-35 -54.5t-12.5 -70zM53 328q0 99 20.5 171t56 116t81 64t96.5 20q47 0 84 -13t62.5 -37.5t40 -58t19.5 -74.5h-68 q-3 27 -13 49.5t-26.5 39t-41.5 26t-57 9.5q-37 0 -70 -17t-58.5 -54t-40 -97.5t-14.5 -143.5q10 24 29 45t44.5 36t55 23t60.5 8q48 0 88 -16t68.5 -45.5t44 -70.5t15.5 -91q0 -53 -18.5 -95.5t-50.5 -72t-73.5 -45t-86.5 -15.5q-53 0 -97.5 18.5t-78 58.5t-52.5 105.5 t-19 156.5z" unicode="6"/>
<glyph glyph-name="seven" d="M158 0l289 626h-392v62h466v-49l-292 -639h-71z" unicode="7"/>
<glyph glyph-name="eight" d="M284 387q31 0 57 9t45.5 26t30.5 41t11 53t-11 53t-30.5 40.5t-46 25t-56.5 8.5t-56.5 -8.5t-46 -25t-30.5 -40.5t-11 -53t11 -53t30.5 -41t45.5 -26t57 -9zM115 188q0 -33 12.5 -59t35 -44t53.5 -27.5t68 -9.5t68 9.5t53.5 27.5t35 44t12.5 59q0 31 -13 57t-36 44.5 t-54 28.5t-66 10t-66 -10t-54 -28.5t-36 -44.5t-13 -57zM47 183q0 32 11 61t30 52t45 38.5t55 22.5v4q-24 7 -44.5 21.5t-36 36t-24 46.5t-8.5 52q0 40 15 74t43 58t66.5 37t84.5 13t84.5 -13t66.5 -37t43 -58t15 -74q0 -27 -8.5 -52t-24 -46.5t-36 -36t-44.5 -21.5v-4 q29 -7 55 -22.5t45 -38.5t30 -52t11 -61q0 -45 -17 -81t-49 -61.5t-75.5 -38.5t-95.5 -13t-95.5 13t-75.5 38.5t-49 61.5t-17 81z" unicode="8"/>
<glyph glyph-name="nine" d="M431 479q0 31 -11.5 60t-33 52t-51 36t-64.5 13q-33 0 -63 -11.5t-52.5 -33t-35.5 -53.5t-13 -71q0 -36 12 -66t33 -52t50 -34t62 -12q36 0 66.5 12.5t53 35t35 54.5t12.5 70zM515 360q0 -100 -18.5 -171.5t-51.5 -115.5t-77.5 -64t-99.5 -20q-48 0 -86 13t-64 37.5 t-41.5 58t-21.5 74.5h68q5 -26 15.5 -48.5t28 -39.5t43 -26.5t58.5 -9.5q40 0 72 17t55.5 53.5t36 96.5t12.5 145q-10 -25 -29 -46t-44.5 -35.5t-55 -22.5t-60.5 -8q-48 0 -88 16t-68.5 45.5t-44 70.5t-15.5 91q0 53 18.5 95.5t50.5 72t73.5 45t86.5 15.5q53 0 97.5 -18.5 t78 -58.5t52.5 -105.5t19 -156.5z" unicode="9"/>
<glyph glyph-name="colon" horiz-adv-x="244" unicode=":" d="M79 0v112h86v-112h-86zM79 376v112h86v-112h-86z"/>
<glyph glyph-name="semicolon" horiz-adv-x="244" unicode=";" d="M115 0h-36v112h86v-106l-42 -162h-40zM79 376v112h86v-112h-86z"/>
<glyph glyph-name="less" d="M73 225v59l422 180v-62l-353 -146l353 -146v-65z" unicode="&lt;"/>
<glyph glyph-name="equal" d="M57 120v59h454v-59h-454zM57 329v59h454v-59h-454z" unicode="="/>
<glyph glyph-name="greater" d="M495 284v-59l-422 -180v62l355 146l-355 146v65z" unicode="&gt;"/>
<glyph glyph-name="question" horiz-adv-x="485" unicode="?" d="M199 0v102h79v-102h-79zM205 196v28q0 62 22.5 99t67 73t64 59.5t19.5 66.5q0 26 -9.5 47.5t-26.5 37.5t-40.5 24.5t-51.5 8.5q-35 0 -62 -11.5t-45 -32t-27.5 -49.5t-9.5 -63h-68q0 45 13.5 84t40.5 68.5t67 46t91 16.5q43 0 79.5 -12t63.5 -34.5t41.5 -55t14.5 -72.5 q0 -55 -22.5 -88t-67 -68.5t-65.5 -62.5t-21 -73v-37h-68z"/>
<glyph glyph-name="at" horiz-adv-x="1032" unicode="@" d="M631 200v62q-4 -5 -10 -9t-13 -7t-15 -5t-18 -4l-106 -17q-25 -4 -43 -12t-30 -19.5t-17.5 -26t-5.5 -33.5q0 -20 7 -36t20.5 -27.5t33 -17.5t43.5 -6q31 0 58.5 10.5t49 31t34 50t12.5 66.5zM305 126q0 29 9 52.5t28 41.5t48.5 30.5t69.5 19.5l106 17q20 3 32 6t19 7.5 t10.5 11t3.5 15.5q0 29 -7.5 50.5t-22 36t-36 22t-50.5 7.5q-28 0 -51 -7t-39 -20.5t-25 -33.5t-11 -46h-65q2 36 15.5 66t38.5 51.5t59 33.5t75 12q46 0 81 -12t58.5 -35t35.5 -57t12 -77v-167q0 -32 7 -54t19.5 -34.5t28.5 -18t34 -5.5q26 0 50 14t42.5 42.5t29.5 73 t11 103.5q0 86 -30 156t-85 119.5t-128 75.5t-158 26q-90 0 -165.5 -31t-130 -87.5t-84 -132.5t-29.5 -165q0 -88 29 -163.5t82 -131t126 -86t159 -30.5q35 0 67.5 5.5t62.5 16.5t55.5 27t45.5 38h77q-26 -34 -59.5 -59.5t-73 -43t-83.5 -26t-92 -8.5q-98 0 -181.5 34 t-145 97t-95 147.5t-33.5 182.5t34 183.5t96.5 149t149 98.5t188.5 35q97 0 181 -30t147 -86.5t97.5 -135.5t34.5 -175q0 -72 -16 -125.5t-43.5 -87.5t-63 -50.5t-75.5 -16.5q-24 0 -45.5 4.5t-39.5 15.5t-32 28.5t-21 42.5q-12 -24 -30.5 -41.5t-41.5 -29.5t-50 -17.5 t-57 -5.5q-38 0 -67.5 10t-50.5 28t-31.5 43.5t-10.5 55.5z"/>
<glyph glyph-name="A" horiz-adv-x="631" unicode="A" d="M316 614h-4l-131 -355h265zM15 0l259 688h83l259 -688h-74l-73 198h-310l-73 -198h-71z"/>
<glyph glyph-name="B" horiz-adv-x="655" unicode="B" d="M364 626h-205v-237h207q33 0 59.5 9.5t44.5 26.5t27 40t9 50q0 26 -8 46.5t-25 35t-44 22t-65 7.5zM381 327h-222v-265h222q38 0 66.5 10t47.5 28.5t28.5 43.5t9.5 56q0 27 -9.5 50.5t-28.5 40.5t-47.5 26.5t-66.5 9.5zM88 0v688h276q54 0 94.5 -11.5t66.5 -34t39 -55 t13 -73.5q0 -26 -7.5 -50t-22.5 -43.5t-37 -34t-50 -22.5v-3q34 -5 60.5 -19t45.5 -35.5t28.5 -48t9.5 -57.5q0 -44 -14.5 -80.5t-42.5 -63.5t-70 -42t-96 -15h-293z"/>
<glyph glyph-name="C" horiz-adv-x="708" unicode="C" d="M47 344q0 75 23.5 140t67 113.5t104 75t132.5 26.5q58 0 106.5 -16t85.5 -45.5t61.5 -70.5t35.5 -91h-73q-11 38 -29.5 67t-45.5 49.5t-62.5 31t-78.5 10.5q-56 0 -103 -21.5t-80.5 -61t-51.5 -92.5t-18 -115q0 -61 18 -114t51 -92.5t79.5 -61.5t101.5 -22q45 0 81 10.5 t63 31t45.5 49.5t29.5 67h73q-12 -50 -37 -91t-62 -70.5t-86 -45.5t-107 -16q-71 0 -131 26.5t-103 74.5t-66.5 113t-23.5 141z"/>
<glyph glyph-name="D" horiz-adv-x="696" unicode="D" d="M288 626h-126v-564h126q74 0 129 21.5t90 60.5t51.5 90t16.5 110t-16.5 110t-51.5 90t-90 60.5t-129 21.5zM91 0v688h197q88 0 156 -25t113.5 -71t68.5 -109t23 -139t-23 -139t-68.5 -109t-113.5 -71t-156 -25h-197z"/>
<glyph glyph-name="E" horiz-adv-x="606" unicode="E" d="M91 0v688h456v-62h-385v-244h309v-62h-309v-258h393v-62h-464z"/>
<glyph glyph-name="F" horiz-adv-x="570" unicode="F" d="M91 0v688h448v-62h-377v-261h301v-62h-301v-303h-71z"/>
<glyph glyph-name="G" horiz-adv-x="755" unicode="G" d="M629 0l-12 118h-1q-18 -33 -42 -57.5t-54 -40.5t-65.5 -23.5t-77.5 -7.5q-72 0 -133 26.5t-105 75t-68 113.5t-24 140q0 76 24 141t69 113.5t107 74.5t135 26q59 0 109 -16t87 -45t61.5 -68t35.5 -84h-74q-8 31 -26 57.5t-45.5 47t-65 32t-82.5 11.5q-58 0 -106.5 -21.5 t-83 -60.5t-53 -92.5t-18.5 -115.5q0 -61 18.5 -114t52.5 -92.5t81.5 -61.5t103.5 -22q46 0 88 13t75 39.5t52 66.5t19 91v34h-230v62h295v-360h-47z"/>
<glyph glyph-name="H" horiz-adv-x="716" unicode="H" d="M91 0v688h71v-308h392v308h71v-688h-71v318h-392v-318h-71z"/>
<glyph glyph-name="I" horiz-adv-x="253" unicode="I" d="M91 0v688h71v-688h-71z"/>
<glyph glyph-name="J" horiz-adv-x="513" unicode="J" d="M45 193v35h71v-29q0 -39 9 -67.5t25.5 -46t39 -26t50.5 -8.5q27 0 49 8.5t39 26.5t26 46t9 67v489h71v-495q0 -53 -14 -92t-40 -64t-61.5 -36.5t-78.5 -11.5q-44 0 -79.5 11.5t-61.5 36t-40 64t-14 92.5z"/>
<glyph glyph-name="K" horiz-adv-x="646" unicode="K" d="M91 0v688h71v-401l370 401h84l-280 -298l294 -390h-80l-261 340l-127 -136v-204h-71z"/>
<glyph glyph-name="L" horiz-adv-x="541" unicode="L" d="M91 0v688h71v-626h351v-62h-422z"/>
<glyph glyph-name="M" horiz-adv-x="887" unicode="M" d="M91 0v688h86l267 -592h2l264 592h86v-688h-71l6 576h-3l-257 -576h-55l-257 567h-3l6 -567h-71z"/>
<glyph glyph-name="N" horiz-adv-x="723" unicode="N" d="M91 0v688h68l402 -568h3l-3 568h71v-688h-68l-402 565h-3l3 -565h-71z"/>
<glyph glyph-name="O" horiz-adv-x="754" unicode="O" d="M121 344q0 -62 18.5 -115t52.5 -92.5t81.5 -61t103.5 -21.5t103.5 21.5t81.5 61t52.5 92.5t18.5 115t-18.5 115t-52.5 92.5t-81.5 61t-103.5 21.5t-103.5 -21.5t-81.5 -61t-52.5 -92.5t-18.5 -115zM47 344q0 76 23.5 141t67.5 113t105 74.5t134 26.5q71 0 132 -26.5 t105.5 -74.5t68.5 -113t24 -141t-24 -141t-68.5 -113t-105.5 -74.5t-132 -26.5q-73 0 -134 26.5t-105 74.5t-67.5 113t-23.5 141z"/>
<glyph glyph-name="P" horiz-adv-x="626" unicode="P" d="M349 626h-187v-314h187q39 0 69.5 12t51 34t30.5 51t10 63t-10 62t-30.5 48.5t-51 32t-69.5 11.5zM91 0v688h255q56 0 100 -15.5t74 -44.5t45.5 -68.5t15.5 -87.5t-15.5 -88.5t-45.5 -70.5t-74.5 -46.5t-99.5 -16.5h-184v-250h-71z"/>
<glyph glyph-name="Q" horiz-adv-x="757" unicode="Q" d="M121 344q0 -62 18.5 -115t52.5 -92.5t81.5 -61t103.5 -21.5t103.5 21.5t81.5 61t52.5 92.5t18.5 115t-18.5 115t-52.5 92.5t-81.5 61t-103.5 21.5t-103.5 -21.5t-81.5 -61t-52.5 -92.5t-18.5 -115zM47 344q0 76 23.5 141t67.5 113t105 74.5t134 26.5q71 0 132 -26.5 t105.5 -74.5t68.5 -113t24 -141q0 -42 -7.5 -81t-22 -73.5t-35.5 -64.5t-47 -54l134 -138l-49 -49l-140 147q-18 -10 -37 -18t-39.5 -13.5t-42 -8t-44.5 -2.5q-73 0 -134 26.5t-105 74.5t-67.5 113t-23.5 141z"/>
<glyph glyph-name="R" horiz-adv-x="645" unicode="R" d="M352 626h-190v-283h190q38 0 67.5 11t49.5 31t30 46.5t10 58.5t-10 57t-30 42.5t-49.5 27t-67.5 9.5zM91 0v688h258q56 0 99.5 -13t72.5 -39t44 -62.5t15 -83.5q0 -39 -10.5 -72.5t-31 -60t-51 -44.5t-69.5 -26l182 -287h-77l-181 281h-180v-281h-71z"/>
<glyph glyph-name="S" horiz-adv-x="638" unicode="S" d="M59 192h71q0 -33 13 -59.5t37.5 -45.5t59 -29t77.5 -10q44 0 79 9.5t59 28t36.5 44.5t12.5 59q0 31 -13 53t-35.5 36t-51 22.5t-66.5 14.5l-45 8q-51 9 -88 20t-68 30t-49.5 52t-18.5 81q0 42 17.5 77.5t50 61.5t78 40t100.5 14q54 0 99 -12.5t77.5 -37t50.5 -60 t18 -80.5h-71q0 31 -13 55.5t-36.5 41.5t-55 25.5t-69.5 8.5q-37 0 -69 -8.5t-55.5 -25t-36.5 -40.5t-13 -54q0 -32 13.5 -53.5t37.5 -34.5t53.5 -21t71.5 -15l45 -8q49 -9 85 -20t66 -31.5t47.5 -54t17.5 -82.5q0 -45 -17.5 -82.5t-51.5 -64.5t-82.5 -41.5t-109.5 -14.5 q-60 0 -108 14t-81.5 40.5t-51 64t-17.5 84.5z"/>
<glyph glyph-name="T" horiz-adv-x="579" unicode="T" d="M8 628v60h563v-60h-246v-628h-71v628h-246z"/>
<glyph glyph-name="U" horiz-adv-x="688" unicode="U" d="M76 271v417h71v-417q0 -53 12.5 -93.5t37.5 -68t62 -41.5t85 -14t84.5 14t62 41.5t38 68t12.5 93.5v417h71v-417q0 -73 -19 -127t-54.5 -88t-84.5 -50.5t-110 -16.5t-110 16.5t-84.5 50.5t-54.5 88t-19 127z"/>
<glyph glyph-name="V" horiz-adv-x="609" unicode="V" d="M264 0l-254 688h74l220 -614h4l220 614h71l-256 -688h-79z"/>
<glyph glyph-name="W" horiz-adv-x="918" unicode="W" d="M199 0l-186 688h74l156 -614h4l172 614h86l172 -614h3l154 614h71l-183 -688h-89l-171 606h-3l-171 -606h-89z"/>
<glyph glyph-name="X" horiz-adv-x="585" unicode="X" d="M11 0l240 351l-232 337h80l192 -281l190 281h77l-228 -334l244 -354h-80l-204 297l-202 -297h-77z"/>
<glyph glyph-name="Y" horiz-adv-x="594" unicode="Y" d="M260 0v274l-247 414h80l202 -341h3l209 341h74l-250 -409v-279h-71z"/>
<glyph glyph-name="Z" horiz-adv-x="575" unicode="Z" d="M57 628v60h481v-46l-413 -582h409v-60h-497v46l413 582h-393z"/>
<glyph glyph-name="bracketleft" horiz-adv-x="318" unicode="[" d="M153 -172h147v-56h-209v972h209v-56h-147v-860z"/>
<glyph glyph-name="backslash" horiz-adv-x="401" unicode="\" d="M325 -12l-308 712h59l308 -712h-59z"/>
<glyph glyph-name="bracketright" horiz-adv-x="318" unicode="]" d="M18 -172h147v860h-147v56h209v-972h-209v56z"/>
<glyph glyph-name="asciicircum" d="M60 352l191 336h68l191 -336h-71l-156 282l-155 -282h-68z" unicode="^"/>
<glyph glyph-name="underscore" horiz-adv-x="500" unicode="_" d="M0 -72h500v-53h-500v53z"/>
<glyph glyph-name="grave" horiz-adv-x="550" unicode="`" d="M251 568l-137 164h81l106 -164h-50z"/>
<glyph glyph-name="a" horiz-adv-x="517" unicode="a" d="M376 207v55q-4 -5 -10 -9t-13 -7t-15 -5t-18 -4l-103 -17q-26 -4 -44.5 -12t-30.5 -19.5t-18 -26t-6 -33.5t6.5 -34.5t19.5 -26.5t32.5 -17t44.5 -6q32 0 60 10t49.5 30t33.5 51t12 71zM50 123q0 30 9 54t28 42t48.5 30t69.5 19l105 18q20 3 32 6.5t19.5 8t11 10.5 t3.5 16q-1 28 -8.5 49.5t-22 36.5t-36 22.5t-49.5 7.5t-50.5 -7t-39 -21t-25.5 -34t-11 -45h-65q2 36 15.5 66t38.5 51.5t59.5 33.5t77.5 12q44 0 78.5 -12t58 -34.5t35.5 -56t12 -75.5v-321h-65v78h-3q-10 -21 -26.5 -37.5t-38 -28t-47 -17.5t-54.5 -6q-38 0 -67.5 9.5 t-50.5 27.5t-31.5 42.5t-10.5 54.5z"/>
<glyph glyph-name="b" horiz-adv-x="576" unicode="b" d="M148 244q0 -45 12 -82t33.5 -62.5t50 -38.5t61.5 -13t61.5 14t50 40t33.5 63.5t12 82.5t-12 81t-33.5 60.5t-50 37.5t-61.5 13q-32 0 -60.5 -12.5t-49.5 -37t-33.5 -59.5t-13.5 -78v-9zM80 0v732h68v-149v-34t-0.5 -51t-1 -54t-1.5 -43h3q11 25 28.5 43.5t40 30.5 t48.5 18t55 6q45 0 84 -17t68 -50t45 -79.5t16 -104.5t-17 -106t-47 -82t-70 -52.5t-85 -18.5q-29 0 -54 6t-46 18t-38 30.5t-28 43.5h-3v-87h-65z"/>
<glyph glyph-name="c" horiz-adv-x="511" unicode="c" d="M43 244q0 57 17 104t48 81t72 52t89 18q43 0 78.5 -12.5t61.5 -35.5t42.5 -54.5t22.5 -69.5h-68q-5 25 -16 45.5t-28.5 36t-40.5 23.5t-52 8q-32 0 -60.5 -14t-49.5 -40t-33 -62.5t-12 -79.5t11.5 -79.5t32.5 -62.5t49.5 -40t61.5 -14q29 0 52 8t40.5 23.5t28.5 36 t16 45.5h68q-6 -38 -22.5 -69.5t-42.5 -54.5t-61.5 -35.5t-78.5 -12.5q-51 0 -93 18t-71.5 51.5t-45.5 81t-16 104.5z"/>
<glyph glyph-name="d" horiz-adv-x="576" unicode="d" d="M114 240q0 -45 12 -81t33.5 -61t50 -37.5t61.5 -12.5q32 0 60 12.5t49.5 36.5t34 59t13.5 79v18q-1 43 -13.5 78t-34 59.5t-49.5 37t-60 12.5q-33 0 -61.5 -14t-50 -40t-33.5 -63.5t-12 -82.5zM43 240q0 58 17 106t47 82t70 52.5t85 18.5q28 0 53 -6t46.5 -18.5t38.5 -31 t28 -42.5h3q-1 17 -1.5 43t-1 53t-0.5 47.5v38.5v149h68v-732h-65v88h-3q-11 -25 -28.5 -44t-40 -31t-48.5 -18t-55 -6q-45 0 -84 17t-68 50t-45 79.5t-16 104.5z"/>
<glyph glyph-name="e" horiz-adv-x="519" unicode="e" d="M268 440q-28 0 -53 -10.5t-45 -30t-33.5 -47.5t-19.5 -62h292q-3 38 -14 66t-29 47t-43 28t-55 9zM43 244q0 56 17 103t47.5 81t72 52.5t88.5 18.5q46 0 84.5 -15.5t66.5 -46t43.5 -73.5t15.5 -97v-28h-364q1 -43 12 -78t31.5 -60.5t49.5 -39t65 -13.5q28 0 51.5 7.5 t40.5 21t27.5 32t14.5 39.5h68q-5 -33 -21.5 -62t-43.5 -51t-62 -34t-75 -12q-54 0 -97 18t-72.5 51.5t-44.5 80.5t-15 105z"/>
<glyph glyph-name="f" horiz-adv-x="296" unicode="f" d="M100 0v433h-97v55h97v86q0 40 10 69.5t29.5 49t48.5 29.5t67 10h53v-59h-47q-25 0 -42.5 -6t-29 -19t-16.5 -32t-5 -45v-83h124v-55h-124v-433h-68z"/>
<glyph glyph-name="g" horiz-adv-x="576" unicode="g" d="M114 240q0 -45 12 -81t33.5 -61t50 -37.5t61.5 -12.5q32 0 60 12.5t49.5 36.5t34 59t13.5 79v18q-1 43 -13.5 78t-34 59.5t-49.5 37t-60 12.5q-33 0 -61.5 -14t-50 -40t-33.5 -63.5t-12 -82.5zM55 -60h65q0 -26 10.5 -47t30 -35.5t46 -22t58.5 -7.5q36 0 66 10t52.5 33 t35 60t12.5 90v66h-3q-12 -25 -29.5 -43.5t-40 -30.5t-48.5 -18t-54 -6q-45 0 -84 17t-68 50t-45 79.5t-16 104.5t17 106t47 82t70 52.5t85 18.5q28 0 53 -6t46.5 -18.5t38.5 -31t28 -42.5h3v87h65v-467q0 -67 -17.5 -114.5t-49 -77.5t-73.5 -43.5t-91 -13.5q-45 0 -83.5 11 t-67 32.5t-44 53t-15.5 71.5z"/>
<glyph glyph-name="h" horiz-adv-x="558" unicode="h" d="M80 0v732h68v-146v-33t-0.5 -50t-1 -52.5t-1.5 -42.5h3q11 23 27 40t37 28.5t45 17t51 5.5q37 0 69 -11t56.5 -35t38 -62.5t13.5 -91.5v-299h-68v290q0 40 -8.5 69t-25 47t-39 26t-50.5 8q-30 0 -56.5 -12t-46.5 -35.5t-31.5 -58.5t-11.5 -78v-256h-68z"/>
<glyph glyph-name="i" horiz-adv-x="228" unicode="i" d="M80 0v488h68v-488h-68zM77 636v96h74v-96h-74z"/>
<glyph glyph-name="j" horiz-adv-x="228" unicode="j" d="M80 -84v572h68v-584q0 -29 -7 -52t-22.5 -39t-39 -24.5t-56.5 -8.5h-30v59h24q17 0 28.5 4.5t19.5 14t11.5 24t3.5 34.5zM77 636v96h74v-96h-74z"/>
<glyph glyph-name="k" horiz-adv-x="496" unicode="k" d="M80 0v732h68v-508l238 264h81l-182 -197l203 -291h-81l-168 241l-91 -99v-142h-68z"/>
<glyph glyph-name="l" horiz-adv-x="228" unicode="l" d="M80 0v732h68v-732h-68z"/>
<glyph glyph-name="m" horiz-adv-x="863" unicode="m" d="M80 0v488h65v-80h3q11 22 27 39.5t36.5 29t43.5 17t48 5.5q26 0 49.5 -6t43.5 -18.5t35 -32.5t25 -47q12 27 29.5 47t39.5 32.5t46.5 18.5t52.5 6q35 0 65 -11t53 -34t35.5 -60.5t12.5 -88.5v-305h-68v296q0 38 -7.5 66t-21.5 45t-35 25t-48 8q-28 0 -53.5 -12t-45.5 -36 t-31 -59.5t-11 -79.5v-253h-68v296q0 38 -8 65.5t-22.5 45t-35 25.5t-46.5 8q-28 0 -53.5 -12t-45.5 -36t-31 -59t-11 -79v-254h-68z"/>
<glyph glyph-name="n" horiz-adv-x="558" unicode="n" d="M80 0v488h65v-80h3q11 23 27 40t37 28.5t45 17t51 5.5q37 0 69 -11t56.5 -35t38 -62.5t13.5 -91.5v-299h-68v290q0 40 -8.5 69t-25 47t-39 26t-50.5 8q-30 0 -56.5 -12t-46.5 -36t-31.5 -59t-11.5 -79v-254h-68z"/>
<glyph glyph-name="o" horiz-adv-x="550" unicode="o" d="M114 244q0 -43 11.5 -79.5t33 -62.5t51.5 -40t65 -14t64.5 14t51 40t33.5 62.5t12 79.5q0 44 -11.5 80.5t-33 62.5t-51.5 39.5t-65 13.5t-64.5 -14t-51 -40t-33.5 -62.5t-12 -79.5zM43 244q0 57 17 104t48.5 81t74.5 52t92 18q52 0 95 -18t73.5 -51.5t47 -81t16.5 -104.5 t-17 -104t-48.5 -81t-74.5 -52t-92 -18q-52 0 -95 18t-73.5 51.5t-47 81t-16.5 104.5z"/>
<glyph glyph-name="p" horiz-adv-x="576" unicode="p" d="M462 248q0 45 -12 81t-33.5 60.5t-50 37.5t-61.5 13q-32 0 -60.5 -12.5t-49.5 -37t-33.5 -59.5t-13.5 -78v-9q0 -45 12 -82t33.5 -62.5t50 -38.5t61.5 -13t61.5 14t50 40t33.5 63.5t12 82.5zM148 -95v-125h-68v708h65v-87h3q11 25 28.5 43.5t40 30.5t48.5 18t55 6 q45 0 84 -17t68 -50t45 -79.5t16 -104.5t-17 -106t-47 -82t-70 -52.5t-85 -18.5q-29 0 -54 6t-46 18t-38 30.5t-28 43.5h-3q1 -17 1.5 -43t1 -54t0.5 -51v-34z"/>
<glyph glyph-name="q" horiz-adv-x="573" unicode="q" d="M114 240q0 -45 12 -81t33.5 -61t50 -37.5t61.5 -12.5t61.5 13t50 38.5t33.5 62.5t12 82v9q-1 43 -13.5 78t-34 59.5t-49.5 37t-60 12.5q-33 0 -61.5 -14t-50 -40t-33.5 -63.5t-12 -82.5zM428 -95v38.5t0.5 47.5t1 53t1.5 43h-3q-12 -25 -29.5 -43.5t-39.5 -30.5t-48 -18 t-55 -6q-45 0 -84 17t-68 50t-45 79.5t-16 104.5t17 106t47 82t70 52.5t85 18.5q28 0 53 -6t46.5 -18.5t38.5 -31t28 -42.5h3v87h65v-708h-68v125z"/>
<glyph glyph-name="r" horiz-adv-x="350" unicode="r" d="M80 0v488h65v-80h3q9 21 21.5 37.5t29.5 28.5t37 18.5t43 6.5q9 0 17 -1t17 -3t17.5 -6t17.5 -10l-22 -61q-8 4 -16 7.5t-15.5 5t-15 2.5t-14.5 1q-28 0 -50.5 -14t-37 -38.5t-22 -56.5t-7.5 -67v-258h-68z"/>
<glyph glyph-name="s" horiz-adv-x="481" unicode="s" d="M40 138h65q0 -24 10.5 -42.5t29 -30.5t42 -17.5t48.5 -5.5q31 0 55.5 6t41.5 18t26 29t9 39q0 17 -5.5 29.5t-16 21.5t-27 15t-38.5 10l-92 16q-28 5 -52 13t-43 22.5t-30.5 37t-11.5 54.5q0 34 14 61t39.5 46t60 29t73.5 10q38 0 71.5 -8.5t59.5 -26t40.5 -45 t14.5 -64.5h-65q0 22 -9 39.5t-25.5 29t-38.5 17t-48 5.5t-48 -5.5t-38.5 -16.5t-25.5 -27.5t-9 -37.5q0 -17 6 -29.5t17.5 -21t28.5 -14.5t40 -10l92 -16q31 -6 55 -14.5t41.5 -23.5t27.5 -37t10 -53q0 -37 -14.5 -65.5t-41.5 -47.5t-63.5 -28.5t-80.5 -9.5 q-42 0 -77.5 9.5t-62 28t-41 46.5t-14.5 65z"/>
<glyph glyph-name="t" horiz-adv-x="317" unicode="t" d="M92 140v293h-96v55h96v148h68v-148h133v-55h-133v-290q0 -23 4.5 -39t14 -26t24 -14.5t35.5 -4.5h55v-59h-64q-34 0 -60 8.5t-43 25.5t-25.5 43.5t-8.5 62.5z"/>
<glyph glyph-name="u" horiz-adv-x="553" unicode="u" d="M72 189v299h68v-290q0 -40 8.5 -69t24.5 -47t38.5 -26t50.5 -8q30 0 56 12t45.5 36t30.5 59t11 80v253h68v-488h-65v80h-3q-11 -23 -27 -40t-36.5 -28.5t-44 -17t-49.5 -5.5q-37 0 -69 11t-56 35t-37.5 62.5t-13.5 91.5z"/>
<glyph glyph-name="v" horiz-adv-x="460" unicode="v" d="M195 0l-187 488h74l150 -414h3l149 414h68l-183 -488h-74z"/>
<glyph glyph-name="w" horiz-adv-x="711" unicode="w" d="M153 0l-145 488h71l113 -417h4l121 417h80l121 -417h4l113 417h68l-145 -488h-82l-119 420h-3l-119 -420h-82z"/>
<glyph glyph-name="x" horiz-adv-x="449" unicode="x" d="M14 0l173 245l-170 243h80l131 -191l130 191h74l-171 -242l174 -246h-81l-133 195l-132 -195h-75z"/>
<glyph glyph-name="y" horiz-adv-x="460" unicode="y" d="M33 -169h27q23 0 41.5 7t33.5 20.5t26.5 32.5t20.5 45l18 49l-192 503h74l150 -414h3l149 414h68l-214 -571q-11 -30 -25 -55t-34 -45t-46.5 -32t-60.5 -12h-39v58z"/>
<glyph glyph-name="z" horiz-adv-x="433" unicode="z" d="M31 433v55h367v-46l-277 -387h281v-55h-367v40l281 393h-285z"/>
<glyph glyph-name="braceleft" horiz-adv-x="358" unicode="{" d="M142 -78v188q0 36 -5.5 59t-17.5 37.5t-33.5 22t-54.5 9.5v47q33 2 54.5 9.5t33.5 22.5t17.5 38t5.5 58v181q0 37 8 64.5t26 46.5t46.5 29t68.5 10h49v-53h-46q-24 0 -41.5 -5.5t-28 -17t-15.5 -29.5t-5 -42v-202q0 -28 -5.5 -49t-17.5 -37t-31 -27t-46 -19v-3 q27 -8 46 -19t31 -27t17.5 -37t5.5 -49v-209q0 -24 5 -42t15.5 -29.5t28 -17t41.5 -5.5h46v-53h-49q-40 0 -68.5 10t-46.5 29t-26 46.5t-8 64.5z"/>
<glyph glyph-name="bar" horiz-adv-x="256" unicode="|" d="M97 -240v1000h62v-1000h-62z"/>
<glyph glyph-name="braceright" horiz-adv-x="358" unicode="}" d="M18 -175h46q24 0 41.5 5.5t28 17t15.5 29.5t5 42v209q0 28 5.5 49t18 37t31.5 27t46 19v3q-27 8 -46 19t-31.5 27t-18 37t-5.5 49v202q0 24 -5 42t-15.5 29.5t-28 17t-41.5 5.5h-46v53h49q40 0 68.5 -10t46.5 -29t26 -46.5t8 -64.5v-181q0 -35 5.5 -58t17.5 -38 t33.5 -22.5t54.5 -9.5v-47q-33 -2 -54.5 -9.5t-33.5 -22t-17.5 -37.5t-5.5 -59v-188q0 -37 -8 -64.5t-26 -46.5t-46.5 -29t-68.5 -10h-49v53z"/>
<glyph glyph-name="asciitilde" d="M63 186q0 35 9 62.5t25.5 45t38 26.5t46.5 9q30 0 55.5 -10.5t57.5 -31.5t51 -30.5t40 -9.5q14 0 25 5t19 15t12 26t4 38h59q0 -35 -9 -62.5t-25 -45t-37 -26.5t-45 -9q-30 0 -56 11t-59 33t-52 31.5t-40 9.5q-14 0 -25 -5t-19 -16t-12 -27.5t-4 -38.5h-59z" unicode="~"/>
<glyph glyph-name="uni00A0" horiz-adv-x="216" unicode=" "/>
<glyph glyph-name="exclamdown" horiz-adv-x="256" unicode="¡" d="M88 -16l21 315h38l21 -315v-184h-80v184zM88 386v102h80v-102h-80z"/>
<glyph glyph-name="cent" d="M262 -11v106q-46 6 -83.5 26t-64 53t-40.5 77t-14 97q0 52 15.5 96t43.5 77.5t65.5 53.5t80.5 26v98h68v-98q37 -5 68 -19.5t54 -36.5t37 -51t19 -63h-68q-5 25 -16.5 45.5t-30 36t-44 23.5t-56.5 8q-35 0 -65 -14t-52.5 -40t-35 -62.5t-12.5 -79.5t12.5 -79.5t35 -62.5 t52.5 -40t65 -14q31 0 56.5 8t44 23.5t30 36t16.5 45.5h68q-5 -34 -19.5 -63.5t-37.5 -51.5t-54.5 -36.5t-69.5 -18.5v-106h-68z" unicode="¢"/>
<glyph glyph-name="sterling" d="M109 30q16 0 28.5 6t22.5 17t17 25.5t12 31.5q-10 7 -19.5 12.5t-19 9.5t-19 6t-19.5 2q-12 0 -22.5 -4t-18.5 -12t-12.5 -18t-4.5 -22q0 -11 3.5 -21t11 -17.5t17.5 -11.5t23 -4zM64 333v48h90q-7 19 -13 36.5t-10.5 35t-7 35.5t-2.5 36q0 39 13 71.5t37 55.5t58 35.5 t75 12.5q40 0 72 -11.5t55 -33.5t36 -55t16 -75h-68q-2 30 -10.5 52.5t-23 37t-34.5 22t-46 7.5q-24 0 -44.5 -7.5t-36 -22.5t-23.5 -36t-8 -47q0 -18 3 -36.5t8.5 -36.5t11.5 -35t16 -41h170v-48h-152q4 -14 8 -27t6.5 -26t4 -27t1.5 -27t-1 -25.5t-2.5 -25t-4 -25 t-5.5 -24.5q60 -44 78 -54.5t36.5 -17t37.5 -6.5q21 0 35.5 8t24 23t14 36t6.5 49h59q-3 -34 -10 -64t-23 -55.5t-43 -40.5t-66 -15q-22 0 -43.5 7.5t-42 19.5t-36 24t-45.5 36q-10 -20 -22.5 -36t-28.5 -27.5t-35 -17.5t-41 -6q-23 0 -42 7t-32 19.5t-20 29t-7 35.5 q0 24 8 43t23 33t35.5 21t44.5 7q10 0 20.5 -1.5t20.5 -4.5t19.5 -7t19.5 -9q1 5 1.5 10.5t1 10.5t0.5 9.5v9.5q0 16 -2 32.5t-6 33t-9 32t-12 33.5h-108z" unicode="£"/>
<glyph glyph-name="currency" d="M284 230q23 0 43.5 8t35.5 23.5t23 36.5t8 46t-8 46t-23 36.5t-35.5 23.5t-43.5 8t-43.5 -8t-35.5 -23.5t-23 -36.5t-8 -46t8 -46t23 -36.5t35.5 -23.5t43.5 -8zM127 152l-35 34l59 60q-7 11 -13 22t-10.5 23.5t-7 25.5t-2.5 27t2.5 27.5t7 26t11 24t13.5 21.5l-59 61 l34 34l60 -61q10 8 21 13.5t23 9.5t25.5 6t27.5 2t27 -2t25 -6t23 -9.5t21 -13.5l60 61l35 -34l-60 -60q8 -10 14 -22t11 -24.5t7.5 -26t2.5 -27.5t-2.5 -27t-7 -25.5t-11 -23.5t-13.5 -22l59 -60l-34 -34l-59 59q-10 -7 -21 -13t-23.5 -10t-26 -6t-27.5 -2t-27.5 2t-26 6 t-24 10t-21.5 14z" unicode="¤"/>
<glyph glyph-name="yen" d="M91 257v44h159v3l-230 384h77l188 -320h4l188 320h71l-230 -386v-1h159v-44h-159v-88h159v-44h-159v-125h-68v125h-159v44h159v88h-159z" unicode="¥"/>
<glyph glyph-name="brokenbar" horiz-adv-x="256" unicode="¦" d="M97 -164v352h62v-352h-62zM97 336v352h62v-352h-62z"/>
<glyph glyph-name="section" horiz-adv-x="560" unicode="§" d="M319 349l-67 20q-29 -6 -52.5 -17.5t-40 -28t-25 -36.5t-8.5 -43q0 -26 7.5 -45t21.5 -32.5t35 -23.5t51 -19l63 -19q30 5 54 16t41 27.5t26 36.5t9 43q0 26 -7.5 45t-21.5 32.5t-35 23.5t-51 20zM68 -72h65q2 -26 13 -45.5t30 -32.5t44 -19t54 -6q31 0 56.5 7.5 t43.5 21.5t27.5 34t9.5 44q0 23 -7.5 40t-21 28.5t-32 20t-44.5 16.5l-92 28q-40 12 -68.5 27.5t-47.5 36t-28 47t-9 59.5q0 28 8.5 52.5t25 44.5t39.5 35t51 24q-24 10 -42.5 22.5t-32.5 29t-21.5 39.5t-7.5 52q0 38 15 68.5t43 52.5t65.5 33.5t81.5 11.5q43 0 79.5 -9 t64 -28.5t43.5 -49t19 -69.5h-65q-2 26 -13 45.5t-30 32.5t-44 19t-54 6q-31 0 -56.5 -7.5t-43.5 -21.5t-27.5 -34t-9.5 -44q0 -23 7.5 -40t21 -28.5t32 -20t44.5 -16.5l92 -28q40 -12 68.5 -27.5t47.5 -36t28 -47t9 -59.5q0 -28 -8.5 -52.5t-25 -44.5t-39.5 -35t-51 -24 q24 -10 42.5 -22.5t32.5 -29.5t21.5 -39.5t7.5 -51.5q0 -38 -15 -68.5t-43 -52.5t-65.5 -33.5t-81.5 -11.5q-43 0 -79.5 9.5t-64 28.5t-43.5 48.5t-19 69.5z"/>
<glyph glyph-name="dieresis" horiz-adv-x="550" unicode="¨" d="M143 605v90h68v-90h-68zM340 605v90h68v-90h-68z"/>
<glyph glyph-name="copyright" horiz-adv-x="776" unicode="©" d="M219 348q0 36 12 68t34 56.5t53.5 38t69.5 13.5q30 0 55.5 -8.5t44.5 -23.5t31.5 -36t17.5 -47h-55q-4 15 -12 27.5t-19.5 21.5t-27 14t-35.5 5q-25 0 -46 -10t-36 -28t-23 -41.5t-8 -49.5t8 -49.5t23 -41.5t36 -28t46 -10q20 0 35.5 5t27 14t19.5 21.5t12 27.5h55 q-5 -26 -17.5 -47t-31.5 -36t-44.5 -23.5t-55.5 -8.5q-38 0 -69.5 13.5t-53.5 38t-34 56.5t-12 68zM94 348q0 -64 21.5 -120.5t61 -100t93.5 -67.5t118 -24q63 0 117 24t94 67.5t61.5 100.5t21.5 120t-21.5 118.5t-61 96.5t-93.5 63.5t-118 22.5t-118.5 -22.5t-93.5 -63.5 t-60.5 -96.5t-21.5 -118.5zM38 348q0 74 26 138.5t73 112t111.5 74t139.5 26.5q73 0 137.5 -26.5t112 -74t74 -112t26.5 -138.5t-26 -139.5t-73 -115t-111.5 -77t-139.5 -27.5t-139.5 27.5t-111.5 77t-73 115t-26 139.5z"/>
<glyph glyph-name="ordfeminine" horiz-adv-x="380" unicode="ª" d="M268 486v35q-3 -3 -6.5 -6t-8 -5t-10 -3t-11.5 -2l-69 -9q-17 -2 -29 -7t-20 -13t-11.5 -17.5t-3.5 -21.5q0 -13 4.5 -23.5t13 -17.5t21 -11t28.5 -4q20 0 38.5 6.5t33 19.5t22.5 33t8 46zM150 336q-26 0 -47 7t-36 20t-22.5 30.5t-7.5 39.5q0 21 6.5 38t20.5 30t35 21.5 t49 12.5l76 10q13 2 21 4t13 5t7.5 8t2.5 13q0 17 -5 30.5t-14.5 23.5t-24 15.5t-32.5 5.5q-17 0 -31 -4.5t-25 -13t-18 -22t-8 -31.5h-58q2 30 13.5 52.5t30.5 36.5t43.5 21t52.5 7q32 0 57.5 -7.5t43.5 -23t27.5 -39t9.5 -53.5v-229h-60v52h-2q-8 -14 -19 -25t-26 -19 t-33.5 -12t-39.5 -4z"/>
<glyph glyph-name="guillemotleft" horiz-adv-x="505" unicode="«" d="M200 48l-145 204l145 204h56l-124 -204l124 -204h-56zM249 252l145 204h56l-124 -204l124 -204h-56z"/>
<glyph glyph-name="logicalnot" d="M57 224v59h454v-255h-62v196h-392z" unicode="¬"/>
<glyph glyph-name="uni00AD" horiz-adv-x="396" unicode="­" d="M60 221v62h276v-62h-276z"/>
<glyph glyph-name="registered" horiz-adv-x="776" unicode="®" d="M408 473h-99v-119h99q17 0 30 4.5t21.5 12.5t13 19t4.5 25t-4.5 24.5t-13 18t-21.5 11.5t-30 4zM253 176v344h157q30 0 53 -7.5t38.5 -21t23.5 -33t8 -43.5q0 -18 -5.5 -34.5t-16.5 -30t-26 -23.5t-33 -15l90 -136h-61l-83 130h-89v-130h-56zM94 348q0 -64 21.5 -120.5 t61 -100t93.5 -67.5t118 -24q63 0 117 24t94 67.5t61.5 100.5t21.5 120t-21.5 118.5t-61 96.5t-93.5 63.5t-118 22.5t-118.5 -22.5t-93.5 -63.5t-60.5 -96.5t-21.5 -118.5zM38 348q0 74 26 138.5t73 112t111.5 74t139.5 26.5q73 0 137.5 -26.5t112 -74t74 -112t26.5 -138.5 t-26 -139.5t-73 -115t-111.5 -77t-139.5 -27.5t-139.5 27.5t-111.5 77t-73 115t-26 139.5z"/>
<glyph glyph-name="macron" horiz-adv-x="550" unicode="¯" d="M136 623v53h276v-53h-276z"/>
<glyph glyph-name="degree" horiz-adv-x="356" unicode="°" d="M178 649q-18 0 -33 -6.5t-26 -18t-17 -27t-6 -34.5q0 -18 6 -34t17 -27.5t26 -18t33 -6.5t33 6.5t26 18t17 27.5t6 34q0 19 -6 34.5t-17 27t-26 18t-33 6.5zM178 428q-29 0 -54 10t-44 28.5t-29.5 43t-10.5 53.5t10.5 54t29.5 43.5t44 28.5t54 10t54 -10t44 -28.5 t29.5 -43.5t10.5 -54t-10.5 -53.5t-29.5 -43t-44 -28.5t-54 -10z"/>
<glyph glyph-name="plusminus" d="M57 0v59h454v-59h-454zM57 305v59h196v182h62v-182h196v-59h-196v-182h-62v182h-196z" unicode="±"/>
<glyph glyph-name="twosuperior" horiz-adv-x="352" unicode="²" d="M39 496q0 35 9 61t24 44.5t33.5 31.5t42.5 25l29 15q17 8 29.5 15.5t22.5 15.5t15.5 18t5.5 21q0 13 -4.5 23.5t-13.5 18t-22.5 11.5t-31.5 4q-17 0 -31.5 -4.5t-25.5 -14t-17.5 -24t-7.5 -33.5h-56q1 33 12.5 56.5t31 38t43.5 21.5t51 7q29 0 53.5 -6.5t41.5 -19.5 t26.5 -32.5t9.5 -43.5q0 -22 -9 -39.5t-23.5 -30.5t-31 -22.5t-43.5 -22.5l-29 -14q-15 -7 -27 -15t-20.5 -17t-13.5 -18.5t-5 -19.5h204v-50h-272z"/>
<glyph glyph-name="threesuperior" horiz-adv-x="352" unicode="³" d="M37 598h56q0 -16 6 -28.5t17 -21t26.5 -12.5t33.5 -4t33.5 4t26.5 11.5t17 19t6 26.5t-6 26.5t-17 19t-26.5 11.5t-33.5 4h-29v41h29q17 0 30 3.5t23 10.5t15 17t5 23t-5.5 23.5t-15 17t-23 10t-29.5 3.5t-29.5 -4t-23.5 -12.5t-15.5 -20t-5.5 -25.5h-56q0 26 9.5 46 t27.5 33.5t42.5 20.5t53.5 7q28 0 51.5 -6.5t40.5 -19.5t26.5 -30t9.5 -38q0 -14 -4 -27t-12 -23t-19.5 -17.5t-25.5 -10.5v-2q16 -3 29.5 -11t23 -19t15 -25.5t5.5 -31.5q0 -23 -10 -41.5t-28.5 -31.5t-45 -19.5t-59.5 -6.5q-31 0 -56.5 6t-44 19.5t-28.5 34.5t-10 50z"/>
<glyph glyph-name="acute" horiz-adv-x="550" unicode="´" d="M249 568l106 164h81l-137 -164h-50z"/>
<glyph glyph-name="mu" horiz-adv-x="562" unicode="µ" d="M417 0v80h-3q-11 -23 -27 -40t-36.5 -28.5t-44 -17t-49.5 -5.5q-17 0 -33 2.5t-31 7.5t-28.5 13t-24.5 19q2 -18 3.5 -41.5t2.5 -48t1.5 -46.5t0.5 -38v-77h-68v708h68v-290q0 -41 8.5 -69.5t24.5 -46.5t38.5 -26t51.5 -8q30 0 56 12t45.5 35.5t30.5 58t11 78.5v256h67 v-488h-64z"/>
<glyph glyph-name="paragraph" horiz-adv-x="605" unicode="¶" d="M271 0v263q-52 3 -93.5 19t-70.5 44t-44 66t-15 83q0 48 16.5 87.5t48.5 67.5t77.5 43t101.5 15h47v-688h-68zM434 0v688h68v-688h-68z"/>
<glyph glyph-name="periodcentered" horiz-adv-x="244" unicode="·" d="M79 198v108h86v-108h-86z"/>
<glyph glyph-name="cedilla" horiz-adv-x="550" unicode="¸" d="M234 -78l28 78h26l-6 -40q22 -1 39.5 -8t29 -18.5t17.5 -26.5t6 -32q0 -19 -6.5 -35.5t-20 -29t-34.5 -19.5t-48 -7h-53v44h50q15 0 26 3t18.5 9t11 14.5t3.5 20.5q0 11 -4 20t-11.5 15t-18.5 9t-26 3h-27z"/>
<glyph glyph-name="onesuperior" horiz-adv-x="352" unicode="¹" d="M71 717l-25 42l137 81h37v-294h98v-50h-263v50h106v223z"/>
<glyph glyph-name="ordmasculine" horiz-adv-x="407" unicode="º" d="M203 387q23 0 43 9t34 26.5t22 41.5t8 52q0 29 -7.5 53t-21.5 41t-34 26t-44 9q-23 0 -42.5 -9t-34 -26t-22 -41t-7.5 -53t7.5 -52.5t22 -41t34 -26.5t42.5 -9zM203 337q-38 0 -69.5 12.5t-54 36t-34.5 57t-12 73.5t12.5 73.5t35.5 57.5t54 36.5t68 12.5q39 0 70.5 -12.5 t54 -36.5t34.5 -57t12 -74q0 -40 -12.5 -73.5t-35.5 -57t-54.5 -36t-68.5 -12.5z"/>
<glyph glyph-name="guillemotright" horiz-adv-x="505" unicode="»" d="M55 48l124 204l-124 204h55l146 -204l-146 -204h-55zM249 48l124 204l-124 204h56l145 -204l-145 -204h-56z"/>
<glyph glyph-name="onequarter" horiz-adv-x="764" unicode="¼" d="M504 120h118v145zM71 565l-25 42l137 81h37v-294h98v-50h-263v50h106v223zM215 -12q28 57 68 139t106 217t106 217t68 139h54l-349 -712h-53zM439 73v38l192 234h50v-225h53v-47h-53v-73h-59v73h-183z"/>
<glyph glyph-name="onehalf" horiz-adv-x="764" unicode="½" d="M71 565l-25 42l137 81h37v-294h98v-50h-263v50h106v223zM195 -12l349 712h53l-348 -712h-54zM451 0q0 35 9 61t24 44.5t33.5 31.5t42.5 25l29 15q17 8 29.5 15.5t22.5 15.5t15.5 18t5.5 21q0 13 -4.5 23.5t-13.5 18t-22.5 11.5t-31.5 4q-17 0 -31.5 -4.5t-25.5 -14 t-17.5 -24t-7.5 -33.5h-56q1 33 12.5 56.5t31 38t43.5 21.5t51 7q29 0 53.5 -6.5t41.5 -19.5t26.5 -32.5t9.5 -43.5q0 -22 -9 -39.5t-23.5 -30.5t-31 -22.5t-43.5 -22.5l-29 -14q-15 -7 -27 -15t-20.5 -17t-13.5 -18.5t-5 -19.5h204v-50h-272z"/>
<glyph glyph-name="threequarters" horiz-adv-x="764" unicode="¾" d="M504 120h118v145zM204 -12q29 60 73.5 151t93 189t182.5 372h53l-349 -712h-53zM37 446h56q0 -16 6 -28.5t17 -21t26.5 -12.5t33.5 -4t33.5 4t26.5 11.5t17 19t6 26.5t-6 26.5t-17 19t-26.5 11.5t-33.5 4h-29v41h29q17 0 30 3.5t23 10.5t15 17t5 23t-5.5 23.5t-15 17 t-23 10t-29.5 3.5t-29.5 -4t-23.5 -12.5t-15.5 -20t-5.5 -25.5h-56q0 26 9.5 46t27.5 33.5t42.5 20.5t53.5 7q28 0 51.5 -6.5t40.5 -19.5t26.5 -30t9.5 -38q0 -14 -4 -27t-12 -23t-19.5 -17.5t-25.5 -10.5v-2q16 -3 29.5 -11t23 -19t15 -25.5t5.5 -31.5q0 -23 -10 -41.5 t-28.5 -31.5t-45 -19.5t-59.5 -6.5q-31 0 -56.5 6t-44 19.5t-28.5 34.5t-10 50zM439 73v38l192 234h50v-225h53v-47h-53v-73h-59v73h-183z"/>
<glyph glyph-name="questiondown" horiz-adv-x="485" unicode="¿" d="M39 -37q0 55 22.5 88t67 68.5t65.5 62.5t21 73v37h68v-28q0 -62 -22.5 -99t-67 -73t-64 -59.5t-19.5 -66.5q0 -26 9.5 -47.5t26.5 -37.5t40.5 -24.5t51.5 -8.5q35 0 62 11t45 32t27.5 49.5t9.5 63.5h68q0 -45 -13.5 -84t-40.5 -68.5t-67 -46t-91 -16.5q-43 0 -79.5 12 t-63.5 34.5t-41.5 55t-14.5 72.5zM209 386v102h79v-102h-79z"/>
<glyph glyph-name="Agrave" horiz-adv-x="631" unicode="À" d="M290 768l-137 164h81l106 -164h-50zM316 614h-4l-131 -355h265zM15 0l259 688h83l259 -688h-74l-73 198h-310l-73 -198h-71z"/>
<glyph glyph-name="Aacute" horiz-adv-x="631" unicode="Á" d="M288 768l106 164h81l-137 -164h-50zM316 614h-4l-131 -355h265zM15 0l259 688h83l259 -688h-74l-73 198h-310l-73 -198h-71z"/>
<glyph glyph-name="Acircumflex" horiz-adv-x="631" unicode="Â" d="M155 768l128 164h62l128 -164h-65l-94 123l-94 -123h-65zM316 614h-4l-131 -355h265zM15 0l259 688h83l259 -688h-74l-73 198h-310l-73 -198h-71z"/>
<glyph glyph-name="Atilde" horiz-adv-x="631" unicode="Ã" d="M159 768q1 21 7 39t17 31.5t27 21t36 7.5q19 0 37 -6.5t42.5 -20t37 -19t24.5 -5.5q11 0 19 4.5t13.5 12t8.5 16.5t5 19h38q-1 -20 -7 -38t-17 -31.5t-27 -21.5t-36 -8q-19 0 -37 6.5t-42.5 20t-37 19t-24.5 5.5q-11 0 -19 -4.5t-13.5 -12t-8.5 -16.5t-5 -19h-38z M316 614h-4l-131 -355h265zM15 0l259 688h83l259 -688h-74l-73 198h-310l-73 -198h-71z"/>
<glyph glyph-name="Adieresis" horiz-adv-x="631" unicode="Ä" d="M182 768v90h68v-90h-68zM379 768v90h68v-90h-68zM316 614h-4l-131 -355h265zM15 0l259 688h83l259 -688h-74l-73 198h-310l-73 -198h-71z"/>
<glyph glyph-name="Aring" horiz-adv-x="631" unicode="Å" d="M314 802q12 0 22.5 4t18.5 12t12.5 19t4.5 23t-4.5 23t-12.5 19t-18.5 12t-22.5 4t-22.5 -4t-18.5 -12t-12.5 -19t-4.5 -23t4.5 -23t12.5 -19t18.5 -12t22.5 -4zM314 767q-19 0 -36 6.5t-31 19t-21.5 30t-7.5 37.5t7.5 37.5t21.5 30t31 19t36 6.5t36 -6.5t31 -19 t21.5 -30t7.5 -37.5t-7.5 -37.5t-21.5 -30t-31 -19t-36 -6.5zM316 614h-4l-131 -355h265zM15 0l259 688h83l259 -688h-74l-73 198h-310l-73 -198h-71z"/>
<glyph glyph-name="AE" horiz-adv-x="1051" unicode="Æ" d="M535 606l-276 -380h277v380h-1zM11 0l501 688h480v-62h-385v-244h309v-62h-309v-258h393v-62h-464v164h-322l-119 -164h-84z"/>
<glyph glyph-name="Ccedilla" horiz-adv-x="708" unicode="Ç" d="M330 -78l24 68q-68 3 -125 30.5t-97.5 75t-62.5 111t-22 137.5q0 75 23.5 140t67 113.5t104 75t132.5 26.5q58 0 106.5 -16t85.5 -45.5t61.5 -70.5t35.5 -91h-73q-11 38 -29.5 67t-45.5 49.5t-62.5 31t-78.5 10.5q-56 0 -103 -21.5t-80.5 -61t-51.5 -92.5t-18 -115 q0 -61 18 -114t51 -92.5t79.5 -61.5t101.5 -22q45 0 81 10.5t63 31t45.5 49.5t29.5 67h73q-11 -49 -35 -89t-60 -69.5t-83 -46t-103 -18.5l-4 -29q22 -1 39.5 -8t29 -18.5t17.5 -26.5t6 -32q0 -19 -6.5 -35.5t-20 -29t-34.5 -19.5t-48 -7h-53v44h50q15 0 26 3t18.5 9 t11 14.5t3.5 20.5q0 11 -4 20t-11.5 15t-18.5 9t-26 3h-27z"/>
<glyph glyph-name="Egrave" horiz-adv-x="606" unicode="È" d="M296 768l-137 164h81l106 -164h-50zM91 0v688h456v-62h-385v-244h309v-62h-309v-258h393v-62h-464z"/>
<glyph glyph-name="Eacute" horiz-adv-x="606" unicode="É" d="M294 768l106 164h81l-137 -164h-50zM91 0v688h456v-62h-385v-244h309v-62h-309v-258h393v-62h-464z"/>
<glyph glyph-name="Ecircumflex" horiz-adv-x="606" unicode="Ê" d="M161 768l128 164h62l128 -164h-65l-94 123l-94 -123h-65zM91 0v688h456v-62h-385v-244h309v-62h-309v-258h393v-62h-464z"/>
<glyph glyph-name="Edieresis" horiz-adv-x="606" unicode="Ë" d="M188 768v90h68v-90h-68zM385 768v90h68v-90h-68zM91 0v688h456v-62h-385v-244h309v-62h-309v-258h393v-62h-464z"/>
<glyph glyph-name="Igrave" horiz-adv-x="253" unicode="Ì" d="M102 768l-137 164h81l106 -164h-50zM91 0v688h71v-688h-71z"/>
<glyph glyph-name="Iacute" horiz-adv-x="253" unicode="Í" d="M100 768l106 164h81l-137 -164h-50zM91 0v688h71v-688h-71z"/>
<glyph glyph-name="Icircumflex" horiz-adv-x="253" unicode="Î" d="M-33 768l128 164h62l128 -164h-65l-94 123l-94 -123h-65zM91 0v688h71v-688h-71z"/>
<glyph glyph-name="Idieresis" horiz-adv-x="253" unicode="Ï" d="M-6 768v90h68v-90h-68zM191 768v90h68v-90h-68zM91 0v688h71v-688h-71z"/>
<glyph glyph-name="Eth" horiz-adv-x="696" unicode="Ð" d="M288 626h-126v-251h162v-58h-162v-255h126q75 0 129.5 21.5t89.5 60.5t51.5 89.5t16.5 110.5t-16.5 110.5t-51.5 89.5t-89.5 60.5t-129.5 21.5zM4 317v58h87v313h197q88 0 156 -25t113.5 -71t68.5 -109t23 -139t-23 -139t-68.5 -109t-113.5 -71t-156 -25h-197v317h-87z "/>
<glyph glyph-name="Ntilde" horiz-adv-x="723" unicode="Ñ" d="M206 768q1 21 7 39t17 31.5t27 21t36 7.5q19 0 37 -6.5t42.5 -20t37 -19t24.5 -5.5q11 0 19 4.5t13.5 12t8.5 16.5t5 19h38q-1 -20 -7 -38t-17 -31.5t-27 -21.5t-36 -8q-19 0 -37 6.5t-42.5 20t-37 19t-24.5 5.5q-11 0 -19 -4.5t-13.5 -12t-8.5 -16.5t-5 -19h-38zM91 0 v688h68l402 -568h3l-3 568h71v-688h-68l-402 565h-3l3 -565h-71z"/>
<glyph glyph-name="Ograve" horiz-adv-x="754" unicode="Ò" d="M353 768l-137 164h81l106 -164h-50zM121 344q0 -62 18.5 -115t52.5 -92.5t81.5 -61t103.5 -21.5t103.5 21.5t81.5 61t52.5 92.5t18.5 115t-18.5 115t-52.5 92.5t-81.5 61t-103.5 21.5t-103.5 -21.5t-81.5 -61t-52.5 -92.5t-18.5 -115zM47 344q0 76 23.5 141t67.5 113 t105 74.5t134 26.5q71 0 132 -26.5t105.5 -74.5t68.5 -113t24 -141t-24 -141t-68.5 -113t-105.5 -74.5t-132 -26.5q-73 0 -134 26.5t-105 74.5t-67.5 113t-23.5 141z"/>
<glyph glyph-name="Oacute" horiz-adv-x="754" unicode="Ó" d="M351 768l106 164h81l-137 -164h-50zM121 344q0 -62 18.5 -115t52.5 -92.5t81.5 -61t103.5 -21.5t103.5 21.5t81.5 61t52.5 92.5t18.5 115t-18.5 115t-52.5 92.5t-81.5 61t-103.5 21.5t-103.5 -21.5t-81.5 -61t-52.5 -92.5t-18.5 -115zM47 344q0 76 23.5 141t67.5 113 t105 74.5t134 26.5q71 0 132 -26.5t105.5 -74.5t68.5 -113t24 -141t-24 -141t-68.5 -113t-105.5 -74.5t-132 -26.5q-73 0 -134 26.5t-105 74.5t-67.5 113t-23.5 141z"/>
<glyph glyph-name="Ocircumflex" horiz-adv-x="754" unicode="Ô" d="M218 768l128 164h62l128 -164h-65l-94 123l-94 -123h-65zM121 344q0 -62 18.5 -115t52.5 -92.5t81.5 -61t103.5 -21.5t103.5 21.5t81.5 61t52.5 92.5t18.5 115t-18.5 115t-52.5 92.5t-81.5 61t-103.5 21.5t-103.5 -21.5t-81.5 -61t-52.5 -92.5t-18.5 -115zM47 344 q0 76 23.5 141t67.5 113t105 74.5t134 26.5q71 0 132 -26.5t105.5 -74.5t68.5 -113t24 -141t-24 -141t-68.5 -113t-105.5 -74.5t-132 -26.5q-73 0 -134 26.5t-105 74.5t-67.5 113t-23.5 141z"/>
<glyph glyph-name="Otilde" horiz-adv-x="754" unicode="Õ" d="M222 768q1 21 7 39t17 31.5t27 21t36 7.5q19 0 37 -6.5t42.5 -20t37 -19t24.5 -5.5q11 0 19 4.5t13.5 12t8.5 16.5t5 19h38q-1 -20 -7 -38t-17 -31.5t-27 -21.5t-36 -8q-19 0 -37 6.5t-42.5 20t-37 19t-24.5 5.5q-11 0 -19 -4.5t-13.5 -12t-8.5 -16.5t-5 -19h-38z M121 344q0 -62 18.5 -115t52.5 -92.5t81.5 -61t103.5 -21.5t103.5 21.5t81.5 61t52.5 92.5t18.5 115t-18.5 115t-52.5 92.5t-81.5 61t-103.5 21.5t-103.5 -21.5t-81.5 -61t-52.5 -92.5t-18.5 -115zM47 344q0 76 23.5 141t67.5 113t105 74.5t134 26.5q71 0 132 -26.5 t105.5 -74.5t68.5 -113t24 -141t-24 -141t-68.5 -113t-105.5 -74.5t-132 -26.5q-73 0 -134 26.5t-105 74.5t-67.5 113t-23.5 141z"/>
<glyph glyph-name="Odieresis" horiz-adv-x="754" unicode="Ö" d="M245 768v90h68v-90h-68zM442 768v90h68v-90h-68zM121 344q0 -62 18.5 -115t52.5 -92.5t81.5 -61t103.5 -21.5t103.5 21.5t81.5 61t52.5 92.5t18.5 115t-18.5 115t-52.5 92.5t-81.5 61t-103.5 21.5t-103.5 -21.5t-81.5 -61t-52.5 -92.5t-18.5 -115zM47 344q0 76 23.5 141 t67.5 113t105 74.5t134 26.5q71 0 132 -26.5t105.5 -74.5t68.5 -113t24 -141t-24 -141t-68.5 -113t-105.5 -74.5t-132 -26.5q-73 0 -134 26.5t-105 74.5t-67.5 113t-23.5 141z"/>
<glyph glyph-name="multiply" d="M82 419l41 40l161 -163l162 163l41 -41l-162 -164l162 -163l-41 -40l-161 162l-162 -163l-41 41l162 164z" unicode="×"/>
<glyph glyph-name="Oslash" horiz-adv-x="754" unicode="Ø" d="M633 344q0 29 -4.5 57t-12.5 53t-20.5 47.5t-27.5 41.5l-350 -432q16 -14 34 -24.5t38 -17.5t42 -11t45 -4q56 0 103.5 21.5t81.5 61t52.5 92.5t18.5 115zM121 344q0 -29 4 -57t12.5 -53.5t20.5 -48t27 -41.5l351 433q-16 14 -34.5 24.5t-38.5 17.5t-41.5 11t-44.5 4 q-56 0 -103.5 -21.5t-81.5 -61t-52.5 -92.5t-18.5 -115zM59 -12l81 100q-22 24 -39.5 52.5t-29.5 61t-18 68.5t-6 74q0 76 24 141t68.5 113t105 74.5t132.5 26.5q29 0 56.5 -4.5t53 -13.5t48.5 -22t44 -30l57 71h59l-82 -102q22 -24 39.5 -52t29.5 -60.5t18.5 -68t6.5 -73.5 q0 -75 -24.5 -140.5t-69.5 -113.5t-105.5 -74.5t-130.5 -26.5q-29 0 -57 4.5t-53.5 13.5t-48.5 21.5t-44 28.5l-55 -69h-60z"/>
<glyph glyph-name="Ugrave" horiz-adv-x="688" unicode="Ù" d="M320 768l-137 164h81l106 -164h-50zM76 271v417h71v-417q0 -53 12.5 -93.5t37.5 -68t62 -41.5t85 -14t84.5 14t62 41.5t38 68t12.5 93.5v417h71v-417q0 -73 -19 -127t-54.5 -88t-84.5 -50.5t-110 -16.5t-110 16.5t-84.5 50.5t-54.5 88t-19 127z"/>
<glyph glyph-name="Uacute" horiz-adv-x="688" unicode="Ú" d="M318 768l106 164h81l-137 -164h-50zM76 271v417h71v-417q0 -53 12.5 -93.5t37.5 -68t62 -41.5t85 -14t84.5 14t62 41.5t38 68t12.5 93.5v417h71v-417q0 -73 -19 -127t-54.5 -88t-84.5 -50.5t-110 -16.5t-110 16.5t-84.5 50.5t-54.5 88t-19 127z"/>
<glyph glyph-name="Ucircumflex" horiz-adv-x="688" unicode="Û" d="M185 768l128 164h62l128 -164h-65l-94 123l-94 -123h-65zM76 271v417h71v-417q0 -53 12.5 -93.5t37.5 -68t62 -41.5t85 -14t84.5 14t62 41.5t38 68t12.5 93.5v417h71v-417q0 -73 -19 -127t-54.5 -88t-84.5 -50.5t-110 -16.5t-110 16.5t-84.5 50.5t-54.5 88t-19 127z"/>
<glyph glyph-name="Udieresis" horiz-adv-x="688" unicode="Ü" d="M212 768v90h68v-90h-68zM409 768v90h68v-90h-68zM76 271v417h71v-417q0 -53 12.5 -93.5t37.5 -68t62 -41.5t85 -14t84.5 14t62 41.5t38 68t12.5 93.5v417h71v-417q0 -73 -19 -127t-54.5 -88t-84.5 -50.5t-110 -16.5t-110 16.5t-84.5 50.5t-54.5 88t-19 127z"/>
<glyph glyph-name="Yacute" horiz-adv-x="594" unicode="Ý" d="M271 768l106 164h81l-137 -164h-50zM260 0v274l-247 414h80l202 -341h3l209 341h74l-250 -409v-279h-71z"/>
<glyph glyph-name="Thorn" horiz-adv-x="626" unicode="Þ" d="M349 512h-187v-315h187q39 0 69.5 12t51 34t30.5 51t10 63t-10 62t-30.5 49t-51 32.5t-69.5 11.5zM91 0v688h71v-115h184q56 0 100 -15.5t74 -44.5t45.5 -68.5t15.5 -87.5t-15.5 -88.5t-45.5 -70.5t-74.5 -46.5t-99.5 -16.5h-184v-135h-71z"/>
<glyph glyph-name="germandbls" horiz-adv-x="550" unicode="ß" d="M74 0v511q0 59 15.5 103.5t43 73t65.5 42t83 13.5q44 0 77 -11.5t55 -32t32.5 -46.5t10.5 -56q0 -35 -14.5 -59.5t-42.5 -51.5t-39.5 -41.5t-11.5 -36.5q0 -26 15.5 -40.5t62.5 -49t69.5 -67.5t22.5 -83q0 -40 -14.5 -71.5t-40.5 -53t-60.5 -32.5t-75.5 -11h-79v56h79 q26 0 48.5 6.5t39 20t26 33.5t9.5 46q0 41 -20.5 64.5t-61.5 52.5t-61.5 54.5t-20.5 68.5q0 33 14 55.5t41 48t40 44t13 47.5q0 18 -7 34t-21.5 29t-36.5 20t-51 7q-31 0 -56 -10t-43 -31t-27.5 -55t-9.5 -80v-511h-68z"/>
<glyph glyph-name="agrave" horiz-adv-x="517" unicode="à" d="M241 568l-137 164h81l106 -164h-50zM376 207v55q-4 -5 -10 -9t-13 -7t-15 -5t-18 -4l-103 -17q-26 -4 -44.5 -12t-30.5 -19.5t-18 -26t-6 -33.5t6.5 -34.5t19.5 -26.5t32.5 -17t44.5 -6q32 0 60 10t49.5 30t33.5 51t12 71zM50 123q0 30 9 54t28 42t48.5 30t69.5 19 l105 18q20 3 32 6.5t19.5 8t11 10.5t3.5 16q-1 28 -8.5 49.5t-22 36.5t-36 22.5t-49.5 7.5t-50.5 -7t-39 -21t-25.5 -34t-11 -45h-65q2 36 15.5 66t38.5 51.5t59.5 33.5t77.5 12q44 0 78.5 -12t58 -34.5t35.5 -56t12 -75.5v-321h-65v78h-3q-10 -21 -26.5 -37.5t-38 -28 t-47 -17.5t-54.5 -6q-38 0 -67.5 9.5t-50.5 27.5t-31.5 42.5t-10.5 54.5z"/>
<glyph glyph-name="aacute" horiz-adv-x="517" unicode="á" d="M223 568l106 164h81l-137 -164h-50zM376 207v55q-4 -5 -10 -9t-13 -7t-15 -5t-18 -4l-103 -17q-26 -4 -44.5 -12t-30.5 -19.5t-18 -26t-6 -33.5t6.5 -34.5t19.5 -26.5t32.5 -17t44.5 -6q32 0 60 10t49.5 30t33.5 51t12 71zM50 123q0 30 9 54t28 42t48.5 30t69.5 19 l105 18q20 3 32 6.5t19.5 8t11 10.5t3.5 16q-1 28 -8.5 49.5t-22 36.5t-36 22.5t-49.5 7.5t-50.5 -7t-39 -21t-25.5 -34t-11 -45h-65q2 36 15.5 66t38.5 51.5t59.5 33.5t77.5 12q44 0 78.5 -12t58 -34.5t35.5 -56t12 -75.5v-321h-65v78h-3q-10 -21 -26.5 -37.5t-38 -28 t-47 -17.5t-54.5 -6q-38 0 -67.5 9.5t-50.5 27.5t-31.5 42.5t-10.5 54.5z"/>
<glyph glyph-name="acircumflex" horiz-adv-x="517" unicode="â" d="M98 568l128 164h62l128 -164h-65l-94 123l-94 -123h-65zM376 207v55q-4 -5 -10 -9t-13 -7t-15 -5t-18 -4l-103 -17q-26 -4 -44.5 -12t-30.5 -19.5t-18 -26t-6 -33.5t6.5 -34.5t19.5 -26.5t32.5 -17t44.5 -6q32 0 60 10t49.5 30t33.5 51t12 71zM50 123q0 30 9 54t28 42 t48.5 30t69.5 19l105 18q20 3 32 6.5t19.5 8t11 10.5t3.5 16q-1 28 -8.5 49.5t-22 36.5t-36 22.5t-49.5 7.5t-50.5 -7t-39 -21t-25.5 -34t-11 -45h-65q2 36 15.5 66t38.5 51.5t59.5 33.5t77.5 12q44 0 78.5 -12t58 -34.5t35.5 -56t12 -75.5v-321h-65v78h-3 q-10 -21 -26.5 -37.5t-38 -28t-47 -17.5t-54.5 -6q-38 0 -67.5 9.5t-50.5 27.5t-31.5 42.5t-10.5 54.5z"/>
<glyph glyph-name="atilde" horiz-adv-x="517" unicode="ã" d="M102 600q1 21 7 39t17 31.5t27 21t36 7.5q19 0 37 -6.5t42.5 -20t37 -19t24.5 -5.5q11 0 19 4.5t13.5 12t8.5 16.5t5 19h38q-1 -20 -7 -38t-17 -31.5t-27 -21.5t-36 -8q-19 0 -37 6.5t-42.5 20t-37 19t-24.5 5.5q-11 0 -19 -4.5t-13.5 -12t-8.5 -16.5t-5 -19h-38z M376 207v55q-4 -5 -10 -9t-13 -7t-15 -5t-18 -4l-103 -17q-26 -4 -44.5 -12t-30.5 -19.5t-18 -26t-6 -33.5t6.5 -34.5t19.5 -26.5t32.5 -17t44.5 -6q32 0 60 10t49.5 30t33.5 51t12 71zM50 123q0 30 9 54t28 42t48.5 30t69.5 19l105 18q20 3 32 6.5t19.5 8t11 10.5t3.5 16 q-1 28 -8.5 49.5t-22 36.5t-36 22.5t-49.5 7.5t-50.5 -7t-39 -21t-25.5 -34t-11 -45h-65q2 36 15.5 66t38.5 51.5t59.5 33.5t77.5 12q44 0 78.5 -12t58 -34.5t35.5 -56t12 -75.5v-321h-65v78h-3q-10 -21 -26.5 -37.5t-38 -28t-47 -17.5t-54.5 -6q-38 0 -67.5 9.5t-50.5 27.5 t-31.5 42.5t-10.5 54.5z"/>
<glyph glyph-name="adieresis" horiz-adv-x="517" unicode="ä" d="M125 605v90h68v-90h-68zM322 605v90h68v-90h-68zM376 207v55q-4 -5 -10 -9t-13 -7t-15 -5t-18 -4l-103 -17q-26 -4 -44.5 -12t-30.5 -19.5t-18 -26t-6 -33.5t6.5 -34.5t19.5 -26.5t32.5 -17t44.5 -6q32 0 60 10t49.5 30t33.5 51t12 71zM50 123q0 30 9 54t28 42t48.5 30 t69.5 19l105 18q20 3 32 6.5t19.5 8t11 10.5t3.5 16q-1 28 -8.5 49.5t-22 36.5t-36 22.5t-49.5 7.5t-50.5 -7t-39 -21t-25.5 -34t-11 -45h-65q2 36 15.5 66t38.5 51.5t59.5 33.5t77.5 12q44 0 78.5 -12t58 -34.5t35.5 -56t12 -75.5v-321h-65v78h-3q-10 -21 -26.5 -37.5 t-38 -28t-47 -17.5t-54.5 -6q-38 0 -67.5 9.5t-50.5 27.5t-31.5 42.5t-10.5 54.5z"/>
<glyph glyph-name="aring" horiz-adv-x="517" unicode="å" d="M257 602q12 0 22.5 4t18.5 12t12.5 19t4.5 23t-4.5 23t-12.5 19t-18.5 12t-22.5 4t-22.5 -4t-18.5 -12t-12.5 -19t-4.5 -23t4.5 -23t12.5 -19t18.5 -12t22.5 -4zM257 567q-19 0 -36 6.5t-31 19t-21.5 30t-7.5 37.5t7.5 37.5t21.5 30t31 19t36 6.5t36 -6.5t31 -19 t21.5 -30t7.5 -37.5t-7.5 -37.5t-21.5 -30t-31 -19t-36 -6.5zM376 207v55q-4 -5 -10 -9t-13 -7t-15 -5t-18 -4l-103 -17q-26 -4 -44.5 -12t-30.5 -19.5t-18 -26t-6 -33.5t6.5 -34.5t19.5 -26.5t32.5 -17t44.5 -6q32 0 60 10t49.5 30t33.5 51t12 71zM50 123q0 30 9 54t28 42 t48.5 30t69.5 19l105 18q20 3 32 6.5t19.5 8t11 10.5t3.5 16q-1 28 -8.5 49.5t-22 36.5t-36 22.5t-49.5 7.5t-50.5 -7t-39 -21t-25.5 -34t-11 -45h-65q2 36 15.5 66t38.5 51.5t59.5 33.5t77.5 12q44 0 78.5 -12t58 -34.5t35.5 -56t12 -75.5v-321h-65v78h-3 q-10 -21 -26.5 -37.5t-38 -28t-47 -17.5t-54.5 -6q-38 0 -67.5 9.5t-50.5 27.5t-31.5 42.5t-10.5 54.5z"/>
<glyph glyph-name="ae" horiz-adv-x="844" unicode="æ" d="M597 440q-29 0 -53.5 -10.5t-44 -30.5t-32 -47.5t-17.5 -61.5h281q-2 36 -12.5 64t-28 47t-41.5 29t-52 10zM376 210v52q-4 -5 -10 -9t-13 -7t-15 -5t-18 -4l-103 -17q-25 -4 -44 -12t-31 -19.5t-18 -26t-6 -33.5q0 -20 7 -35.5t20 -26.5t32.5 -16.5t43.5 -5.5 q32 0 59.5 9.5t49.5 29.5t34 52t12 74zM69 336q3 41 19 72t42 51t59 30t71 10q30 0 55.5 -5.5t46.5 -16.5t37 -27.5t26 -38.5q14 21 32 37t39.5 27.5t47 17.5t53.5 6q44 0 82 -15.5t65.5 -46t43 -73.5t15.5 -97v-28h-356q0 -43 11 -78.5t31.5 -60.5t49 -38.5t62.5 -13.5 q28 0 51 7.5t39 21t26 32t14 39.5h67q-4 -33 -20.5 -62t-43 -51t-60.5 -34t-73 -12q-35 0 -65 8t-54.5 23t-43.5 36.5t-32 49.5q-15 -31 -36 -53.5t-46.5 -36.5t-54.5 -20.5t-60 -6.5q-37 0 -67 9.5t-50.5 27.5t-31 42.5t-10.5 54.5t9 53.5t28 41.5t48.5 30.5t69.5 19.5 l105 18q20 3 32 6.5t19.5 8t11 10.5t3.5 16q0 26 -7.5 47.5t-22 37t-36.5 23.5t-50 8q-25 0 -47.5 -6.5t-39.5 -20t-27 -34t-12 -46.5h-65z"/>
<glyph glyph-name="ccedilla" horiz-adv-x="511" unicode="ç" d="M228 -78l24 68q-48 3 -86.5 22t-66 52.5t-42 79t-14.5 100.5q0 57 17 104t48 81t72 52t89 18q43 0 78.5 -12.5t61.5 -35.5t42.5 -54.5t22.5 -69.5h-68q-5 25 -16 45.5t-28.5 36t-40.5 23.5t-52 8q-32 0 -60.5 -14t-49.5 -40t-33 -62.5t-12 -79.5t11.5 -79.5t32.5 -62.5 t49.5 -40t61.5 -14q29 0 52 8t40.5 23.5t28.5 36t16 45.5h68q-6 -37 -21.5 -67.5t-40 -53.5t-58 -36t-74.5 -15l-4 -29q22 -1 39.5 -8t29 -18.5t17.5 -26.5t6 -32q0 -19 -6.5 -35.5t-20 -29t-34.5 -19.5t-48 -7h-53v44h50q15 0 26 3t18.5 9t11 14.5t3.5 20.5q0 11 -4 20 t-11.5 15t-18.5 9t-26 3h-27z"/>
<glyph glyph-name="egrave" horiz-adv-x="519" unicode="è" d="M244 568l-137 164h81l106 -164h-50zM268 440q-28 0 -53 -10.5t-45 -30t-33.5 -47.5t-19.5 -62h292q-3 38 -14 66t-29 47t-43 28t-55 9zM43 244q0 56 17 103t47.5 81t72 52.5t88.5 18.5q46 0 84.5 -15.5t66.5 -46t43.5 -73.5t15.5 -97v-28h-364q1 -43 12 -78t31.5 -60.5 t49.5 -39t65 -13.5q28 0 51.5 7.5t40.5 21t27.5 32t14.5 39.5h68q-5 -33 -21.5 -62t-43.5 -51t-62 -34t-75 -12q-54 0 -97 18t-72.5 51.5t-44.5 80.5t-15 105z"/>
<glyph glyph-name="eacute" horiz-adv-x="519" unicode="é" d="M242 568l106 164h81l-137 -164h-50zM268 440q-28 0 -53 -10.5t-45 -30t-33.5 -47.5t-19.5 -62h292q-3 38 -14 66t-29 47t-43 28t-55 9zM43 244q0 56 17 103t47.5 81t72 52.5t88.5 18.5q46 0 84.5 -15.5t66.5 -46t43.5 -73.5t15.5 -97v-28h-364q1 -43 12 -78t31.5 -60.5 t49.5 -39t65 -13.5q28 0 51.5 7.5t40.5 21t27.5 32t14.5 39.5h68q-5 -33 -21.5 -62t-43.5 -51t-62 -34t-75 -12q-54 0 -97 18t-72.5 51.5t-44.5 80.5t-15 105z"/>
<glyph glyph-name="ecircumflex" horiz-adv-x="519" unicode="ê" d="M109 568l128 164h62l128 -164h-65l-94 123l-94 -123h-65zM268 440q-28 0 -53 -10.5t-45 -30t-33.5 -47.5t-19.5 -62h292q-3 38 -14 66t-29 47t-43 28t-55 9zM43 244q0 56 17 103t47.5 81t72 52.5t88.5 18.5q46 0 84.5 -15.5t66.5 -46t43.5 -73.5t15.5 -97v-28h-364 q1 -43 12 -78t31.5 -60.5t49.5 -39t65 -13.5q28 0 51.5 7.5t40.5 21t27.5 32t14.5 39.5h68q-5 -33 -21.5 -62t-43.5 -51t-62 -34t-75 -12q-54 0 -97 18t-72.5 51.5t-44.5 80.5t-15 105z"/>
<glyph glyph-name="edieresis" horiz-adv-x="519" unicode="ë" d="M136 605v90h68v-90h-68zM333 605v90h68v-90h-68zM268 440q-28 0 -53 -10.5t-45 -30t-33.5 -47.5t-19.5 -62h292q-3 38 -14 66t-29 47t-43 28t-55 9zM43 244q0 56 17 103t47.5 81t72 52.5t88.5 18.5q46 0 84.5 -15.5t66.5 -46t43.5 -73.5t15.5 -97v-28h-364q1 -43 12 -78 t31.5 -60.5t49.5 -39t65 -13.5q28 0 51.5 7.5t40.5 21t27.5 32t14.5 39.5h68q-5 -33 -21.5 -62t-43.5 -51t-62 -34t-75 -12q-54 0 -97 18t-72.5 51.5t-44.5 80.5t-15 105z"/>
<glyph glyph-name="igrave" horiz-adv-x="228" unicode="ì" d="M90 568l-137 164h81l106 -164h-50zM80 0v488h68v-488h-68z"/>
<glyph glyph-name="iacute" horiz-adv-x="228" unicode="í" d="M88 568l106 164h81l-137 -164h-50zM80 0v488h68v-488h-68z"/>
<glyph glyph-name="icircumflex" horiz-adv-x="228" unicode="î" d="M-45 568l128 164h62l128 -164h-65l-94 123l-94 -123h-65zM80 0v488h68v-488h-68z"/>
<glyph glyph-name="idieresis" horiz-adv-x="228" unicode="ï" d="M-18 605v90h68v-90h-68zM179 605v90h68v-90h-68zM80 0v488h68v-488h-68z"/>
<glyph glyph-name="eth" horiz-adv-x="560" unicode="ð" d="M113 228q0 -39 12 -72t34 -57.5t52 -37.5t66 -13q35 0 65 13t52.5 37t34.5 57.5t12 72.5q0 40 -12 73.5t-34 57.5t-52.5 36.5t-65.5 12.5t-65 -13t-52.5 -37.5t-34.5 -57.5t-12 -72zM194 533l-25 38l99 67q-14 8 -29.5 15.5t-32.5 14.5t-36 13.5t-39 12.5l15 50 q25 -7 48.5 -15t45 -17t41 -19t37.5 -21l101 68l25 -37l-86 -59q37 -29 65 -65t48 -82t30.5 -105t10.5 -132v-2q0 -62 -17.5 -112.5t-49.5 -85.5t-75 -53t-93 -18q-52 0 -95.5 17.5t-75 49.5t-48 76t-16.5 96q0 51 18 95t49.5 76.5t73.5 50t88 17.5q24 0 47 -4.5t44 -14 t38.5 -23.5t30.5 -33h3q-8 37 -19.5 68t-27 58t-35 50t-44.5 42z"/>
<glyph glyph-name="ntilde" horiz-adv-x="558" unicode="ñ" d="M125 600q1 21 7 39t17 31.5t27 21t36 7.5q19 0 37 -6.5t42.5 -20t37 -19t24.5 -5.5q11 0 19 4.5t13.5 12t8.5 16.5t5 19h38q-1 -20 -7 -38t-17 -31.5t-27 -21.5t-36 -8q-19 0 -37 6.5t-42.5 20t-37 19t-24.5 5.5q-11 0 -19 -4.5t-13.5 -12t-8.5 -16.5t-5 -19h-38zM80 0 v488h65v-80h3q11 23 27 40t37 28.5t45 17t51 5.5q37 0 69 -11t56.5 -35t38 -62.5t13.5 -91.5v-299h-68v290q0 40 -8.5 69t-25 47t-39 26t-50.5 8q-30 0 -56.5 -12t-46.5 -36t-31.5 -59t-11.5 -79v-254h-68z"/>
<glyph glyph-name="ograve" horiz-adv-x="550" unicode="ò" d="M251 568l-137 164h81l106 -164h-50zM114 244q0 -43 11.5 -79.5t33 -62.5t51.5 -40t65 -14t64.5 14t51 40t33.5 62.5t12 79.5q0 44 -11.5 80.5t-33 62.5t-51.5 39.5t-65 13.5t-64.5 -14t-51 -40t-33.5 -62.5t-12 -79.5zM43 244q0 57 17 104t48.5 81t74.5 52t92 18 q52 0 95 -18t73.5 -51.5t47 -81t16.5 -104.5t-17 -104t-48.5 -81t-74.5 -52t-92 -18q-52 0 -95 18t-73.5 51.5t-47 81t-16.5 104.5z"/>
<glyph glyph-name="oacute" horiz-adv-x="550" unicode="ó" d="M249 568l106 164h81l-137 -164h-50zM114 244q0 -43 11.5 -79.5t33 -62.5t51.5 -40t65 -14t64.5 14t51 40t33.5 62.5t12 79.5q0 44 -11.5 80.5t-33 62.5t-51.5 39.5t-65 13.5t-64.5 -14t-51 -40t-33.5 -62.5t-12 -79.5zM43 244q0 57 17 104t48.5 81t74.5 52t92 18 q52 0 95 -18t73.5 -51.5t47 -81t16.5 -104.5t-17 -104t-48.5 -81t-74.5 -52t-92 -18q-52 0 -95 18t-73.5 51.5t-47 81t-16.5 104.5z"/>
<glyph glyph-name="ocircumflex" horiz-adv-x="550" unicode="ô" d="M116 568l128 164h62l128 -164h-65l-94 123l-94 -123h-65zM114 244q0 -43 11.5 -79.5t33 -62.5t51.5 -40t65 -14t64.5 14t51 40t33.5 62.5t12 79.5q0 44 -11.5 80.5t-33 62.5t-51.5 39.5t-65 13.5t-64.5 -14t-51 -40t-33.5 -62.5t-12 -79.5zM43 244q0 57 17 104t48.5 81 t74.5 52t92 18q52 0 95 -18t73.5 -51.5t47 -81t16.5 -104.5t-17 -104t-48.5 -81t-74.5 -52t-92 -18q-52 0 -95 18t-73.5 51.5t-47 81t-16.5 104.5z"/>
<glyph glyph-name="otilde" horiz-adv-x="550" unicode="õ" d="M120 600q1 21 7 39t17 31.5t27 21t36 7.5q19 0 37 -6.5t42.5 -20t37 -19t24.5 -5.5q11 0 19 4.5t13.5 12t8.5 16.5t5 19h38q-1 -20 -7 -38t-17 -31.5t-27 -21.5t-36 -8q-19 0 -37 6.5t-42.5 20t-37 19t-24.5 5.5q-11 0 -19 -4.5t-13.5 -12t-8.5 -16.5t-5 -19h-38z M114 244q0 -43 11.5 -79.5t33 -62.5t51.5 -40t65 -14t64.5 14t51 40t33.5 62.5t12 79.5q0 44 -11.5 80.5t-33 62.5t-51.5 39.5t-65 13.5t-64.5 -14t-51 -40t-33.5 -62.5t-12 -79.5zM43 244q0 57 17 104t48.5 81t74.5 52t92 18q52 0 95 -18t73.5 -51.5t47 -81t16.5 -104.5 t-17 -104t-48.5 -81t-74.5 -52t-92 -18q-52 0 -95 18t-73.5 51.5t-47 81t-16.5 104.5z"/>
<glyph glyph-name="odieresis" horiz-adv-x="550" unicode="ö" d="M143 605v90h68v-90h-68zM340 605v90h68v-90h-68zM114 244q0 -43 11.5 -79.5t33 -62.5t51.5 -40t65 -14t64.5 14t51 40t33.5 62.5t12 79.5q0 44 -11.5 80.5t-33 62.5t-51.5 39.5t-65 13.5t-64.5 -14t-51 -40t-33.5 -62.5t-12 -79.5zM43 244q0 57 17 104t48.5 81t74.5 52 t92 18q52 0 95 -18t73.5 -51.5t47 -81t16.5 -104.5t-17 -104t-48.5 -81t-74.5 -52t-92 -18q-52 0 -95 18t-73.5 51.5t-47 81t-16.5 104.5z"/>
<glyph glyph-name="divide" d="M247 29v98h74v-98h-74zM57 224v59h454v-59h-454zM247 380v98h74v-98h-74z" unicode="÷"/>
<glyph glyph-name="oslash" horiz-adv-x="550" unicode="ø" d="M436 244q0 19 -2 37t-6.5 34t-11 30t-14.5 26l-229 -285q10 -9 21.5 -16.5t24.5 -12t27 -7t29 -2.5q35 0 64.5 14t51 40t33.5 62.5t12 79.5zM114 244q0 -19 2 -36.5t6.5 -33.5t11 -30.5t14.5 -26.5l229 285q-10 9 -21.5 16t-24.5 12t-27 7.5t-29 2.5q-35 0 -64.5 -14 t-51 -40t-33.5 -62.5t-12 -79.5zM44 -12l59 74q-14 17 -25.5 36.5t-19 42.5t-11.5 49t-4 54q0 57 17 104t48.5 81t74.5 52t92 18q21 0 40.5 -3t37.5 -9t34.5 -14.5t30.5 -19.5l38 47h50l-60 -74q15 -17 26 -36.5t19 -43t12 -49t4 -53.5q0 -57 -17 -104t-48.5 -81t-74.5 -52 t-92 -18q-21 0 -41 3t-37.5 9t-34 14.5t-30.5 19.5l-38 -47h-50z"/>
<glyph glyph-name="ugrave" horiz-adv-x="553" unicode="ù" d="M254 568l-137 164h81l106 -164h-50zM72 189v299h68v-290q0 -40 8.5 -69t24.5 -47t38.5 -26t50.5 -8q30 0 56 12t45.5 36t30.5 59t11 80v253h68v-488h-65v80h-3q-11 -23 -27 -40t-36.5 -28.5t-44 -17t-49.5 -5.5q-37 0 -69 11t-56 35t-37.5 62.5t-13.5 91.5z"/>
<glyph glyph-name="uacute" horiz-adv-x="553" unicode="ú" d="M252 568l106 164h81l-137 -164h-50zM72 189v299h68v-290q0 -40 8.5 -69t24.5 -47t38.5 -26t50.5 -8q30 0 56 12t45.5 36t30.5 59t11 80v253h68v-488h-65v80h-3q-11 -23 -27 -40t-36.5 -28.5t-44 -17t-49.5 -5.5q-37 0 -69 11t-56 35t-37.5 62.5t-13.5 91.5z"/>
<glyph glyph-name="ucircumflex" horiz-adv-x="553" unicode="û" d="M119 568l128 164h62l128 -164h-65l-94 123l-94 -123h-65zM72 189v299h68v-290q0 -40 8.5 -69t24.5 -47t38.5 -26t50.5 -8q30 0 56 12t45.5 36t30.5 59t11 80v253h68v-488h-65v80h-3q-11 -23 -27 -40t-36.5 -28.5t-44 -17t-49.5 -5.5q-37 0 -69 11t-56 35t-37.5 62.5 t-13.5 91.5z"/>
<glyph glyph-name="udieresis" horiz-adv-x="553" unicode="ü" d="M146 605v90h68v-90h-68zM343 605v90h68v-90h-68zM72 189v299h68v-290q0 -40 8.5 -69t24.5 -47t38.5 -26t50.5 -8q30 0 56 12t45.5 36t30.5 59t11 80v253h68v-488h-65v80h-3q-11 -23 -27 -40t-36.5 -28.5t-44 -17t-49.5 -5.5q-37 0 -69 11t-56 35t-37.5 62.5t-13.5 91.5z "/>
<glyph glyph-name="yacute" horiz-adv-x="460" unicode="ý" d="M203 568l106 164h81l-137 -164h-50zM33 -169h27q23 0 41.5 7t33.5 20.5t26.5 32.5t20.5 45l18 49l-192 503h74l150 -414h3l149 414h68l-214 -571q-11 -30 -25 -55t-34 -45t-46.5 -32t-60.5 -12h-39v58z"/>
<glyph glyph-name="thorn" horiz-adv-x="576" unicode="þ" d="M462 248q0 45 -12 81t-33.5 60.5t-50 37.5t-61.5 13q-32 0 -60.5 -12.5t-49.5 -37t-33.5 -59.5t-13.5 -78v-9q0 -45 12 -82t33.5 -62.5t50 -38.5t61.5 -13t61.5 14t50 40t33.5 63.5t12 82.5zM533 248q0 -58 -17 -106t-47 -82t-70 -52.5t-85 -18.5q-27 0 -52 6t-46.5 18 t-39 30.5t-28.5 43.5h-3q1 -16 1.5 -42t1 -54.5t0.5 -52v-33.5v-125h-68v952h68v-149v-34t-0.5 -51t-1 -54t-1.5 -43h3q12 25 30 43.5t40.5 30.5t48.5 18t53 6q45 0 84 -17t68 -50t45 -79.5t16 -104.5z"/>
<glyph glyph-name="Amacron" horiz-adv-x="631" unicode="Ā" d="M175 776v53h276v-53h-276zM316 614h-4l-131 -355h265zM15 0l259 688h83l259 -688h-74l-73 198h-310l-73 -198h-71z"/>
<glyph glyph-name="amacron" horiz-adv-x="517" unicode="ā" d="M118 623v53h276v-53h-276zM376 207v55q-4 -5 -10 -9t-13 -7t-15 -5t-18 -4l-103 -17q-26 -4 -44.5 -12t-30.5 -19.5t-18 -26t-6 -33.5t6.5 -34.5t19.5 -26.5t32.5 -17t44.5 -6q32 0 60 10t49.5 30t33.5 51t12 71zM50 123q0 30 9 54t28 42t48.5 30t69.5 19l105 18 q20 3 32 6.5t19.5 8t11 10.5t3.5 16q-1 28 -8.5 49.5t-22 36.5t-36 22.5t-49.5 7.5t-50.5 -7t-39 -21t-25.5 -34t-11 -45h-65q2 36 15.5 66t38.5 51.5t59.5 33.5t77.5 12q44 0 78.5 -12t58 -34.5t35.5 -56t12 -75.5v-321h-65v78h-3q-10 -21 -26.5 -37.5t-38 -28t-47 -17.5 t-54.5 -6q-38 0 -67.5 9.5t-50.5 27.5t-31.5 42.5t-10.5 54.5z"/>
<glyph glyph-name="Abreve" horiz-adv-x="631" unicode="Ă" d="M314 768q-25 0 -47.5 7t-42 23t-32.5 42t-17 62h44q3 -22 11 -38.5t20 -28t28 -17.5t36 -6t36 6t28 17.5t20 28t11 38.5h44q-4 -36 -17 -62t-32.5 -42t-42 -23t-47.5 -7zM316 614h-4l-131 -355h265zM15 0l259 688h83l259 -688h-74l-73 198h-310l-73 -198h-71z"/>
<glyph glyph-name="abreve" horiz-adv-x="517" unicode="ă" d="M257 584q-25 0 -47.5 7t-42 23t-32.5 42t-17 62h44q3 -22 11 -38.5t20 -28t28 -17.5t36 -6t36 6t28 17.5t20 28t11 38.5h44q-4 -36 -17 -62t-32.5 -42t-42 -23t-47.5 -7zM376 207v55q-4 -5 -10 -9t-13 -7t-15 -5t-18 -4l-103 -17q-26 -4 -44.5 -12t-30.5 -19.5t-18 -26 t-6 -33.5t6.5 -34.5t19.5 -26.5t32.5 -17t44.5 -6q32 0 60 10t49.5 30t33.5 51t12 71zM50 123q0 30 9 54t28 42t48.5 30t69.5 19l105 18q20 3 32 6.5t19.5 8t11 10.5t3.5 16q-1 28 -8.5 49.5t-22 36.5t-36 22.5t-49.5 7.5t-50.5 -7t-39 -21t-25.5 -34t-11 -45h-65 q2 36 15.5 66t38.5 51.5t59.5 33.5t77.5 12q44 0 78.5 -12t58 -34.5t35.5 -56t12 -75.5v-321h-65v78h-3q-10 -21 -26.5 -37.5t-38 -28t-47 -17.5t-54.5 -6q-38 0 -67.5 9.5t-50.5 27.5t-31.5 42.5t-10.5 54.5z"/>
<glyph glyph-name="Aogonek" horiz-adv-x="631" unicode="Ą" d="M316 614h-4l-131 -355h265zM501 -128q0 16 4.5 31.5t13.5 31.5t23.5 32t33.5 33h-34l-73 198h-310l-73 -198h-71l259 688h83l259 -688h-1q-15 -17 -27 -33t-19.5 -30.5t-11 -28t-3.5 -24.5q0 -12 3.5 -22t10.5 -17t19 -10.5t28 -3.5h30v-47h-39q-25 0 -45 6.5t-33.5 18.5 t-20 28t-6.5 35z"/>
<glyph glyph-name="aogonek" horiz-adv-x="517" unicode="ą" d="M376 207v55q-4 -5 -10 -9t-13 -7t-15 -5t-18 -4l-103 -17q-26 -4 -44.5 -12t-30.5 -19.5t-18 -26t-6 -33.5t6.5 -34.5t19.5 -26.5t32.5 -17t44.5 -6q32 0 60 10t49.5 30t33.5 51t12 71zM330 -128q0 16 4.5 31.5t13.5 31.5t23.5 32t33.5 33h-26v78h-3q-10 -21 -26.5 -37.5 t-38 -28t-47 -17.5t-54.5 -6q-38 0 -67.5 9.5t-50.5 27.5t-31.5 42.5t-10.5 54.5t9 54t28 42t48.5 30t69.5 19l105 18q20 3 32 6.5t19.5 8t11 10.5t3.5 16q-1 28 -8.5 49.5t-22 36.5t-36 22.5t-49.5 7.5t-50.5 -7t-39 -21t-25.5 -34t-11 -45h-65q2 36 15.5 66t38.5 51.5 t59.5 33.5t77.5 12q44 0 78.5 -12t58 -34.5t35.5 -56t12 -75.5v-321q-15 -17 -27 -33t-19.5 -30.5t-11 -28t-3.5 -24.5q0 -12 3.5 -22t10.5 -17t19 -10.5t28 -3.5h30v-47h-39q-25 0 -45 6.5t-33.5 18.5t-20 28t-6.5 35z"/>
<glyph glyph-name="Cacute" horiz-adv-x="708" unicode="Ć" d="M348 768l106 164h81l-137 -164h-50zM47 344q0 75 23.5 140t67 113.5t104 75t132.5 26.5q58 0 106.5 -16t85.5 -45.5t61.5 -70.5t35.5 -91h-73q-11 38 -29.5 67t-45.5 49.5t-62.5 31t-78.5 10.5q-56 0 -103 -21.5t-80.5 -61t-51.5 -92.5t-18 -115q0 -61 18 -114t51 -92.5 t79.5 -61.5t101.5 -22q45 0 81 10.5t63 31t45.5 49.5t29.5 67h73q-12 -50 -37 -91t-62 -70.5t-86 -45.5t-107 -16q-71 0 -131 26.5t-103 74.5t-66.5 113t-23.5 141z"/>
<glyph glyph-name="cacute" horiz-adv-x="511" unicode="ć" d="M243 568l106 164h81l-137 -164h-50zM43 244q0 57 17 104t48 81t72 52t89 18q43 0 78.5 -12.5t61.5 -35.5t42.5 -54.5t22.5 -69.5h-68q-5 25 -16 45.5t-28.5 36t-40.5 23.5t-52 8q-32 0 -60.5 -14t-49.5 -40t-33 -62.5t-12 -79.5t11.5 -79.5t32.5 -62.5t49.5 -40t61.5 -14 q29 0 52 8t40.5 23.5t28.5 36t16 45.5h68q-6 -38 -22.5 -69.5t-42.5 -54.5t-61.5 -35.5t-78.5 -12.5q-51 0 -93 18t-71.5 51.5t-45.5 81t-16 104.5z"/>
<glyph glyph-name="Ccircumflex" horiz-adv-x="708" unicode="Ĉ" d="M215 768l128 164h62l128 -164h-65l-94 123l-94 -123h-65zM47 344q0 75 23.5 140t67 113.5t104 75t132.5 26.5q58 0 106.5 -16t85.5 -45.5t61.5 -70.5t35.5 -91h-73q-11 38 -29.5 67t-45.5 49.5t-62.5 31t-78.5 10.5q-56 0 -103 -21.5t-80.5 -61t-51.5 -92.5t-18 -115 q0 -61 18 -114t51 -92.5t79.5 -61.5t101.5 -22q45 0 81 10.5t63 31t45.5 49.5t29.5 67h73q-12 -50 -37 -91t-62 -70.5t-86 -45.5t-107 -16q-71 0 -131 26.5t-103 74.5t-66.5 113t-23.5 141z"/>
<glyph glyph-name="ccircumflex" horiz-adv-x="511" unicode="ĉ" d="M110 568l128 164h62l128 -164h-65l-94 123l-94 -123h-65zM43 244q0 57 17 104t48 81t72 52t89 18q43 0 78.5 -12.5t61.5 -35.5t42.5 -54.5t22.5 -69.5h-68q-5 25 -16 45.5t-28.5 36t-40.5 23.5t-52 8q-32 0 -60.5 -14t-49.5 -40t-33 -62.5t-12 -79.5t11.5 -79.5 t32.5 -62.5t49.5 -40t61.5 -14q29 0 52 8t40.5 23.5t28.5 36t16 45.5h68q-6 -38 -22.5 -69.5t-42.5 -54.5t-61.5 -35.5t-78.5 -12.5q-51 0 -93 18t-71.5 51.5t-45.5 81t-16 104.5z"/>
<glyph glyph-name="Cdotaccent" horiz-adv-x="708" unicode="Ċ" d="M340 768v90h68v-90h-68zM47 344q0 75 23.5 140t67 113.5t104 75t132.5 26.5q58 0 106.5 -16t85.5 -45.5t61.5 -70.5t35.5 -91h-73q-11 38 -29.5 67t-45.5 49.5t-62.5 31t-78.5 10.5q-56 0 -103 -21.5t-80.5 -61t-51.5 -92.5t-18 -115q0 -61 18 -114t51 -92.5t79.5 -61.5 t101.5 -22q45 0 81 10.5t63 31t45.5 49.5t29.5 67h73q-12 -50 -37 -91t-62 -70.5t-86 -45.5t-107 -16q-71 0 -131 26.5t-103 74.5t-66.5 113t-23.5 141z"/>
<glyph glyph-name="cdotaccent" horiz-adv-x="511" unicode="ċ" d="M235 605v90h68v-90h-68zM43 244q0 57 17 104t48 81t72 52t89 18q43 0 78.5 -12.5t61.5 -35.5t42.5 -54.5t22.5 -69.5h-68q-5 25 -16 45.5t-28.5 36t-40.5 23.5t-52 8q-32 0 -60.5 -14t-49.5 -40t-33 -62.5t-12 -79.5t11.5 -79.5t32.5 -62.5t49.5 -40t61.5 -14q29 0 52 8 t40.5 23.5t28.5 36t16 45.5h68q-6 -38 -22.5 -69.5t-42.5 -54.5t-61.5 -35.5t-78.5 -12.5q-51 0 -93 18t-71.5 51.5t-45.5 81t-16 104.5z"/>
<glyph glyph-name="Ccaron" horiz-adv-x="708" unicode="Č" d="M343 768l-128 164h65l94 -123l94 123h65l-128 -164h-62zM47 344q0 75 23.5 140t67 113.5t104 75t132.5 26.5q58 0 106.5 -16t85.5 -45.5t61.5 -70.5t35.5 -91h-73q-11 38 -29.5 67t-45.5 49.5t-62.5 31t-78.5 10.5q-56 0 -103 -21.5t-80.5 -61t-51.5 -92.5t-18 -115 q0 -61 18 -114t51 -92.5t79.5 -61.5t101.5 -22q45 0 81 10.5t63 31t45.5 49.5t29.5 67h73q-12 -50 -37 -91t-62 -70.5t-86 -45.5t-107 -16q-71 0 -131 26.5t-103 74.5t-66.5 113t-23.5 141z"/>
<glyph glyph-name="ccaron" horiz-adv-x="511" unicode="č" d="M238 568l-128 164h65l94 -123l94 123h65l-128 -164h-62zM43 244q0 57 17 104t48 81t72 52t89 18q43 0 78.5 -12.5t61.5 -35.5t42.5 -54.5t22.5 -69.5h-68q-5 25 -16 45.5t-28.5 36t-40.5 23.5t-52 8q-32 0 -60.5 -14t-49.5 -40t-33 -62.5t-12 -79.5t11.5 -79.5 t32.5 -62.5t49.5 -40t61.5 -14q29 0 52 8t40.5 23.5t28.5 36t16 45.5h68q-6 -38 -22.5 -69.5t-42.5 -54.5t-61.5 -35.5t-78.5 -12.5q-51 0 -93 18t-71.5 51.5t-45.5 81t-16 104.5z"/>
<glyph glyph-name="Dcaron" horiz-adv-x="696" unicode="Ď" d="M287 768l-128 164h65l94 -123l94 123h65l-128 -164h-62zM288 626h-126v-564h126q74 0 129 21.5t90 60.5t51.5 90t16.5 110t-16.5 110t-51.5 90t-90 60.5t-129 21.5zM91 0v688h197q88 0 156 -25t113.5 -71t68.5 -109t23 -139t-23 -139t-68.5 -109t-113.5 -71t-156 -25 h-197z"/>
<glyph glyph-name="dcaron" horiz-adv-x="576" unicode="ď" d="M582 528l28 115h-30v89h74v-84l-38 -120h-34zM114 240q0 -45 12 -81t33.5 -61t50 -37.5t61.5 -12.5q32 0 60 12.5t49.5 36.5t34 59t13.5 79v18q-1 43 -13.5 78t-34 59.5t-49.5 37t-60 12.5q-33 0 -61.5 -14t-50 -40t-33.5 -63.5t-12 -82.5zM43 240q0 58 17 106t47 82 t70 52.5t85 18.5q28 0 53 -6t46.5 -18.5t38.5 -31t28 -42.5h3q-1 17 -1.5 43t-1 53t-0.5 47.5v38.5v149h68v-732h-65v87h-3q-12 -25 -29.5 -43.5t-39.5 -30.5t-48 -18t-55 -6q-45 0 -84 17t-68 50t-45 79.5t-16 104.5z"/>
<glyph glyph-name="Dcroat" horiz-adv-x="696" unicode="Đ" d="M288 626h-126v-251h162v-58h-162v-255h126q75 0 129.5 21.5t89.5 60.5t51.5 89.5t16.5 110.5t-16.5 110.5t-51.5 89.5t-89.5 60.5t-129.5 21.5zM4 317v58h87v313h197q88 0 156 -25t113.5 -71t68.5 -109t23 -139t-23 -139t-68.5 -109t-113.5 -71t-156 -25h-197v317h-87z "/>
<glyph glyph-name="dcroat" horiz-adv-x="576" unicode="đ" d="M114 240q0 -45 12 -81t33.5 -61t50 -37.5t61.5 -12.5q32 0 60 12.5t49.5 36.5t34 59t13.5 79v18q-1 43 -13.5 78t-34 59.5t-49.5 37t-60 12.5q-33 0 -61.5 -14t-50 -40t-33.5 -63.5t-12 -82.5zM273 599v47h155v86h68v-86h80v-47h-80v-599h-65v88h-3q-11 -25 -28.5 -44 t-40 -31t-48.5 -18t-55 -6q-45 0 -84 17t-68 50t-45 79.5t-16 104.5t17 106t47 82t70 52.5t85 18.5q28 0 53 -6t46.5 -18.5t38.5 -31t28 -42.5h3q-1 17 -1.5 43t-1 53t-0.5 47.5v38.5v16h-155z"/>
<glyph glyph-name="Emacron" horiz-adv-x="606" unicode="Ē" d="M181 776v53h276v-53h-276zM91 0v688h456v-62h-385v-244h309v-62h-309v-258h393v-62h-464z"/>
<glyph glyph-name="emacron" horiz-adv-x="519" unicode="ē" d="M129 623v53h276v-53h-276zM268 440q-28 0 -53 -10.5t-45 -30t-33.5 -47.5t-19.5 -62h292q-3 38 -14 66t-29 47t-43 28t-55 9zM43 244q0 56 17 103t47.5 81t72 52.5t88.5 18.5q46 0 84.5 -15.5t66.5 -46t43.5 -73.5t15.5 -97v-28h-364q1 -43 12 -78t31.5 -60.5t49.5 -39 t65 -13.5q28 0 51.5 7.5t40.5 21t27.5 32t14.5 39.5h68q-5 -33 -21.5 -62t-43.5 -51t-62 -34t-75 -12q-54 0 -97 18t-72.5 51.5t-44.5 80.5t-15 105z"/>
<glyph glyph-name="Ebreve" horiz-adv-x="606" unicode="Ĕ" d="M320 768q-25 0 -47.5 7t-42 23t-32.5 42t-17 62h44q3 -22 11 -38.5t20 -28t28 -17.5t36 -6t36 6t28 17.5t20 28t11 38.5h44q-4 -36 -17 -62t-32.5 -42t-42 -23t-47.5 -7zM91 0v688h456v-62h-385v-244h309v-62h-309v-258h393v-62h-464z"/>
<glyph glyph-name="ebreve" horiz-adv-x="519" unicode="ĕ" d="M268 584q-25 0 -47.5 7t-42 23t-32.5 42t-17 62h44q3 -22 11 -38.5t20 -28t28 -17.5t36 -6t36 6t28 17.5t20 28t11 38.5h44q-4 -36 -17 -62t-32.5 -42t-42 -23t-47.5 -7zM268 440q-28 0 -53 -10.5t-45 -30t-33.5 -47.5t-19.5 -62h292q-3 38 -14 66t-29 47t-43 28t-55 9z M43 244q0 56 17 103t47.5 81t72 52.5t88.5 18.5q46 0 84.5 -15.5t66.5 -46t43.5 -73.5t15.5 -97v-28h-364q1 -43 12 -78t31.5 -60.5t49.5 -39t65 -13.5q28 0 51.5 7.5t40.5 21t27.5 32t14.5 39.5h68q-5 -33 -21.5 -62t-43.5 -51t-62 -34t-75 -12q-54 0 -97 18t-72.5 51.5 t-44.5 80.5t-15 105z"/>
<glyph glyph-name="Edotaccent" horiz-adv-x="606" unicode="Ė" d="M286 768v90h68v-90h-68zM91 0v688h456v-62h-385v-244h309v-62h-309v-258h393v-62h-464z"/>
<glyph glyph-name="edotaccent" horiz-adv-x="519" unicode="ė" d="M234 605v90h68v-90h-68zM268 440q-28 0 -53 -10.5t-45 -30t-33.5 -47.5t-19.5 -62h292q-3 38 -14 66t-29 47t-43 28t-55 9zM43 244q0 56 17 103t47.5 81t72 52.5t88.5 18.5q46 0 84.5 -15.5t66.5 -46t43.5 -73.5t15.5 -97v-28h-364q1 -43 12 -78t31.5 -60.5t49.5 -39 t65 -13.5q28 0 51.5 7.5t40.5 21t27.5 32t14.5 39.5h68q-5 -33 -21.5 -62t-43.5 -51t-62 -34t-75 -12q-54 0 -97 18t-72.5 51.5t-44.5 80.5t-15 105z"/>
<glyph glyph-name="Eogonek" horiz-adv-x="606" unicode="Ę" d="M91 0v688h456v-62h-385v-244h309v-62h-309v-258h393v-62h1q-15 -17 -27 -33t-19.5 -30.5t-11 -28t-3.5 -24.5q0 -12 3.5 -22t10.5 -17t19 -10.5t28 -3.5h30v-47h-39q-25 0 -45 6.5t-33.5 18.5t-20 28t-6.5 35q0 16 4.5 31.5t13.5 31.5t23.5 32t33.5 33h-426z"/>
<glyph glyph-name="eogonek" horiz-adv-x="519" unicode="ę" d="M268 440q-28 0 -53 -10.5t-45 -30t-33.5 -47.5t-19.5 -62h292q-3 38 -14 66t-29 47t-43 28t-55 9zM221 -135q0 18 6.5 35.5t18 33t25 29.5t29.5 28q-4 0 -7.5 -0.5l-7 -1t-7 -0.5h-6.5q-54 0 -97 18t-72.5 51.5t-44.5 80.5t-15 105q0 56 17 103t47.5 81t72 52.5 t88.5 18.5q46 0 84.5 -15.5t66.5 -46t43.5 -73.5t15.5 -97v-28h-364q1 -43 12 -78t31.5 -60.5t49.5 -39t65 -13.5q28 0 51.5 7.5t40.5 21t27.5 32t14.5 39.5h68q-3 -18 -9.5 -35t-16 -32.5t-22.5 -29t-28 -24.5q-22 -17 -42.5 -34.5t-39.5 -37.5t-30.5 -40t-11.5 -37 q0 -12 3.5 -20.5t10.5 -14.5t19 -9t28 -3h31v-47h-40q-26 0 -45.5 5.5t-33 16t-20 25.5t-6.5 34z"/>
<glyph glyph-name="Ecaron" horiz-adv-x="606" unicode="Ě" d="M289 768l-128 164h65l94 -123l94 123h65l-128 -164h-62zM91 0v688h456v-62h-385v-244h309v-62h-309v-258h393v-62h-464z"/>
<glyph glyph-name="ecaron" horiz-adv-x="519" unicode="ě" d="M237 568l-128 164h65l94 -123l94 123h65l-128 -164h-62zM268 440q-28 0 -53 -10.5t-45 -30t-33.5 -47.5t-19.5 -62h292q-3 38 -14 66t-29 47t-43 28t-55 9zM43 244q0 56 17 103t47.5 81t72 52.5t88.5 18.5q46 0 84.5 -15.5t66.5 -46t43.5 -73.5t15.5 -97v-28h-364 q1 -43 12 -78t31.5 -60.5t49.5 -39t65 -13.5q28 0 51.5 7.5t40.5 21t27.5 32t14.5 39.5h68q-5 -33 -21.5 -62t-43.5 -51t-62 -34t-75 -12q-54 0 -97 18t-72.5 51.5t-44.5 80.5t-15 105z"/>
<glyph glyph-name="Gcircumflex" horiz-adv-x="755" unicode="Ĝ" d="M223 768l128 164h62l128 -164h-65l-94 123l-94 -123h-65zM629 0l-12 118h-1q-18 -33 -42 -57.5t-54 -40.5t-65.5 -23.5t-77.5 -7.5q-72 0 -133 26.5t-105 75t-68 113.5t-24 140q0 76 24 141t69 113.5t107 74.5t135 26q59 0 109 -16t87 -45t61.5 -68t35.5 -84h-74 q-8 31 -26 57.5t-45.5 47t-65 32t-82.5 11.5q-58 0 -106.5 -21.5t-83 -60.5t-53 -92.5t-18.5 -115.5q0 -61 18.5 -114t52.5 -92.5t81.5 -61.5t103.5 -22q46 0 88 13t75 39.5t52 66.5t19 91v34h-230v62h295v-360h-47z"/>
<glyph glyph-name="gcircumflex" horiz-adv-x="576" unicode="ĝ" d="M113 568l128 164h62l128 -164h-65l-94 123l-94 -123h-65zM114 240q0 -45 12 -81t33.5 -61t50 -37.5t61.5 -12.5q32 0 60 12.5t49.5 36.5t34 59t13.5 79v18q-1 43 -13.5 78t-34 59.5t-49.5 37t-60 12.5q-33 0 -61.5 -14t-50 -40t-33.5 -63.5t-12 -82.5zM55 -60h65 q0 -26 10.5 -47t30 -35.5t46 -22t58.5 -7.5q36 0 66 10t52.5 33t35 60t12.5 90v66h-3q-12 -25 -29.5 -43.5t-40 -30.5t-48.5 -18t-54 -6q-45 0 -84 17t-68 50t-45 79.5t-16 104.5t17 106t47 82t70 52.5t85 18.5q28 0 53 -6t46.5 -18.5t38.5 -31t28 -42.5h3v87h65v-467 q0 -67 -17.5 -114.5t-49 -77.5t-73.5 -43.5t-91 -13.5q-45 0 -83.5 11t-67 32.5t-44 53t-15.5 71.5z"/>
<glyph glyph-name="Gbreve" horiz-adv-x="755" unicode="Ğ" d="M382 768q-25 0 -47.5 7t-42 23t-32.5 42t-17 62h44q3 -22 11 -38.5t20 -28t28 -17.5t36 -6t36 6t28 17.5t20 28t11 38.5h44q-4 -36 -17 -62t-32.5 -42t-42 -23t-47.5 -7zM629 0l-12 118h-1q-18 -33 -42 -57.5t-54 -40.5t-65.5 -23.5t-77.5 -7.5q-72 0 -133 26.5t-105 75 t-68 113.5t-24 140q0 76 24 141t69 113.5t107 74.5t135 26q59 0 109 -16t87 -45t61.5 -68t35.5 -84h-74q-8 31 -26 57.5t-45.5 47t-65 32t-82.5 11.5q-58 0 -106.5 -21.5t-83 -60.5t-53 -92.5t-18.5 -115.5q0 -61 18.5 -114t52.5 -92.5t81.5 -61.5t103.5 -22q46 0 88 13 t75 39.5t52 66.5t19 91v34h-230v62h295v-360h-47z"/>
<glyph glyph-name="gbreve" horiz-adv-x="576" unicode="ğ" d="M272 584q-25 0 -47.5 7t-42 23t-32.5 42t-17 62h44q3 -22 11 -38.5t20 -28t28 -17.5t36 -6t36 6t28 17.5t20 28t11 38.5h44q-4 -36 -17 -62t-32.5 -42t-42 -23t-47.5 -7zM114 240q0 -45 12 -81t33.5 -61t50 -37.5t61.5 -12.5q32 0 60 12.5t49.5 36.5t34 59t13.5 79v18 q-1 43 -13.5 78t-34 59.5t-49.5 37t-60 12.5q-33 0 -61.5 -14t-50 -40t-33.5 -63.5t-12 -82.5zM55 -60h65q0 -26 10.5 -47t30 -35.5t46 -22t58.5 -7.5q36 0 66 10t52.5 33t35 60t12.5 90v66h-3q-12 -25 -29.5 -43.5t-40 -30.5t-48.5 -18t-54 -6q-45 0 -84 17t-68 50 t-45 79.5t-16 104.5t17 106t47 82t70 52.5t85 18.5q28 0 53 -6t46.5 -18.5t38.5 -31t28 -42.5h3v87h65v-467q0 -67 -17.5 -114.5t-49 -77.5t-73.5 -43.5t-91 -13.5q-45 0 -83.5 11t-67 32.5t-44 53t-15.5 71.5z"/>
<glyph glyph-name="Gdotaccent" horiz-adv-x="755" unicode="Ġ" d="M348 768v90h68v-90h-68zM629 0l-12 118h-1q-18 -33 -42 -57.5t-54 -40.5t-65.5 -23.5t-77.5 -7.5q-72 0 -133 26.5t-105 75t-68 113.5t-24 140q0 76 24 141t69 113.5t107 74.5t135 26q59 0 109 -16t87 -45t61.5 -68t35.5 -84h-74q-8 31 -26 57.5t-45.5 47t-65 32 t-82.5 11.5q-58 0 -106.5 -21.5t-83 -60.5t-53 -92.5t-18.5 -115.5q0 -61 18.5 -114t52.5 -92.5t81.5 -61.5t103.5 -22q46 0 88 13t75 39.5t52 66.5t19 91v34h-230v62h295v-360h-47z"/>
<glyph glyph-name="gdotaccent" horiz-adv-x="576" unicode="ġ" d="M238 605v90h68v-90h-68zM114 240q0 -45 12 -81t33.5 -61t50 -37.5t61.5 -12.5q32 0 60 12.5t49.5 36.5t34 59t13.5 79v18q-1 43 -13.5 78t-34 59.5t-49.5 37t-60 12.5q-33 0 -61.5 -14t-50 -40t-33.5 -63.5t-12 -82.5zM55 -60h65q0 -26 10.5 -47t30 -35.5t46 -22 t58.5 -7.5q36 0 66 10t52.5 33t35 60t12.5 90v66h-3q-12 -25 -29.5 -43.5t-40 -30.5t-48.5 -18t-54 -6q-45 0 -84 17t-68 50t-45 79.5t-16 104.5t17 106t47 82t70 52.5t85 18.5q28 0 53 -6t46.5 -18.5t38.5 -31t28 -42.5h3v87h65v-467q0 -67 -17.5 -114.5t-49 -77.5 t-73.5 -43.5t-91 -13.5q-45 0 -83.5 11t-67 32.5t-44 53t-15.5 71.5z"/>
<glyph glyph-name="Gcommaaccent" horiz-adv-x="755" unicode="Ģ" d="M343 -66h68v-74l-36 -103h-31l27 97h-28v80zM629 0l-12 118h-1q-18 -33 -42 -57.5t-54 -40.5t-65.5 -23.5t-77.5 -7.5q-72 0 -133 26.5t-105 75t-68 113.5t-24 140q0 76 24 141t69 113.5t107 74.5t135 26q59 0 109 -16t87 -45t61.5 -68t35.5 -84h-74q-8 31 -26 57.5 t-45.5 47t-65 32t-82.5 11.5q-58 0 -106.5 -21.5t-83 -60.5t-53 -92.5t-18.5 -115.5q0 -61 18.5 -114t52.5 -92.5t81.5 -61.5t103.5 -22q46 0 88 13t75 39.5t52 66.5t19 91v34h-230v62h295v-360h-47z"/>
<glyph glyph-name="gcommaaccent" horiz-adv-x="576" unicode="ģ" d="M238 568v74l36 103h31l-27 -97h28v-80h-68zM114 240q0 -45 12 -81t33.5 -61t50 -37.5t61.5 -12.5q32 0 60 12.5t49.5 36.5t34 59t13.5 79v18q-1 43 -13.5 78t-34 59.5t-49.5 37t-60 12.5q-33 0 -61.5 -14t-50 -40t-33.5 -63.5t-12 -82.5zM55 -60h65q0 -26 10.5 -47 t30 -35.5t46 -22t58.5 -7.5q36 0 66 10t52.5 33t35 60t12.5 90v66h-3q-12 -25 -29.5 -43.5t-40 -30.5t-48.5 -18t-54 -6q-45 0 -84 17t-68 50t-45 79.5t-16 104.5t17 106t47 82t70 52.5t85 18.5q28 0 53 -6t46.5 -18.5t38.5 -31t28 -42.5h3v87h65v-467q0 -67 -17.5 -114.5 t-49 -77.5t-73.5 -43.5t-91 -13.5q-45 0 -83.5 11t-67 32.5t-44 53t-15.5 71.5z"/>
<glyph glyph-name="Hcircumflex" horiz-adv-x="716" unicode="Ĥ" d="M199 768l128 164h62l128 -164h-65l-94 123l-94 -123h-65zM91 0v688h71v-308h392v308h71v-688h-71v318h-392v-318h-71z"/>
<glyph glyph-name="hcircumflex" horiz-adv-x="558" unicode="ĥ" d="M-45 809l128 164h62l128 -164h-65l-94 123l-94 -123h-65zM80 0v732h68v-146v-33t-0.5 -50t-1 -52.5t-1.5 -42.5h3q11 23 27 40t37 28.5t45 17t51 5.5q37 0 69 -11t56.5 -35t38 -62.5t13.5 -91.5v-299h-68v290q0 40 -8.5 69t-25 47t-39 26t-50.5 8q-30 0 -56.5 -12 t-46.5 -35.5t-31.5 -58.5t-11.5 -78v-256h-68z"/>
<glyph glyph-name="Hbar" horiz-adv-x="716" unicode="Ħ" d="M162 510v-130h392v130h-392zM1 510v58h90v120h71v-120h392v120h71v-120h90v-58h-90v-510h-71v319h-392v-319h-71v510h-90z"/>
<glyph glyph-name="hbar" horiz-adv-x="558" unicode="ħ" d="M0 599v47h80v86h68v-86h155v-47h-155v-13v-33t-0.5 -50t-1 -52.5t-1.5 -42.5h3q11 23 27 40t37 28.5t45 17t51 5.5q37 0 69 -11t56.5 -35t38 -62.5t13.5 -91.5v-299h-68v290q0 40 -8.5 69t-25 47t-39 26t-50.5 8q-30 0 -56.5 -12t-46.5 -36t-31.5 -58.5t-11.5 -78.5v-255 h-68v599h-80z"/>
<glyph glyph-name="Itilde" horiz-adv-x="253" unicode="Ĩ" d="M-29 768q1 21 7 39t17 31.5t27 21t36 7.5q19 0 37 -6.5t42.5 -20t37 -19t24.5 -5.5q11 0 19 4.5t13.5 12t8.5 16.5t5 19h38q-1 -20 -7 -38t-17 -31.5t-27 -21.5t-36 -8q-19 0 -37 6.5t-42.5 20t-37 19t-24.5 5.5q-11 0 -19 -4.5t-13.5 -12t-8.5 -16.5t-5 -19h-38zM91 0 v688h71v-688h-71z"/>
<glyph glyph-name="itilde" horiz-adv-x="228" unicode="ĩ" d="M-41 600q1 21 7 39t17 31.5t27 21t36 7.5q19 0 37 -6.5t42.5 -20t37 -19t24.5 -5.5q11 0 19 4.5t13.5 12t8.5 16.5t5 19h38q-1 -20 -7 -38t-17 -31.5t-27 -21.5t-36 -8q-19 0 -37 6.5t-42.5 20t-37 19t-24.5 5.5q-11 0 -19 -4.5t-13.5 -12t-8.5 -16.5t-5 -19h-38zM80 0 v488h68v-488h-68z"/>
<glyph glyph-name="Imacron" horiz-adv-x="253" unicode="Ī" d="M-13 776v53h276v-53h-276zM91 0v688h71v-688h-71z"/>
<glyph glyph-name="imacron" horiz-adv-x="228" unicode="ī" d="M-25 623v53h276v-53h-276zM80 0v488h68v-488h-68z"/>
<glyph glyph-name="Ibreve" horiz-adv-x="253" unicode="Ĭ" d="M126 768q-25 0 -47.5 7t-42 23t-32.5 42t-17 62h44q3 -22 11 -38.5t20 -28t28 -17.5t36 -6t36 6t28 17.5t20 28t11 38.5h44q-4 -36 -17 -62t-32.5 -42t-42 -23t-47.5 -7zM91 0v688h71v-688h-71z"/>
<glyph glyph-name="ibreve" horiz-adv-x="228" unicode="ĭ" d="M114 584q-25 0 -47.5 7t-42 23t-32.5 42t-17 62h44q3 -22 11 -38.5t20 -28t28 -17.5t36 -6t36 6t28 17.5t20 28t11 38.5h44q-4 -36 -17 -62t-32.5 -42t-42 -23t-47.5 -7zM80 0v488h68v-488h-68z"/>
<glyph glyph-name="Iogonek" horiz-adv-x="253" unicode="Į" d="M91 0v688h71v-688h-2q-15 -17 -27 -33t-19.5 -30.5t-11 -28t-3.5 -24.5q0 -12 3.5 -22t10.5 -17t19 -10.5t28 -3.5h30v-47h-39q-25 0 -45 6.5t-33.5 18.5t-20 28t-6.5 35q0 16 4.5 31.5t13.5 31.5t23.5 32t33.5 33h-30z"/>
<glyph glyph-name="iogonek" horiz-adv-x="228" unicode="į" d="M77 636v96h74v-96h-74zM80 0v488h68v-488q-15 -17 -27 -33t-19.5 -30.5t-11 -28t-3.5 -24.5q0 -12 3.5 -22t10.5 -17t19 -10.5t28 -3.5h30v-47h-39q-25 0 -45 6.5t-33.5 18.5t-20 28t-6.5 35q0 16 4.5 31.5t13.5 31.5t23.5 32t33.5 33h-29z"/>
<glyph glyph-name="Idotaccent" horiz-adv-x="253" unicode="İ" d="M92 768v90h68v-90h-68zM91 0v688h71v-688h-71z"/>
<glyph glyph-name="dotlessi" horiz-adv-x="228" unicode="ı" d="M80 0v488h68v-488h-68z"/>
<glyph glyph-name="IJ" horiz-adv-x="769" unicode="Ĳ" d="M301 193v35h71v-32q0 -39 9 -67t25.5 -45t39 -25t50.5 -8q27 0 49.5 8t39 25.5t25.5 45.5t9 66v492h71v-495q0 -53 -14 -92t-40 -64t-61.5 -36.5t-78.5 -11.5q-44 0 -79.5 11.5t-61.5 36t-40 64t-14 92.5zM91 0v688h71v-688h-71z"/>
<glyph glyph-name="ij" horiz-adv-x="456" unicode="ĳ" d="M308 -84v572h68v-584q0 -29 -7 -52t-22.5 -39t-39 -24.5t-56.5 -8.5h-30v59h24q17 0 28.5 4.5t19.5 14t11.5 24t3.5 34.5zM305 636v96h74v-96h-74zM80 0v488h68v-488h-68zM77 636v96h74v-96h-74z"/>
<glyph glyph-name="Jcircumflex" horiz-adv-x="513" unicode="Ĵ" d="M242 768l128 164h62l128 -164h-65l-94 123l-94 -123h-65zM45 193v35h71v-29q0 -39 9 -67.5t25.5 -46t39 -26t50.5 -8.5q27 0 49 8.5t39 26.5t26 46t9 67v489h71v-495q0 -53 -14 -92t-40 -64t-61.5 -36.5t-78.5 -11.5q-44 0 -79.5 11.5t-61.5 36t-40 64t-14 92.5z"/>
<glyph glyph-name="jcircumflex" horiz-adv-x="228" unicode="ĵ" d="M-45 568l128 164h62l128 -164h-65l-94 123l-94 -123h-65zM80 -84v572h68v-584q0 -29 -7 -52t-22.5 -39t-39 -24.5t-56.5 -8.5h-30v59h24q17 0 28.5 4.5t19.5 14t11.5 24t3.5 34.5z"/>
<glyph glyph-name="Kcommaaccent" horiz-adv-x="646" unicode="Ķ" d="M300 -66h68v-74l-36 -103h-31l27 97h-28v80zM91 0v688h71v-401l370 401h84l-280 -298l294 -390h-80l-261 340l-127 -136v-204h-71z"/>
<glyph glyph-name="kcommaaccent" horiz-adv-x="496" unicode="ķ" d="M230 -66h68v-74l-36 -103h-31l27 97h-28v80zM80 0v732h68v-508l238 264h81l-182 -197l203 -291h-81l-168 241l-91 -99v-142h-68z"/>
<glyph glyph-name="Lacute" horiz-adv-x="541" unicode="Ĺ" d="M99 768l106 164h81l-137 -164h-50zM91 0v688h71v-626h351v-62h-422z"/>
<glyph glyph-name="lacute" horiz-adv-x="228" unicode="ĺ" d="M88 812l106 164h81l-137 -164h-50zM80 0v732h68v-732h-68z"/>
<glyph glyph-name="Lcommaaccent" horiz-adv-x="541" unicode="Ļ" d="M261 -66h68v-74l-36 -103h-31l27 97h-28v80zM91 0v688h71v-626h351v-62h-422z"/>
<glyph glyph-name="lcommaaccent" horiz-adv-x="228" unicode="ļ" d="M80 -66h68v-74l-36 -103h-31l27 97h-28v80zM80 0v732h68v-732h-68z"/>
<glyph glyph-name="Lcaron" horiz-adv-x="541" unicode="Ľ" d="M327 484l28 115h-30v89h74v-84l-38 -120h-34zM91 0v688h71v-626h351v-62h-422z"/>
<glyph glyph-name="lcaron" horiz-adv-x="228" unicode="ľ" d="M80 0v732h68v-732h-68zM234 528l28 115h-30v89h74v-84l-38 -120h-34z"/>
<glyph glyph-name="Ldot" horiz-adv-x="541" unicode="Ŀ" d="M301 304v96h74v-96h-74zM91 0v688h71v-626h351v-62h-422z"/>
<glyph glyph-name="ldot" horiz-adv-x="290" unicode="ŀ" d="M225 292v96h74v-96h-74zM80 0v732h68v-732h-68z"/>
<glyph glyph-name="Lslash" horiz-adv-x="541" unicode="Ł" d="M1 182v65l90 65v376h71v-325l169 123v-65l-169 -122v-237h351v-62h-422v248z"/>
<glyph glyph-name="lslash" horiz-adv-x="228" unicode="ł" d="M5 283l75 73v376h68v-311l75 72v-62l-75 -74v-357h-68v292l-75 -72v63z"/>
<glyph glyph-name="Nacute" horiz-adv-x="723" unicode="Ń" d="M335 768l106 164h81l-137 -164h-50zM91 0v688h68l402 -568h3l-3 568h71v-688h-68l-402 565h-3l3 -565h-71z"/>
<glyph glyph-name="nacute" horiz-adv-x="558" unicode="ń" d="M254 568l106 164h81l-137 -164h-50zM80 0v488h65v-80h3q11 23 27 40t37 28.5t45 17t51 5.5q37 0 69 -11t56.5 -35t38 -62.5t13.5 -91.5v-299h-68v290q0 40 -8.5 69t-25 47t-39 26t-50.5 8q-30 0 -56.5 -12t-46.5 -36t-31.5 -59t-11.5 -79v-254h-68z"/>
<glyph glyph-name="Ncommaaccent" horiz-adv-x="723" unicode="Ņ" d="M327 -66h68v-74l-36 -103h-31l27 97h-28v80zM91 0v688h68l402 -568h3l-3 568h71v-688h-68l-402 565h-3l3 -565h-71z"/>
<glyph glyph-name="ncommaaccent" horiz-adv-x="558" unicode="ņ" d="M243 -66h68v-74l-36 -103h-31l27 97h-28v80zM80 0v488h65v-80h3q11 23 27 40t37 28.5t45 17t51 5.5q37 0 69 -11t56.5 -35t38 -62.5t13.5 -91.5v-299h-68v290q0 40 -8.5 69t-25 47t-39 26t-50.5 8q-30 0 -56.5 -12t-46.5 -36t-31.5 -59t-11.5 -79v-254h-68z"/>
<glyph glyph-name="Ncaron" horiz-adv-x="723" unicode="Ň" d="M330 768l-128 164h65l94 -123l94 123h65l-128 -164h-62zM91 0v688h68l402 -568h3l-3 568h71v-688h-68l-402 565h-3l3 -565h-71z"/>
<glyph glyph-name="ncaron" horiz-adv-x="558" unicode="ň" d="M249 568l-128 164h65l94 -123l94 123h65l-128 -164h-62zM80 0v488h65v-80h3q11 23 27 40t37 28.5t45 17t51 5.5q37 0 69 -11t56.5 -35t38 -62.5t13.5 -91.5v-299h-68v290q0 40 -8.5 69t-25 47t-39 26t-50.5 8q-30 0 -56.5 -12t-46.5 -36t-31.5 -59t-11.5 -79v-254h-68z "/>
<glyph glyph-name="napostrophe" horiz-adv-x="558" unicode="ŉ" d="M77 568l27 97h-28v80h68v-74l-36 -103h-31zM80 0v488h65v-80h3q11 23 27 40t37 28.5t45 17t51 5.5q37 0 69 -11t56.5 -35t38 -62.5t13.5 -91.5v-299h-68v290q0 40 -8.5 69t-25 47t-39 26t-50.5 8q-30 0 -56.5 -12t-46.5 -36t-31.5 -59t-11.5 -79v-254h-68z"/>
<glyph glyph-name="Eng" horiz-adv-x="723" unicode="Ŋ" d="M91 0v688h68l402 -567h2l-2 567h71v-735q0 -49 -11 -82.5t-31.5 -53t-50 -28.5t-69.5 -9h-48v65h45q24 0 41.5 6.5t29 20t17.5 35t6 52.5v45l-399 561h-3l3 -565h-71z"/>
<glyph glyph-name="eng" horiz-adv-x="558" unicode="ŋ" d="M417 -84v374q0 40 -8.5 69t-25 47t-39 26t-50.5 8q-30 0 -56.5 -12t-46.5 -35.5t-31.5 -58.5t-11.5 -78v-256h-68v488h65v-80h3q11 23 27 40t37 28.5t45 17t51 5.5q37 0 69 -11t56.5 -35t38 -62.5t13.5 -91.5v-395q0 -29 -7 -52t-22.5 -39t-39 -24.5t-56.5 -8.5h-30v59 h24q17 0 28.5 4.5t19.5 14t11.5 24t3.5 34.5z"/>
<glyph glyph-name="Omacron" horiz-adv-x="754" unicode="Ō" d="M238 776v53h276v-53h-276zM121 344q0 -62 18.5 -115t52.5 -92.5t81.5 -61t103.5 -21.5t103.5 21.5t81.5 61t52.5 92.5t18.5 115t-18.5 115t-52.5 92.5t-81.5 61t-103.5 21.5t-103.5 -21.5t-81.5 -61t-52.5 -92.5t-18.5 -115zM47 344q0 76 23.5 141t67.5 113t105 74.5 t134 26.5q71 0 132 -26.5t105.5 -74.5t68.5 -113t24 -141t-24 -141t-68.5 -113t-105.5 -74.5t-132 -26.5q-73 0 -134 26.5t-105 74.5t-67.5 113t-23.5 141z"/>
<glyph glyph-name="omacron" horiz-adv-x="550" unicode="ō" d="M136 623v53h276v-53h-276zM114 244q0 -43 11.5 -79.5t33 -62.5t51.5 -40t65 -14t64.5 14t51 40t33.5 62.5t12 79.5q0 44 -11.5 80.5t-33 62.5t-51.5 39.5t-65 13.5t-64.5 -14t-51 -40t-33.5 -62.5t-12 -79.5zM43 244q0 57 17 104t48.5 81t74.5 52t92 18q52 0 95 -18 t73.5 -51.5t47 -81t16.5 -104.5t-17 -104t-48.5 -81t-74.5 -52t-92 -18q-52 0 -95 18t-73.5 51.5t-47 81t-16.5 104.5z"/>
<glyph glyph-name="Obreve" horiz-adv-x="754" unicode="Ŏ" d="M377 768q-25 0 -47.5 7t-42 23t-32.5 42t-17 62h44q3 -22 11 -38.5t20 -28t28 -17.5t36 -6t36 6t28 17.5t20 28t11 38.5h44q-4 -36 -17 -62t-32.5 -42t-42 -23t-47.5 -7zM121 344q0 -62 18.5 -115t52.5 -92.5t81.5 -61t103.5 -21.5t103.5 21.5t81.5 61t52.5 92.5 t18.5 115t-18.5 115t-52.5 92.5t-81.5 61t-103.5 21.5t-103.5 -21.5t-81.5 -61t-52.5 -92.5t-18.5 -115zM47 344q0 76 23.5 141t67.5 113t105 74.5t134 26.5q71 0 132 -26.5t105.5 -74.5t68.5 -113t24 -141t-24 -141t-68.5 -113t-105.5 -74.5t-132 -26.5q-73 0 -134 26.5 t-105 74.5t-67.5 113t-23.5 141z"/>
<glyph glyph-name="obreve" horiz-adv-x="550" unicode="ŏ" d="M275 584q-25 0 -47.5 7t-42 23t-32.5 42t-17 62h44q3 -22 11 -38.5t20 -28t28 -17.5t36 -6t36 6t28 17.5t20 28t11 38.5h44q-4 -36 -17 -62t-32.5 -42t-42 -23t-47.5 -7zM114 244q0 -43 11.5 -79.5t33 -62.5t51.5 -40t65 -14t64.5 14t51 40t33.5 62.5t12 79.5 q0 44 -11.5 80.5t-33 62.5t-51.5 39.5t-65 13.5t-64.5 -14t-51 -40t-33.5 -62.5t-12 -79.5zM43 244q0 57 17 104t48.5 81t74.5 52t92 18q52 0 95 -18t73.5 -51.5t47 -81t16.5 -104.5t-17 -104t-48.5 -81t-74.5 -52t-92 -18q-52 0 -95 18t-73.5 51.5t-47 81t-16.5 104.5z"/>
<glyph glyph-name="Ohungarumlaut" horiz-adv-x="754" unicode="Ő" d="M262 768l106 164h80l-136 -164h-50zM439 768l106 164h80l-136 -164h-50zM121 344q0 -62 18.5 -115t52.5 -92.5t81.5 -61t103.5 -21.5t103.5 21.5t81.5 61t52.5 92.5t18.5 115t-18.5 115t-52.5 92.5t-81.5 61t-103.5 21.5t-103.5 -21.5t-81.5 -61t-52.5 -92.5t-18.5 -115z M47 344q0 76 23.5 141t67.5 113t105 74.5t134 26.5q71 0 132 -26.5t105.5 -74.5t68.5 -113t24 -141t-24 -141t-68.5 -113t-105.5 -74.5t-132 -26.5q-73 0 -134 26.5t-105 74.5t-67.5 113t-23.5 141z"/>
<glyph glyph-name="ohungarumlaut" horiz-adv-x="550" unicode="ő" d="M160 568l106 164h80l-136 -164h-50zM337 568l106 164h80l-136 -164h-50zM114 244q0 -43 11.5 -79.5t33 -62.5t51.5 -40t65 -14t64.5 14t51 40t33.5 62.5t12 79.5q0 44 -11.5 80.5t-33 62.5t-51.5 39.5t-65 13.5t-64.5 -14t-51 -40t-33.5 -62.5t-12 -79.5zM43 244 q0 57 17 104t48.5 81t74.5 52t92 18q52 0 95 -18t73.5 -51.5t47 -81t16.5 -104.5t-17 -104t-48.5 -81t-74.5 -52t-92 -18q-52 0 -95 18t-73.5 51.5t-47 81t-16.5 104.5z"/>
<glyph glyph-name="OE" horiz-adv-x="1034" unicode="Œ" d="M121 344q0 -60 16.5 -110.5t51.5 -89.5t89.5 -60.5t129.5 -21.5h111v564h-111q-75 0 -129.5 -21.5t-89.5 -60.5t-51.5 -89.5t-16.5 -110.5zM408 0q-88 0 -156 25t-113.5 71t-68.5 109t-23 139t23 139t68.5 109t113.5 71t156 25h567v-62h-385v-244h309v-62h-309v-258h393 v-62h-575z"/>
<glyph glyph-name="oe" horiz-adv-x="909" unicode="œ" d="M658 440q-28 0 -53 -10.5t-45 -30.5t-33.5 -47.5t-19.5 -61.5h292q-3 38 -14 66t-29 47t-43 28t-55 9zM114 244q0 -43 11.5 -79.5t33 -62.5t51.5 -40t65 -14t64.5 14t51 40t33.5 62.5t12 79.5q0 44 -11.5 80.5t-33 62.5t-51.5 39.5t-65 13.5t-64.5 -14t-51 -40 t-33.5 -62.5t-12 -79.5zM43 244q0 57 17 104t48.5 81t74.5 52t92 18q33 0 62.5 -8t54.5 -23t44.5 -36.5t33.5 -48.5q14 27 34 48.5t44 36.5t52 23t58 8q46 0 84.5 -15.5t66.5 -46t43.5 -73.5t15.5 -97v-28h-364q1 -43 12 -78t31.5 -60.5t49.5 -39t65 -13.5q28 0 51 7.5 t40.5 21t28 32t14.5 39.5h68q-5 -33 -21.5 -62t-43.5 -51t-62 -34t-75 -12q-35 0 -64.5 7.5t-54 22.5t-43.5 36t-32 48q-15 -27 -35 -48t-44.5 -36t-53.5 -22.5t-60 -7.5q-52 0 -95 18t-73.5 51.5t-47 81t-16.5 104.5z"/>
<glyph glyph-name="Racute" horiz-adv-x="645" unicode="Ŕ" d="M284 768l106 164h81l-137 -164h-50zM352 626h-190v-283h190q38 0 67.5 11t49.5 31t30 46.5t10 58.5t-10 57t-30 42.5t-49.5 27t-67.5 9.5zM91 0v688h258q56 0 99.5 -13t72.5 -39t44 -62.5t15 -83.5q0 -39 -10.5 -72.5t-31 -60t-51 -44.5t-69.5 -26l182 -287h-77l-181 281 h-180v-281h-71z"/>
<glyph glyph-name="racute" horiz-adv-x="350" unicode="ŕ" d="M189 568l106 164h81l-137 -164h-50zM80 0v488h65v-80h3q9 21 21.5 37.5t29.5 28.5t37 18.5t43 6.5q9 0 17 -1t17 -3t17.5 -6t17.5 -10l-22 -61q-8 4 -16 7.5t-15.5 5t-15 2.5t-14.5 1q-28 0 -50.5 -14t-37 -38.5t-22 -56.5t-7.5 -67v-258h-68z"/>
<glyph glyph-name="Rcommaaccent" horiz-adv-x="645" unicode="Ŗ" d="M287 -66h68v-74l-36 -103h-31l27 97h-28v80zM352 626h-190v-283h190q38 0 67.5 11t49.5 31t30 46.5t10 58.5t-10 57t-30 42.5t-49.5 27t-67.5 9.5zM91 0v688h258q56 0 99.5 -13t72.5 -39t44 -62.5t15 -83.5q0 -39 -10.5 -72.5t-31 -60t-51 -44.5t-69.5 -26l182 -287h-77 l-181 281h-180v-281h-71z"/>
<glyph glyph-name="rcommaaccent" horiz-adv-x="350" unicode="ŗ" d="M80 -66h68v-74l-36 -103h-31l27 97h-28v80zM80 0v488h65v-80h3q9 21 21.5 37.5t29.5 28.5t37 18.5t43 6.5q9 0 17 -1t17 -3t17.5 -6t17.5 -10l-22 -61q-8 4 -16 7.5t-15.5 5t-15 2.5t-14.5 1q-28 0 -50.5 -14t-37 -38.5t-22 -56.5t-7.5 -67v-258h-68z"/>
<glyph glyph-name="Rcaron" horiz-adv-x="645" unicode="Ř" d="M279 768l-128 164h65l94 -123l94 123h65l-128 -164h-62zM352 626h-190v-283h190q38 0 67.5 11t49.5 31t30 46.5t10 58.5t-10 57t-30 42.5t-49.5 27t-67.5 9.5zM91 0v688h258q56 0 99.5 -13t72.5 -39t44 -62.5t15 -83.5q0 -39 -10.5 -72.5t-31 -60t-51 -44.5t-69.5 -26 l182 -287h-77l-181 281h-180v-281h-71z"/>
<glyph glyph-name="rcaron" horiz-adv-x="350" unicode="ř" d="M184 568l-128 164h65l94 -123l94 123h65l-128 -164h-62zM80 0v488h65v-80h3q9 21 21.5 37.5t29.5 28.5t37 18.5t43 6.5q9 0 17 -1t17 -3t17.5 -6t17.5 -10l-22 -61q-8 4 -16 7.5t-15.5 5t-15 2.5t-14.5 1q-28 0 -50.5 -14t-37 -38.5t-22 -56.5t-7.5 -67v-258h-68z"/>
<glyph glyph-name="Sacute" horiz-adv-x="638" unicode="Ś" d="M289 768l106 164h81l-137 -164h-50zM59 192h71q0 -33 13 -59.5t37.5 -45.5t59 -29t77.5 -10q44 0 79 9.5t59 28t36.5 44.5t12.5 59q0 31 -13 53t-35.5 36t-51 22.5t-66.5 14.5l-45 8q-51 9 -88 20t-68 30t-49.5 52t-18.5 81q0 42 17.5 77.5t50 61.5t78 40t100.5 14 q54 0 99 -12.5t77.5 -37t50.5 -60t18 -80.5h-71q0 31 -13 55.5t-36.5 41.5t-55 25.5t-69.5 8.5q-37 0 -69 -8.5t-55.5 -25t-36.5 -40.5t-13 -54q0 -32 13.5 -53.5t37.5 -34.5t53.5 -21t71.5 -15l45 -8q49 -9 85 -20t66 -31.5t47.5 -54t17.5 -82.5q0 -45 -17.5 -82.5 t-51.5 -64.5t-82.5 -41.5t-109.5 -14.5q-60 0 -108 14t-81.5 40.5t-51 64t-17.5 84.5z"/>
<glyph glyph-name="sacute" horiz-adv-x="481" unicode="ś" d="M212 568l106 164h81l-137 -164h-50zM40 138h65q0 -24 10.5 -42.5t29 -30.5t42 -17.5t48.5 -5.5q31 0 55.5 6t41.5 18t26 29t9 39q0 17 -5.5 29.5t-16 21.5t-27 15t-38.5 10l-92 16q-28 5 -52 13t-43 22.5t-30.5 37t-11.5 54.5q0 34 14 61t39.5 46t60 29t73.5 10 q38 0 71.5 -8.5t59.5 -26t40.5 -45t14.5 -64.5h-65q0 22 -9 39.5t-25.5 29t-38.5 17t-48 5.5t-48 -5.5t-38.5 -16.5t-25.5 -27.5t-9 -37.5q0 -17 6 -29.5t17.5 -21t28.5 -14.5t40 -10l92 -16q31 -6 55 -14.5t41.5 -23.5t27.5 -37t10 -53q0 -37 -14.5 -65.5t-41.5 -47.5 t-63.5 -28.5t-80.5 -9.5q-42 0 -77.5 9.5t-62 28t-41 46.5t-14.5 65z"/>
<glyph glyph-name="Scircumflex" horiz-adv-x="638" unicode="Ŝ" d="M156 768l128 164h62l128 -164h-65l-94 123l-94 -123h-65zM59 192h71q0 -33 13 -59.5t37.5 -45.5t59 -29t77.5 -10q44 0 79 9.5t59 28t36.5 44.5t12.5 59q0 31 -13 53t-35.5 36t-51 22.5t-66.5 14.5l-45 8q-51 9 -88 20t-68 30t-49.5 52t-18.5 81q0 42 17.5 77.5t50 61.5 t78 40t100.5 14q54 0 99 -12.5t77.5 -37t50.5 -60t18 -80.5h-71q0 31 -13 55.5t-36.5 41.5t-55 25.5t-69.5 8.5q-37 0 -69 -8.5t-55.5 -25t-36.5 -40.5t-13 -54q0 -32 13.5 -53.5t37.5 -34.5t53.5 -21t71.5 -15l45 -8q49 -9 85 -20t66 -31.5t47.5 -54t17.5 -82.5 q0 -45 -17.5 -82.5t-51.5 -64.5t-82.5 -41.5t-109.5 -14.5q-60 0 -108 14t-81.5 40.5t-51 64t-17.5 84.5z"/>
<glyph glyph-name="scircumflex" horiz-adv-x="481" unicode="ŝ" d="M79 568l128 164h62l128 -164h-65l-94 123l-94 -123h-65zM40 138h65q0 -24 10.5 -42.5t29 -30.5t42 -17.5t48.5 -5.5q31 0 55.5 6t41.5 18t26 29t9 39q0 17 -5.5 29.5t-16 21.5t-27 15t-38.5 10l-92 16q-28 5 -52 13t-43 22.5t-30.5 37t-11.5 54.5q0 34 14 61t39.5 46 t60 29t73.5 10q38 0 71.5 -8.5t59.5 -26t40.5 -45t14.5 -64.5h-65q0 22 -9 39.5t-25.5 29t-38.5 17t-48 5.5t-48 -5.5t-38.5 -16.5t-25.5 -27.5t-9 -37.5q0 -17 6 -29.5t17.5 -21t28.5 -14.5t40 -10l92 -16q31 -6 55 -14.5t41.5 -23.5t27.5 -37t10 -53q0 -37 -14.5 -65.5 t-41.5 -47.5t-63.5 -28.5t-80.5 -9.5q-42 0 -77.5 9.5t-62 28t-41 46.5t-14.5 65z"/>
<glyph glyph-name="Scedilla" horiz-adv-x="638" unicode="Ş" d="M275 -78l24 68q-56 2 -100.5 16.5t-75.5 41t-47.5 63t-16.5 81.5h71q0 -33 13 -59.5t37.5 -45.5t59 -29t77.5 -10q44 0 79 9.5t59 28t36.5 44.5t12.5 59q0 31 -13 53t-35.5 36t-51 22.5t-66.5 14.5l-45 8q-51 9 -88 20t-68 30t-49.5 52t-18.5 81q0 42 17.5 77.5t50 61.5 t78 40t100.5 14q54 0 99 -12.5t77.5 -37t50.5 -60t18 -80.5h-71q0 31 -13 55.5t-36.5 41.5t-55 25.5t-69.5 8.5q-37 0 -69 -8.5t-55.5 -25t-36.5 -40.5t-13 -54q0 -32 13.5 -53.5t37.5 -34.5t53.5 -21t71.5 -15l45 -8q49 -9 85 -20t66 -31.5t47.5 -54t17.5 -82.5 q0 -44 -17 -81t-49 -64t-79 -42t-106 -16l-4 -29q22 -1 39.5 -8t29 -18.5t17.5 -26.5t6 -32q0 -19 -6.5 -35.5t-20 -29t-34.5 -19.5t-48 -7h-53v44h50q15 0 26 3t18.5 9t11 14.5t3.5 20.5q0 11 -4 20t-11.5 15t-18.5 9t-26 3h-27z"/>
<glyph glyph-name="scedilla" horiz-adv-x="481" unicode="ş" d="M194 -78l24 68q-39 2 -71.5 12t-56.5 28.5t-37 45.5t-13 62h65q0 -24 10.5 -42.5t29 -30.5t42 -17.5t48.5 -5.5q31 0 55.5 6t41.5 18t26 29t9 39q0 17 -5.5 29.5t-16 21.5t-27 15t-38.5 10l-92 16q-28 5 -52 13t-43 22.5t-30.5 37t-11.5 54.5q0 34 14 61t39.5 46t60 29 t73.5 10q38 0 71.5 -8.5t59.5 -26t40.5 -45t14.5 -64.5h-65q0 22 -9 39.5t-25.5 29t-38.5 17t-48 5.5t-48 -5.5t-38.5 -16.5t-25.5 -27.5t-9 -37.5q0 -17 6 -29.5t17.5 -21t28.5 -14.5t40 -10l92 -16q31 -6 55 -14.5t41.5 -23.5t27.5 -37t10 -53q0 -36 -14 -63.5t-39 -46.5 t-59.5 -29t-76.5 -12l-4 -29q22 -1 39.5 -8t29 -18.5t17.5 -26.5t6 -32q0 -19 -6.5 -35.5t-20 -29t-34.5 -19.5t-48 -7h-53v44h50q15 0 26 3t18.5 9t11 14.5t3.5 20.5q0 11 -4 20t-11.5 15t-18.5 9t-26 3h-27z"/>
<glyph glyph-name="Scaron" horiz-adv-x="638" unicode="Š" d="M284 768l-128 164h65l94 -123l94 123h65l-128 -164h-62zM59 192h71q0 -33 13 -59.5t37.5 -45.5t59 -29t77.5 -10q44 0 79 9.5t59 28t36.5 44.5t12.5 59q0 31 -13 53t-35.5 36t-51 22.5t-66.5 14.5l-45 8q-51 9 -88 20t-68 30t-49.5 52t-18.5 81q0 42 17.5 77.5t50 61.5 t78 40t100.5 14q54 0 99 -12.5t77.5 -37t50.5 -60t18 -80.5h-71q0 31 -13 55.5t-36.5 41.5t-55 25.5t-69.5 8.5q-37 0 -69 -8.5t-55.5 -25t-36.5 -40.5t-13 -54q0 -32 13.5 -53.5t37.5 -34.5t53.5 -21t71.5 -15l45 -8q49 -9 85 -20t66 -31.5t47.5 -54t17.5 -82.5 q0 -45 -17.5 -82.5t-51.5 -64.5t-82.5 -41.5t-109.5 -14.5q-60 0 -108 14t-81.5 40.5t-51 64t-17.5 84.5z"/>
<glyph glyph-name="scaron" horiz-adv-x="481" unicode="š" d="M207 568l-128 164h65l94 -123l94 123h65l-128 -164h-62zM40 138h65q0 -24 10.5 -42.5t29 -30.5t42 -17.5t48.5 -5.5q31 0 55.5 6t41.5 18t26 29t9 39q0 17 -5.5 29.5t-16 21.5t-27 15t-38.5 10l-92 16q-28 5 -52 13t-43 22.5t-30.5 37t-11.5 54.5q0 34 14 61t39.5 46 t60 29t73.5 10q38 0 71.5 -8.5t59.5 -26t40.5 -45t14.5 -64.5h-65q0 22 -9 39.5t-25.5 29t-38.5 17t-48 5.5t-48 -5.5t-38.5 -16.5t-25.5 -27.5t-9 -37.5q0 -17 6 -29.5t17.5 -21t28.5 -14.5t40 -10l92 -16q31 -6 55 -14.5t41.5 -23.5t27.5 -37t10 -53q0 -37 -14.5 -65.5 t-41.5 -47.5t-63.5 -28.5t-80.5 -9.5q-42 0 -77.5 9.5t-62 28t-41 46.5t-14.5 65z"/>
<glyph glyph-name="Tcommaaccent" horiz-adv-x="579" unicode="Ţ" d="M250 -78l28 78h-24v628h-246v60h563v-60h-246v-628h-21l-6 -40q22 -1 39.5 -8t29 -18.5t17.5 -26.5t6 -32q0 -19 -6.5 -35.5t-20 -29t-34.5 -19.5t-48 -7h-53v44h50q15 0 26 3t18.5 9t11 14.5t3.5 20.5q0 11 -4 20t-11.5 15t-18.5 9t-26 3h-27z"/>
<glyph glyph-name="tcommaaccent" horiz-adv-x="317" unicode="ţ" d="M143 -78l27 86q-20 6 -34.5 17t-24 27.5t-14.5 38.5t-5 49v293h-96v55h96v148h68v-148h133v-55h-133v-290q0 -23 4.5 -39t14 -26t24 -14.5t35.5 -4.5h55v-59h-64h-10h-8t-7.5 0.5t-7.5 1.5l-5 -42q22 -1 39.5 -8t29 -18.5t17.5 -26.5t6 -32q0 -19 -6.5 -35.5t-20 -29 t-34.5 -19.5t-48 -7h-53v44h50q15 0 26 3t18.5 9t11 14.5t3.5 20.5q0 11 -4 20t-11.5 15t-18.5 9t-26 3h-27z"/>
<glyph glyph-name="Tcaron" horiz-adv-x="579" unicode="Ť" d="M257 768l-128 164h65l94 -123l94 123h65l-128 -164h-62zM8 628v60h563v-60h-246v-628h-71v628h-246z"/>
<glyph glyph-name="tcaron" horiz-adv-x="317" unicode="ť" d="M223 549l28 115h-30v89h74v-84l-38 -120h-34zM92 140v293h-98v55h98v148h68v-148h133v-55h-133v-290q0 -23 4.5 -39t14 -26t24 -14.5t35.5 -4.5h55v-59h-64q-34 0 -60 8.5t-43 25.5t-25.5 43.5t-8.5 62.5z"/>
<glyph glyph-name="Tbar" horiz-adv-x="579" unicode="Ŧ" d="M8 628v60h563v-60h-246v-272h186v-55h-186v-301h-71v301h-186v55h186v272h-246z"/>
<glyph glyph-name="tbar" horiz-adv-x="317" unicode="ŧ" d="M-6 232v47h98v154h-98v55h98v148h68v-148h133v-55h-133v-154h133v-47h-133v-89q0 -23 4.5 -39t14 -26t24 -14.5t35.5 -4.5h55v-59h-64q-34 0 -60 8.5t-43 25.5t-25.5 43.5t-8.5 62.5v92h-98z"/>
<glyph glyph-name="Utilde" horiz-adv-x="688" unicode="Ũ" d="M189 768q1 21 7 39t17 31.5t27 21t36 7.5q19 0 37 -6.5t42.5 -20t37 -19t24.5 -5.5q11 0 19 4.5t13.5 12t8.5 16.5t5 19h38q-1 -20 -7 -38t-17 -31.5t-27 -21.5t-36 -8q-19 0 -37 6.5t-42.5 20t-37 19t-24.5 5.5q-11 0 -19 -4.5t-13.5 -12t-8.5 -16.5t-5 -19h-38zM76 271 v417h71v-417q0 -53 12.5 -93.5t37.5 -68t62 -41.5t85 -14t84.5 14t62 41.5t38 68t12.5 93.5v417h71v-417q0 -73 -19 -127t-54.5 -88t-84.5 -50.5t-110 -16.5t-110 16.5t-84.5 50.5t-54.5 88t-19 127z"/>
<glyph glyph-name="utilde" horiz-adv-x="553" unicode="ũ" d="M123 600q1 21 7 39t17 31.5t27 21t36 7.5q19 0 37 -6.5t42.5 -20t37 -19t24.5 -5.5q11 0 19 4.5t13.5 12t8.5 16.5t5 19h38q-1 -20 -7 -38t-17 -31.5t-27 -21.5t-36 -8q-19 0 -37 6.5t-42.5 20t-37 19t-24.5 5.5q-11 0 -19 -4.5t-13.5 -12t-8.5 -16.5t-5 -19h-38zM72 189 v299h68v-290q0 -40 8.5 -69t24.5 -47t38.5 -26t50.5 -8q30 0 56 12t45.5 36t30.5 59t11 80v253h68v-488h-65v80h-3q-11 -23 -27 -40t-36.5 -28.5t-44 -17t-49.5 -5.5q-37 0 -69 11t-56 35t-37.5 62.5t-13.5 91.5z"/>
<glyph glyph-name="Umacron" horiz-adv-x="688" unicode="Ū" d="M205 776v53h276v-53h-276zM76 271v417h71v-417q0 -53 12.5 -93.5t37.5 -68t62 -41.5t85 -14t84.5 14t62 41.5t38 68t12.5 93.5v417h71v-417q0 -73 -19 -127t-54.5 -88t-84.5 -50.5t-110 -16.5t-110 16.5t-84.5 50.5t-54.5 88t-19 127z"/>
<glyph glyph-name="umacron" horiz-adv-x="553" unicode="ū" d="M139 623v53h276v-53h-276zM72 189v299h68v-290q0 -40 8.5 -69t24.5 -47t38.5 -26t50.5 -8q30 0 56 12t45.5 36t30.5 59t11 80v253h68v-488h-65v80h-3q-11 -23 -27 -40t-36.5 -28.5t-44 -17t-49.5 -5.5q-37 0 -69 11t-56 35t-37.5 62.5t-13.5 91.5z"/>
<glyph glyph-name="Ubreve" horiz-adv-x="688" unicode="Ŭ" d="M344 768q-25 0 -47.5 7t-42 23t-32.5 42t-17 62h44q3 -22 11 -38.5t20 -28t28 -17.5t36 -6t36 6t28 17.5t20 28t11 38.5h44q-4 -36 -17 -62t-32.5 -42t-42 -23t-47.5 -7zM76 271v417h71v-417q0 -53 12.5 -93.5t37.5 -68t62 -41.5t85 -14t84.5 14t62 41.5t38 68t12.5 93.5 v417h71v-417q0 -73 -19 -127t-54.5 -88t-84.5 -50.5t-110 -16.5t-110 16.5t-84.5 50.5t-54.5 88t-19 127z"/>
<glyph glyph-name="ubreve" horiz-adv-x="553" unicode="ŭ" d="M278 584q-25 0 -47.5 7t-42 23t-32.5 42t-17 62h44q3 -22 11 -38.5t20 -28t28 -17.5t36 -6t36 6t28 17.5t20 28t11 38.5h44q-4 -36 -17 -62t-32.5 -42t-42 -23t-47.5 -7zM72 189v299h68v-290q0 -40 8.5 -69t24.5 -47t38.5 -26t50.5 -8q30 0 56 12t45.5 36t30.5 59t11 80 v253h68v-488h-65v80h-3q-11 -23 -27 -40t-36.5 -28.5t-44 -17t-49.5 -5.5q-37 0 -69 11t-56 35t-37.5 62.5t-13.5 91.5z"/>
<glyph glyph-name="Uring" horiz-adv-x="688" unicode="Ů" d="M344 802q12 0 22.5 4t18.5 12t12.5 19t4.5 23t-4.5 23t-12.5 19t-18.5 12t-22.5 4t-22.5 -4t-18.5 -12t-12.5 -19t-4.5 -23t4.5 -23t12.5 -19t18.5 -12t22.5 -4zM344 767q-19 0 -36 6.5t-31 19t-21.5 30t-7.5 37.5t7.5 37.5t21.5 30t31 19t36 6.5t36 -6.5t31 -19 t21.5 -30t7.5 -37.5t-7.5 -37.5t-21.5 -30t-31 -19t-36 -6.5zM76 271v417h71v-417q0 -53 12.5 -93.5t37.5 -68t62 -41.5t85 -14t84.5 14t62 41.5t38 68t12.5 93.5v417h71v-417q0 -73 -19 -127t-54.5 -88t-84.5 -50.5t-110 -16.5t-110 16.5t-84.5 50.5t-54.5 88t-19 127z"/>
<glyph glyph-name="uring" horiz-adv-x="553" unicode="ů" d="M278 602q12 0 22.5 4t18.5 12t12.5 19t4.5 23t-4.5 23t-12.5 19t-18.5 12t-22.5 4t-22.5 -4t-18.5 -12t-12.5 -19t-4.5 -23t4.5 -23t12.5 -19t18.5 -12t22.5 -4zM278 567q-19 0 -36 6.5t-31 19t-21.5 30t-7.5 37.5t7.5 37.5t21.5 30t31 19t36 6.5t36 -6.5t31 -19 t21.5 -30t7.5 -37.5t-7.5 -37.5t-21.5 -30t-31 -19t-36 -6.5zM72 189v299h68v-290q0 -40 8.5 -69t24.5 -47t38.5 -26t50.5 -8q30 0 56 12t45.5 36t30.5 59t11 80v253h68v-488h-65v80h-3q-11 -23 -27 -40t-36.5 -28.5t-44 -17t-49.5 -5.5q-37 0 -69 11t-56 35t-37.5 62.5 t-13.5 91.5z"/>
<glyph glyph-name="Uhungarumlaut" horiz-adv-x="688" unicode="Ű" d="M229 768l106 164h80l-136 -164h-50zM406 768l106 164h80l-136 -164h-50zM76 271v417h71v-417q0 -53 12.5 -93.5t37.5 -68t62 -41.5t85 -14t84.5 14t62 41.5t38 68t12.5 93.5v417h71v-417q0 -73 -19 -127t-54.5 -88t-84.5 -50.5t-110 -16.5t-110 16.5t-84.5 50.5t-54.5 88 t-19 127z"/>
<glyph glyph-name="uhungarumlaut" horiz-adv-x="553" unicode="ű" d="M163 568l106 164h80l-136 -164h-50zM340 568l106 164h80l-136 -164h-50zM72 189v299h68v-290q0 -40 8.5 -69t24.5 -47t38.5 -26t50.5 -8q30 0 56 12t45.5 36t30.5 59t11 80v253h68v-488h-65v80h-3q-11 -23 -27 -40t-36.5 -28.5t-44 -17t-49.5 -5.5q-37 0 -69 11t-56 35 t-37.5 62.5t-13.5 91.5z"/>
<glyph glyph-name="Uogonek" horiz-adv-x="688" unicode="Ų" d="M322 -126q0 17 6.5 33.5t18 31.5t26.5 29t32 26q-7 -1 -14.5 -2t-15.5 -1.5t-15.5 -1t-15.5 -0.5q-61 0 -109.5 16.5t-84.5 50.5t-55 88t-19 127v417h71v-417q0 -53 12.5 -93.5t37.5 -68t62 -41.5t85 -14t84.5 14t62 41.5t38 68t12.5 93.5v417h71v-417q0 -45 -7.5 -82 t-21 -67t-33.5 -53t-45 -39q-25 -17 -46.5 -33.5t-39.5 -35t-29.5 -38t-11.5 -37.5q0 -12 3.5 -22t10.5 -17.5t19 -11.5t28 -4h30v-47h-39q-26 0 -46.5 5.5t-34 17t-20.5 28.5t-7 39z"/>
<glyph glyph-name="uogonek" horiz-adv-x="553" unicode="ų" d="M359 -128q0 16 4.5 31.5t13.5 31.5t23.5 32t33.5 33h-26v80h-3q-11 -23 -27 -40t-36.5 -28.5t-44 -17t-49.5 -5.5q-37 0 -69 11t-56 35t-37.5 62.5t-13.5 91.5v299h68v-290q0 -40 8.5 -69t24.5 -47t38.5 -26t50.5 -8q30 0 56 12t45.5 36t30.5 59t11 80v253h68v-488 q-15 -17 -27 -33t-19.5 -30.5t-11 -28t-3.5 -24.5q0 -12 3.5 -22t10.5 -17t19 -10.5t28 -3.5h30v-47h-39q-25 0 -45 6.5t-33.5 18.5t-20 28t-6.5 35z"/>
<glyph glyph-name="Wcircumflex" horiz-adv-x="918" unicode="Ŵ" d="M301 768l128 164h62l128 -164h-65l-94 123l-94 -123h-65zM199 0l-186 688h74l156 -614h4l172 614h86l172 -614h3l154 614h71l-183 -688h-89l-171 606h-3l-171 -606h-89z"/>
<glyph glyph-name="wcircumflex" horiz-adv-x="711" unicode="ŵ" d="M197 568l128 164h62l128 -164h-65l-94 123l-94 -123h-65zM153 0l-145 488h71l113 -417h4l121 417h80l121 -417h4l113 417h68l-145 -488h-82l-119 420h-3l-119 -420h-82z"/>
<glyph glyph-name="Ycircumflex" horiz-adv-x="594" unicode="Ŷ" d="M138 768l128 164h62l128 -164h-65l-94 123l-94 -123h-65zM260 0v274l-247 414h80l202 -341h3l209 341h74l-250 -409v-279h-71z"/>
<glyph glyph-name="ycircumflex" horiz-adv-x="460" unicode="ŷ" d="M70 568l128 164h62l128 -164h-65l-94 123l-94 -123h-65zM33 -169h27q23 0 41.5 7t33.5 20.5t26.5 32.5t20.5 45l18 49l-192 503h74l150 -414h3l149 414h68l-214 -571q-11 -30 -25 -55t-34 -45t-46.5 -32t-60.5 -12h-39v58z"/>
<glyph glyph-name="Ydieresis" horiz-adv-x="594" unicode="Ÿ" d="M165 768v90h68v-90h-68zM362 768v90h68v-90h-68zM260 0v274l-247 414h80l202 -341h3l209 341h74l-250 -409v-279h-71z"/>
<glyph glyph-name="Zacute" horiz-adv-x="575" unicode="Ź" d="M262 768l106 164h81l-137 -164h-50zM57 628v60h481v-46l-413 -582h409v-60h-497v46l413 582h-393z"/>
<glyph glyph-name="zacute" horiz-adv-x="433" unicode="ź" d="M188 568l106 164h81l-137 -164h-50zM31 433v55h367v-46l-277 -387h281v-55h-367v40l281 393h-285z"/>
<glyph glyph-name="Zdotaccent" horiz-adv-x="575" unicode="Ż" d="M254 768v90h68v-90h-68zM57 628v60h481v-46l-413 -582h409v-60h-497v46l413 582h-393z"/>
<glyph glyph-name="zdotaccent" horiz-adv-x="433" unicode="ż" d="M180 605v90h68v-90h-68zM31 433v55h367v-46l-277 -387h281v-55h-367v40l281 393h-285z"/>
<glyph glyph-name="Zcaron" horiz-adv-x="575" unicode="Ž" d="M257 768l-128 164h65l94 -123l94 123h65l-128 -164h-62zM57 628v60h481v-46l-413 -582h409v-60h-497v46l413 582h-393z"/>
<glyph glyph-name="zcaron" horiz-adv-x="433" unicode="ž" d="M183 568l-128 164h65l94 -123l94 123h65l-128 -164h-62zM31 433v55h367v-46l-277 -387h281v-55h-367v40l281 393h-285z"/>
<glyph glyph-name="florin" d="M106 305v50h129l19 181q4 42 17 73t33 51t46 29.5t57 9.5t55 -8.5t40 -26.5t22.5 -43t6.5 -51q0 -11 -1 -22l-3 -40h-62l3 40q1 10 1 18q0 13 -2.5 27.5t-10.5 26t-21 17.5t-31 6t-32 -6.5t-24.5 -20t-16.5 -33.5t-9 -47l-19 -181h155v-50h-160l-35 -334q-4 -42 -17 -73 t-33 -51t-46 -29.5t-57 -9.5t-55 8.5t-40 26.5t-22.5 43t-6.5 51q0 11 1 22l3 40h62l-3 -40q-1 -10 -1 -18q0 -13 2.5 -27.5t10.5 -26t21 -17.5t31 -6t32 6.5t24.5 20t16.5 33.5t9 47l35 334h-124z" unicode="ƒ"/>
<glyph glyph-name="AEacute" horiz-adv-x="1051" unicode="Ǽ" d="M547 768l106 164h81l-137 -164h-50zM535 606l-276 -380h277v380h-1zM11 0l501 688h480v-62h-385v-244h309v-62h-309v-258h393v-62h-464v164h-322l-119 -164h-84z"/>
<glyph glyph-name="aeacute" horiz-adv-x="844" unicode="ǽ" d="M387 568l106 164h81l-137 -164h-50zM597 440q-29 0 -53.5 -10.5t-44 -30.5t-32 -47.5t-17.5 -61.5h281q-2 36 -12.5 64t-28 47t-41.5 29t-52 10zM376 210v52q-4 -5 -10 -9t-13 -7t-15 -5t-18 -4l-103 -17q-25 -4 -44 -12t-31 -19.5t-18 -26t-6 -33.5q0 -20 7 -35.5 t20 -26.5t32.5 -16.5t43.5 -5.5q32 0 59.5 9.5t49.5 29.5t34 52t12 74zM69 336q3 41 19 72t42 51t59 30t71 10q30 0 55.5 -5.5t46.5 -16.5t37 -27.5t26 -38.5q14 21 32 37t39.5 27.5t47 17.5t53.5 6q44 0 82 -15.5t65.5 -46t43 -73.5t15.5 -97v-28h-356q0 -43 11 -78.5 t31.5 -60.5t49 -38.5t62.5 -13.5q28 0 51 7.5t39 21t26 32t14 39.5h67q-4 -33 -20.5 -62t-43 -51t-60.5 -34t-73 -12q-35 0 -65 8t-54.5 23t-43.5 36.5t-32 49.5q-15 -31 -36 -53.5t-46.5 -36.5t-54.5 -20.5t-60 -6.5q-37 0 -67 9.5t-50.5 27.5t-31 42.5t-10.5 54.5t9 53.5 t28 41.5t48.5 30.5t69.5 19.5l105 18q20 3 32 6.5t19.5 8t11 10.5t3.5 16q0 26 -7.5 47.5t-22 37t-36.5 23.5t-50 8q-25 0 -47.5 -6.5t-39.5 -20t-27 -34t-12 -46.5h-65z"/>
<glyph glyph-name="Oslashacute" horiz-adv-x="754" unicode="Ǿ" d="M351 768l106 164h81l-137 -164h-50zM633 344q0 29 -4.5 57t-12.5 53t-20.5 47.5t-27.5 41.5l-350 -432q16 -14 34 -24.5t38 -17.5t42 -11t45 -4q56 0 103.5 21.5t81.5 61t52.5 92.5t18.5 115zM121 344q0 -29 4 -57t12.5 -53.5t20.5 -48t27 -41.5l351 433 q-16 14 -34.5 24.5t-38.5 17.5t-41.5 11t-44.5 4q-56 0 -103.5 -21.5t-81.5 -61t-52.5 -92.5t-18.5 -115zM59 -12l81 100q-22 24 -39.5 52.5t-29.5 61t-18 68.5t-6 74q0 76 24 141t68.5 113t105 74.5t132.5 26.5q29 0 56.5 -4.5t53 -13.5t48.5 -22t44 -30l57 71h59l-82 -102 q22 -24 39.5 -52t29.5 -60.5t18.5 -68t6.5 -73.5q0 -75 -24.5 -140.5t-69.5 -113.5t-105.5 -74.5t-130.5 -26.5q-29 0 -57 4.5t-53.5 13.5t-48.5 21.5t-44 28.5l-55 -69h-60z"/>
<glyph glyph-name="oslashacute" horiz-adv-x="550" unicode="ǿ" d="M249 568l106 164h81l-137 -164h-50zM436 244q0 19 -2 37t-6.5 34t-11 30t-14.5 26l-229 -285q10 -9 21.5 -16.5t24.5 -12t27 -7t29 -2.5q35 0 64.5 14t51 40t33.5 62.5t12 79.5zM114 244q0 -19 2 -36.5t6.5 -33.5t11 -30.5t14.5 -26.5l229 285q-10 9 -21.5 16t-24.5 12 t-27 7.5t-29 2.5q-35 0 -64.5 -14t-51 -40t-33.5 -62.5t-12 -79.5zM44 -12l59 74q-14 17 -25.5 36.5t-19 42.5t-11.5 49t-4 54q0 57 17 104t48.5 81t74.5 52t92 18q21 0 40.5 -3t37.5 -9t34.5 -14.5t30.5 -19.5l38 47h50l-60 -74q15 -17 26 -36.5t19 -43t12 -49t4 -53.5 q0 -57 -17 -104t-48.5 -81t-74.5 -52t-92 -18q-21 0 -41 3t-37.5 9t-34 14.5t-30.5 19.5l-38 -47h-50z"/>
<glyph glyph-name="Scommaaccent" horiz-adv-x="638" unicode="Ș" d="M282 -66h68v-74l-36 -103h-31l27 97h-28v80zM59 192h71q0 -33 13 -59.5t37.5 -45.5t59 -29t77.5 -10q44 0 79 9.5t59 28t36.5 44.5t12.5 59q0 31 -13 53t-35.5 36t-51 22.5t-66.5 14.5l-45 8q-51 9 -88 20t-68 30t-49.5 52t-18.5 81q0 42 17.5 77.5t50 61.5t78 40 t100.5 14q54 0 99 -12.5t77.5 -37t50.5 -60t18 -80.5h-71q0 31 -13 55.5t-36.5 41.5t-55 25.5t-69.5 8.5q-37 0 -69 -8.5t-55.5 -25t-36.5 -40.5t-13 -54q0 -32 13.5 -53.5t37.5 -34.5t53.5 -21t71.5 -15l45 -8q49 -9 85 -20t66 -31.5t47.5 -54t17.5 -82.5 q0 -45 -17.5 -82.5t-51.5 -64.5t-82.5 -41.5t-109.5 -14.5q-60 0 -108 14t-81.5 40.5t-51 64t-17.5 84.5z"/>
<glyph glyph-name="scommaaccent" horiz-adv-x="481" unicode="ș" d="M201 -66h68v-74l-36 -103h-31l27 97h-28v80zM40 138h65q0 -24 10.5 -42.5t29 -30.5t42 -17.5t48.5 -5.5q31 0 55.5 6t41.5 18t26 29t9 39q0 17 -5.5 29.5t-16 21.5t-27 15t-38.5 10l-92 16q-28 5 -52 13t-43 22.5t-30.5 37t-11.5 54.5q0 34 14 61t39.5 46t60 29t73.5 10 q38 0 71.5 -8.5t59.5 -26t40.5 -45t14.5 -64.5h-65q0 22 -9 39.5t-25.5 29t-38.5 17t-48 5.5t-48 -5.5t-38.5 -16.5t-25.5 -27.5t-9 -37.5q0 -17 6 -29.5t17.5 -21t28.5 -14.5t40 -10l92 -16q31 -6 55 -14.5t41.5 -23.5t27.5 -37t10 -53q0 -37 -14.5 -65.5t-41.5 -47.5 t-63.5 -28.5t-80.5 -9.5q-42 0 -77.5 9.5t-62 28t-41 46.5t-14.5 65z"/>
<glyph glyph-name="uni021A" horiz-adv-x="579" unicode="Ț" d="M257 -66h68v-74l-36 -103h-31l27 97h-28v80zM8 628v60h563v-60h-246v-628h-71v628h-246z"/>
<glyph glyph-name="uni021B" horiz-adv-x="317" unicode="ț" d="M148 -66h68v-74l-36 -103h-31l27 97h-28v80zM92 140v293h-96v55h96v148h68v-148h133v-55h-133v-290q0 -23 4.5 -39t14 -26t24 -14.5t35.5 -4.5h55v-59h-64q-34 0 -60 8.5t-43 25.5t-25.5 43.5t-8.5 62.5z"/>
<glyph glyph-name="circumflex" horiz-adv-x="550" unicode="ˆ" d="M116 568l128 164h62l128 -164h-65l-94 123l-94 -123h-65z"/>
<glyph glyph-name="tilde" horiz-adv-x="550" unicode="˜" d="M120 600q1 21 7 39t17 31.5t27 21t36 7.5q19 0 37 -6.5t42.5 -20t37 -19t24.5 -5.5q11 0 19 4.5t13.5 12t8.5 16.5t5 19h38q-1 -20 -7 -38t-17 -31.5t-27 -21.5t-36 -8q-19 0 -37 6.5t-42.5 20t-37 19t-24.5 5.5q-11 0 -19 -4.5t-13.5 -12t-8.5 -16.5t-5 -19h-38z"/>
<glyph glyph-name="uni0394" horiz-adv-x="629" unicode="Δ" d="M314 624h-2l-195 -565h391zM29 0l244 688h83l244 -688h-571z"/>
<glyph glyph-name="uni03BC" horiz-adv-x="562" unicode="μ" d="M417 0v80h-3q-11 -23 -27 -40t-36.5 -28.5t-44 -17t-49.5 -5.5q-17 0 -33 2.5t-31 7.5t-28.5 13t-24.5 19q2 -18 3.5 -41.5t2.5 -48t1.5 -46.5t0.5 -38v-77h-68v708h68v-290q0 -41 8.5 -69.5t24.5 -46.5t38.5 -26t51.5 -8q30 0 56 12t45.5 35.5t30.5 58t11 78.5v256h67 v-488h-64z"/>
<glyph glyph-name="pi" horiz-adv-x="579" unicode="π" d="M86 0v488h407v-488h-68v429h-271v-429h-68z"/>
<glyph glyph-name="endash" horiz-adv-x="556" unicode="–" d="M60 221v62h436v-62h-436z"/>
<glyph glyph-name="emdash" horiz-adv-x="840" unicode="—" d="M60 221v62h720v-62h-720z"/>
<glyph glyph-name="quoteleft" horiz-adv-x="231" unicode="‘" d="M76 436v100l39 152h37l-29 -146h33v-106h-80z"/>
<glyph glyph-name="quotesinglbase" horiz-adv-x="231" unicode="‚" d="M108 0h-33v106h80v-100l-39 -152h-37z"/>
<glyph glyph-name="quotedblleft" horiz-adv-x="403" unicode="“" d="M248 436v100l38 152h38l-29 -146h33v-106h-80zM76 436v100l39 152h37l-29 -146h33v-106h-80z"/>
<glyph glyph-name="quotedblright" horiz-adv-x="403" unicode="”" d="M251 436l29 146h-33v106h80v-100l-39 -152h-37zM79 436l29 146h-33v106h80v-100l-39 -152h-37z"/>
<glyph glyph-name="dagger" horiz-adv-x="430" unicode="†" d="M44 457v56h140v175h62v-175h140v-56h-140v-457h-62v457h-140z"/>
<glyph glyph-name="daggerdbl" horiz-adv-x="430" unicode="‡" d="M44 457v56h140v175h62v-175h140v-56h-140v-229h140v-56h-140v-172h-62v172h-140v56h140v229h-140z"/>
<glyph glyph-name="ellipsis" horiz-adv-x="719" unicode="…" d="M79 0v111h86v-111h-86zM317 0v111h86v-111h-86zM555 0v111h86v-111h-86z"/>
<glyph glyph-name="perthousand" horiz-adv-x="1116" unicode="‰" d="M940 39q21 0 37 9t26.5 26.5t16 42t5.5 55.5t-5.5 55.5t-16 42t-26.5 26.5t-37 9t-37 -9t-26.5 -26.5t-16 -42t-5.5 -55.5t5.5 -55.5t16.5 -42t27 -26.5t36 -9zM940 -8q-36 0 -63.5 13.5t-45.5 38t-26.5 57.5t-8.5 71t8.5 71t26.5 57.5t45.5 38t63.5 13.5t63.5 -13.5 t45.5 -38t26.5 -57.5t8.5 -71t-8.5 -71t-26.5 -57.5t-45.5 -38t-63.5 -13.5zM588 39q21 0 37 9t26.5 26.5t16 42t5.5 55.5t-5.5 55.5t-16 42t-26.5 26.5t-37 9t-37 -9t-26.5 -26.5t-16 -42t-5.5 -55.5t5.5 -55.5t16.5 -42t27 -26.5t36 -9zM588 -8q-36 0 -63.5 13.5t-45.5 38 t-26.5 57.5t-8.5 71t8.5 71t26.5 57.5t45.5 38t63.5 13.5t63.5 -13.5t45.5 -38t26.5 -57.5t8.5 -71t-8.5 -71t-26.5 -57.5t-45.5 -38t-63.5 -13.5zM181 -12q29 60 73.5 151t93 189t182.5 372h53l-349 -712h-53zM176 383q21 0 37 9t26.5 26.5t16 42t5.5 55.5t-5.5 55.5 t-16 42t-26.5 26.5t-37 9t-37 -9t-26.5 -26.5t-16 -42t-5.5 -55.5t5.5 -55.5t16.5 -42t27 -26.5t36 -9zM176 336q-36 0 -63.5 13.5t-45.5 38t-26.5 57.5t-8.5 71t8.5 71t26.5 57.5t45.5 38t63.5 13.5t63.5 -13.5t45.5 -38t26.5 -57.5t8.5 -71t-8.5 -71t-26.5 -57.5 t-45.5 -38t-63.5 -13.5z"/>
<glyph glyph-name="guilsinglleft" horiz-adv-x="311" unicode="‹" d="M200 48l-145 204l145 204h56l-124 -204l124 -204h-56z"/>
<glyph glyph-name="guilsinglright" horiz-adv-x="311" unicode="›" d="M55 48l124 204l-124 204h55l146 -204l-146 -204h-55z"/>
<glyph glyph-name="fraction" horiz-adv-x="60" unicode="⁄" d="M-171 -12q29 60 73.5 151t93 189t182.5 372h53l-349 -712h-53z"/>
<glyph glyph-name="Euro" d="M21 403l12 44h61q9 56 28.5 102.5t50 80t72 51.5t92.5 18q45 0 80 -12t61 -35.5t43 -56.5t26 -75h-66q-8 30 -20.5 52t-29.5 37t-39.5 23t-51.5 8q-36 0 -65 -13t-51 -38t-36.5 -61t-22.5 -81h212l-12 -44h-206q0 -9 -0.5 -15.5t-1 -14t-0.5 -15v-14.5v-13.5v-11.5 t0.5 -12t0.5 -11h200l-11 -44h-184q7 -48 21.5 -85.5t37 -64t52 -40.5t66.5 -14q27 0 48 6.5t37.5 19t28 31t20.5 43.5h66q-10 -39 -27 -68t-41.5 -49.5t-58 -31t-76.5 -10.5q-53 0 -95 19t-72.5 54t-50 83t-27.5 107h-90l12 44h74q0 7 -0.5 12.5t-1 11.5t-0.5 12v12v14.5 t0.5 15t1 14t0.5 15.5h-67z" unicode="€"/>
<glyph glyph-name="trademark" horiz-adv-x="784" unicode="™" d="M5 641v47h299v-47h-120v-297h-56v297h-123zM353 344v344h77l116 -270h3l117 270h77v-344h-56l3 267h-3l-116 -267h-47l-115 267h-3l3 -267h-56z"/>
<glyph glyph-name="uni2190" horiz-adv-x="660" unicode="←" d="M303 46l-35 -33l-240 239l240 239l35 -33l-187 -184q17 1 40 1.5t46.5 1t41.5 0.5h34h354v-50h-354h-34t-41.5 0.5t-46.5 1t-40 1.5z"/>
<glyph glyph-name="uni2191" horiz-adv-x="660" unicode="↑" d="M124 279l-33 35l239 240l239 -240l-33 -35l-184 187q1 -17 1.5 -40t1 -46.5t0.5 -41v-34.5v-354h-50v354v34.5t0.5 41t1 46.5t1.5 40z"/>
<glyph glyph-name="uni2192" horiz-adv-x="660" unicode="→" d="M392 13l-35 33l186 184q-16 -1 -39 -1.5t-46.5 -1t-41 -0.5h-34.5h-354v50h354h34.5t41 -0.5t46.5 -1t39 -1.5l-186 184l35 33l240 -239z"/>
<glyph glyph-name="uni2193" horiz-adv-x="660" unicode="↓" d="M536 225l33 -35l-239 -240l-239 240l33 35l184 -187q-1 17 -1.5 40t-1 46.5t-0.5 41.5v34v354h50v-354v-34t-0.5 -41.5t-1 -46.5t-1.5 -40z"/>
<glyph glyph-name="partialdiff" d="M241 48q35 0 68 14.5t58.5 39.5t40 58t14.5 69q0 37 -12 66t-33 48t-48 28.5t-57 9.5q-37 0 -69.5 -13.5t-56.5 -38t-37 -59t-13 -75.5q0 -33 11 -60.5t30.5 -47t46 -29.5t57.5 -10zM25 192q0 55 18.5 101t52 79t78 50.5t95.5 17.5q28 0 56 -7t52 -20.5t42 -33.5t26 -46 q1 11 1.5 19t1 16.5t1 17.5t0.5 17q0 63 -12 108.5t-34 74t-50 41.5t-60 13q-33 0 -59 -9.5t-44.5 -26t-30.5 -39t-18 -49.5h-67q9 41 27 74.5t46 58t66 37.5t86 13q45 0 84.5 -17t70.5 -52.5t48.5 -92.5t17.5 -134q0 -102 -21.5 -180.5t-60 -130t-91 -77.5t-115.5 -26 q-42 0 -79.5 14t-66.5 40t-45 64t-16 85z" unicode="∂"/>
<glyph glyph-name="product" horiz-adv-x="711" unicode="∏" d="M94 0v688h523v-688h-68v629h-387v-629h-68z"/>
<glyph glyph-name="summation" horiz-adv-x="519" unicode="∑" d="M26 0v41l224 300l-218 301v46h452v-59h-365l209 -285l-219 -285h389v-59h-472z"/>
<glyph glyph-name="minus" d="M57 224v59h454v-59h-454z" unicode="−"/>
<glyph glyph-name="radical" horiz-adv-x="588" unicode="√" d="M32 318v59l131 41l139 -343h3l220 613h68l-249 -688h-77l-146 346z"/>
<glyph glyph-name="infinity" horiz-adv-x="708" unicode="∞" d="M387 252q14 -21 28.5 -38.5t32.5 -32.5t38 -24.5t42 -9.5t40 8.5t30.5 23t19.5 33.5t7 40t-7 40t-19.5 33.5t-30.5 23t-40 8.5t-42 -9.5t-38 -24.5t-32.5 -32.5t-28.5 -38.5zM180 147q22 0 42 9.5t38 24.5t32.5 32.5t28.5 38.5q-14 21 -28.5 38.5t-32.5 32.5t-38 24.5 t-42 9.5t-40 -8.5t-30.5 -23t-19.5 -33.5t-7 -40t7 -40t19.5 -33.5t30.5 -23t40 -8.5zM182 91q-35 0 -64 12t-50 33.5t-32 51t-11 64.5t11 64.5t32 51t50 33.5t64 12q26 0 51 -9t47 -25t40.5 -37t34.5 -45q17 25 35.5 45.5t40 36.5t45.5 25t50 9q35 0 64 -12t50 -33.5 t32 -51t11 -64.5t-11 -64.5t-32 -51t-50 -33.5t-64 -12q-26 0 -51 9t-47 24.5t-40.5 36.5t-34.5 45q-17 -24 -35.5 -45t-40 -36.5t-45.5 -24.5t-50 -9z"/>
<glyph glyph-name="approxequal" d="M63 80q0 35 9 62.5t25.5 45t38 26.5t46.5 9q30 0 55.5 -10.5t57.5 -31.5t51 -30.5t40 -9.5q14 0 25 5t19 15t12 26t4 38h59q0 -35 -9 -62.5t-25 -45t-37 -26.5t-45 -9q-30 0 -56 11t-59 33t-52 31.5t-40 9.5q-14 0 -25 -5t-19 -16t-12 -27.5t-4 -38.5h-59zM63 286 q0 35 9 62.5t25.5 45t38 26.5t46.5 9q30 0 55.5 -10.5t57.5 -31.5t51 -30.5t40 -9.5q14 0 25 5t19 15t12 26t4 38h59q0 -35 -9 -62.5t-25 -45t-37 -26.5t-45 -9q-30 0 -56 11t-59 33t-52 31.5t-40 9.5q-14 0 -25 -5t-19 -16t-12 -27.5t-4 -38.5h-59z" unicode="≈"/>
<glyph glyph-name="notequal" d="M57 329v59h266l80 144l50 -28l-64 -116h122v-59h-155l-83 -150h238v-59h-270l-80 -144l-50 28l64 116h-118v59h150l83 150h-233z" unicode="≠"/>
<glyph glyph-name="lessequal" d="M73 0v59h422v-59h-422zM73 308v59l422 180v-62l-354 -147l354 -145v-65z" unicode="≤"/>
<glyph glyph-name="greaterequal" d="M73 0v59h422v-59h-422zM495 367v-59l-422 -180v62l354 145l-354 147v65z" unicode="≥"/>
<glyph glyph-name="lozenge" horiz-adv-x="642" unicode="◊" d="M321 633h-2l-209 -287l212 -291h2l208 287zM289 0l-252 344l252 344h65l250 -344l-250 -344h-65z"/>
</font>
</defs>
</svg>
